<?xml version="1.0" encoding="UTF-8" standalone="no"?>
<svg
   xmlns:dc="http://purl.org/dc/elements/1.1/"
   xmlns:cc="http://creativecommons.org/ns#"
   xmlns:rdf="http://www.w3.org/1999/02/22-rdf-syntax-ns#"
   xmlns:svg="http://www.w3.org/2000/svg"
   xmlns="http://www.w3.org/2000/svg"
   xmlns:sodipodi="http://sodipodi.sourceforge.net/DTD/sodipodi-0.dtd"
   xmlns:inkscape="http://www.inkscape.org/namespaces/inkscape"
   width="297mm"
   height="210mm"
   viewBox="0 0 297 210"
   version="1.1"
   id="svg8"
   inkscape:version="1.0.2-2 (e86c870879, 2021-01-15)"
   sodipodi:docname="Depictor Text.svg">
  <defs
     id="defs2">
    <inkscape:path-effect
       effect="powerstroke"
       id="path-effect1149"
       is_visible="true"
       lpeversion="1"
       offset_points="3,0.9"
       sort_points="true"
       interpolator_type="CubicBezierJohan"
       interpolator_beta="0.2"
       start_linecap_type="zerowidth"
       linejoin_type="extrp_arc"
       miter_limit="4"
       scale_width="1"
       end_linecap_type="zerowidth" />
    <inkscape:path-effect
       effect="skeletal"
       id="path-effect1145"
       is_visible="true"
       lpeversion="1"
       pattern="M 0,5 C 0,2.24 2.24,0 5,0 7.76,0 10,2.24 10,5 10,7.76 7.76,10 5,10 2.24,10 0,7.76 0,5 Z"
       copytype="single_stretched"
       prop_scale="1"
       scale_y_rel="false"
       spacing="0"
       normal_offset="0"
       tang_offset="0"
       prop_units="false"
       vertical_pattern="false"
       hide_knot="false"
       fuse_tolerance="0" />
    <inkscape:path-effect
       effect="powerstroke"
       id="path-effect1137"
       is_visible="true"
       lpeversion="1"
       offset_points="0,0.9"
       sort_points="true"
       interpolator_type="CubicBezierJohan"
       interpolator_beta="0.2"
       start_linecap_type="zerowidth"
       linejoin_type="extrp_arc"
       miter_limit="4"
       scale_width="1"
       end_linecap_type="zerowidth" />
    <inkscape:path-effect
       effect="powerstroke"
       id="path-effect1133"
       is_visible="true"
       lpeversion="1"
       offset_points="0,0.9"
       sort_points="true"
       interpolator_type="CubicBezierJohan"
       interpolator_beta="0.2"
       start_linecap_type="zerowidth"
       linejoin_type="extrp_arc"
       miter_limit="4"
       scale_width="1"
       end_linecap_type="zerowidth" />
    <marker
       style="overflow:visible"
       id="Arrow1Lend"
       refX="0"
       refY="0"
       orient="auto"
       inkscape:stockid="Arrow1Lend"
       inkscape:isstock="true">
      <path
         transform="matrix(-0.8,0,0,-0.8,-10,0)"
         style="fill:#000000;fill-opacity:1;fill-rule:evenodd;stroke:#000000;stroke-width:1pt;stroke-opacity:1"
         d="M 0,0 5,-5 -12.5,0 5,5 Z"
         id="path852" />
    </marker>
    <inkscape:path-effect
       effect="powerstroke"
       id="path-effect847"
       is_visible="true"
       lpeversion="1"
       offset_points="0,0.9"
       sort_points="true"
       interpolator_type="CubicBezierJohan"
       interpolator_beta="0.2"
       start_linecap_type="zerowidth"
       linejoin_type="extrp_arc"
       miter_limit="4"
       scale_width="1"
       end_linecap_type="zerowidth" />
    <inkscape:path-effect
       effect="powerstroke"
       id="path-effect835"
       is_visible="true"
       lpeversion="1"
       offset_points="0,0.1322915"
       sort_points="true"
       interpolator_type="CubicBezierJohan"
       interpolator_beta="0.2"
       start_linecap_type="zerowidth"
       linejoin_type="extrp_arc"
       miter_limit="4"
       scale_width="1"
       end_linecap_type="zerowidth" />
  </defs>
  <sodipodi:namedview
     id="base"
     pagecolor="#ffffff"
     bordercolor="#666666"
     borderopacity="1.0"
     inkscape:pageopacity="0.0"
     inkscape:pageshadow="2"
     inkscape:zoom="0.96377841"
     inkscape:cx="486.11524"
     inkscape:cy="312.15021"
     inkscape:document-units="mm"
     inkscape:current-layer="layer1"
     inkscape:document-rotation="0"
     showgrid="false"
     inkscape:window-width="1920"
     inkscape:window-height="1017"
     inkscape:window-x="1912"
     inkscape:window-y="-8"
     inkscape:window-maximized="1" />
  <metadata
     id="metadata5">
    <rdf:RDF>
      <cc:Work
         rdf:about="">
        <dc:format>image/svg+xml</dc:format>
        <dc:type
           rdf:resource="http://purl.org/dc/dcmitype/StillImage" />
        <dc:title></dc:title>
      </cc:Work>
    </rdf:RDF>
  </metadata>
  <g
     inkscape:label="Ebene 1"
     inkscape:groupmode="layer"
     id="layer1">
    <path
       style="color:#000000;font-style:normal;font-variant:normal;font-weight:normal;font-stretch:normal;font-size:medium;line-height:normal;font-family:sans-serif;font-variant-ligatures:normal;font-variant-position:normal;font-variant-caps:normal;font-variant-numeric:normal;font-variant-alternates:normal;font-variant-east-asian:normal;font-feature-settings:normal;font-variation-settings:normal;text-indent:0;text-align:start;text-decoration:none;text-decoration-line:none;text-decoration-style:solid;text-decoration-color:#000000;letter-spacing:normal;word-spacing:normal;text-transform:none;writing-mode:lr-tb;direction:ltr;text-orientation:mixed;dominant-baseline:auto;baseline-shift:baseline;text-anchor:start;white-space:normal;shape-padding:0;shape-margin:0;inline-size:0;clip-rule:nonzero;display:inline;overflow:visible;visibility:visible;isolation:auto;mix-blend-mode:normal;color-interpolation:sRGB;color-interpolation-filters:linearRGB;solid-color:#000000;solid-opacity:1;vector-effect:none;fill:#000000;fill-opacity:1;fill-rule:nonzero;stroke:none;stroke-linecap:butt;stroke-linejoin:round;stroke-miterlimit:4;stroke-dasharray:none;stroke-dashoffset:0;stroke-opacity:1;color-rendering:auto;image-rendering:auto;shape-rendering:auto;text-rendering:auto;enable-background:accumulate;stop-color:#000000;stop-opacity:1;opacity:1"
       d="M 9.7734375 69.759766 A 0.60006002 0.60006002 0 0 0 9.1816406 70.492188 L 10.199219 75.015625 L 10.171875 75.050781 L 6.6035156 74.242188 A 0.60006002 0.60006002 0 0 0 6.1210938 75.314453 L 8.6308594 77.117188 L 5.609375 81.166016 A 0.60006002 0.60006002 0 0 0 5.5390625 81.763672 L 9.9082031 91.822266 L 6.3085938 104.95117 A 0.60006002 0.60006002 0 0 0 6.2890625 105.17188 L 7.0800781 112.76562 L 6.9335938 113.14648 L 6.640625 112.95508 L 5.9824219 113.95898 L 6.4921875 114.29297 L 5.3671875 117.22266 A 0.60006002 0.60006002 0 0 0 5.5585938 117.91016 L 7.796875 119.6543 L 8.0566406 122.16602 L 5.1210938 127.43359 L 6.1679688 128.01758 L 8.2734375 124.24219 L 8.5410156 126.81445 A 0.60006002 0.60006002 0 0 0 9.4335938 127.27539 L 14.152344 124.61133 L 18.863281 128.28516 A 0.60006002 0.60006002 0 0 0 19.568359 128.30859 L 23.65625 125.55273 L 26.667969 127.5293 A 0.60006002 0.60006002 0 0 0 27.427734 127.44727 L 31.734375 123.02148 L 41.728516 124.98242 A 0.60006002 0.60006002 0 0 0 42.441406 124.45508 L 42.798828 120.98828 L 45.060547 121.29688 A 0.60006002 0.60006002 0 0 0 45.71875 120.86914 L 46.990234 116.42773 L 49.763672 115.64648 A 0.60006002 0.60006002 0 0 0 50.181641 114.91602 L 48.853516 109.92383 L 52.783203 96.208984 A 0.60006002 0.60006002 0 0 0 52.650391 95.642578 L 50.652344 93.425781 L 52.369141 89.082031 A 0.60006002 0.60006002 0 0 0 52.326172 88.552734 L 49.027344 83.054688 L 49.957031 79.402344 A 0.60006002 0.60006002 0 0 0 49.396484 78.654297 L 46.324219 78.546875 L 43.480469 73.806641 A 0.60006002 0.60006002 0 0 0 42.90625 73.519531 L 36.126953 74.203125 L 34.248047 71.277344 A 0.60006002 0.60006002 0 0 0 33.525391 71.041016 L 26.804688 73.642578 L 16.775391 71.347656 L 14.396484 70.203125 A 0.60006002 0.60006002 0 0 0 13.654297 70.384766 L 13.496094 70.597656 L 9.9023438 69.775391 A 0.60006002 0.60006002 0 0 0 9.7734375 69.759766 z M 10.5625 71.158203 L 12.710938 71.648438 L 11.144531 73.748047 L 10.5625 71.158203 z M 13.990234 71.941406 L 16.371094 72.486328 L 22.355469 75.365234 L 18.367188 76.908203 L 11.505859 75.353516 L 11.492188 75.289062 L 13.990234 71.941406 z M 33.501953 72.337891 L 34.787109 74.337891 L 31.357422 74.683594 L 28.896484 74.121094 L 33.501953 72.337891 z M 21.654297 73.695312 L 24.806641 74.416016 L 23.890625 74.769531 L 21.654297 73.695312 z M 42.646484 74.751953 L 44.892578 78.496094 L 38.746094 78.28125 L 36.855469 75.335938 L 42.646484 74.751953 z M 26.896484 74.894531 L 31.185547 75.875 A 0.60006002 0.60006002 0 0 0 31.378906 75.888672 L 35.513672 75.470703 L 37.285156 78.230469 L 30.595703 77.996094 L 25.373047 75.484375 L 26.896484 74.894531 z M 9.2226562 76.066406 L 9.3867188 76.103516 L 9.3476562 76.15625 L 9.2226562 76.066406 z M 23.837891 76.078125 L 30.189453 79.132812 A 0.60006002 0.60006002 0 0 0 30.427734 79.191406 L 38.074219 79.458984 L 42.082031 85.699219 A 0.60006002 0.60006002 0 0 0 42.142578 85.777344 L 46.005859 90.0625 L 44.248047 96.970703 A 0.60006002 0.60006002 0 0 0 44.25 97.271484 L 45.693359 102.70312 L 42.730469 110.19531 A 0.60006002 0.60006002 0 0 0 42.691406 110.35547 L 42.048828 116.57422 L 34.636719 118.66211 A 0.60006002 0.60006002 0 0 0 34.1875 118.78711 L 29.740234 120.04102 A 0.60006002 0.60006002 0 0 0 29.568359 120.12109 L 28.130859 121.08984 L 20.798828 119.65039 A 0.60006002 0.60006002 0 0 0 20.386719 119.7168 L 18.537109 120.75977 L 12.443359 116.76172 L 17.701172 107.33398 A 0.60006002 0.60006002 0 0 0 17.726562 106.80273 L 13.974609 98.167969 L 15.589844 93.962891 A 0.60006002 0.60006002 0 0 0 15.615234 93.615234 L 13.382812 83.691406 L 14.333984 80.220703 A 0.60006002 0.60006002 0 0 0 14.105469 79.576172 L 12.138672 78.162109 L 11.798828 76.650391 L 18.279297 78.119141 A 0.60006002 0.60006002 0 0 0 18.628906 78.09375 L 23.837891 76.078125 z M 10.546875 76.556641 L 10.669922 77.105469 L 10.322266 76.855469 L 10.546875 76.556641 z M 9.6035156 77.818359 L 11.066406 78.869141 L 12.146484 83.664062 L 10.414062 89.976562 L 6.7773438 81.605469 L 9.6035156 77.818359 z M 39.535156 79.509766 L 45.628906 79.722656 L 47.742188 83.244141 L 46.361328 88.666016 L 43.066406 85.009766 L 39.535156 79.509766 z M 47.060547 79.773438 L 48.611328 79.828125 L 48.158203 81.605469 L 47.060547 79.773438 z M 12.535156 79.923828 L 13.066406 80.306641 L 12.822266 81.199219 L 12.535156 79.923828 z M 48.611328 84.693359 L 51.144531 88.916016 L 49.755859 92.429688 L 47.326172 89.736328 L 48.611328 84.693359 z M 12.707031 86.15625 L 14.404297 93.701172 L 13.291016 96.597656 L 11.177734 91.730469 L 12.707031 86.15625 z M 46.970703 91.132812 L 49.263672 93.673828 L 46.435547 100.82422 L 45.449219 97.115234 L 46.970703 91.132812 z M 10.671875 93.576172 L 12.677734 98.195312 L 8.0292969 110.29492 L 7.4941406 105.16016 L 10.671875 93.576172 z M 50.160156 94.669922 L 51.537109 96.197266 L 48.253906 107.66211 L 46.955078 102.77734 L 50.160156 94.669922 z M 13.359375 99.765625 L 16.507812 107.00977 L 11.4375 116.10352 L 8.4277344 114.12695 L 8.3027344 112.92773 L 13.359375 99.765625 z M 46.212891 104.6543 L 47.609375 109.91211 L 46.021484 115.45508 L 43.291016 116.22266 L 43.876953 110.56055 L 46.212891 104.6543 z M 48.210938 112.17188 L 48.869141 114.65234 L 47.378906 115.07227 L 48.210938 112.17188 z M 7.3535156 115.39844 L 7.6230469 118 L 6.6464844 117.23828 L 7.3535156 115.39844 z M 8.5878906 115.66797 L 10.851562 117.1543 L 9.5449219 119.49805 L 8.9375 119.02344 L 8.5878906 115.66797 z M 45.632812 116.81055 L 44.708984 120.03906 L 42.923828 119.79492 L 43.160156 117.50781 L 45.632812 116.81055 z M 11.857422 117.8125 L 17.361328 121.42383 L 14.259766 123.17383 L 10.501953 120.24414 L 11.857422 117.8125 z M 41.916016 117.85742 L 41.734375 119.63281 L 37.615234 119.06836 L 41.916016 117.85742 z M 34.779297 119.89258 L 41.609375 120.82617 L 41.316406 123.67773 L 32.734375 121.99414 L 34.779297 119.89258 z M 32.503906 120.50977 L 31.328125 121.7168 L 29.792969 121.41602 L 30.158203 121.16992 L 32.503906 120.50977 z M 20.783203 120.87109 L 26.724609 122.03711 L 23.646484 124.11133 L 19.667969 121.5 L 20.783203 120.87109 z M 9.9121094 121.30469 L 13.128906 123.8125 L 9.640625 125.78125 L 9.2890625 122.41797 L 9.9121094 121.30469 z M 18.490234 122.16406 L 22.568359 124.83984 L 19.257812 127.07031 L 15.285156 123.97266 L 18.490234 122.16406 z M 28.386719 122.36328 L 30.328125 122.74414 L 26.912109 126.25391 L 24.734375 124.82617 L 28.386719 122.36328 z "
       id="path1163" />
    <path
       style="color:#000000;font-style:normal;font-variant:normal;font-weight:normal;font-stretch:normal;font-size:medium;line-height:normal;font-family:sans-serif;font-variant-ligatures:normal;font-variant-position:normal;font-variant-caps:normal;font-variant-numeric:normal;font-variant-alternates:normal;font-variant-east-asian:normal;font-feature-settings:normal;font-variation-settings:normal;text-indent:0;text-align:start;text-decoration:none;text-decoration-line:none;text-decoration-style:solid;text-decoration-color:#000000;letter-spacing:normal;word-spacing:normal;text-transform:none;writing-mode:lr-tb;direction:ltr;text-orientation:mixed;dominant-baseline:auto;baseline-shift:baseline;text-anchor:start;white-space:normal;shape-padding:0;shape-margin:0;inline-size:0;clip-rule:nonzero;display:inline;overflow:visible;visibility:visible;isolation:auto;mix-blend-mode:normal;color-interpolation:sRGB;color-interpolation-filters:linearRGB;solid-color:#000000;solid-opacity:1;vector-effect:none;fill:#000000;fill-opacity:1;fill-rule:nonzero;stroke:none;stroke-linecap:butt;stroke-linejoin:round;stroke-miterlimit:4;stroke-dasharray:none;stroke-dashoffset:0;stroke-opacity:1;color-rendering:auto;image-rendering:auto;shape-rendering:auto;text-rendering:auto;enable-background:accumulate;stop-color:#000000;stop-opacity:1;opacity:1"
       d="M 81.121094 85.183594 A 0.45004499 0.45004499 0 0 0 80.898438 85.242188 L 74.261719 89.005859 L 68.914062 87.539062 A 0.45004499 0.45004499 0 0 0 68.347656 87.923828 L 68.021484 90.886719 L 64.341797 90.826172 A 0.45004499 0.45004499 0 0 0 63.884766 91.257812 L 63.724609 94.980469 L 61.011719 96.517578 A 0.45004499 0.45004499 0 0 0 60.810547 97.066406 L 62.330078 101.13867 L 60.226562 100.36914 L 60.072266 100.79102 L 59.794922 101.14844 L 61.78125 102.69336 L 59.859375 104.54492 A 0.45004499 0.45004499 0 0 0 59.820312 105.14844 L 63.107422 109.2832 L 63.029297 111.06055 L 59.949219 114.36523 A 0.45004499 0.45004499 0 0 0 60.095703 115.08398 L 62.804688 116.2793 L 62.648438 119.89062 A 0.45004499 0.45004499 0 0 0 63.015625 120.35352 L 65.921875 120.88281 L 65.662109 122.95898 A 0.45004499 0.45004499 0 0 0 66.152344 123.46289 L 70.501953 123.03711 L 72 127.04883 A 0.45004499 0.45004499 0 0 0 72.576172 127.3125 L 78.443359 125.15234 L 81.025391 127.87305 A 0.45004499 0.45004499 0 0 0 81.746094 127.7793 L 83.132812 125.25195 L 86.214844 126.61133 A 0.45004499 0.45004499 0 0 0 86.841797 126.27344 L 87.095703 124.74219 L 89.517578 125.18359 A 0.45004499 0.45004499 0 0 0 90.048828 124.72852 L 89.958984 121.41797 L 92.392578 122.06641 A 0.45004499 0.45004499 0 0 0 92.925781 121.46289 L 92.349609 120.03516 L 95.572266 118.84961 A 0.45004499 0.45004499 0 0 0 95.816406 118.21875 L 93.482422 113.75586 A 0.45004499 0.45004499 0 0 0 92.833984 113.58984 L 90.402344 115.21289 L 89.714844 113.50781 A 0.45004499 0.45004499 0 0 0 88.847656 113.6875 L 88.916016 116.20703 L 87.595703 117.08789 A 0.45004499 0.45004499 0 0 0 87.402344 117.38867 L 87.017578 119.70312 L 85.730469 119.35938 A 0.45004499 0.45004499 0 0 0 85.220703 119.57812 L 83.761719 122.23828 L 81.978516 122.89453 L 78.646484 122.28711 L 69.710938 118.34375 L 66.212891 108.9668 L 67.740234 107.32617 L 69.021484 108.32227 A 0.45004499 0.45004499 0 0 0 69.570312 108.32617 L 72.476562 106.11914 L 73.660156 108.27539 A 0.45004499 0.45004499 0 0 0 74.298828 108.4375 L 76.240234 107.1875 L 79.238281 108.2832 A 0.45004499 0.45004499 0 0 0 79.59375 108.26367 L 83.121094 106.50781 L 88.351562 108.5625 A 0.45004499 0.45004499 0 0 0 88.955078 108.24219 L 89.269531 106.83789 L 92.490234 108.44531 A 0.45004499 0.45004499 0 0 0 93.070312 108.28516 L 96.849609 102.36133 A 0.45004499 0.45004499 0 0 0 96.724609 101.74805 L 95.017578 100.58008 L 96.183594 100 A 0.45004499 0.45004499 0 0 0 96.291016 99.267578 L 91.890625 95.132812 L 92.628906 91.835938 A 0.45004499 0.45004499 0 0 0 92.197266 91.287109 L 88.386719 91.224609 L 88.462891 87.869141 A 0.45004499 0.45004499 0 0 0 87.865234 87.433594 L 84.824219 88.496094 L 81.427734 85.304688 A 0.45004499 0.45004499 0 0 0 81.121094 85.183594 z M 81.054688 86.1875 L 83.867188 88.830078 L 79.361328 90.404297 L 75.490234 89.341797 L 81.054688 86.1875 z M 87.550781 88.498047 L 87.494141 91.003906 L 85.564453 89.191406 L 87.550781 88.498047 z M 69.183594 88.544922 L 73.152344 89.634766 L 70.859375 90.933594 L 68.925781 90.902344 L 69.183594 88.544922 z M 84.607422 89.525391 L 86.378906 91.191406 L 80.136719 91.087891 L 84.607422 89.525391 z M 74.382812 89.970703 L 78.345703 91.058594 L 72.632812 90.962891 L 74.382812 89.970703 z M 64.763672 91.734375 L 67.921875 91.787109 L 67.826172 92.654297 L 64.646484 94.457031 L 64.763672 91.734375 z M 68.826172 91.800781 L 69.314453 91.810547 L 68.792969 92.105469 L 68.826172 91.800781 z M 71.087891 91.839844 L 87.355469 92.107422 L 87.466797 92.212891 L 87.376953 96.197266 A 0.45004499 0.45004499 0 0 0 87.572266 96.578125 L 90.238281 98.400391 L 89.341797 102.40039 L 85.863281 104.13477 L 82.404297 102.4082 A 0.45004499 0.45004499 0 0 0 81.958984 102.43359 L 79.404297 104.08008 L 75.865234 102.68945 A 0.45004499 0.45004499 0 0 0 75.427734 102.75 L 72.765625 104.77148 L 71.630859 102.70117 A 0.45004499 0.45004499 0 0 0 70.90625 102.61133 L 69.748047 103.85352 L 64.326172 101.86914 L 64.34375 101.47656 L 68.048828 97.90625 A 0.45004499 0.45004499 0 0 0 68.183594 97.632812 L 68.669922 93.208984 L 71.087891 91.839844 z M 88.693359 92.128906 L 91.630859 92.177734 L 91.128906 94.417969 L 88.693359 92.128906 z M 88.347656 93.039062 L 90.900391 95.439453 L 90.449219 97.455078 L 88.28125 95.972656 L 88.347656 93.039062 z M 67.705078 93.757812 L 67.306641 97.371094 L 64.400391 100.17188 L 64.599609 95.517578 L 67.705078 93.757812 z M 63.677734 96.041016 L 63.460938 101.07617 L 63.318359 101.21289 L 61.789062 97.111328 L 63.677734 96.041016 z M 91.662109 96.154297 L 95.203125 99.480469 L 94.166016 99.998047 L 91.248047 98.001953 L 91.662109 96.154297 z M 91.037109 98.947266 L 93.244141 100.45703 L 90.378906 101.88477 L 91.037109 98.947266 z M 94.095703 101.03906 L 95.857422 102.24414 L 92.529297 107.46094 L 89.472656 105.93555 L 90.125 103.01758 L 94.095703 101.03906 z M 64.285156 102.8125 L 69.082031 104.56836 L 67.644531 106.11133 L 64.257812 103.47656 L 64.285156 102.8125 z M 62.5 103.25195 L 63.337891 103.9043 L 63.166016 107.91211 L 60.779297 104.91016 L 62.5 103.25195 z M 82.230469 103.32812 L 84.853516 104.63672 L 83.076172 105.52148 L 80.435547 104.48438 L 82.230469 103.32812 z M 89.087891 103.53516 L 88.642578 105.52148 L 86.873047 104.63867 L 89.087891 103.53516 z M 75.771484 103.61914 L 78.470703 104.67969 L 76.130859 106.1875 L 73.605469 105.26367 L 75.771484 103.61914 z M 71.138672 103.67969 L 71.607422 104.5332 L 70.666016 104.1875 L 71.138672 103.67969 z M 70 104.90234 L 71.748047 105.54297 L 69.302734 107.40039 L 68.357422 106.66602 L 70 104.90234 z M 64.726562 104.98242 L 67.027344 106.77148 L 65.861328 108.02344 L 64.726562 104.98242 z M 79.501953 105.08594 L 81.990234 106.0625 L 79.365234 107.37109 L 77.189453 106.57617 L 79.501953 105.08594 z M 85.863281 105.14062 L 88.441406 106.42578 L 88.193359 107.5332 L 84.205078 105.9668 L 85.863281 105.14062 z M 64.148438 106.00977 L 65.173828 108.75977 L 64.453125 109.5332 L 64.019531 108.98633 L 64.148438 106.00977 z M 73.548828 106.20117 L 75.181641 106.79883 L 74.216797 107.41992 L 73.548828 106.20117 z M 65.525391 109.70117 L 66.355469 111.92578 L 65.019531 110.24414 L 65.525391 109.70117 z M 64.400391 110.91016 L 66.794922 113.92383 L 66.421875 116.89258 L 63.730469 115.70312 L 63.914062 111.43164 L 64.400391 110.91016 z M 62.970703 112.44336 L 62.845703 115.3125 L 61.039062 114.51562 L 62.970703 112.44336 z M 92.917969 114.61523 L 94.78125 118.18164 L 92.011719 119.19922 L 90.748047 116.06641 L 92.917969 114.61523 z M 67.552734 115.13086 L 68.5625 117.83594 L 67.283203 117.27148 L 67.552734 115.13086 z M 89.982422 116.57617 L 91.166016 119.51172 L 89.919922 119.9707 L 89.830078 116.67773 L 89.982422 116.57617 z M 63.6875 116.66992 L 66.306641 117.82422 L 66.035156 119.98828 L 63.564453 119.53906 L 63.6875 116.66992 z M 88.945312 117.26953 L 89.025391 120.23828 L 87.892578 119.93555 L 88.257812 117.72852 L 88.945312 117.26953 z M 67.166016 118.20508 L 69.001953 119.01367 L 69.607422 120.64062 L 66.921875 120.15039 L 67.166016 118.20508 z M 70.150391 119.52148 L 74.847656 121.5957 L 70.638672 120.82812 L 70.150391 119.52148 z M 85.839844 120.32031 L 86.871094 120.5957 L 86.783203 121.125 L 85.046875 121.76367 L 85.839844 120.32031 z M 91.503906 120.34766 L 91.751953 120.96484 L 90.634766 120.66602 L 91.503906 120.34766 z M 66.808594 121.04492 L 69.974609 121.62109 L 70.175781 122.16211 L 66.625 122.51172 L 66.808594 121.04492 z M 89.052734 121.24805 L 89.132812 124.19727 L 87.242188 123.85352 L 87.583984 121.78906 L 89.052734 121.24805 z M 71.003906 121.80859 L 71.976562 121.98633 L 71.103516 122.07227 L 71.003906 121.80859 z M 86.613281 122.14648 L 86.357422 123.69141 L 84.205078 123.29883 L 84.388672 122.96484 L 86.613281 122.14648 z M 75.205078 122.57422 L 76.162109 122.75 L 77.769531 124.44336 L 72.685547 126.31445 L 71.427734 122.94531 L 75.205078 122.57422 z M 77.664062 123.02344 L 78.380859 123.1543 L 79.695312 123.73438 L 78.689453 124.10352 L 77.664062 123.02344 z M 82.181641 123.8457 L 82.814453 123.96289 L 82.742188 124.09375 L 82.181641 123.8457 z M 83.748047 124.13281 L 86.208984 124.58008 L 86.048828 125.55273 L 83.568359 124.45898 L 83.748047 124.13281 z M 80.878906 124.25586 L 82.306641 124.88672 L 81.253906 126.80469 L 79.363281 124.81445 L 80.878906 124.25586 z "
       id="path1165" />
    <path
       style="color:#000000;font-style:normal;font-variant:normal;font-weight:normal;font-stretch:normal;font-size:medium;line-height:normal;font-family:sans-serif;font-variant-ligatures:normal;font-variant-position:normal;font-variant-caps:normal;font-variant-numeric:normal;font-variant-alternates:normal;font-variant-east-asian:normal;font-feature-settings:normal;font-variation-settings:normal;text-indent:0;text-align:start;text-decoration:none;text-decoration-line:none;text-decoration-style:solid;text-decoration-color:#000000;letter-spacing:normal;word-spacing:normal;text-transform:none;writing-mode:lr-tb;direction:ltr;text-orientation:mixed;dominant-baseline:auto;baseline-shift:baseline;text-anchor:start;white-space:normal;shape-padding:0;shape-margin:0;inline-size:0;clip-rule:nonzero;display:inline;overflow:visible;visibility:visible;isolation:auto;mix-blend-mode:normal;color-interpolation:sRGB;color-interpolation-filters:linearRGB;solid-color:#000000;solid-opacity:1;vector-effect:none;fill:#000000;fill-opacity:1;fill-rule:nonzero;stroke:none;stroke-linecap:butt;stroke-linejoin:round;stroke-miterlimit:4;stroke-dasharray:none;stroke-dashoffset:0;stroke-opacity:1;color-rendering:auto;image-rendering:auto;shape-rendering:auto;text-rendering:auto;enable-background:accumulate;stop-color:#000000;stop-opacity:1;opacity:1"
       d="M 126.05273 85.367188 A 0.45004499 0.45004499 0 0 0 125.82227 85.451172 L 122.00977 88.177734 L 118.36328 85.855469 A 0.45004499 0.45004499 0 0 0 117.75586 85.972656 L 113.67578 91.662109 L 111.02539 91.318359 L 108.78906 86.201172 A 0.45004499 0.45004499 0 0 0 107.9668 86.195312 L 106.61719 89.164062 L 105.36523 85.945312 L 104.52539 86.273438 L 106.0957 90.308594 L 104.40625 94.021484 A 0.45004499 0.45004499 0 0 0 104.40234 94.390625 L 105.44922 96.759766 L 104.5332 97.078125 A 0.45004499 0.45004499 0 0 0 104.26758 97.681641 L 106.18555 102.10938 L 104.45898 104.51562 A 0.45004499 0.45004499 0 0 0 104.38086 104.85742 L 104.85938 107.49414 L 104.48633 107.81836 L 105.03125 108.44727 L 106.30273 115.45117 L 105.01367 115.73047 A 0.45004499 0.45004499 0 0 0 104.96289 116.5957 L 105.73828 116.86133 L 104.58008 118.97266 A 0.45004499 0.45004499 0 0 0 104.72656 119.56641 L 106.16406 120.51367 L 105.58008 122.91016 L 105.03906 123.00195 A 0.45004499 0.45004499 0 0 0 104.80859 123.77344 L 105.26562 124.19922 L 104.26953 128.2793 A 0.45004499 0.45004499 0 0 0 104.30273 128.58398 L 105.27734 130.58594 L 104.52344 131.36914 A 0.45004499 0.45004499 0 0 0 104.63867 132.07812 L 106.47461 133.04688 L 107.47852 135.10742 L 105.02344 138.99023 A 0.45004499 0.45004499 0 0 0 105.04492 139.50195 L 107.65625 142.93164 A 0.45004499 0.45004499 0 0 0 108.4043 142.88477 L 109.95508 140.19141 L 111.31641 142.99023 A 0.45004499 0.45004499 0 0 0 112.16406 142.71289 L 111.28711 137.87695 L 112.51562 135.74219 A 0.45004499 0.45004499 0 0 0 112.33594 135.11914 L 110.62305 134.2168 L 110.28516 132.35352 L 111.95117 129.71875 A 0.45004499 0.45004499 0 0 0 111.87891 129.15039 L 109.78906 127.19727 L 112.57812 124.30078 A 0.45004499 0.45004499 0 0 0 112.5 123.61133 L 111.32812 122.83789 L 116.71875 121.91602 L 121.38672 127.29492 A 0.45004499 0.45004499 0 0 0 122.04102 127.32227 L 122.92578 126.46289 L 124.57617 128.01172 A 0.45004499 0.45004499 0 0 0 125.29883 127.85938 L 126.9043 124.08203 L 131.05078 125.49609 A 0.45004499 0.45004499 0 0 0 131.62695 125.20117 L 134.05469 117.25 L 138.55273 114.60742 A 0.45004499 0.45004499 0 0 0 138.67578 113.9375 L 137.42188 112.38281 L 140.00586 109.87305 A 0.45004499 0.45004499 0 0 0 140.0332 109.25781 L 137.41992 106.23242 L 139.42773 99.662109 A 0.45004499 0.45004499 0 0 0 139.24023 99.152344 L 136.96094 97.701172 L 137.77539 95.138672 A 0.45004499 0.45004499 0 0 0 137.63086 94.654297 L 132.55664 90.515625 L 132.4375 88.664062 A 0.45004499 0.45004499 0 0 0 131.875 88.257812 L 130.28906 88.666016 L 126.36719 85.466797 A 0.45004499 0.45004499 0 0 0 126.05273 85.367188 z M 126.06641 86.382812 L 129.20898 88.945312 L 124.94141 90.044922 L 122.82812 88.699219 L 126.06641 86.382812 z M 118.24023 86.84375 L 121.22266 88.742188 L 116.61133 92.041016 L 114.69141 91.792969 L 118.24023 86.84375 z M 108.36914 87.486328 L 110.30273 91.912109 A 0.45004499 0.45004499 0 0 0 110.65625 92.177734 L 113.08008 92.492188 L 111.54297 94.636719 L 109.07812 95.494141 L 107.07227 90.335938 L 108.36914 87.486328 z M 122.03906 89.263672 L 123.75 90.351562 L 118.69922 91.654297 L 122.03906 89.263672 z M 131.57422 89.263672 L 131.60547 89.738281 L 131.15625 89.373047 L 131.57422 89.263672 z M 130.07422 89.650391 L 131.68359 90.964844 L 131.91211 94.484375 L 125.98047 90.707031 L 130.07422 89.650391 z M 124.78906 91.013672 L 131.98438 95.597656 L 132.375 101.625 A 0.45004499 0.45004499 0 0 0 132.48242 101.89062 L 134.0918 103.75391 L 132.8125 107.77344 A 0.45004499 0.45004499 0 0 0 132.89062 108.19141 L 135.06055 110.88281 L 133.95703 114.49609 L 129.3418 118.97656 L 127.80664 119.87891 A 0.45004499 0.45004499 0 0 0 127.62109 120.0918 L 127.21875 121.03906 L 125.54492 122.66406 L 115.625 119.28125 L 112.02539 115.13281 L 112.20312 115.09375 A 0.45004499 0.45004499 0 0 0 112.52148 114.47461 L 110.56055 109.94727 L 111.39844 108.41992 A 0.45004499 0.45004499 0 0 0 111.41602 108.02148 L 110.5918 106.15625 L 111.57227 102.13281 A 0.45004499 0.45004499 0 0 0 111.55469 101.86328 L 110.11719 98.167969 L 112.10938 95.392578 L 114.70898 94.486328 A 0.45004499 0.45004499 0 0 0 114.82227 94.427734 L 116.8457 92.980469 L 116.97266 92.996094 A 0.45004499 0.45004499 0 0 0 117.14258 92.986328 L 124.78906 91.013672 z M 106.55078 91.480469 L 108.22852 95.791016 L 106.30469 96.460938 L 105.30859 94.210938 L 106.55078 91.480469 z M 132.63672 91.740234 L 136.82617 95.158203 L 136.17578 97.201172 L 132.85156 95.083984 L 132.63672 91.740234 z M 114.0957 92.623047 L 115.53711 92.810547 L 114.35156 93.658203 L 113.01953 94.121094 L 114.0957 92.623047 z M 110.63281 95.90625 L 109.72852 97.166016 L 109.4043 96.333984 L 110.63281 95.90625 z M 132.92383 96.195312 L 135.89453 98.087891 L 134.41211 102.74805 L 133.26172 101.41602 L 132.92383 96.195312 z M 108.55469 96.628906 L 109.10352 98.039062 L 107.80273 99.851562 L 106.66797 97.287109 L 108.55469 96.628906 z M 105.81445 97.583984 L 107.19336 100.70117 L 106.79688 101.25586 L 105.28516 97.767578 L 105.81445 97.583984 z M 136.67773 98.585938 L 138.46875 99.726562 L 136.72656 105.42773 L 135.10156 103.54492 L 136.67773 98.585938 z M 109.49219 99.041016 L 110.66602 102.05664 L 109.99414 104.80859 L 108.22461 100.80664 L 109.49219 99.041016 z M 107.61523 101.65625 L 109.64453 106.24414 L 109.39648 107.25977 L 107.21289 102.21875 L 107.61523 101.65625 z M 106.60156 103.07031 L 109.04297 108.70898 L 108.47461 111.04102 L 105.875 108.04492 L 105.30078 104.88477 L 106.60156 103.07031 z M 134.78125 104.55078 L 136.41602 106.44336 L 135.37695 109.8457 L 133.74219 107.81641 L 134.78125 104.55078 z M 137.11133 107.24805 L 139.07617 109.52344 L 136.85547 111.67969 L 136.05859 110.69141 L 137.11133 107.24805 z M 110.24219 107.5918 L 110.50195 108.18164 L 110.10742 108.90039 L 109.98828 108.62695 L 110.24219 107.5918 z M 106.18945 109.78125 L 108.21289 112.11328 L 108.10742 112.54492 L 107.04297 114.48438 L 106.18945 109.78125 z M 110.01172 110.94531 L 111.47852 114.33008 L 111.35156 114.35742 L 109.38477 112.08984 L 110.01172 110.94531 z M 135.74219 111.73047 L 136.20703 112.30859 L 135.29297 113.19727 L 135.74219 111.73047 z M 108.93555 112.94531 L 110.34961 114.57422 L 108.4375 114.98828 L 108.93555 112.94531 z M 136.77344 113.01172 L 137.64844 114.0957 L 134.44336 115.97852 L 134.75 114.97852 L 136.77344 113.01172 z M 111.02148 115.34961 L 113.93164 118.70508 L 108.02344 116.68945 L 108.20117 115.96094 L 111.02148 115.34961 z M 133.41211 116.27734 L 133.29688 116.65234 L 132.60938 117.05664 L 133.41211 116.27734 z M 106.60352 117.15625 L 106.61328 117.1582 L 106.76953 118.02734 L 106.39062 119.58398 L 105.56836 119.04297 L 106.60352 117.15625 z M 107.80859 117.56641 L 115.10547 120.05664 L 116.0293 121.12109 L 110.22656 122.11328 L 108.18164 120.76562 L 107.68945 118.05469 L 107.80859 117.56641 z M 132.9082 117.92578 L 130.90234 124.49219 L 127.25781 123.25 L 127.97461 121.55859 L 129.88867 119.69922 L 132.9082 117.92578 z M 116.79883 120.63281 L 117.49023 120.86914 L 117.06641 120.94336 L 116.79883 120.63281 z M 106.96289 121.03906 L 107.36523 121.30469 L 107.59375 122.56445 L 106.54688 122.74414 L 106.96289 121.03906 z M 118.73242 121.29297 L 124.81836 123.36914 L 122.91602 125.21875 L 118.73242 121.29297 z M 117.87109 121.71875 L 122.26953 125.8457 L 121.75391 126.3457 L 117.75586 121.73828 L 117.87109 121.71875 z M 108.4043 121.99023 L 108.92969 122.33594 L 108.48047 122.41211 L 108.4043 121.99023 z M 110.0293 123.06055 L 111.55469 124.06641 L 109.2207 126.49023 L 108.64062 123.29883 L 110.0293 123.06055 z M 107.75391 123.44922 L 108.15625 125.67188 L 106.26367 123.90234 L 106.31445 123.69727 L 107.75391 123.44922 z M 125.77539 123.69531 L 126.04883 123.78906 L 124.72266 126.91406 L 123.57227 125.83398 L 125.77539 123.69531 z M 106.01953 124.90625 L 108.42578 127.1543 L 108.45117 127.28906 L 105.94336 129.89453 L 105.18359 128.33594 L 106.01953 124.90625 z M 109.52734 128.18359 L 110.99219 129.55273 L 110.04688 131.04688 L 109.52734 128.18359 z M 108.64844 128.38086 L 109.33594 132.17188 L 108.6875 133.19531 L 107.15625 132.38867 L 106.36133 130.75586 L 108.64844 128.38086 z M 105.69727 131.44727 L 105.80859 131.67969 L 105.58594 131.56055 L 105.69727 131.44727 z M 109.57227 133.47852 L 109.60938 133.68164 L 109.48633 133.61719 L 109.57227 133.47852 z M 107.82227 133.75781 L 108.20508 133.95898 L 108.04492 134.21289 L 107.82227 133.75781 z M 109.00391 134.38086 L 109.81445 134.80664 L 110.3418 137.71484 L 110.02148 138.27344 L 108.50781 135.16406 L 109.00391 134.38086 z M 110.82617 135.3418 L 111.50391 135.69727 L 111.03711 136.50586 L 110.82617 135.3418 z M 107.94141 136.05859 L 109.47852 139.21484 L 107.96289 141.84766 L 105.95117 139.20703 L 107.94141 136.05859 z M 110.58984 139.08594 L 110.69336 139.6543 L 110.49609 139.25 L 110.58984 139.08594 z "
       id="path1167" />
    <path
       style="color:#000000;font-style:normal;font-variant:normal;font-weight:normal;font-stretch:normal;font-size:medium;line-height:normal;font-family:sans-serif;font-variant-ligatures:normal;font-variant-position:normal;font-variant-caps:normal;font-variant-numeric:normal;font-variant-alternates:normal;font-variant-east-asian:normal;font-feature-settings:normal;font-variation-settings:normal;text-indent:0;text-align:start;text-decoration:none;text-decoration-line:none;text-decoration-style:solid;text-decoration-color:#000000;letter-spacing:normal;word-spacing:normal;text-transform:none;writing-mode:lr-tb;direction:ltr;text-orientation:mixed;dominant-baseline:auto;baseline-shift:baseline;text-anchor:start;white-space:normal;shape-padding:0;shape-margin:0;inline-size:0;clip-rule:nonzero;display:inline;overflow:visible;visibility:visible;isolation:auto;mix-blend-mode:normal;color-interpolation:sRGB;color-interpolation-filters:linearRGB;solid-color:#000000;solid-opacity:1;vector-effect:none;fill:#000000;fill-opacity:1;fill-rule:nonzero;stroke:none;stroke-linecap:butt;stroke-linejoin:miter;stroke-miterlimit:4;stroke-dasharray:none;stroke-dashoffset:0;stroke-opacity:1;color-rendering:auto;image-rendering:auto;shape-rendering:auto;text-rendering:auto;enable-background:accumulate;stop-color:#000000;stop-opacity:1;opacity:1"
       d="M 147.56055 68.615234 L 147.33398 75.632812 L 149.37891 76.857422 L 148.39844 78.226562 L 149.13086 78.75 L 150.1543 77.322266 L 155.25391 80.376953 L 154.14648 75.367188 L 156.62695 77.464844 L 157.32812 76.941406 L 154.28906 70.007812 L 153.27539 71.421875 L 152.88477 69.652344 L 152.00586 69.845703 L 152.57031 72.404297 L 152.36914 72.685547 L 147.56055 68.615234 z M 148.40039 70.503906 L 151.84375 73.417969 L 149.9043 76.125 L 148.25 75.132812 L 148.40039 70.503906 z M 154.09766 71.816406 L 155.72461 75.523438 L 153.82812 73.917969 L 153.53711 72.601562 L 154.09766 71.816406 z M 152.5332 74 L 153.01367 74.408203 L 153.92578 78.533203 L 150.67969 76.587891 L 152.5332 74 z "
       id="path1169" />
    <path
       style="color:#000000;font-style:normal;font-variant:normal;font-weight:normal;font-stretch:normal;font-size:medium;line-height:normal;font-family:sans-serif;font-variant-ligatures:normal;font-variant-position:normal;font-variant-caps:normal;font-variant-numeric:normal;font-variant-alternates:normal;font-variant-east-asian:normal;font-feature-settings:normal;font-variation-settings:normal;text-indent:0;text-align:start;text-decoration:none;text-decoration-line:none;text-decoration-style:solid;text-decoration-color:#000000;letter-spacing:normal;word-spacing:normal;text-transform:none;writing-mode:lr-tb;direction:ltr;text-orientation:mixed;dominant-baseline:auto;baseline-shift:baseline;text-anchor:start;white-space:normal;shape-padding:0;shape-margin:0;inline-size:0;clip-rule:nonzero;display:inline;overflow:visible;visibility:visible;isolation:auto;mix-blend-mode:normal;color-interpolation:sRGB;color-interpolation-filters:linearRGB;solid-color:#000000;solid-opacity:1;vector-effect:none;fill:#000000;fill-opacity:1;fill-rule:nonzero;stroke:none;stroke-linecap:butt;stroke-linejoin:round;stroke-miterlimit:4;stroke-dasharray:none;stroke-dashoffset:0;stroke-opacity:1;color-rendering:auto;image-rendering:auto;shape-rendering:auto;text-rendering:auto;enable-background:accumulate;stop-color:#000000;stop-opacity:1;opacity:1"
       d="M 154.57422 85.992188 A 0.45004499 0.45004499 0 0 0 154.1875 86.251953 L 151.69727 91.630859 L 148.7793 86.232422 A 0.45004499 0.45004499 0 0 0 147.94727 86.556641 L 150.10156 95.080078 L 147.98633 99.652344 A 0.45004499 0.45004499 0 0 0 147.95898 99.953125 L 150.21289 108.81055 L 146.87891 113.35938 A 0.45004499 0.45004499 0 0 0 146.85938 113.85938 L 149.68359 118.46484 L 148.55469 126.56836 A 0.45004499 0.45004499 0 0 0 149.4082 126.82031 L 151.75 121.83398 L 154.83008 126.85938 A 0.45004499 0.45004499 0 0 0 155.64844 126.51367 L 153.50586 118.0957 L 155.60938 113.61523 A 0.45004499 0.45004499 0 0 0 155.63867 113.31445 L 153.6875 105.59375 L 156.71875 101.45898 A 0.45004499 0.45004499 0 0 0 156.75195 100.97852 L 153.78906 95.498047 L 155.04102 86.503906 A 0.45004499 0.45004499 0 0 0 154.57422 85.992188 z M 153.73242 89.376953 L 153.06641 94.162109 L 152.23242 92.619141 L 153.73242 89.376953 z M 149.70508 89.837891 L 151.22656 92.650391 L 150.70312 93.783203 L 149.70508 89.837891 z M 151.75977 93.640625 L 152.85742 95.667969 L 152.26172 99.949219 L 151.05273 95.169922 L 151.75977 93.640625 z M 150.45312 96.466797 L 151.93164 102.31836 L 151.21875 107.43945 L 150.90234 107.86914 L 148.87109 99.884766 L 150.45312 96.466797 z M 153.58008 97.003906 L 155.82422 101.15625 L 153.40039 104.46094 L 152.84766 102.26758 L 153.58008 97.003906 z M 152.51758 104.63672 L 152.71094 105.4043 L 152.33984 105.91016 L 152.51758 104.63672 z M 152.99805 106.53711 L 154.72656 113.37891 L 153.15625 116.72266 L 151.65625 110.82617 L 152.07812 107.78906 L 152.99805 106.53711 z M 150.50195 109.94141 L 150.74023 110.875 L 149.87891 117.06055 L 147.78516 113.64648 L 150.50195 109.94141 z M 151.32812 113.18359 L 152.55469 118.00391 L 151.64453 119.94141 L 150.61914 118.26953 L 151.32812 113.18359 z M 152.9043 119.37695 L 154.04492 123.85547 L 152.20703 120.85938 L 152.9043 119.37695 z M 150.42383 119.67383 L 151.18555 120.91602 L 149.85742 123.74805 L 150.42383 119.67383 z "
       id="path1171" />
    <path
       style="color:#000000;font-style:normal;font-variant:normal;font-weight:normal;font-stretch:normal;font-size:medium;line-height:normal;font-family:sans-serif;font-variant-ligatures:normal;font-variant-position:normal;font-variant-caps:normal;font-variant-numeric:normal;font-variant-alternates:normal;font-variant-east-asian:normal;font-feature-settings:normal;font-variation-settings:normal;text-indent:0;text-align:start;text-decoration:none;text-decoration-line:none;text-decoration-style:solid;text-decoration-color:#000000;letter-spacing:normal;word-spacing:normal;text-transform:none;writing-mode:lr-tb;direction:ltr;text-orientation:mixed;dominant-baseline:auto;baseline-shift:baseline;text-anchor:start;white-space:normal;shape-padding:0;shape-margin:0;inline-size:0;clip-rule:nonzero;display:inline;overflow:visible;visibility:visible;isolation:auto;mix-blend-mode:normal;color-interpolation:sRGB;color-interpolation-filters:linearRGB;solid-color:#000000;solid-opacity:1;vector-effect:none;fill:#000000;fill-opacity:1;fill-rule:nonzero;stroke:none;stroke-linecap:butt;stroke-linejoin:miter;stroke-miterlimit:4;stroke-dasharray:none;stroke-dashoffset:0;stroke-opacity:1;color-rendering:auto;image-rendering:auto;shape-rendering:auto;text-rendering:auto;enable-background:accumulate;stop-color:#000000;stop-opacity:1;opacity:1"
       d="M 185.63477 85.066406 L 182.39648 87.794922 L 178.39258 85.255859 L 174.30469 89.75 L 168.63281 88.796875 L 169.44141 95.099609 L 168.25195 96.40625 L 164.09961 97.148438 L 165.07227 99.902344 L 162.05273 103.22266 L 164.34375 109.41211 L 162.52539 112.43359 L 166.14648 114.27539 L 170.23633 125.32031 L 174.02539 125.25 L 175.41016 129.17188 L 178.41797 126.19531 L 180.2168 128.91211 L 183.37109 125.07422 L 192.75195 124.89844 L 192.55859 118.78516 L 197.54102 116.41992 L 191.4043 110.7832 L 191.44336 112.03125 L 179.09961 124.25391 L 178.22266 124.26953 L 173.37305 116.94336 L 171.75391 116.11914 L 167.9082 105.23438 L 170.99219 100.11328 L 170.58008 96.904297 L 173.63086 96.359375 L 179.37891 91.515625 L 182.9668 92.119141 L 186.11328 91.216797 L 190.92969 94.271484 L 189.61719 100.86523 L 194.42383 96.488281 L 196.87695 98.042969 L 197.35938 97.283203 L 195.11328 95.859375 L 197.43555 93.744141 L 192.65234 90.226562 L 193.03711 88.296875 L 190.87109 88.917969 L 185.63477 85.066406 z M 185.67383 86.210938 L 189.7793 89.230469 L 186.25391 90.240234 L 183.19336 88.300781 L 185.67383 86.210938 z M 178.55078 86.421875 L 181.67578 88.402344 L 179.11719 90.558594 L 175.36133 89.927734 L 178.55078 86.421875 z M 182.47266 88.908203 L 185.0957 90.572266 L 182.91602 91.197266 L 180.28125 90.753906 L 182.47266 88.908203 z M 191.86523 89.568359 L 191.85156 89.638672 L 191.78711 89.589844 L 191.86523 89.568359 z M 169.68164 89.886719 L 173.58594 90.542969 L 170.23633 94.222656 L 169.68164 89.886719 z M 190.69531 89.904297 L 191.6582 90.613281 L 191.11719 93.326172 L 187.26953 90.884766 L 190.69531 89.904297 z M 174.64062 90.71875 L 178.21484 91.320312 L 173.23633 95.515625 L 170.4668 96.009766 L 170.38672 95.396484 L 174.64062 90.71875 z M 192.45898 91.201172 L 196.01758 93.820312 L 194.32617 95.359375 L 191.93164 93.841797 L 192.45898 91.201172 z M 191.74414 94.787109 L 193.63477 95.988281 L 191.0332 98.355469 L 191.74414 94.787109 z M 169.69336 97.0625 L 170.05859 99.917969 L 167.51953 104.13477 L 166.09961 100.11133 L 168.71289 97.238281 L 169.69336 97.0625 z M 167.25781 97.498047 L 165.75977 99.148438 L 165.30078 97.847656 L 167.25781 97.498047 z M 165.41211 100.86523 L 166.91992 105.13281 L 164.9375 108.42578 L 163.08594 103.42383 L 165.41211 100.86523 z M 167.30859 106.23242 L 170.5918 115.5293 L 166.86719 113.63477 L 165.33789 109.50586 L 167.30859 106.23242 z M 164.74414 110.49219 L 165.68555 113.0332 L 163.79492 112.07031 L 164.74414 110.49219 z M 192.37109 112.89258 L 195.94922 116.17969 L 192.52734 117.80469 L 192.37109 112.89258 z M 191.48242 113.25977 L 191.64062 118.22461 L 185.40234 121.1875 L 182.94141 124.18164 L 180.40234 124.22852 L 191.48242 113.25977 z M 167.32812 114.87695 L 171.02539 116.75977 L 173.70898 124.35547 L 170.85742 124.4082 L 167.32812 114.87695 z M 172.1875 117.35156 L 172.75391 117.63867 L 177.15625 124.28906 L 174.65625 124.33594 L 172.1875 117.35156 z M 191.67188 119.20703 L 191.82422 124.01367 L 184.12305 124.1582 L 185.96875 121.91406 L 191.67188 119.20703 z M 182.1875 125.0957 L 180.29492 127.39844 L 179.07031 125.54883 L 179.47461 125.14648 L 182.1875 125.0957 z M 177.74609 125.17969 L 177.91211 125.42969 L 175.78516 127.53516 L 174.97266 125.23242 L 177.74609 125.17969 z "
       id="path1173" />
    <path
       style="color:#000000;font-style:normal;font-variant:normal;font-weight:normal;font-stretch:normal;font-size:medium;line-height:normal;font-family:sans-serif;font-variant-ligatures:normal;font-variant-position:normal;font-variant-caps:normal;font-variant-numeric:normal;font-variant-alternates:normal;font-variant-east-asian:normal;font-feature-settings:normal;font-variation-settings:normal;text-indent:0;text-align:start;text-decoration:none;text-decoration-line:none;text-decoration-style:solid;text-decoration-color:#000000;letter-spacing:normal;word-spacing:normal;text-transform:none;writing-mode:lr-tb;direction:ltr;text-orientation:mixed;dominant-baseline:auto;baseline-shift:baseline;text-anchor:start;white-space:normal;shape-padding:0;shape-margin:0;inline-size:0;clip-rule:nonzero;display:inline;overflow:visible;visibility:visible;isolation:auto;mix-blend-mode:normal;color-interpolation:sRGB;color-interpolation-filters:linearRGB;solid-color:#000000;solid-opacity:1;vector-effect:none;fill:#000000;fill-opacity:1;fill-rule:nonzero;stroke:none;stroke-linecap:butt;stroke-linejoin:miter;stroke-miterlimit:4;stroke-dasharray:none;stroke-dashoffset:0;stroke-opacity:1;color-rendering:auto;image-rendering:auto;shape-rendering:auto;text-rendering:auto;enable-background:accumulate;stop-color:#000000;stop-opacity:1;opacity:1"
       d="M 211.66016 72.6875 L 210.38672 76.90625 L 208.32227 73.773438 L 205.18945 79.601562 L 207.99023 84.859375 L 207.10156 87.802734 L 205.50391 87.335938 L 204.76758 85.884766 L 203.9043 86.869141 L 200.32617 85.824219 L 199.97266 86.527344 L 202.51953 88.445312 L 199.25781 92.158203 L 205.37109 90.591797 L 206.0957 91.136719 L 204.65234 95.925781 L 206.82227 101.44336 L 205.25781 106.55273 L 205.74023 109.97656 L 204.8125 112.31445 L 206.26953 113.73828 L 206.40234 114.67969 L 204.31055 119.13281 L 207.08594 119.54297 L 207.85156 124.98047 L 210.60156 125.45312 L 209.94336 128.92383 L 213.62695 125.9707 L 220.56641 127.16211 L 216.96875 123.29492 L 220.23438 120.67773 L 213.49805 119.68164 L 212.66406 118.86719 L 213.27148 115.66406 L 210.33203 108.18945 L 213.0957 102.30273 L 211.16016 98.486328 L 212.54688 94.990234 L 210.18164 93.208984 L 211.00391 90.521484 L 212.13086 92.638672 L 214.41016 90.769531 L 219.32422 92.205078 L 219.54883 91.435547 L 215.16211 90.154297 L 218.9082 87.083984 L 218.55664 86.386719 L 211.73438 88.134766 L 213.6543 81.863281 L 210.96094 77.777344 L 212.42578 72.917969 L 211.66016 72.6875 z M 208.39062 75.333984 L 210.08594 77.90625 L 208.31641 83.775391 L 206.0957 79.603516 L 208.39062 75.333984 z M 210.66016 78.775391 L 212.77734 81.988281 L 210.82422 88.367188 L 210.76953 88.380859 L 208.84961 84.775391 L 210.66016 78.775391 z M 208.52344 85.861328 L 209.97266 88.585938 L 209.87305 88.611328 L 207.86914 88.025391 L 208.52344 85.861328 z M 202.20312 87.205078 L 203.32031 87.53125 L 203.04883 87.841797 L 202.20312 87.205078 z M 217.00391 87.611328 L 214.23047 89.882812 L 211.44727 89.070312 L 211.45898 89.03125 L 217.00391 87.611328 z M 204.16797 87.779297 L 204.94727 88.007812 L 205.78516 89.658203 L 205.54492 89.720703 L 203.68945 88.324219 L 204.16797 87.779297 z M 206 88.314453 L 206.87109 88.568359 L 206.60547 89.449219 L 206.57812 89.455078 L 206 88.314453 z M 207.63867 88.792969 L 208.35156 89.001953 L 207.51172 89.216797 L 207.63867 88.792969 z M 203.16016 88.925781 L 204.55273 89.974609 L 201.56836 90.738281 L 203.16016 88.925781 z M 209.85938 89.441406 L 210.44336 89.611328 L 209.5 92.697266 L 207.43555 91.142578 L 207.11914 90.519531 L 207.24023 90.113281 L 209.85938 89.441406 z M 211.60547 89.951172 L 213.48047 90.498047 L 212.37891 91.400391 L 211.60547 89.951172 z M 206.77734 91.650391 L 206.80664 91.671875 L 208.68164 95.367188 L 207.19727 100.21484 L 205.49805 95.892578 L 206.77734 91.650391 z M 208.25781 92.763672 L 209.25 93.511719 L 209.01953 94.265625 L 208.25781 92.763672 z M 209.93164 94.023438 L 211.57812 95.263672 L 210.67773 97.535156 L 209.54102 95.296875 L 209.93164 94.023438 z M 209.20508 96.398438 L 210.2832 98.525391 L 208.40039 103.27344 L 207.66992 101.41406 L 209.20508 96.398438 z M 210.76758 99.476562 L 212.20703 102.31641 L 209.92969 107.16602 L 208.82812 104.36328 L 210.76758 99.476562 z M 207.29297 102.64258 L 207.96875 104.36133 L 206.33789 108.47266 L 206.07617 106.61719 L 207.29297 102.64258 z M 208.39648 105.45117 L 209.46289 108.16016 L 207.02344 113.35352 L 206.5625 110.07617 L 208.39648 105.45117 z M 209.86523 109.18359 L 212.44336 115.74219 L 211.97852 118.19727 L 207.62891 113.94727 L 209.86523 109.18359 z M 205.96484 111.58203 L 206.08594 112.43945 L 205.75391 112.11523 L 205.96484 111.58203 z M 207.26953 114.71484 L 211.79883 119.14062 L 211.74609 119.42383 L 207.79492 118.83984 L 207.22852 114.80273 L 207.26953 114.71484 z M 206.60547 116.12695 L 206.9707 118.7168 L 205.49219 118.49805 L 206.60547 116.12695 z M 207.91211 119.66406 L 211.5957 120.20898 L 210.75 124.66602 L 208.5625 124.29102 L 207.91211 119.66406 z M 212.38867 120.32617 L 213.125 120.43555 L 214.12891 121.41602 L 215.79688 123.20898 L 213.4082 125.12305 L 211.53906 124.80273 L 212.38867 120.32617 z M 214.47266 120.63477 L 218.30273 121.19922 L 216.42188 122.70703 L 214.70117 120.85742 L 214.47266 120.63477 z M 216.3418 123.79688 L 218.36719 125.97266 L 214.46094 125.30273 L 216.3418 123.79688 z M 211.39062 125.58789 L 212.57422 125.79102 L 211.13281 126.94727 L 211.39062 125.58789 z "
       id="path1175" />
    <path
       style="color:#000000;font-style:normal;font-variant:normal;font-weight:normal;font-stretch:normal;font-size:medium;line-height:normal;font-family:sans-serif;font-variant-ligatures:normal;font-variant-position:normal;font-variant-caps:normal;font-variant-numeric:normal;font-variant-alternates:normal;font-variant-east-asian:normal;font-feature-settings:normal;font-variation-settings:normal;text-indent:0;text-align:start;text-decoration:none;text-decoration-line:none;text-decoration-style:solid;text-decoration-color:#000000;letter-spacing:normal;word-spacing:normal;text-transform:none;writing-mode:lr-tb;direction:ltr;text-orientation:mixed;dominant-baseline:auto;baseline-shift:baseline;text-anchor:start;white-space:normal;shape-padding:0;shape-margin:0;inline-size:0;clip-rule:nonzero;display:inline;overflow:visible;visibility:visible;isolation:auto;mix-blend-mode:normal;color-interpolation:sRGB;color-interpolation-filters:linearRGB;solid-color:#000000;solid-opacity:1;vector-effect:none;fill:#000000;fill-opacity:1;fill-rule:nonzero;stroke:none;stroke-linecap:butt;stroke-linejoin:miter;stroke-miterlimit:4;stroke-dasharray:none;stroke-dashoffset:0;stroke-opacity:1;color-rendering:auto;image-rendering:auto;shape-rendering:auto;text-rendering:auto;enable-background:accumulate;stop-color:#000000;stop-opacity:1;opacity:1"
       d="M 237.03906 85.283203 L 236.82812 85.789062 L 234.30664 91.855469 L 226.77539 90.835938 L 228.05078 97.582031 L 222.83008 100.35156 L 226.17188 106.18945 L 222.67188 111.31445 L 227.70312 115.69141 L 225.78516 122.19922 L 232.22852 122.29297 L 232.82227 125.66602 L 239.77148 126.1875 L 242.95312 128.95508 L 245.67578 126.63086 L 248.95703 126.87695 L 249.42773 125.16992 L 253.30664 126.20508 L 253.81055 119.68359 L 260.57812 113.90625 L 259.59766 109.41602 L 261.91797 107.0918 L 258.42969 104.06836 L 256.56641 95.529297 L 254.99609 94.705078 L 255.52734 90.0625 L 250.91016 90.537109 L 249.23047 85.455078 L 243.20508 88.519531 L 237.03906 85.283203 z M 237.54102 86.677734 L 242.11133 89.074219 L 236.27344 92.044922 L 235.94531 92.078125 L 235.33203 91.994141 L 237.54102 86.677734 z M 248.64648 86.875 L 249.89062 90.642578 L 247.68555 90.869141 L 244.29102 89.087891 L 248.64648 86.875 z M 243.19727 89.644531 L 245.88477 91.054688 L 239.03906 91.759766 L 243.19727 89.644531 z M 254.39258 91.185547 L 254.04688 94.207031 L 251.71875 92.986328 L 251.23047 91.509766 L 254.39258 91.185547 z M 250.21289 91.615234 L 250.44531 92.316406 L 249.28711 91.710938 L 250.21289 91.615234 z M 247.48828 91.896484 L 250.89648 93.683594 L 253.28125 100.89648 L 253.27734 100.92383 L 253.29492 100.9375 L 254.07617 103.30469 L 253.2168 114.39258 L 250.65234 116.96289 L 249.17383 122.32812 L 247.62109 123.6543 L 239.13867 121.39258 L 235.72656 121.34375 L 232.59766 118.62109 L 231.77539 113.96094 L 230.11328 111.05664 L 231.0293 107.94727 L 229.97852 102.38867 L 236.27734 93.164062 L 236.55859 93.021484 L 247.48828 91.896484 z M 228.01562 92.013672 L 233.91016 92.8125 L 233.02344 94.945312 L 228.97656 97.091797 L 228.01562 92.013672 z M 234.93359 92.951172 L 235.1875 92.986328 L 234.50391 93.988281 L 234.93359 92.951172 z M 252.16992 94.353516 L 253.92383 95.273438 L 253.55078 98.53125 L 252.16992 94.353516 z M 254.87305 95.771484 L 255.68945 96.199219 L 257.16797 102.97461 L 254.33008 100.51367 L 254.87305 95.771484 z M 233.10742 96.03125 L 229.71484 101 L 229.16992 98.121094 L 233.10742 96.03125 z M 228.24609 98.611328 L 228.91797 102.16797 L 226.79883 105.26953 L 224.21094 100.75195 L 228.24609 98.611328 z M 254.76953 102.2168 L 257.52539 104.60742 L 258.50586 109.0957 L 254.30469 113.30469 L 255.08789 103.18164 L 254.76953 102.2168 z M 229.18164 103.55664 L 230.00195 107.89648 L 229.42383 109.85547 L 227.35156 106.23438 L 229.18164 103.55664 z M 258.78711 105.70117 L 260.45312 107.14453 L 259.34375 108.25586 L 258.78711 105.70117 z M 226.72461 107.15234 L 229.0332 111.18359 L 228.01562 114.63477 L 224 111.14258 L 226.72461 107.15234 z M 258.75977 110.25781 L 259.47461 113.53516 L 253.91992 118.27734 L 254.18555 114.83789 L 258.75977 110.25781 z M 229.7207 112.38477 L 230.82031 114.30664 L 231.39648 117.57617 L 228.84375 115.35742 L 229.7207 112.38477 z M 253.09961 115.92773 L 252.8457 119.19336 L 250.5293 121.17188 L 251.54688 117.48242 L 253.09961 115.92773 z M 228.5332 116.41211 L 231.67188 119.14258 L 232.05078 121.28906 L 227.11523 121.21875 L 228.5332 116.41211 z M 232.87305 120.1875 L 234.17578 121.32031 L 233.07031 121.30469 L 232.87305 120.1875 z M 252.73633 120.60156 L 252.40234 124.92773 L 249.69336 124.20703 L 250.05664 122.89062 L 252.73633 120.60156 z M 233.24805 122.30664 L 235.3457 122.33789 L 238.50977 125.08984 L 233.67383 124.72656 L 233.24805 122.30664 z M 236.89453 122.35938 L 239 122.39062 L 246.69727 124.44336 L 245.33984 125.60352 L 240.17773 125.21484 L 236.89453 122.35938 z M 247.87109 124.75586 L 248.46289 124.91406 L 248.21289 125.81836 L 246.75586 125.70898 L 247.87109 124.75586 z M 241.43945 126.3125 L 244.25977 126.52344 L 242.95898 127.63477 L 241.43945 126.3125 z "
       id="path1177" />
    <path
       style="color:#000000;font-style:normal;font-variant:normal;font-weight:normal;font-stretch:normal;font-size:medium;line-height:normal;font-family:sans-serif;font-variant-ligatures:normal;font-variant-position:normal;font-variant-caps:normal;font-variant-numeric:normal;font-variant-alternates:normal;font-variant-east-asian:normal;font-feature-settings:normal;font-variation-settings:normal;text-indent:0;text-align:start;text-decoration:none;text-decoration-line:none;text-decoration-style:solid;text-decoration-color:#000000;letter-spacing:normal;word-spacing:normal;text-transform:none;writing-mode:lr-tb;direction:ltr;text-orientation:mixed;dominant-baseline:auto;baseline-shift:baseline;text-anchor:start;white-space:normal;shape-padding:0;shape-margin:0;inline-size:0;clip-rule:nonzero;display:inline;overflow:visible;visibility:visible;isolation:auto;mix-blend-mode:normal;color-interpolation:sRGB;color-interpolation-filters:linearRGB;solid-color:#000000;solid-opacity:1;vector-effect:none;fill:#000000;fill-opacity:1;fill-rule:nonzero;stroke:none;stroke-linecap:butt;stroke-linejoin:miter;stroke-miterlimit:4;stroke-dasharray:none;stroke-dashoffset:0;stroke-opacity:1;color-rendering:auto;image-rendering:auto;shape-rendering:auto;text-rendering:auto;enable-background:accumulate;stop-color:#000000;stop-opacity:1;opacity:1"
       d="M 274.92773 84.40625 L 270.78125 90.136719 L 268.95312 86.154297 L 268.13477 86.529297 L 270.17383 90.974609 L 268.04688 93.914062 L 272.35352 95.722656 L 272.5332 96.113281 L 267.67773 104.14648 L 269.98438 110.99219 L 268.35156 114.5332 L 270.81055 115.54297 L 268.22656 122.82617 L 271.17969 124.73828 L 271.04297 126.68359 L 271.90625 126.89062 L 272.46094 125.56641 L 276.79492 128.37305 L 274.33789 121.08398 L 276.14844 116.76172 L 272.74219 115.36328 L 272.9707 112.15039 L 276.41992 102.42578 L 275.67578 100.80469 L 277.69727 96.421875 L 280.39258 90.455078 L 283.93164 95.966797 L 285.98438 91.941406 L 288.54492 95.273438 L 290.91992 86.6875 L 288.36914 87.265625 L 288.74414 86.529297 L 287.94336 86.119141 L 287.22656 87.523438 L 284.24023 88.199219 L 281.83594 85.072266 L 280.25391 88.574219 L 278.88477 86.441406 L 277.88867 89.636719 L 276.2207 90.013672 L 274.30859 93.175781 L 274.92773 84.40625 z M 282.03906 86.810547 L 283.27344 88.417969 L 281.08984 88.912109 L 282.03906 86.810547 z M 273.80664 87.492188 L 273.28711 94.867188 L 273.15625 95.082031 L 273.02539 95.027344 L 271.21289 91.076172 L 273.80664 87.492188 z M 289.65039 87.898438 L 288.1582 93.294922 L 286.43555 91.056641 L 287.83594 88.308594 L 289.65039 87.898438 z M 279.16992 88.552734 L 279.61523 89.246094 L 278.9043 89.40625 L 279.16992 88.552734 z M 286.69531 88.568359 L 285.82812 90.265625 L 284.8457 88.986328 L 286.69531 88.568359 z M 283.87891 89.205078 L 285.37695 91.152344 L 283.8418 94.162109 L 281.06836 89.841797 L 283.87891 89.205078 z M 279.52344 90.191406 L 276.87891 96.046875 L 276.74414 96.337891 L 278.59375 90.400391 L 279.52344 90.191406 z M 277.58008 90.630859 L 275.8418 96.210938 L 274.14453 95.498047 L 274.16992 95.148438 L 276.79297 90.808594 L 277.58008 90.630859 z M 270.60547 91.914062 L 271.79883 94.511719 L 269.44141 93.523438 L 270.60547 91.914062 z M 274.07812 96.447266 L 276.26953 97.367188 L 275.18164 99.726562 L 274.02539 97.205078 L 274.07812 96.447266 z M 272.98828 97.103516 L 273.10938 97.371094 L 272.54102 105.45312 L 270.5332 109.80273 L 268.66406 104.25586 L 272.98828 97.103516 z M 273.89258 99.076172 L 274.68555 100.80273 L 273.60547 103.14453 L 273.89258 99.076172 z M 275.17969 101.88086 L 275.44922 102.46875 L 273.20703 108.78906 L 273.42578 105.67969 L 275.17969 101.88086 z M 272.36133 107.98828 L 272.08203 111.96094 L 271.66211 113.14648 L 270.95117 111.04297 L 272.36133 107.98828 z M 270.4043 112.23242 L 271.17383 114.51758 L 271.11133 114.69336 L 269.56055 114.05664 L 270.4043 112.23242 z M 271.63867 115.89844 L 271.77539 116.30078 L 271.25195 123.71289 L 269.3125 122.45703 L 271.63867 115.89844 z M 272.73633 116.33203 L 274.96875 117.25 L 273.90234 119.79492 L 272.73633 116.33203 z M 272.52148 118.51172 L 273.37695 121.05273 L 272.13086 124.02344 L 272.52148 118.51172 z M 273.81055 122.3418 L 275.11719 126.21484 L 272.81445 124.72266 L 273.81055 122.3418 z "
       id="path1179" />
  </g>
</svg>
