<?xml version="1.0" encoding="UTF-8" standalone="no"?>
<svg
   xmlns:dc="http://purl.org/dc/elements/1.1/"
   xmlns:cc="http://creativecommons.org/ns#"
   xmlns:rdf="http://www.w3.org/1999/02/22-rdf-syntax-ns#"
   xmlns:svg="http://www.w3.org/2000/svg"
   xmlns="http://www.w3.org/2000/svg"
   xmlns:sodipodi="http://sodipodi.sourceforge.net/DTD/sodipodi-0.dtd"
   xmlns:inkscape="http://www.inkscape.org/namespaces/inkscape"
   width="660mm"
   height="210mm"
   viewBox="0 0 660 210"
   version="1.1"
   id="svg1187"
   inkscape:version="1.0.2-2 (e86c870879, 2021-01-15)"
   sodipodi:docname="frame.svg">
  <defs
     id="defs1181" />
  <sodipodi:namedview
     id="base"
     pagecolor="#ffffff"
     bordercolor="#666666"
     borderopacity="1.0"
     inkscape:pageopacity="0.0"
     inkscape:pageshadow="2"
     inkscape:zoom="0.34074713"
     inkscape:cx="1117.4612"
     inkscape:cy="33.717332"
     inkscape:document-units="mm"
     inkscape:current-layer="layer1"
     inkscape:document-rotation="0"
     showgrid="false"
     inkscape:window-width="1920"
     inkscape:window-height="1017"
     inkscape:window-x="1912"
     inkscape:window-y="-8"
     inkscape:window-maximized="1" />
  <metadata
     id="metadata1184">
    <rdf:RDF>
      <cc:Work
         rdf:about="">
        <dc:format>image/svg+xml</dc:format>
        <dc:type
           rdf:resource="http://purl.org/dc/dcmitype/StillImage" />
        <dc:title></dc:title>
      </cc:Work>
    </rdf:RDF>
  </metadata>
  <g
     inkscape:label="Ebene 1"
     inkscape:groupmode="layer"
     id="layer1">
    <path
       style="color:#000000;font-style:normal;font-variant:normal;font-weight:normal;font-stretch:normal;font-size:medium;line-height:normal;font-family:sans-serif;font-variant-ligatures:normal;font-variant-position:normal;font-variant-caps:normal;font-variant-numeric:normal;font-variant-alternates:normal;font-variant-east-asian:normal;font-feature-settings:normal;font-variation-settings:normal;text-indent:0;text-align:start;text-decoration:none;text-decoration-line:none;text-decoration-style:solid;text-decoration-color:#000000;letter-spacing:normal;word-spacing:normal;text-transform:none;writing-mode:lr-tb;direction:ltr;text-orientation:mixed;dominant-baseline:auto;baseline-shift:baseline;text-anchor:start;white-space:normal;shape-padding:0;shape-margin:0;inline-size:0;clip-rule:nonzero;display:inline;overflow:visible;visibility:visible;opacity:1;isolation:auto;mix-blend-mode:normal;color-interpolation:sRGB;color-interpolation-filters:linearRGB;solid-color:#000000;solid-opacity:1;vector-effect:none;fill:#000000;fill-opacity:1;fill-rule:nonzero;stroke:none;stroke-width:0.978261;stroke-linecap:butt;stroke-linejoin:miter;stroke-miterlimit:4;stroke-dasharray:none;stroke-dashoffset:0;stroke-opacity:1;color-rendering:auto;image-rendering:auto;shape-rendering:auto;text-rendering:auto;enable-background:accumulate;stop-color:#000000;stop-opacity:1"
       d="m 16.467441,1.1132812 -4.69899,10.0273438 -9.9007772,1.988281 4.2821746,6.914063 -4.4354432,1.324219 1.6784779,7.640624 -0.026168,0.05664 0.093457,0.244141 6.3587768,28.935547 -8.0540768,13.611328 9.8989059,23.939453 -9.3101303,27.710939 4.9027255,18.84766 -3.8242381,16.26757 2.8298613,26.28321 -5.0354335,6.07031 5.8746725,1.73828 1.0747492,9.98242 0.8093329,-0.0957 0.067289,0.84766 22.3585215,-1.96094 4.166289,4.89844 6.69335,-3.26368 19.736134,5.83985 30.246246,-5.11914 14.446493,4.02539 14.37734,-3.3086 16.61843,2.74219 43.94696,-4.70508 10.7531,4.78711 6.52139,-3.46875 41.30028,5.03711 18.25765,-4.02344 10.18862,3.54883 11.57926,-7.72265 41.91147,6 17.31375,-2.73243 10.6559,2.78321 9.71574,-6 2.09715,-0.33008 38.52837,7.38867 15.61844,-4.04101 15.35302,4.04687 23.1529,-5.82422 40.97131,4.70703 21.3305,-3.40234 11.70449,3.9707 12.0914,-2.4707 22.6744,3.00586 26.84443,-6.01172 26.24818,6.1582 2.28594,-8.91406 10.57554,3.15625 -3.17939,-8.44531 4.38871,-0.98242 -4.9102,-20.52735 4.74572,-18.50195 -2.7364,-19.9043 2.80929,-8.25976 -5.06346,-8.15235 -1.22429,-8.90234 6.21486,-30.035158 -3.97751,-24.148437 4.11021,-10.679688 -7.01671,-6.960937 -1.42053,-8.625 L 628.51373,3.4746094 592.15731,5.6757812 588.23214,1.78125 576.65849,5.6679688 549.53556,2.4238281 535.33579,9.1152344 530.61437,9.4003906 517.65944,2.3613281 501.37371,9.0722656 481.33104,3.5058594 463.8117,9.6074219 458.03235,9.1523438 442.01204,2.9609375 425.31698,6.5761719 386.74564,3.5371094 375.70096,5.34375 361.54791,2.4257812 340.20807,7.359375 320.01026,3.5214844 297.46482,9.9941406 293.73591,9.5507812 285.04446,2.9472656 266.00738,6.2617188 229.13881,1.8886719 215.34277,3.7792969 204.99527,1.3300781 185.30213,4.96875 168.20333,1.3300781 134.55154,7.6757812 92.473703,3.5332031 85.326154,5.3105469 68.864735,1.3183594 52.622004,6.1679688 44.182885,4.6269531 31.141972,7.2480469 Z M 168.18464,3.0625 180.93398,5.7773438 158.10817,9.9941406 140.57387,8.2675781 Z m 36.77138,0 5.72701,1.3554688 L 193.66835,6.75 189.64037,5.8925781 Z M 68.905856,3.0742188 81.772939,6.1953125 69.498369,9.25 56.296711,6.8378906 Z M 17.265559,3.2773438 28.183141,7.8417969 13.768418,10.738281 Z m 211.886331,0.3242187 31.01073,3.6777344 -17.3044,3.0136721 -22.92861,-5.4277346 z m 358.6597,0.1074219 2.11772,2.1015625 -8.02791,0.4863281 -1.32148,-0.1582031 z m -226.24498,0.453125 9.44844,1.9472656 -20.08753,3.2851562 -6.58494,-1.25 z m 188.22876,0.00391 22.60711,2.7050782 -32.52471,1.96875 z m -32.22939,0.060547 9.87461,5.3652344 -19.86698,1.2031252 -3.55134,-0.9863283 z m -75.68104,0.4980469 10.25592,3.9648437 -20.9436,-1.6503906 z m -157.24608,0.015625 5.8186,4.421875 -18.56419,-2.2011719 z m 102.1722,0.5078125 32.73219,2.578125 -15.51003,3.3574222 -23.67627,-4.8808597 z m -294.22334,0.0039 36.01624,3.5449219 -16.26515,3.066406 -23.455703,-5.6894529 z m 227.49543,0.011719 16.02218,3.0429687 -17.92308,4.1445312 -16.3717,-1.941406 z m 161.30023,0.015625 17.43897,4.8437499 -3.41677,1.408203 -4.05787,0.246094 -23.34169,-1.8378907 z m 144.96404,0.029297 -4.94198,18.8593749 -2.20931,-13.410157 -24.9211,-2.9804679 -0.49905,-0.4980469 z M 215.268,5.5039062 238.61717,11.03125 224.9557,13.410156 198.56546,7.7929688 Z M 44.19597,6.3554688 49.035145,7.2382812 38.584844,10.359375 33.938189,8.4160156 Z m 141.07812,0.3457031 3.43172,0.7285156 -23.67999,3.2460935 -0.82242,-0.08008 z M 85.328023,7.0585938 108.2884,12.626953 98.307253,14.509766 73.548772,9.9882812 Z m 290.343027,0.011719 24.26504,5.0019532 -16.32124,3.533203 -27.81825,-5.285157 z m 215.87692,0.34375 0.0393,0.041016 -0.23552,-0.029297 z m -538.838117,0.4960937 12.786711,2.3339845 -17.040849,4.240234 -7.40362,-3.09375 z m 213.340517,0.068359 27.07434,3.2109375 0.0486,0.03516 -20.96042,6.017579 -25.15847,-5.955079 z m 315.80243,0.023437 11.69701,1.3984375 25.17904,24.978515 -4.21302,16.080078 3.05789,22.25586 -8.39612,21.814453 12.15868,19.570314 -5.25038,25.375 3.26724,13.65625 -4.87656,14.3457 6.3569,16.88477 -2.41865,9.42773 -6.56811,1.47071 -13.28016,-3.96485 -24.53793,5.01367 -9.62228,-2.25781 -41.8741,6.67969 -13.28016,-1.75977 -21.03144,-7.13476 -11.31945,2.84765 -21.33797,-2.82812 -22.99403,5.94922 -37.40127,-4.29688 -7.23353,1.14258 -14.94368,-3.93945 -12.54934,7.74804 -43.03295,-8.2539 -13.08577,2.88281 -11.21664,-2.92969 -12.09515,8.06641 -2.54201,0.56055 -33.02003,-4.72657 -9.96993,1.06641 -14.28015,-4.97266 -15.30069,8.14063 -20.78658,2.22461 -5.49525,-0.66992 -15.54554,-6.91993 -14.26706,3.28321 -13.15493,-1.60547 -32.31725,5.46875 -26.483681,-4.36914 -6.454103,0.5664 -12.042798,-3.35546 -11.033469,5.38086 -12.631574,1.10742 -5.170011,-1.5293 -16.637117,-19.55859 3.360693,-4.05274 -5.383091,-20.69922 10.076475,-37.22461 -4.392453,-10.62109 2.263515,-9.626954 -2.57566,-11.724609 4.184979,-12.458985 -6.953159,-18.28125 7.046617,-11.910156 -12.6689571,-20.458985 0.1364464,-0.291015 29.5228927,-8.814453 9.833488,4.111328 21.218353,-5.279297 28.764025,5.251953 13.982959,-2.636719 15.41657,3.740235 30.46868,-5.63086 6.87465,0.675782 28.54721,-3.9121094 31.32473,6.6679684 17.8857,-3.115234 29.43691,6.96875 22.60525,-6.488282 7.1438,5.427735 16.27078,-3.761719 8.09893,0.960937 24.53792,-4.013671 32.72846,6.21875 20.40901,-4.419922 34.80505,7.175781 22.51367,-7.841797 18.95296,7.326172 15.44649,-6.365234 11.6428,-0.705079 15.53246,4.314454 9.53631,-4.494141 11.33626,6.160156 29.72102,-9.9824212 z m -156.42927,0.2871094 32.25742,2.5410151 1.24298,0.480469 -20.18099,7.029297 -30.60139,-6.308594 z m 141.62204,0.609375 -23.08562,7.7539061 -9.5961,-5.214844 1.36819,-0.644531 z M 30.981227,9.0117188 36.029745,11.121094 9.9367038,18.912109 12.873105,12.648438 Z m 309.256743,0.082031 5.80178,1.1015622 -19.70436,3.222657 -3.17565,-0.376953 z m -205.61167,0.296875 17.45766,1.7167972 -24.32671,4.496094 -11.40917,-2.767578 z m 461.61132,0.3320312 21.56227,2.580078 2.59249,15.734375 -1.17569,4.482422 z m -94.76671,1.136719 0.90279,0.25 -1.77007,0.107422 z m 28.78832,0.265625 0.37756,0.205078 -7.84098,3.69336 -10.1905,-2.830079 z m -66.2438,0.203125 26.76593,2.109375 -10.48395,4.320312 -16.46702,-6.365234 z m -166.4235,0.390625 15.6988,1.863281 -10.92693,2.525391 -5.49897,-4.179688 z m -286.718792,1.332031 -3.0429427,6.490235 -0.046728,0.01367 -3.2392006,-5.232422 z m -4.0055441,8.546875 -2.3382804,4.986328 -0.8840981,-4.02539 z m 1.1364305,1.439453 11.5792546,18.701172 -5.870934,9.921875 -8.566219,-22.52539 z m 613.0388056,8.951172 0.4598,2.798828 -0.94764,-0.941406 z m -0.97569,3.71875 1.89718,1.88086 2.7364,16.611328 -5.9158,15.36914 -2.61117,-19.001953 z m 3.87098,3.839844 4.63356,4.595703 -2.71398,7.052734 z M 7.4115104,39.699219 12.646941,53.462891 11.035751,56.1875 Z M 13.394592,55.429688 19.676735,71.945312 16.545944,81.265625 11.5535,58.542969 Z m 611.831348,1.960937 3.47658,21.105469 -5.22234,25.236326 -4.23358,-30.804686 z m -614.889242,3.208984 5.199917,23.666016 -3.078456,9.164063 -8.86341,-21.433594 z m 607.698712,15.472657 4.45787,32.433594 -0.6729,3.25195 -10.81664,-17.412107 z m -601.816564,11.296875 1.913988,8.708984 -1.659786,7.060545 -3.063503,-7.408201 z m -3.60368,10.724609 3.21677,7.77734 -7.7755761,33.07813 -3.999936,-15.37891 z m 4.284044,10.35937 3.310227,8.00586 -9.181162,33.91993 -2.0934244,-8.04688 z m 606.25947,4.88868 0.10094,0.73242 -0.19066,-0.30469 z m -0.57382,2.76953 1.22428,1.9707 2.14763,15.62695 -5.6186,16.52735 -2.58127,-10.79102 z m 3.33453,5.36719 2.7121,4.36523 -1.50464,4.42187 z m 0.53457,15.84765 2.24856,16.35742 -3.90087,15.20899 -3.74947,-15.67578 z m -618.3190966,8.41016 2.0336116,7.81836 -4.039187,14.92383 -1.0485815,-9.7461 z m 611.9322766,10.37695 3.86723,16.16016 -2.39248,9.32617 -5.32889,-14.15234 z m -609.07064,0.62695 4.446658,17.09571 -2.654163,3.19922 -5.5270149,-6.4961 z m -4.4616111,15.50196 5.1793571,6.08984 -4.0036749,4.82617 z m 618.2125611,3.42969 3.79246,15.8496 -3.00743,0.67383 -2.98874,-7.93554 z m -611.943502,3.93945 14.801633,17.40234 -19.0090427,-5.625 -0.6392422,-5.93359 z m 609.031392,7.41015 2.08408,5.53516 -3.7177,0.83203 z m -615.3266188,0.18164 0.3962552,3.68555 -2.7737873,-0.82226 z m 310.9221288,4.73438 39.59003,7.59375 -17.47449,2.75781 -31.61632,-8.25781 z m -24.03886,0.0469 7.29334,1.90624 -15.15864,3.33985 z m -72.0624,0.006 10.21292,3.55665 -21.15667,2.26562 z m 151.91159,0.53907 10.53442,2.77734 -20.19408,3.1875 z m 225.25435,0.51367 9.96619,2.97461 -18.25017,4.08594 -12.23532,-2.86914 z m -589.7027332,0.16992 20.8220972,6.16211 0.444853,0.52344 -20.3548148,1.78711 z m 446.8657632,0.36914 16.77917,2.22461 -17.95672,4.51563 -17.2259,-1.97852 z m 32.49667,0.0195 12.45028,4.22266 -19.1511,-2.53711 z m 136.36792,0.5586 2.071,5.5039 -7.43166,-2.21875 0.56635,-2.21093 z m -460.61133,0.54492 9.98488,4.44336 -19.14923,-2.33594 z m -104.407684,0.0117 7.091476,1.97656 -13.588569,1.19141 z m 244.788614,0.11523 31.0724,8.11719 -13.22222,2.08789 -38.8947,-5.56836 z m 90.90883,0.39063 32.79013,3.76757 -11.90448,3.08008 -24.07065,-6.3457 z m 222.74037,0.41211 -0.34579,1.34179 -2.4224,-0.72265 z m -372.52116,0.13476 28.33039,4.05469 -15.17919,3.3457 -19.34362,-6.73828 z m 318.92762,0.01 5.71018,1.33984 -29.42382,6.01172 -12.2185,-1.61914 z m -427.66233,0.54297 8.25408,1.00781 -23.91177,5.5 -11.54188,-1.9043 z m 251.17169,0.0605 24.8725,6.55469 -12.31569,3.1875 -33.53404,-6.43164 z m 89.13503,0.0273 31.90229,4.22656 4.54946,1.54297 -17.91748,2.85937 -36.27231,-4.16797 z m -241.69895,0.44336 20.12678,7.00976 -15.27825,3.36719 -38.60687,-4.70899 4.8317,-2.57226 z m 376.49492,0.1582 5.38683,1.60742 -1.88969,7.36719 -21.2819,-4.99219 z m -534.000813,0.40625 21.39218,3.5293 -6.846619,1.1582 -16.280113,-4.53516 z m 72.096043,0.51367 27.75283,3.38672 -39.89656,4.26953 -12.30635,-2.03125 z m -78.628649,0.0586 17.152997,4.7793 -26.306122,4.45313 -17.57729,-5.20118 4.214886,-2.05468 z m 502.750849,0.0547 12.40728,2.91016 -23.123,5.17773 -17.51561,-2.32226 z m -141.32672,1.48242 17.13431,1.96875 -18.3698,4.6211 -12.00354,-3.16407 z m -388.629303,0.84961 -1.917726,0.93555 -1.999968,-0.5918 z m 157.827383,0.0527 -3.25976,1.73437 -6.0485,-0.73633 z m 75.24366,0.39062 -8.67837,5.78711 -6.81484,-2.37304 z m -241.594271,0.30469 4.349463,1.28711 -3.887788,1.89648 -2.551361,-3 z m 320.017321,0.35742 -5.67468,3.50391 -6.22232,-1.625 z m -251.20907,0.31446 12.33812,2.03515 -9.93816,2.28711 -10.556845,-2.94141 z m 80.75945,0.42968 10.9045,1.33008 -3.66535,1.95117 -7.34569,-3.26953 z m 337.45442,0.22071 12.99793,1.72265 -6.84849,1.39844 -8.22417,-2.79102 z"
       id="path1792" />
  </g>
</svg>
