<?xml version="1.0" encoding="UTF-8" ?>
<svg width="500mm" height="500mm" xmlns="http://www.w3.org/2000/svg" version="1.1">
<g id="0">
<polyline fill="none" stroke="#000000" stroke-width="1.0" stroke-opacity="1" points="
-1.0000,495.0000
-1.0000,0.0000
0.0000,0.0000
0.0000,495.0000
1.0000,495.0000
1.0000,0.0000
" />
<polyline fill="none" stroke="#000000" stroke-width="1.0" stroke-opacity="1" points="
55.0000,495.0000
55.0000,0.0000
" />
<polyline fill="none" stroke="#000000" stroke-width="1.0" stroke-opacity="1" points="
110.0000,0.0000
110.0000,495.0000
" />
<polyline fill="none" stroke="#000000" stroke-width="1.0" stroke-opacity="1" points="
164.0000,495.0000
164.0000,0.0000
165.0000,0.0000
165.0000,495.0000
166.0000,495.0000
166.0000,0.0000
" />
<polyline fill="none" stroke="#000000" stroke-width="1.0" stroke-opacity="1" points="
220.0000,0.0000
220.0000,495.0000
" />
<polyline fill="none" stroke="#000000" stroke-width="1.0" stroke-opacity="1" points="
275.0000,495.0000
275.0000,0.0000
" />
<polyline fill="none" stroke="#000000" stroke-width="1.0" stroke-opacity="1" points="
329.0000,495.0000
329.0000,0.0000
330.0000,0.0000
330.0000,495.0000
331.0000,495.0000
331.0000,0.0000
" />
<polyline fill="none" stroke="#000000" stroke-width="1.0" stroke-opacity="1" points="
385.0000,495.0000
385.0000,0.0000
" />
<polyline fill="none" stroke="#000000" stroke-width="1.0" stroke-opacity="1" points="
440.0000,0.0000
440.0000,495.0000
" />
<polyline fill="none" stroke="#000000" stroke-width="1.0" stroke-opacity="1" points="
494.0000,495.0000
494.0000,0.0000
495.0000,0.0000
495.0000,495.0000
496.0000,495.0000
496.0000,0.0000
" />
<polyline fill="none" stroke="#000000" stroke-width="1.0" stroke-opacity="1" points="
495.0000,-1.0000
0.0000,-1.0000
0.0000,0.0000
495.0000,0.0000
495.0000,1.0000
0.0000,1.0000
" />
<polyline fill="none" stroke="#000000" stroke-width="1.0" stroke-opacity="1" points="
495.0000,55.0000
0.0000,55.0000
" />
<polyline fill="none" stroke="#000000" stroke-width="1.0" stroke-opacity="1" points="
0.0000,110.0000
495.0000,110.0000
" />
<polyline fill="none" stroke="#000000" stroke-width="1.0" stroke-opacity="1" points="
495.0000,164.0000
0.0000,164.0000
0.0000,165.0000
495.0000,165.0000
495.0000,166.0000
0.0000,166.0000
" />
<polyline fill="none" stroke="#000000" stroke-width="1.0" stroke-opacity="1" points="
0.0000,220.0000
495.0000,220.0000
" />
<polyline fill="none" stroke="#000000" stroke-width="1.0" stroke-opacity="1" points="
495.0000,275.0000
0.0000,275.0000
" />
<polyline fill="none" stroke="#000000" stroke-width="1.0" stroke-opacity="1" points="
495.0000,329.0000
0.0000,329.0000
0.0000,330.0000
495.0000,330.0000
495.0000,331.0000
0.0000,331.0000
" />
<polyline fill="none" stroke="#000000" stroke-width="1.0" stroke-opacity="1" points="
495.0000,385.0000
0.0000,385.0000
" />
<polyline fill="none" stroke="#000000" stroke-width="1.0" stroke-opacity="1" points="
0.0000,440.0000
495.0000,440.0000
" />
<polyline fill="none" stroke="#000000" stroke-width="1.0" stroke-opacity="1" points="
495.0000,494.0000
0.0000,494.0000
0.0000,495.0000
495.0000,495.0000
495.0000,496.0000
0.0000,496.0000
" />
<polyline fill="none" stroke="#000000" stroke-width="1.0" stroke-opacity="1" points="
20.0451,13.6958
24.2281,11.6043
30.6377,5.1947
30.6377,49.8592
" />
<polyline fill="none" stroke="#000000" stroke-width="1.0" stroke-opacity="1" points="
41.5201,75.0527
39.4286,81.4623
35.1780,85.6454
28.8360,87.8044
26.6770,87.8044
20.3349,85.6454
16.0169,81.4623
13.9253,75.0527
13.9253,72.9612
16.0169,66.5517
20.3349,62.3011
26.6770,60.1421
28.8360,60.1421
35.1780,62.3011
39.4286,66.5517
41.5201,75.0527
41.5201,85.6454
39.4286,96.3055
35.1780,102.6813
28.8360,104.8065
24.5180,104.8065
18.1759,102.6813
16.0169,98.4307
" />
<polyline fill="none" stroke="#000000" stroke-width="1.0" stroke-opacity="1" points="
32.8172,434.8065
32.8172,390.1421
11.5645,419.9634
43.4773,419.9634
" />
<polyline fill="none" stroke="#000000" stroke-width="1.0" stroke-opacity="1" points="
23.6917,445.3782
17.3496,447.5372
15.1906,451.7878
15.1906,456.0383
17.3496,460.2888
21.6001,462.3804
30.1012,464.5394
36.5108,466.6984
40.6938,470.8814
42.8528,475.1995
42.8528,481.5415
40.6938,485.7921
38.6023,487.9174
32.1927,490.0426
23.6917,490.0426
17.3496,487.9174
15.1906,485.7921
13.0990,481.5415
13.0990,475.1995
15.1906,470.8814
19.5086,466.6984
25.8507,464.5394
34.3518,462.3804
38.6023,460.2888
40.6938,456.0383
40.6938,451.7878
38.6023,447.5372
32.1927,445.3782
23.6917,445.3782
" />
<polyline fill="none" stroke="#000000" stroke-width="1.0" stroke-opacity="1" points="
72.9918,10.9995
76.4192,8.4357
80.8721,6.4791
84.4480,6.4791
88.2937,7.5586
91.4648,10.1224
92.9491,13.4958
93.6238,17.5440
92.5443,21.1873
88.9009,23.9535
84.9203,26.0451
81.4794,26.7197
78.9155,26.7197
82.1540,26.7197
85.5275,27.1246
88.9009,28.4065
92.5443,31.1727
94.2310,33.7365
94.9057,36.7051
94.7033,39.8762
94.0286,42.4400
91.9370,45.4019
88.9009,47.3113
85.1227,48.3705
81.0745,48.3705
77.2288,47.3113
73.4168,45.1860
71.0824,43.0472
" />
<polyline fill="none" stroke="#000000" stroke-width="1.0" stroke-opacity="1" points="
78.6917,60.3782
72.3496,62.5372
70.1906,66.7877
70.1906,71.0383
72.3496,75.2888
76.6001,77.3804
85.1012,79.5394
91.5108,81.6984
95.6938,85.8814
97.8528,90.1995
97.8528,96.5415
95.6938,100.7921
93.6023,102.9173
87.1927,105.0426
78.6917,105.0426
72.3496,102.9173
70.1906,100.7921
68.0990,96.5415
68.0990,90.1995
70.1906,85.8814
74.5086,81.6984
80.8507,79.5394
89.3518,77.3804
93.6023,75.2888
95.6938,71.0383
95.6938,66.7877
93.6023,62.5372
87.1927,60.3782
78.6917,60.3782
" />
<polyline fill="none" stroke="#000000" stroke-width="1.0" stroke-opacity="1" points="
75.0451,178.6958
79.2281,176.6043
85.6377,170.1947
85.6377,214.8592
" />
<polyline fill="none" stroke="#000000" stroke-width="1.0" stroke-opacity="1" points="
96.5201,405.0527
94.4286,411.4623
90.1780,415.6454
83.8360,417.8044
81.6770,417.8044
75.3349,415.6454
71.0169,411.4623
68.9253,405.0527
68.9253,402.9612
71.0169,396.5517
75.3349,392.3011
81.6770,390.1421
83.8360,390.1421
90.1780,392.3011
94.4286,396.5517
96.5201,405.0527
96.5201,415.6454
94.4286,426.3055
90.1780,432.6813
83.8360,434.8065
79.5180,434.8065
73.1759,432.6813
71.0169,428.4307
" />
<polyline fill="none" stroke="#000000" stroke-width="1.0" stroke-opacity="1" points="
93.4843,445.4962
72.2316,445.4962
70.0726,464.6574
72.2316,462.4984
78.5736,460.4069
84.9832,460.4069
91.3927,462.4984
95.5758,466.8164
97.7348,473.1585
97.7348,477.4090
95.5758,483.7849
91.3927,488.0354
84.9832,490.1606
78.5736,490.1606
72.2316,488.0354
70.0726,485.9101
67.9810,481.6596
" />
<polyline fill="none" stroke="#000000" stroke-width="1.0" stroke-opacity="1" points="
204.2774,231.5517
202.1858,227.3011
195.7763,225.1421
191.5932,225.1421
185.1837,227.3011
180.9331,233.6432
178.7741,244.3033
178.7741,254.9634
180.9331,263.4307
185.1837,267.6813
191.5932,269.8065
193.6847,269.8065
200.0943,267.6813
204.2774,263.4307
206.4364,257.0549
206.4364,254.9634
204.2774,248.5538
200.0943,244.3033
193.6847,242.1443
191.5932,242.1443
185.1837,244.3033
180.9331,248.5538
178.7741,254.9634
" />
<polyline fill="none" stroke="#000000" stroke-width="1.0" stroke-opacity="1" points="
180.0689,400.8540
180.0689,398.6949
182.2279,394.5119
184.3869,392.3529
188.5700,390.1939
197.0711,390.1939
201.3891,392.3529
203.4806,394.5119
205.5721,398.6949
205.5721,403.0130
203.4806,407.1960
199.2301,413.6056
177.9774,434.8583
207.7311,434.8583
" />
<polyline fill="none" stroke="#000000" stroke-width="1.0" stroke-opacity="1" points="
177.6269,445.4962
207.3807,445.4962
186.1280,490.1606
" />
<polyline fill="none" stroke="#000000" stroke-width="1.0" stroke-opacity="1" points="
237.9918,65.9995
241.4192,63.4357
245.8721,61.4791
249.4480,61.4791
253.2937,62.5586
256.4648,65.1224
257.9491,68.4958
258.6237,72.5440
257.5443,76.1873
253.9009,78.9535
249.9203,81.0451
246.4794,81.7197
243.9155,81.7197
247.1540,81.7197
250.5275,82.1246
253.9009,83.4065
257.5443,86.1727
259.2310,88.7365
259.9057,91.7051
259.7032,94.8762
259.0286,97.4400
256.9370,100.4019
253.9009,102.3113
250.1227,103.3705
246.0745,103.3705
242.2288,102.3113
238.4168,100.1860
236.0824,98.0472
" />
<polyline fill="none" stroke="#000000" stroke-width="1.0" stroke-opacity="1" points="
261.5201,130.0527
259.4286,136.4623
255.1780,140.6454
248.8360,142.8044
246.6770,142.8044
240.3349,140.6454
236.0169,136.4623
233.9253,130.0527
233.9253,127.9612
236.0169,121.5517
240.3349,117.3011
246.6770,115.1421
248.8360,115.1421
255.1780,117.3011
259.4286,121.5517
261.5201,130.0527
261.5201,140.6454
259.4286,151.3055
255.1780,157.6813
248.8360,159.8065
244.5180,159.8065
238.1759,157.6813
236.0169,153.4307
" />
<polyline fill="none" stroke="#000000" stroke-width="1.0" stroke-opacity="1" points="
235.0689,180.8540
235.0689,178.6950
237.2279,174.5119
239.3869,172.3529
243.5700,170.1939
252.0711,170.1939
256.3891,172.3529
258.4806,174.5119
260.5721,178.6950
260.5721,183.0130
258.4806,187.1960
254.2301,193.6056
232.9774,214.8583
262.7311,214.8583
" />
<polyline fill="none" stroke="#000000" stroke-width="1.0" stroke-opacity="1" points="
240.0451,398.6958
244.2281,396.6043
250.6377,390.1947
250.6377,434.8592
" />
<polyline fill="none" stroke="#000000" stroke-width="1.0" stroke-opacity="1" points="
316.5201,185.0527
314.4286,191.4623
310.1780,195.6454
303.8360,197.8044
301.6770,197.8044
295.3349,195.6454
291.0169,191.4623
288.9254,185.0527
288.9254,182.9612
291.0169,176.5517
295.3349,172.3011
301.6770,170.1421
303.8360,170.1421
310.1780,172.3011
314.4286,176.5517
316.5201,185.0527
316.5201,195.6454
314.4286,206.3055
310.1780,212.6813
303.8360,214.8065
299.5179,214.8065
293.1759,212.6813
291.0169,208.4307
" />
<polyline fill="none" stroke="#000000" stroke-width="1.0" stroke-opacity="1" points="
307.8172,489.8065
307.8172,445.1421
286.5645,474.9634
318.4773,474.9634
" />
<polyline fill="none" stroke="#000000" stroke-width="1.0" stroke-opacity="1" points="
345.0689,235.8540
345.0689,233.6950
347.2279,229.5119
349.3869,227.3529
353.5700,225.1939
362.0710,225.1939
366.3891,227.3529
368.4806,229.5119
370.5721,233.6950
370.5721,238.0130
368.4806,242.1960
364.2301,248.6056
342.9774,269.8583
372.7311,269.8583
" />
<polyline fill="none" stroke="#000000" stroke-width="1.0" stroke-opacity="1" points="
371.5201,460.0527
369.4286,466.4623
365.1780,470.6454
358.8360,472.8044
356.6770,472.8044
350.3349,470.6454
346.0169,466.4623
343.9254,460.0527
343.9254,457.9612
346.0169,451.5517
350.3349,447.3011
356.6770,445.1421
358.8360,445.1421
365.1780,447.3011
369.4286,451.5517
371.5201,460.0527
371.5201,470.6454
369.4286,481.3055
365.1780,487.6813
358.8360,489.8065
354.5179,489.8065
348.1759,487.6813
346.0169,483.4307
" />
<polyline fill="none" stroke="#000000" stroke-width="1.0" stroke-opacity="1" points="
417.8172,49.8065
417.8172,5.1421
396.5645,34.9634
428.4773,34.9634
" />
<polyline fill="none" stroke="#000000" stroke-width="1.0" stroke-opacity="1" points="
397.6269,170.4962
427.3807,170.4962
406.1280,215.1607
" />
<polyline fill="none" stroke="#000000" stroke-width="1.0" stroke-opacity="1" points="
408.6917,280.3782
402.3496,282.5372
400.1906,286.7878
400.1906,291.0383
402.3496,295.2888
406.6001,297.3804
415.1012,299.5394
421.5107,301.6984
425.6938,305.8814
427.8528,310.1995
427.8528,316.5415
425.6938,320.7921
423.6023,322.9174
417.1927,325.0426
408.6917,325.0426
402.3496,322.9174
400.1906,320.7921
398.0990,316.5415
398.0990,310.1995
400.1906,305.8814
404.5086,301.6984
410.8507,299.5394
419.3517,297.3804
423.6023,295.2888
425.6938,291.0383
425.6938,286.7878
423.6023,282.5372
417.1927,280.3782
408.6917,280.3782
" />
<polyline fill="none" stroke="#000000" stroke-width="1.0" stroke-opacity="1" points="
455.0689,70.8540
455.0689,68.6950
457.2279,64.5119
459.3869,62.3529
463.5700,60.1939
472.0710,60.1939
476.3891,62.3529
478.4806,64.5119
480.5721,68.6950
480.5721,73.0130
478.4806,77.1960
474.2301,83.6056
452.9774,104.8583
482.7311,104.8583
" />
<polyline fill="none" stroke="#000000" stroke-width="1.0" stroke-opacity="1" points="
478.4843,335.4962
457.2316,335.4962
455.0726,354.6574
457.2316,352.4984
463.5736,350.4069
469.9832,350.4069
476.3927,352.4984
480.5758,356.8164
482.7348,363.1585
482.7348,367.4090
480.5758,373.7849
476.3927,378.0354
469.9832,380.1606
463.5736,380.1606
457.2316,378.0354
455.0726,375.9101
452.9810,371.6596
" />
<polyline fill="none" stroke="#000000" stroke-width="1.0" stroke-opacity="1" points="
460.0450,453.6958
464.2281,451.6043
470.6377,445.1947
470.6377,489.8592
" />
<polyline fill="none" stroke="#ff5050" stroke-width="1.0" stroke-opacity="1" points="
40.2011,120.3008
37.9455,115.7169
31.0332,113.3885
26.5221,113.3885
19.6098,115.7169
15.0259,122.5564
12.6976,134.0526
12.6976,145.5487
15.0259,154.6802
19.6098,159.2641
26.5221,161.5561
28.7777,161.5561
35.6899,159.2641
40.2011,154.6802
42.5294,147.8043
42.5294,145.5487
40.2011,138.6365
35.6899,134.0526
28.7777,131.7242
26.5221,131.7242
19.6098,134.0526
15.0259,138.6365
12.6976,145.5487
" />
<polyline fill="none" stroke="#ff5050" stroke-width="1.0" stroke-opacity="1" points="
17.2460,174.7053
20.9423,171.9404
25.7445,169.8304
29.6008,169.8304
33.7481,170.9945
37.1679,173.7594
38.7686,177.3975
39.4962,181.7631
38.3320,185.6922
34.4030,188.6754
30.1101,190.9309
26.3993,191.6586
23.6344,191.6586
27.1269,191.6586
30.7649,192.0951
34.4030,193.4776
38.3320,196.4608
40.1511,199.2256
40.8787,202.4271
40.6604,205.8469
39.9328,208.6118
37.6772,211.8060
34.4030,213.8651
30.3284,215.0074
25.9627,215.0074
21.8154,213.8651
17.7044,211.5731
15.1869,209.2666
" />
<polyline fill="none" stroke="#ff5050" stroke-width="1.0" stroke-opacity="1" points="
39.3458,223.7704
16.4262,223.7704
14.0979,244.4344
16.4262,242.1061
23.2657,239.8505
30.1780,239.8505
37.0902,242.1061
41.6014,246.7628
43.9297,253.6023
43.9297,258.1862
41.6014,265.0621
37.0902,269.6460
30.1780,271.9380
23.2657,271.9380
16.4262,269.6460
14.0979,267.3540
11.8423,262.7701
" />
<polyline fill="none" stroke="#ff5050" stroke-width="1.0" stroke-opacity="1" points="
14.0939,289.9406
14.0939,287.6122
16.4222,283.1010
18.7506,280.7727
23.2617,278.4444
32.4296,278.4444
37.0863,280.7727
39.3418,283.1010
41.5974,287.6122
41.5974,292.2689
39.3418,296.7800
34.7579,303.6923
11.8383,326.6119
43.9258,326.6119
" />
<polyline fill="none" stroke="#ff5050" stroke-width="1.0" stroke-opacity="1" points="
11.4604,333.7704
43.5478,333.7704
20.6282,381.9380
" />
<polyline fill="none" stroke="#ff5050" stroke-width="1.0" stroke-opacity="1" points="
88.2343,161.5561
88.2343,113.3885
65.3147,145.5487
99.7304,145.5487
" />
<polyline fill="none" stroke="#ff5050" stroke-width="1.0" stroke-opacity="1" points="
66.4604,223.7704
98.5478,223.7704
75.6282,271.9380
" />
<polyline fill="none" stroke="#ff5050" stroke-width="1.0" stroke-opacity="1" points="
95.2011,285.3008
92.9455,280.7169
86.0332,278.3885
81.5221,278.3885
74.6098,280.7169
70.0259,287.5564
67.6976,299.0526
67.6976,310.5487
70.0259,319.6802
74.6098,324.2641
81.5221,326.5561
83.7777,326.5561
90.6899,324.2641
95.2011,319.6802
97.5294,312.8043
97.5294,310.5487
95.2011,303.6365
90.6899,299.0526
83.7777,296.7242
81.5221,296.7242
74.6098,299.0526
70.0259,303.6365
67.6976,310.5487
" />
<polyline fill="none" stroke="#ff5050" stroke-width="1.0" stroke-opacity="1" points="
69.0939,344.9406
69.0939,342.6122
71.4222,338.1010
73.7506,335.7727
78.2617,333.4444
87.4296,333.4444
92.0863,335.7727
94.3418,338.1010
96.5974,342.6122
96.5974,347.2689
94.3418,351.7800
89.7579,358.6923
66.8383,381.6119
98.9258,381.6119
" />
<polyline fill="none" stroke="#ff5050" stroke-width="1.0" stroke-opacity="1" points="
124.0939,14.9405
124.0939,12.6122
126.4222,8.1010
128.7506,5.7727
133.2617,3.4444
142.4296,3.4444
147.0863,5.7727
149.3418,8.1010
151.5974,12.6122
151.5974,17.2689
149.3418,21.7800
144.7579,28.6923
121.8383,51.6119
153.9258,51.6119
" />
<polyline fill="none" stroke="#ff5050" stroke-width="1.0" stroke-opacity="1" points="
149.3458,58.7705
126.4262,58.7705
124.0979,79.4345
126.4262,77.1061
133.2657,74.8505
140.1779,74.8505
147.0902,77.1061
151.6014,81.7628
153.9297,88.6023
153.9297,93.1862
151.6014,100.0621
147.0902,104.6460
140.1779,106.9380
133.2657,106.9380
126.4262,104.6460
124.0979,102.3540
121.8423,97.7701
" />
<polyline fill="none" stroke="#ff5050" stroke-width="1.0" stroke-opacity="1" points="
121.4604,113.7704
153.5478,113.7704
130.6282,161.9380
" />
<polyline fill="none" stroke="#ff5050" stroke-width="1.0" stroke-opacity="1" points="
143.2343,216.5561
143.2343,168.3885
120.3147,200.5487
154.7304,200.5487
" />
<polyline fill="none" stroke="#ff5050" stroke-width="1.0" stroke-opacity="1" points="
133.3930,223.6431
126.5535,225.9715
124.2251,230.5554
124.2251,235.1393
126.5535,239.7232
131.1374,241.9788
140.3052,244.3072
147.2175,246.6355
151.7286,251.1467
154.0570,255.8033
154.0570,262.6428
151.7286,267.2267
149.4731,269.5187
142.5608,271.8107
133.3930,271.8107
126.5535,269.5187
124.2251,267.2267
121.9696,262.6428
121.9696,255.8033
124.2251,251.1467
128.8818,246.6355
135.7213,244.3072
144.8891,241.9788
149.4731,239.7232
151.7286,235.1393
151.7286,230.5554
149.4731,225.9715
142.5608,223.6431
133.3930,223.6431
" />
<polyline fill="none" stroke="#ff5050" stroke-width="1.0" stroke-opacity="1" points="
152.6198,294.4686
150.3642,301.3809
145.7802,305.8921
138.9408,308.2204
136.6124,308.2204
129.7729,305.8921
125.1162,301.3809
122.8607,294.4686
122.8607,292.2131
125.1162,285.3008
129.7729,280.7169
136.6124,278.3885
138.9408,278.3885
145.7802,280.7169
150.3642,285.3008
152.6198,294.4686
152.6198,305.8921
150.3642,317.3882
145.7802,324.2641
138.9408,326.5561
134.2841,326.5561
127.4446,324.2641
125.1162,319.6802
" />
<polyline fill="none" stroke="#ff5050" stroke-width="1.0" stroke-opacity="1" points="
129.4604,342.6132
133.9715,340.3576
140.8838,333.4453
140.8838,381.6128
" />
<polyline fill="none" stroke="#ff5050" stroke-width="1.0" stroke-opacity="1" points="
150.2011,395.3008
147.9455,390.7169
141.0332,388.3885
136.5221,388.3885
129.6098,390.7169
125.0259,397.5564
122.6976,409.0526
122.6976,420.5487
125.0259,429.6802
129.6098,434.2641
136.5221,436.5561
138.7776,436.5561
145.6899,434.2641
150.2011,429.6802
152.5294,422.8043
152.5294,420.5487
150.2011,413.6365
145.6899,409.0526
138.7776,406.7242
136.5221,406.7242
129.6098,409.0526
125.0259,413.6365
122.6976,420.5487
" />
<polyline fill="none" stroke="#ff5050" stroke-width="1.0" stroke-opacity="1" points="
127.2460,449.7053
130.9423,446.9404
135.7445,444.8304
139.6008,444.8304
143.7481,445.9945
147.1679,448.7594
148.7686,452.3975
149.4962,456.7631
148.3320,460.6922
144.4030,463.6754
140.1101,465.9309
136.3993,466.6585
133.6344,466.6585
137.1269,466.6585
140.7649,467.0951
144.4030,468.4776
148.3320,471.4608
150.1511,474.2256
150.8787,477.4271
150.6604,480.8469
149.9328,483.6118
147.6772,486.8060
144.4030,488.8651
140.3284,490.0074
135.9627,490.0074
131.8154,488.8651
127.7044,486.5731
125.1869,484.2666
" />
<polyline fill="none" stroke="#ff5050" stroke-width="1.0" stroke-opacity="1" points="
204.3458,3.7705
181.4262,3.7705
179.0979,24.4345
181.4262,22.1061
188.2657,19.8505
195.1779,19.8505
202.0902,22.1061
206.6014,26.7628
208.9297,33.6023
208.9297,38.1862
206.6014,45.0621
202.0902,49.6460
195.1779,51.9380
188.2657,51.9380
181.4262,49.6460
179.0979,47.3540
176.8423,42.7701
" />
<polyline fill="none" stroke="#ff5050" stroke-width="1.0" stroke-opacity="1" points="
198.2343,106.5561
198.2343,58.3885
175.3147,90.5487
209.7304,90.5487
" />
<polyline fill="none" stroke="#ff5050" stroke-width="1.0" stroke-opacity="1" points="
184.4604,122.6131
188.9715,120.3576
195.8838,113.4453
195.8838,161.6128
" />
<polyline fill="none" stroke="#ff5050" stroke-width="1.0" stroke-opacity="1" points="
188.3930,168.6431
181.5535,170.9715
179.2251,175.5554
179.2251,180.1393
181.5535,184.7232
186.1374,186.9788
195.3052,189.3072
202.2175,191.6355
206.7286,196.1467
209.0570,200.8033
209.0570,207.6428
206.7286,212.2267
204.4731,214.5187
197.5608,216.8107
188.3930,216.8107
181.5535,214.5187
179.2251,212.2267
176.9696,207.6428
176.9696,200.8033
179.2251,196.1467
183.8818,191.6355
190.7213,189.3072
199.8891,186.9788
204.4731,184.7232
206.7286,180.1393
206.7286,175.5554
204.4731,170.9715
197.5608,168.6431
188.3930,168.6431
" />
<polyline fill="none" stroke="#ff5050" stroke-width="1.0" stroke-opacity="1" points="
182.2460,284.7053
185.9423,281.9404
190.7445,279.8304
194.6008,279.8304
198.7481,280.9945
202.1679,283.7594
203.7686,287.3975
204.4962,291.7631
203.3320,295.6922
199.4030,298.6754
195.1101,300.9309
191.3993,301.6585
188.6344,301.6585
192.1269,301.6585
195.7649,302.0951
199.4030,303.4776
203.3320,306.4608
205.1511,309.2256
205.8787,312.4271
205.6604,315.8469
204.9328,318.6118
202.6772,321.8060
199.4030,323.8651
195.3284,325.0074
190.9627,325.0074
186.8154,323.8651
182.7044,321.5731
180.1869,319.2666
" />
<polyline fill="none" stroke="#ff5050" stroke-width="1.0" stroke-opacity="1" points="
207.6198,349.4686
205.3642,356.3809
200.7802,360.8921
193.9408,363.2204
191.6124,363.2204
184.7729,360.8921
180.1162,356.3809
177.8607,349.4686
177.8607,347.2131
180.1162,340.3008
184.7729,335.7169
191.6124,333.3885
193.9408,333.3885
200.7802,335.7169
205.3642,340.3008
207.6198,349.4686
207.6198,360.8921
205.3642,372.3882
200.7802,379.2641
193.9408,381.5561
189.2841,381.5561
182.4446,379.2641
180.1162,374.6802
" />
<polyline fill="none" stroke="#ff5050" stroke-width="1.0" stroke-opacity="1" points="
231.4604,3.7705
263.5478,3.7705
240.6282,51.9380
" />
<polyline fill="none" stroke="#ff5050" stroke-width="1.0" stroke-opacity="1" points="
253.2343,271.5561
253.2343,223.3885
230.3147,255.5487
264.7304,255.5487
" />
<polyline fill="none" stroke="#ff5050" stroke-width="1.0" stroke-opacity="1" points="
259.3458,278.7704
236.4262,278.7704
234.0979,299.4344
236.4262,297.1061
243.2657,294.8505
250.1779,294.8505
257.0902,297.1061
261.6014,301.7628
263.9297,308.6023
263.9297,313.1862
261.6014,320.0621
257.0902,324.6460
250.1779,326.9380
243.2657,326.9380
236.4262,324.6460
234.0979,322.3540
231.8423,317.7701
" />
<polyline fill="none" stroke="#ff5050" stroke-width="1.0" stroke-opacity="1" points="
243.3930,333.6432
236.5535,335.9715
234.2251,340.5554
234.2251,345.1393
236.5535,349.7232
241.1374,351.9788
250.3052,354.3072
257.2175,356.6355
261.7286,361.1467
264.0570,365.8033
264.0570,372.6428
261.7286,377.2267
259.4731,379.5187
252.5608,381.8107
243.3930,381.8107
236.5535,379.5187
234.2251,377.2267
231.9696,372.6428
231.9696,365.8033
234.2251,361.1467
238.8818,356.6355
245.7213,354.3072
254.8891,351.9788
259.4731,349.7232
261.7286,345.1393
261.7286,340.5554
259.4731,335.9715
252.5608,333.6432
243.3930,333.6432
" />
<polyline fill="none" stroke="#ff5050" stroke-width="1.0" stroke-opacity="1" points="
260.2011,450.3008
257.9455,445.7169
251.0332,443.3885
246.5221,443.3885
239.6098,445.7169
235.0259,452.5564
232.6976,464.0526
232.6976,475.5487
235.0259,484.6802
239.6098,489.2641
246.5221,491.5561
248.7776,491.5561
255.6899,489.2641
260.2011,484.6802
262.5294,477.8043
262.5294,475.5487
260.2011,468.6365
255.6899,464.0526
248.7776,461.7242
246.5221,461.7242
239.6098,464.0526
235.0259,468.6365
232.6976,475.5487
" />
<polyline fill="none" stroke="#ff5050" stroke-width="1.0" stroke-opacity="1" points="
298.3930,3.6431
291.5535,5.9715
289.2251,10.5554
289.2251,15.1393
291.5535,19.7232
296.1374,21.9788
305.3052,24.3072
312.2175,26.6355
316.7286,31.1467
319.0570,35.8033
319.0570,42.6428
316.7286,47.2267
314.4731,49.5187
307.5608,51.8107
298.3930,51.8107
291.5535,49.5187
289.2251,47.2267
286.9695,42.6428
286.9695,35.8033
289.2251,31.1467
293.8818,26.6355
300.7213,24.3072
309.8892,21.9788
314.4731,19.7232
316.7286,15.1393
316.7286,10.5554
314.4731,5.9715
307.5608,3.6431
298.3930,3.6431
" />
<polyline fill="none" stroke="#ff5050" stroke-width="1.0" stroke-opacity="1" points="
315.2011,65.3008
312.9455,60.7169
306.0332,58.3885
301.5221,58.3885
294.6098,60.7169
290.0259,67.5564
287.6976,79.0526
287.6976,90.5487
290.0259,99.6802
294.6098,104.2641
301.5221,106.5561
303.7776,106.5561
310.6899,104.2641
315.2011,99.6802
317.5294,92.8043
317.5294,90.5487
315.2011,83.6365
310.6899,79.0526
303.7776,76.7242
301.5221,76.7242
294.6098,79.0526
290.0259,83.6365
287.6976,90.5487
" />
<polyline fill="none" stroke="#ff5050" stroke-width="1.0" stroke-opacity="1" points="
289.0939,124.9405
289.0939,122.6122
291.4222,118.1010
293.7506,115.7727
298.2617,113.4444
307.4296,113.4444
312.0862,115.7727
314.3418,118.1010
316.5974,122.6122
316.5974,127.2689
314.3418,131.7800
309.7579,138.6923
286.8383,161.6119
318.9258,161.6119
" />
<polyline fill="none" stroke="#ff5050" stroke-width="1.0" stroke-opacity="1" points="
294.4604,232.6131
298.9715,230.3576
305.8838,223.4453
305.8838,271.6128
" />
<polyline fill="none" stroke="#ff5050" stroke-width="1.0" stroke-opacity="1" points="
286.4604,278.7704
318.5478,278.7704
295.6282,326.9380
" />
<polyline fill="none" stroke="#ff5050" stroke-width="1.0" stroke-opacity="1" points="
292.2460,339.7053
295.9423,336.9404
300.7444,334.8304
304.6008,334.8304
308.7481,335.9945
312.1679,338.7594
313.7686,342.3975
314.4962,346.7631
313.3320,350.6922
309.4030,353.6754
305.1101,355.9309
301.3993,356.6585
298.6344,356.6585
302.1269,356.6585
305.7650,357.0951
309.4030,358.4776
313.3320,361.4608
315.1511,364.2256
315.8787,367.4271
315.6604,370.8469
314.9328,373.6118
312.6772,376.8060
309.4030,378.8651
305.3284,380.0074
300.9627,380.0074
296.8154,378.8651
292.7044,376.5731
290.1869,374.2666
" />
<polyline fill="none" stroke="#ff5050" stroke-width="1.0" stroke-opacity="1" points="
314.3458,388.7704
291.4262,388.7704
289.0979,409.4344
291.4262,407.1061
298.2657,404.8505
305.1779,404.8505
312.0902,407.1061
316.6014,411.7628
318.9297,418.6023
318.9297,423.1862
316.6014,430.0621
312.0902,434.6460
305.1779,436.9380
298.2657,436.9380
291.4262,434.6460
289.0979,432.3540
286.8423,427.7701
" />
<polyline fill="none" stroke="#ff5050" stroke-width="1.0" stroke-opacity="1" points="
370.2011,10.3008
367.9455,5.7169
361.0332,3.3886
356.5221,3.3886
349.6098,5.7169
345.0259,12.5564
342.6976,24.0526
342.6976,35.5487
345.0259,44.6802
349.6098,49.2641
356.5221,51.5561
358.7776,51.5561
365.6899,49.2641
370.2011,44.6802
372.5294,37.8043
372.5294,35.5487
370.2011,28.6365
365.6899,24.0526
358.7776,21.7242
356.5221,21.7242
349.6098,24.0526
345.0259,28.6365
342.6976,35.5487
" />
<polyline fill="none" stroke="#ff5050" stroke-width="1.0" stroke-opacity="1" points="
341.4604,58.7705
373.5478,58.7705
350.6282,106.9380
" />
<polyline fill="none" stroke="#ff5050" stroke-width="1.0" stroke-opacity="1" points="
347.2460,119.7053
350.9423,116.9404
355.7444,114.8304
359.6008,114.8304
363.7481,115.9945
367.1679,118.7594
368.7686,122.3975
369.4962,126.7631
368.3320,130.6922
364.4030,133.6754
360.1101,135.9309
356.3993,136.6586
353.6344,136.6586
357.1269,136.6586
360.7650,137.0951
364.4030,138.4776
368.3320,141.4608
370.1511,144.2256
370.8787,147.4271
370.6604,150.8469
369.9328,153.6118
367.6772,156.8060
364.4030,158.8651
360.3284,160.0074
355.9627,160.0074
351.8154,158.8651
347.7044,156.5731
345.1869,154.2666
" />
<polyline fill="none" stroke="#ff5050" stroke-width="1.0" stroke-opacity="1" points="
369.3458,168.7704
346.4262,168.7704
344.0979,189.4344
346.4262,187.1061
353.2657,184.8505
360.1779,184.8505
367.0902,187.1061
371.6014,191.7628
373.9297,198.6023
373.9297,203.1862
371.6014,210.0621
367.0902,214.6460
360.1779,216.9380
353.2657,216.9380
346.4262,214.6460
344.0979,212.3540
341.8423,207.7701
" />
<polyline fill="none" stroke="#ff5050" stroke-width="1.0" stroke-opacity="1" points="
349.4604,287.6132
353.9715,285.3576
360.8838,278.4453
360.8838,326.6128
" />
<polyline fill="none" stroke="#ff5050" stroke-width="1.0" stroke-opacity="1" points="
363.2343,381.5561
363.2343,333.3885
340.3147,365.5487
374.7304,365.5487
" />
<polyline fill="none" stroke="#ff5050" stroke-width="1.0" stroke-opacity="1" points="
353.3930,388.6432
346.5535,390.9715
344.2251,395.5554
344.2251,400.1393
346.5535,404.7232
351.1374,406.9788
360.3052,409.3072
367.2175,411.6355
371.7286,416.1467
374.0570,420.8033
374.0570,427.6428
371.7286,432.2267
369.4731,434.5187
362.5608,436.8107
353.3930,436.8107
346.5535,434.5187
344.2251,432.2267
341.9695,427.6428
341.9695,420.8033
344.2251,416.1467
348.8818,411.6355
355.7213,409.3072
364.8892,406.9788
369.4731,404.7232
371.7286,400.1393
371.7286,395.5554
369.4731,390.9715
362.5608,388.6432
353.3930,388.6432
" />
<polyline fill="none" stroke="#ff5050" stroke-width="1.0" stroke-opacity="1" points="
404.4604,67.6131
408.9715,65.3576
415.8838,58.4453
415.8838,106.6128
" />
<polyline fill="none" stroke="#ff5050" stroke-width="1.0" stroke-opacity="1" points="
424.3458,113.7704
401.4262,113.7704
399.0979,134.4344
401.4262,132.1061
408.2657,129.8505
415.1779,129.8505
422.0902,132.1061
426.6014,136.7628
428.9297,143.6023
428.9297,148.1862
426.6014,155.0621
422.0902,159.6460
415.1779,161.9380
408.2657,161.9380
401.4262,159.6460
399.0979,157.3540
396.8423,152.7701
" />
<polyline fill="none" stroke="#ff5050" stroke-width="1.0" stroke-opacity="1" points="
427.6198,239.4686
425.3642,246.3809
420.7802,250.8921
413.9408,253.2204
411.6124,253.2204
404.7729,250.8921
400.1162,246.3809
397.8607,239.4686
397.8607,237.2131
400.1162,230.3008
404.7729,225.7169
411.6124,223.3885
413.9408,223.3885
420.7802,225.7169
425.3642,230.3008
427.6198,239.4686
427.6198,250.8921
425.3642,262.3882
420.7802,269.2641
413.9408,271.5561
409.2841,271.5561
402.4446,269.2641
400.1162,264.6802
" />
<polyline fill="none" stroke="#ff5050" stroke-width="1.0" stroke-opacity="1" points="
425.2011,340.3008
422.9455,335.7169
416.0332,333.3885
411.5221,333.3885
404.6098,335.7169
400.0259,342.5564
397.6976,354.0526
397.6976,365.5487
400.0259,374.6802
404.6098,379.2641
411.5221,381.5561
413.7776,381.5561
420.6899,379.2641
425.2011,374.6802
427.5294,367.8043
427.5294,365.5487
425.2011,358.6365
420.6899,354.0526
413.7776,351.7242
411.5221,351.7242
404.6098,354.0526
400.0259,358.6365
397.6976,365.5487
" />
<polyline fill="none" stroke="#ff5050" stroke-width="1.0" stroke-opacity="1" points="
402.2460,394.7053
405.9423,391.9404
410.7444,389.8304
414.6008,389.8304
418.7481,390.9945
422.1679,393.7594
423.7686,397.3975
424.4962,401.7631
423.3320,405.6922
419.4030,408.6754
415.1101,410.9309
411.3993,411.6585
408.6344,411.6585
412.1269,411.6585
415.7650,412.0951
419.4030,413.4776
423.3320,416.4608
425.1511,419.2256
425.8787,422.4271
425.6604,425.8469
424.9328,428.6118
422.6772,431.8060
419.4030,433.8651
415.3284,435.0074
410.9627,435.0074
406.8154,433.8651
402.7044,431.5731
400.1869,429.2666
" />
<polyline fill="none" stroke="#ff5050" stroke-width="1.0" stroke-opacity="1" points="
399.0939,454.9406
399.0939,452.6122
401.4222,448.1010
403.7506,445.7727
408.2617,443.4444
417.4296,443.4444
422.0862,445.7727
424.3418,448.1010
426.5974,452.6122
426.5974,457.2689
424.3418,461.7800
419.7579,468.6923
396.8383,491.6119
428.9258,491.6119
" />
<polyline fill="none" stroke="#ff5050" stroke-width="1.0" stroke-opacity="1" points="
482.6198,19.4686
480.3642,26.3809
475.7802,30.8921
468.9408,33.2204
466.6124,33.2204
459.7729,30.8921
455.1162,26.3809
452.8607,19.4686
452.8607,17.2131
455.1162,10.3008
459.7729,5.7169
466.6124,3.3886
468.9408,3.3886
475.7802,5.7169
480.3642,10.3008
482.6198,19.4686
482.6198,30.8921
480.3642,42.3882
475.7802,49.2641
468.9408,51.5561
464.2841,51.5561
457.4446,49.2641
455.1162,44.6802
" />
<polyline fill="none" stroke="#ff5050" stroke-width="1.0" stroke-opacity="1" points="
463.3930,113.6432
456.5535,115.9715
454.2251,120.5554
454.2251,125.1393
456.5535,129.7232
461.1374,131.9788
470.3052,134.3072
477.2175,136.6355
481.7286,141.1467
484.0570,145.8033
484.0570,152.6428
481.7286,157.2267
479.4731,159.5187
472.5608,161.8107
463.3930,161.8107
456.5535,159.5187
454.2251,157.2267
451.9695,152.6428
451.9695,145.8033
454.2251,141.1467
458.8818,136.6355
465.7213,134.3072
474.8892,131.9788
479.4731,129.7232
481.7286,125.1393
481.7286,120.5554
479.4731,115.9715
472.5608,113.6432
463.3930,113.6432
" />
<polyline fill="none" stroke="#ff5050" stroke-width="1.0" stroke-opacity="1" points="
480.2011,175.3008
477.9455,170.7169
471.0332,168.3885
466.5221,168.3885
459.6098,170.7169
455.0259,177.5564
452.6976,189.0526
452.6976,200.5487
455.0259,209.6802
459.6098,214.2641
466.5221,216.5561
468.7776,216.5561
475.6899,214.2641
480.2011,209.6802
482.5294,202.8043
482.5294,200.5487
480.2011,193.6365
475.6899,189.0526
468.7776,186.7242
466.5221,186.7242
459.6098,189.0526
455.0259,193.6365
452.6976,200.5487
" />
<polyline fill="none" stroke="#ff5050" stroke-width="1.0" stroke-opacity="1" points="
457.2460,229.7053
460.9423,226.9404
465.7444,224.8304
469.6008,224.8304
473.7481,225.9945
477.1679,228.7594
478.7686,232.3975
479.4962,236.7631
478.3320,240.6922
474.4030,243.6754
470.1101,245.9309
466.3993,246.6586
463.6344,246.6586
467.1269,246.6586
470.7650,247.0951
474.4030,248.4776
478.3320,251.4608
480.1511,254.2256
480.8787,257.4271
480.6604,260.8469
479.9328,263.6118
477.6772,266.8060
474.4030,268.8651
470.3284,270.0074
465.9627,270.0074
461.8154,268.8651
457.7044,266.5731
455.1869,264.2666
" />
<polyline fill="none" stroke="#ff5050" stroke-width="1.0" stroke-opacity="1" points="
473.2343,326.5561
473.2343,278.3885
450.3147,310.5487
484.7304,310.5487
" />
<polyline fill="none" stroke="#ff5050" stroke-width="1.0" stroke-opacity="1" points="
451.4604,388.7704
483.5478,388.7704
460.6282,436.9380
" />
</g>
</svg>
