<?xml version="1.0" encoding="UTF-8" ?>
<svg width="500mm" height="500mm" xmlns="http://www.w3.org/2000/svg" version="1.1">
<g id="0">
<polyline fill="none" stroke="#000000" stroke-width="1.0" stroke-opacity="1" points="
-1.0000,495.0000
-1.0000,0.0000
0.0000,0.0000
0.0000,495.0000
1.0000,495.0000
1.0000,0.0000
" />
<polyline fill="none" stroke="#000000" stroke-width="1.0" stroke-opacity="1" points="
55.0000,495.0000
55.0000,0.0000
" />
<polyline fill="none" stroke="#000000" stroke-width="1.0" stroke-opacity="1" points="
110.0000,0.0000
110.0000,495.0000
" />
<polyline fill="none" stroke="#000000" stroke-width="1.0" stroke-opacity="1" points="
164.0000,495.0000
164.0000,0.0000
165.0000,0.0000
165.0000,495.0000
166.0000,495.0000
166.0000,0.0000
" />
<polyline fill="none" stroke="#000000" stroke-width="1.0" stroke-opacity="1" points="
220.0000,0.0000
220.0000,495.0000
" />
<polyline fill="none" stroke="#000000" stroke-width="1.0" stroke-opacity="1" points="
275.0000,495.0000
275.0000,0.0000
" />
<polyline fill="none" stroke="#000000" stroke-width="1.0" stroke-opacity="1" points="
329.0000,495.0000
329.0000,0.0000
330.0000,0.0000
330.0000,495.0000
331.0000,495.0000
331.0000,0.0000
" />
<polyline fill="none" stroke="#000000" stroke-width="1.0" stroke-opacity="1" points="
385.0000,495.0000
385.0000,0.0000
" />
<polyline fill="none" stroke="#000000" stroke-width="1.0" stroke-opacity="1" points="
440.0000,0.0000
440.0000,495.0000
" />
<polyline fill="none" stroke="#000000" stroke-width="1.0" stroke-opacity="1" points="
494.0000,495.0000
494.0000,0.0000
495.0000,0.0000
495.0000,495.0000
496.0000,495.0000
496.0000,0.0000
" />
<polyline fill="none" stroke="#000000" stroke-width="1.0" stroke-opacity="1" points="
495.0000,-1.0000
0.0000,-1.0000
0.0000,0.0000
495.0000,0.0000
495.0000,1.0000
0.0000,1.0000
" />
<polyline fill="none" stroke="#000000" stroke-width="1.0" stroke-opacity="1" points="
495.0000,55.0000
0.0000,55.0000
" />
<polyline fill="none" stroke="#000000" stroke-width="1.0" stroke-opacity="1" points="
0.0000,110.0000
495.0000,110.0000
" />
<polyline fill="none" stroke="#000000" stroke-width="1.0" stroke-opacity="1" points="
495.0000,164.0000
0.0000,164.0000
0.0000,165.0000
495.0000,165.0000
495.0000,166.0000
0.0000,166.0000
" />
<polyline fill="none" stroke="#000000" stroke-width="1.0" stroke-opacity="1" points="
0.0000,220.0000
495.0000,220.0000
" />
<polyline fill="none" stroke="#000000" stroke-width="1.0" stroke-opacity="1" points="
495.0000,275.0000
0.0000,275.0000
" />
<polyline fill="none" stroke="#000000" stroke-width="1.0" stroke-opacity="1" points="
495.0000,329.0000
0.0000,329.0000
0.0000,330.0000
495.0000,330.0000
495.0000,331.0000
0.0000,331.0000
" />
<polyline fill="none" stroke="#000000" stroke-width="1.0" stroke-opacity="1" points="
495.0000,385.0000
0.0000,385.0000
" />
<polyline fill="none" stroke="#000000" stroke-width="1.0" stroke-opacity="1" points="
0.0000,440.0000
495.0000,440.0000
" />
<polyline fill="none" stroke="#000000" stroke-width="1.0" stroke-opacity="1" points="
495.0000,494.0000
0.0000,494.0000
0.0000,495.0000
495.0000,495.0000
495.0000,496.0000
0.0000,496.0000
" />
<polyline fill="none" stroke="#000000" stroke-width="1.0" stroke-opacity="1" points="
20.0451,13.6958
24.2281,11.6043
30.6377,5.1947
30.6377,49.8592
" />
<polyline fill="none" stroke="#000000" stroke-width="1.0" stroke-opacity="1" points="
32.8172,159.8065
32.8172,115.1421
11.5645,144.9634
43.4773,144.9634
" />
<polyline fill="none" stroke="#000000" stroke-width="1.0" stroke-opacity="1" points="
23.6917,280.3782
17.3496,282.5372
15.1906,286.7878
15.1906,291.0383
17.3496,295.2888
21.6001,297.3804
30.1012,299.5394
36.5108,301.6984
40.6938,305.8814
42.8528,310.1995
42.8528,316.5415
40.6938,320.7921
38.6023,322.9174
32.1927,325.0426
23.6917,325.0426
17.3496,322.9174
15.1906,320.7921
13.0990,316.5415
13.0990,310.1995
15.1906,305.8814
19.5086,301.6984
25.8507,299.5394
34.3518,297.3804
38.6023,295.2888
40.6938,291.0383
40.6938,286.7878
38.6023,282.5372
32.1927,280.3782
23.6917,280.3782
" />
<polyline fill="none" stroke="#000000" stroke-width="1.0" stroke-opacity="1" points="
12.6269,445.4962
42.3807,445.4962
21.1280,490.1606
" />
<polyline fill="none" stroke="#000000" stroke-width="1.0" stroke-opacity="1" points="
93.4843,60.4962
72.2316,60.4962
70.0726,79.6574
72.2316,77.4984
78.5736,75.4069
84.9832,75.4069
91.3927,77.4984
95.5758,81.8164
97.7348,88.1585
97.7348,92.4090
95.5758,98.7849
91.3927,103.0354
84.9832,105.1607
78.5736,105.1607
72.2316,103.0354
70.0726,100.9101
67.9810,96.6596
" />
<polyline fill="none" stroke="#000000" stroke-width="1.0" stroke-opacity="1" points="
94.2774,121.5517
92.1858,117.3011
85.7763,115.1421
81.5932,115.1421
75.1837,117.3011
70.9331,123.6432
68.7741,134.3033
68.7741,144.9634
70.9331,153.4307
75.1837,157.6813
81.5932,159.8065
83.6847,159.8065
90.0943,157.6813
94.2774,153.4307
96.4364,147.0549
96.4364,144.9634
94.2774,138.5538
90.0943,134.3033
83.6847,132.1443
81.5932,132.1443
75.1837,134.3033
70.9331,138.5538
68.7741,144.9634
" />
<polyline fill="none" stroke="#000000" stroke-width="1.0" stroke-opacity="1" points="
96.5201,295.0527
94.4286,301.4623
90.1780,305.6454
83.8360,307.8044
81.6770,307.8044
75.3349,305.6454
71.0169,301.4623
68.9253,295.0527
68.9253,292.9612
71.0169,286.5517
75.3349,282.3011
81.6770,280.1421
83.8360,280.1421
90.1780,282.3011
94.4286,286.5517
96.5201,295.0527
96.5201,305.6454
94.4286,316.3055
90.1780,322.6813
83.8360,324.8065
79.5180,324.8065
73.1759,322.6813
71.0169,318.4307
" />
<polyline fill="none" stroke="#000000" stroke-width="1.0" stroke-opacity="1" points="
87.8172,489.8065
87.8172,445.1421
66.5645,474.9634
98.4773,474.9634
" />
<polyline fill="none" stroke="#000000" stroke-width="1.0" stroke-opacity="1" points="
148.4843,225.4962
127.2316,225.4962
125.0726,244.6574
127.2316,242.4984
133.5736,240.4069
139.9832,240.4069
146.3927,242.4984
150.5758,246.8164
152.7348,253.1585
152.7348,257.4090
150.5758,263.7849
146.3927,268.0354
139.9832,270.1606
133.5736,270.1606
127.2316,268.0354
125.0726,265.9101
122.9810,261.6596
" />
<polyline fill="none" stroke="#000000" stroke-width="1.0" stroke-opacity="1" points="
133.6917,445.3782
127.3496,447.5372
125.1906,451.7878
125.1906,456.0383
127.3496,460.2888
131.6001,462.3804
140.1012,464.5394
146.5108,466.6984
150.6938,470.8814
152.8528,475.1995
152.8528,481.5415
150.6938,485.7921
148.6023,487.9174
142.1927,490.0426
133.6917,490.0426
127.3496,487.9174
125.1906,485.7921
123.0990,481.5415
123.0990,475.1995
125.1906,470.8814
129.5086,466.6984
135.8507,464.5394
144.3517,462.3804
148.6023,460.2888
150.6938,456.0383
150.6938,451.7878
148.6023,447.5372
142.1927,445.3782
133.6917,445.3782
" />
<polyline fill="none" stroke="#000000" stroke-width="1.0" stroke-opacity="1" points="
185.0451,233.6958
189.2281,231.6043
195.6377,225.1947
195.6377,269.8592
" />
<polyline fill="none" stroke="#000000" stroke-width="1.0" stroke-opacity="1" points="
188.6917,390.3782
182.3496,392.5372
180.1906,396.7878
180.1906,401.0383
182.3496,405.2888
186.6001,407.3804
195.1012,409.5394
201.5108,411.6984
205.6938,415.8814
207.8528,420.1995
207.8528,426.5415
205.6938,430.7921
203.6023,432.9174
197.1927,435.0426
188.6917,435.0426
182.3496,432.9174
180.1906,430.7921
178.0990,426.5415
178.0990,420.1995
180.1906,415.8814
184.5086,411.6984
190.8507,409.5394
199.3517,407.3804
203.6023,405.2888
205.6938,401.0383
205.6938,396.7878
203.6023,392.5372
197.1927,390.3782
188.6917,390.3782
" />
<polyline fill="none" stroke="#000000" stroke-width="1.0" stroke-opacity="1" points="
252.8172,324.8065
252.8172,280.1421
231.5645,309.9634
263.4773,309.9634
" />
<polyline fill="none" stroke="#000000" stroke-width="1.0" stroke-opacity="1" points="
258.4843,390.4962
237.2316,390.4962
235.0726,409.6574
237.2316,407.4984
243.5736,405.4069
249.9832,405.4069
256.3927,407.4984
260.5758,411.8164
262.7348,418.1585
262.7348,422.4090
260.5758,428.7849
256.3927,433.0354
249.9832,435.1606
243.5736,435.1606
237.2316,433.0354
235.0726,430.9101
232.9810,426.6596
" />
<polyline fill="none" stroke="#000000" stroke-width="1.0" stroke-opacity="1" points="
314.2773,176.5517
312.1858,172.3011
305.7763,170.1421
301.5932,170.1421
295.1837,172.3011
290.9331,178.6432
288.7741,189.3033
288.7741,199.9634
290.9331,208.4307
295.1837,212.6813
301.5932,214.8065
303.6847,214.8065
310.0943,212.6813
314.2773,208.4307
316.4364,202.0549
316.4364,199.9634
314.2773,193.5538
310.0943,189.3033
303.6847,187.1443
301.5932,187.1443
295.1837,189.3033
290.9331,193.5538
288.7741,199.9634
" />
<polyline fill="none" stroke="#000000" stroke-width="1.0" stroke-opacity="1" points="
292.9918,230.9995
296.4192,228.4357
300.8721,226.4791
304.4480,226.4791
308.2937,227.5586
311.4648,230.1224
312.9491,233.4958
313.6237,237.5440
312.5443,241.1873
308.9009,243.9535
304.9203,246.0451
301.4793,246.7197
298.9155,246.7197
302.1541,246.7197
305.5275,247.1246
308.9009,248.4065
312.5443,251.1727
314.2310,253.7365
314.9057,256.7051
314.7032,259.8762
314.0286,262.4400
311.9370,265.4019
308.9009,267.3113
305.1227,268.3705
301.0745,268.3705
297.2288,267.3113
293.4168,265.1860
291.0824,263.0472
" />
<polyline fill="none" stroke="#000000" stroke-width="1.0" stroke-opacity="1" points="
347.9918,65.9995
351.4192,63.4357
355.8721,61.4791
359.4480,61.4791
363.2937,62.5586
366.4648,65.1224
367.9491,68.4958
368.6237,72.5440
367.5443,76.1873
363.9009,78.9535
359.9203,81.0451
356.4793,81.7197
353.9155,81.7197
357.1541,81.7197
360.5275,82.1246
363.9009,83.4065
367.5443,86.1727
369.2310,88.7365
369.9057,91.7051
369.7032,94.8762
369.0286,97.4400
366.9370,100.4019
363.9009,102.3113
360.1227,103.3705
356.0745,103.3705
352.2288,102.3113
348.4168,100.1860
346.0824,98.0472
" />
<polyline fill="none" stroke="#000000" stroke-width="1.0" stroke-opacity="1" points="
345.0689,290.8540
345.0689,288.6949
347.2279,284.5119
349.3869,282.3529
353.5700,280.1939
362.0710,280.1939
366.3891,282.3529
368.4806,284.5119
370.5721,288.6949
370.5721,293.0130
368.4806,297.1960
364.2301,303.6056
342.9774,324.8583
372.7311,324.8583
" />
<polyline fill="none" stroke="#000000" stroke-width="1.0" stroke-opacity="1" points="
369.2773,451.5517
367.1858,447.3011
360.7763,445.1421
356.5932,445.1421
350.1837,447.3011
345.9331,453.6432
343.7741,464.3033
343.7741,474.9634
345.9331,483.4307
350.1837,487.6813
356.5932,489.8065
358.6847,489.8065
365.0943,487.6813
369.2773,483.4307
371.4364,477.0549
371.4364,474.9634
369.2773,468.5538
365.0943,464.3033
358.6847,462.1443
356.5932,462.1443
350.1837,464.3033
345.9331,468.5538
343.7741,474.9634
" />
<polyline fill="none" stroke="#000000" stroke-width="1.0" stroke-opacity="1" points="
417.8172,104.8065
417.8172,60.1421
396.5645,89.9634
428.4773,89.9634
" />
<polyline fill="none" stroke="#000000" stroke-width="1.0" stroke-opacity="1" points="
426.5201,185.0527
424.4286,191.4623
420.1780,195.6454
413.8360,197.8044
411.6770,197.8044
405.3349,195.6454
401.0169,191.4623
398.9254,185.0527
398.9254,182.9612
401.0169,176.5517
405.3349,172.3011
411.6770,170.1421
413.8360,170.1421
420.1780,172.3011
424.4286,176.5517
426.5201,185.0527
426.5201,195.6454
424.4286,206.3055
420.1780,212.6813
413.8360,214.8065
409.5179,214.8065
403.1759,212.6813
401.0169,208.4307
" />
<polyline fill="none" stroke="#000000" stroke-width="1.0" stroke-opacity="1" points="
405.0450,398.6958
409.2281,396.6043
415.6377,390.1947
415.6377,434.8592
" />
<polyline fill="none" stroke="#000000" stroke-width="1.0" stroke-opacity="1" points="
479.2773,66.5517
477.1858,62.3011
470.7763,60.1421
466.5932,60.1421
460.1837,62.3011
455.9331,68.6432
453.7741,79.3033
453.7741,89.9634
455.9331,98.4307
460.1837,102.6813
466.5932,104.8065
468.6847,104.8065
475.0943,102.6813
479.2773,98.4307
481.4364,92.0549
481.4364,89.9634
479.2773,83.5538
475.0943,79.3033
468.6847,77.1443
466.5932,77.1443
460.1837,79.3033
455.9331,83.5538
453.7741,89.9634
" />
<polyline fill="none" stroke="#000000" stroke-width="1.0" stroke-opacity="1" points="
472.8172,434.8065
472.8172,390.1421
451.5645,419.9634
483.4773,419.9634
" />
<polyline fill="none" stroke="#000000" stroke-width="1.0" stroke-opacity="1" points="
478.4843,445.4962
457.2316,445.4962
455.0726,464.6574
457.2316,462.4984
463.5736,460.4069
469.9832,460.4069
476.3927,462.4984
480.5758,466.8164
482.7348,473.1585
482.7348,477.4090
480.5758,483.7849
476.3927,488.0354
469.9832,490.1606
463.5736,490.1606
457.2316,488.0354
455.0726,485.9101
452.9810,481.6596
" />
<polyline fill="none" stroke="#ff5050" stroke-width="1.0" stroke-opacity="1" points="
14.0939,69.9405
14.0939,67.6122
16.4222,63.1010
18.7506,60.7727
23.2617,58.4444
32.4296,58.4444
37.0863,60.7727
39.3418,63.1010
41.5974,67.6122
41.5974,72.2689
39.3418,76.7800
34.7579,83.6923
11.8383,106.6119
43.9258,106.6119
" />
<polyline fill="none" stroke="#ff5050" stroke-width="1.0" stroke-opacity="1" points="
17.2460,174.7053
20.9423,171.9404
25.7445,169.8304
29.6008,169.8304
33.7481,170.9945
37.1679,173.7594
38.7686,177.3975
39.4962,181.7631
38.3320,185.6922
34.4030,188.6754
30.1101,190.9309
26.3993,191.6586
23.6344,191.6586
27.1269,191.6586
30.7649,192.0951
34.4030,193.4776
38.3320,196.4608
40.1511,199.2256
40.8787,202.4271
40.6604,205.8469
39.9328,208.6118
37.6772,211.8060
34.4030,213.8651
30.3284,215.0074
25.9627,215.0074
21.8154,213.8651
17.7044,211.5731
15.1869,209.2666
" />
<polyline fill="none" stroke="#ff5050" stroke-width="1.0" stroke-opacity="1" points="
40.2011,230.3008
37.9455,225.7169
31.0332,223.3885
26.5221,223.3885
19.6098,225.7169
15.0259,232.5564
12.6976,244.0526
12.6976,255.5487
15.0259,264.6802
19.6098,269.2641
26.5221,271.5561
28.7777,271.5561
35.6899,269.2641
40.2011,264.6802
42.5294,257.8043
42.5294,255.5487
40.2011,248.6365
35.6899,244.0526
28.7777,241.7242
26.5221,241.7242
19.6098,244.0526
15.0259,248.6365
12.6976,255.5487
" />
<polyline fill="none" stroke="#ff5050" stroke-width="1.0" stroke-opacity="1" points="
39.3458,333.7704
16.4262,333.7704
14.0979,354.4344
16.4262,352.1061
23.2657,349.8505
30.1780,349.8505
37.0902,352.1061
41.6014,356.7628
43.9297,363.6023
43.9297,368.1862
41.6014,375.0621
37.0902,379.6460
30.1780,381.9380
23.2657,381.9380
16.4262,379.6460
14.0979,377.3540
11.8423,372.7701
" />
<polyline fill="none" stroke="#ff5050" stroke-width="1.0" stroke-opacity="1" points="
42.6197,404.4686
40.3642,411.3809
35.7803,415.8921
28.9408,418.2204
26.6124,418.2204
19.7729,415.8921
15.1162,411.3809
12.8607,404.4686
12.8607,402.2131
15.1162,395.3008
19.7729,390.7169
26.6124,388.3885
28.9408,388.3885
35.7803,390.7169
40.3642,395.3008
42.6197,404.4686
42.6197,415.8921
40.3642,427.3882
35.7803,434.2641
28.9408,436.5561
24.2841,436.5561
17.4446,434.2641
15.1162,429.6802
" />
<polyline fill="none" stroke="#ff5050" stroke-width="1.0" stroke-opacity="1" points="
78.3930,3.6431
71.5535,5.9715
69.2251,10.5554
69.2251,15.1393
71.5535,19.7232
76.1374,21.9788
85.3052,24.3072
92.2175,26.6355
96.7286,31.1467
99.0570,35.8033
99.0570,42.6428
96.7286,47.2267
94.4731,49.5187
87.5608,51.8107
78.3930,51.8107
71.5535,49.5187
69.2251,47.2267
66.9696,42.6428
66.9696,35.8033
69.2251,31.1467
73.8818,26.6355
80.7213,24.3072
89.8891,21.9788
94.4731,19.7232
96.7286,15.1393
96.7286,10.5554
94.4731,5.9715
87.5608,3.6431
78.3930,3.6431
" />
<polyline fill="none" stroke="#ff5050" stroke-width="1.0" stroke-opacity="1" points="
66.4604,168.7704
98.5478,168.7704
75.6282,216.9380
" />
<polyline fill="none" stroke="#ff5050" stroke-width="1.0" stroke-opacity="1" points="
69.0939,234.9406
69.0939,232.6122
71.4222,228.1010
73.7506,225.7727
78.2617,223.4444
87.4296,223.4444
92.0863,225.7727
94.3418,228.1010
96.5974,232.6122
96.5974,237.2689
94.3418,241.7800
89.7579,248.6923
66.8383,271.6119
98.9258,271.6119
" />
<polyline fill="none" stroke="#ff5050" stroke-width="1.0" stroke-opacity="1" points="
74.4604,342.6132
78.9715,340.3576
85.8838,333.4453
85.8838,381.6128
" />
<polyline fill="none" stroke="#ff5050" stroke-width="1.0" stroke-opacity="1" points="
72.2460,394.7053
75.9423,391.9404
80.7445,389.8304
84.6008,389.8304
88.7481,390.9945
92.1679,393.7594
93.7686,397.3975
94.4962,401.7631
93.3320,405.6922
89.4030,408.6754
85.1101,410.9309
81.3993,411.6585
78.6344,411.6585
82.1269,411.6585
85.7649,412.0951
89.4030,413.4776
93.3320,416.4608
95.1511,419.2256
95.8787,422.4271
95.6604,425.8469
94.9328,428.6118
92.6772,431.8060
89.4030,433.8651
85.3284,435.0074
80.9627,435.0074
76.8154,433.8651
72.7044,431.5731
70.1869,429.2666
" />
<polyline fill="none" stroke="#ff5050" stroke-width="1.0" stroke-opacity="1" points="
127.2460,9.7053
130.9423,6.9404
135.7445,4.8304
139.6008,4.8304
143.7481,5.9945
147.1679,8.7594
148.7686,12.3975
149.4962,16.7631
148.3320,20.6922
144.4030,23.6754
140.1101,25.9309
136.3993,26.6586
133.6344,26.6586
137.1269,26.6586
140.7649,27.0951
144.4030,28.4776
148.3320,31.4608
150.1511,34.2257
150.8787,37.4271
150.6604,40.8469
149.9328,43.6118
147.6772,46.8060
144.4030,48.8651
140.3284,50.0074
135.9627,50.0074
131.8154,48.8651
127.7044,46.5731
125.1869,44.2666
" />
<polyline fill="none" stroke="#ff5050" stroke-width="1.0" stroke-opacity="1" points="
152.6198,74.4686
150.3642,81.3809
145.7802,85.8921
138.9408,88.2204
136.6124,88.2204
129.7729,85.8921
125.1162,81.3809
122.8607,74.4686
122.8607,72.2131
125.1162,65.3008
129.7729,60.7169
136.6124,58.3885
138.9408,58.3885
145.7802,60.7169
150.3642,65.3008
152.6198,74.4686
152.6198,85.8921
150.3642,97.3882
145.7802,104.2641
138.9408,106.5561
134.2841,106.5561
127.4446,104.2641
125.1162,99.6802
" />
<polyline fill="none" stroke="#ff5050" stroke-width="1.0" stroke-opacity="1" points="
121.4604,113.7704
153.5478,113.7704
130.6282,161.9380
" />
<polyline fill="none" stroke="#ff5050" stroke-width="1.0" stroke-opacity="1" points="
143.2343,216.5561
143.2343,168.3885
120.3147,200.5487
154.7304,200.5487
" />
<polyline fill="none" stroke="#ff5050" stroke-width="1.0" stroke-opacity="1" points="
129.4604,287.6132
133.9715,285.3576
140.8838,278.4453
140.8838,326.6128
" />
<polyline fill="none" stroke="#ff5050" stroke-width="1.0" stroke-opacity="1" points="
124.0939,344.9406
124.0939,342.6122
126.4222,338.1010
128.7506,335.7727
133.2617,333.4444
142.4296,333.4444
147.0863,335.7727
149.3418,338.1010
151.5974,342.6122
151.5974,347.2689
149.3418,351.7800
144.7579,358.6923
121.8383,381.6119
153.9258,381.6119
" />
<polyline fill="none" stroke="#ff5050" stroke-width="1.0" stroke-opacity="1" points="
150.2011,395.3008
147.9455,390.7169
141.0332,388.3885
136.5221,388.3885
129.6098,390.7169
125.0259,397.5564
122.6976,409.0526
122.6976,420.5487
125.0259,429.6802
129.6098,434.2641
136.5221,436.5561
138.7776,436.5561
145.6899,434.2641
150.2011,429.6802
152.5294,422.8043
152.5294,420.5487
150.2011,413.6365
145.6899,409.0526
138.7776,406.7242
136.5221,406.7242
129.6098,409.0526
125.0259,413.6365
122.6976,420.5487
" />
<polyline fill="none" stroke="#ff5050" stroke-width="1.0" stroke-opacity="1" points="
198.2343,51.5561
198.2343,3.3886
175.3147,35.5487
209.7304,35.5487
" />
<polyline fill="none" stroke="#ff5050" stroke-width="1.0" stroke-opacity="1" points="
176.4604,58.7705
208.5478,58.7705
185.6282,106.9380
" />
<polyline fill="none" stroke="#ff5050" stroke-width="1.0" stroke-opacity="1" points="
182.2460,119.7053
185.9423,116.9404
190.7445,114.8304
194.6008,114.8304
198.7481,115.9945
202.1679,118.7594
203.7686,122.3975
204.4962,126.7631
203.3320,130.6922
199.4030,133.6754
195.1101,135.9309
191.3993,136.6586
188.6344,136.6586
192.1269,136.6586
195.7649,137.0951
199.4030,138.4776
203.3320,141.4608
205.1511,144.2256
205.8787,147.4271
205.6604,150.8469
204.9328,153.6118
202.6772,156.8060
199.4030,158.8651
195.3284,160.0074
190.9627,160.0074
186.8154,158.8651
182.7044,156.5731
180.1869,154.2666
" />
<polyline fill="none" stroke="#ff5050" stroke-width="1.0" stroke-opacity="1" points="
179.0939,179.9406
179.0939,177.6122
181.4222,173.1010
183.7506,170.7727
188.2617,168.4444
197.4296,168.4444
202.0863,170.7727
204.3418,173.1010
206.5974,177.6122
206.5974,182.2689
204.3418,186.7800
199.7579,193.6923
176.8383,216.6119
208.9258,216.6119
" />
<polyline fill="none" stroke="#ff5050" stroke-width="1.0" stroke-opacity="1" points="
204.3458,278.7704
181.4262,278.7704
179.0979,299.4344
181.4262,297.1061
188.2657,294.8505
195.1779,294.8505
202.0902,297.1061
206.6014,301.7628
208.9297,308.6023
208.9297,313.1862
206.6014,320.0621
202.0902,324.6460
195.1779,326.9380
188.2657,326.9380
181.4262,324.6460
179.0979,322.3540
176.8423,317.7701
" />
<polyline fill="none" stroke="#ff5050" stroke-width="1.0" stroke-opacity="1" points="
205.2011,340.3008
202.9455,335.7169
196.0332,333.3885
191.5221,333.3885
184.6098,335.7169
180.0259,342.5564
177.6976,354.0526
177.6976,365.5487
180.0259,374.6802
184.6098,379.2641
191.5221,381.5561
193.7776,381.5561
200.6899,379.2641
205.2011,374.6802
207.5294,367.8043
207.5294,365.5487
205.2011,358.6365
200.6899,354.0526
193.7776,351.7242
191.5221,351.7242
184.6098,354.0526
180.0259,358.6365
177.6976,365.5487
" />
<polyline fill="none" stroke="#ff5050" stroke-width="1.0" stroke-opacity="1" points="
207.6198,459.4686
205.3642,466.3809
200.7802,470.8921
193.9408,473.2204
191.6124,473.2204
184.7729,470.8921
180.1162,466.3809
177.8607,459.4686
177.8607,457.2131
180.1162,450.3008
184.7729,445.7169
191.6124,443.3885
193.9408,443.3885
200.7802,445.7169
205.3642,450.3008
207.6198,459.4686
207.6198,470.8921
205.3642,482.3882
200.7802,489.2641
193.9408,491.5561
189.2841,491.5561
182.4446,489.2641
180.1162,484.6802
" />
<polyline fill="none" stroke="#ff5050" stroke-width="1.0" stroke-opacity="1" points="
260.2011,10.3008
257.9455,5.7169
251.0332,3.3886
246.5221,3.3886
239.6098,5.7169
235.0259,12.5564
232.6976,24.0526
232.6976,35.5487
235.0259,44.6802
239.6098,49.2641
246.5221,51.5561
248.7776,51.5561
255.6899,49.2641
260.2011,44.6802
262.5294,37.8043
262.5294,35.5487
260.2011,28.6365
255.6899,24.0526
248.7776,21.7242
246.5221,21.7242
239.6098,24.0526
235.0259,28.6365
232.6976,35.5487
" />
<polyline fill="none" stroke="#ff5050" stroke-width="1.0" stroke-opacity="1" points="
239.4604,67.6131
243.9715,65.3576
250.8838,58.4453
250.8838,106.6128
" />
<polyline fill="none" stroke="#ff5050" stroke-width="1.0" stroke-opacity="1" points="
234.0939,124.9405
234.0939,122.6122
236.4222,118.1010
238.7506,115.7727
243.2617,113.4444
252.4296,113.4444
257.0862,115.7727
259.3418,118.1010
261.5974,122.6122
261.5974,127.2689
259.3418,131.7800
254.7579,138.6923
231.8383,161.6119
263.9258,161.6119
" />
<polyline fill="none" stroke="#ff5050" stroke-width="1.0" stroke-opacity="1" points="
243.3930,168.6431
236.5535,170.9715
234.2251,175.5554
234.2251,180.1393
236.5535,184.7232
241.1374,186.9788
250.3052,189.3072
257.2175,191.6355
261.7286,196.1467
264.0570,200.8033
264.0570,207.6428
261.7286,212.2267
259.4731,214.5187
252.5608,216.8107
243.3930,216.8107
236.5535,214.5187
234.2251,212.2267
231.9696,207.6428
231.9696,200.8033
234.2251,196.1467
238.8818,191.6355
245.7213,189.3072
254.8891,186.9788
259.4731,184.7232
261.7286,180.1393
261.7286,175.5554
259.4731,170.9715
252.5608,168.6431
243.3930,168.6431
" />
<polyline fill="none" stroke="#ff5050" stroke-width="1.0" stroke-opacity="1" points="
262.6198,239.4686
260.3642,246.3809
255.7802,250.8921
248.9408,253.2204
246.6124,253.2204
239.7729,250.8921
235.1162,246.3809
232.8607,239.4686
232.8607,237.2131
235.1162,230.3008
239.7729,225.7169
246.6124,223.3885
248.9408,223.3885
255.7802,225.7169
260.3642,230.3008
262.6198,239.4686
262.6198,250.8921
260.3642,262.3882
255.7802,269.2641
248.9408,271.5561
244.2841,271.5561
237.4446,269.2641
235.1162,264.6802
" />
<polyline fill="none" stroke="#ff5050" stroke-width="1.0" stroke-opacity="1" points="
231.4604,333.7704
263.5478,333.7704
240.6282,381.9380
" />
<polyline fill="none" stroke="#ff5050" stroke-width="1.0" stroke-opacity="1" points="
237.2460,449.7053
240.9423,446.9404
245.7445,444.8304
249.6008,444.8304
253.7481,445.9945
257.1679,448.7594
258.7686,452.3975
259.4962,456.7631
258.3320,460.6922
254.4030,463.6754
250.1101,465.9309
246.3993,466.6585
243.6344,466.6585
247.1269,466.6585
250.7649,467.0951
254.4030,468.4776
258.3320,471.4608
260.1511,474.2256
260.8787,477.4271
260.6604,480.8469
259.9328,483.6118
257.6772,486.8060
254.4030,488.8651
250.3284,490.0074
245.9627,490.0074
241.8154,488.8651
237.7044,486.5731
235.1869,484.2666
" />
<polyline fill="none" stroke="#ff5050" stroke-width="1.0" stroke-opacity="1" points="
314.3458,3.7705
291.4262,3.7705
289.0979,24.4345
291.4262,22.1061
298.2657,19.8505
305.1779,19.8505
312.0902,22.1061
316.6014,26.7628
318.9297,33.6023
318.9297,38.1862
316.6014,45.0621
312.0902,49.6460
305.1779,51.9380
298.2657,51.9380
291.4262,49.6460
289.0979,47.3540
286.8423,42.7701
" />
<polyline fill="none" stroke="#ff5050" stroke-width="1.0" stroke-opacity="1" points="
298.3930,58.6432
291.5535,60.9715
289.2251,65.5554
289.2251,70.1393
291.5535,74.7232
296.1374,76.9788
305.3052,79.3072
312.2175,81.6355
316.7286,86.1467
319.0570,90.8033
319.0570,97.6428
316.7286,102.2267
314.4731,104.5187
307.5608,106.8107
298.3930,106.8107
291.5535,104.5187
289.2251,102.2267
286.9695,97.6428
286.9695,90.8033
289.2251,86.1467
293.8818,81.6355
300.7213,79.3072
309.8892,76.9788
314.4731,74.7232
316.7286,70.1393
316.7286,65.5554
314.4731,60.9715
307.5608,58.6432
298.3930,58.6432
" />
<polyline fill="none" stroke="#ff5050" stroke-width="1.0" stroke-opacity="1" points="
317.6198,129.4686
315.3642,136.3809
310.7802,140.8921
303.9408,143.2204
301.6124,143.2204
294.7729,140.8921
290.1162,136.3809
287.8607,129.4686
287.8607,127.2131
290.1162,120.3008
294.7729,115.7169
301.6124,113.3885
303.9408,113.3885
310.7802,115.7169
315.3642,120.3008
317.6198,129.4686
317.6198,140.8921
315.3642,152.3882
310.7802,159.2641
303.9408,161.5561
299.2841,161.5561
292.4446,159.2641
290.1162,154.6802
" />
<polyline fill="none" stroke="#ff5050" stroke-width="1.0" stroke-opacity="1" points="
286.4604,278.7704
318.5478,278.7704
295.6282,326.9380
" />
<polyline fill="none" stroke="#ff5050" stroke-width="1.0" stroke-opacity="1" points="
308.2343,381.5561
308.2343,333.3885
285.3147,365.5487
319.7304,365.5487
" />
<polyline fill="none" stroke="#ff5050" stroke-width="1.0" stroke-opacity="1" points="
289.0939,399.9406
289.0939,397.6122
291.4222,393.1010
293.7506,390.7727
298.2617,388.4444
307.4296,388.4444
312.0862,390.7727
314.3418,393.1010
316.5974,397.6122
316.5974,402.2689
314.3418,406.7800
309.7579,413.6923
286.8383,436.6119
318.9258,436.6119
" />
<polyline fill="none" stroke="#ff5050" stroke-width="1.0" stroke-opacity="1" points="
294.4604,452.6132
298.9715,450.3576
305.8838,443.4453
305.8838,491.6128
" />
<polyline fill="none" stroke="#ff5050" stroke-width="1.0" stroke-opacity="1" points="
372.6198,19.4686
370.3642,26.3809
365.7802,30.8921
358.9408,33.2204
356.6124,33.2204
349.7729,30.8921
345.1162,26.3809
342.8607,19.4686
342.8607,17.2131
345.1162,10.3008
349.7729,5.7169
356.6124,3.3886
358.9408,3.3886
365.7802,5.7169
370.3642,10.3008
372.6198,19.4686
372.6198,30.8921
370.3642,42.3882
365.7802,49.2641
358.9408,51.5561
354.2841,51.5561
347.4446,49.2641
345.1162,44.6802
" />
<polyline fill="none" stroke="#ff5050" stroke-width="1.0" stroke-opacity="1" points="
349.4604,122.6131
353.9715,120.3576
360.8838,113.4453
360.8838,161.6128
" />
<polyline fill="none" stroke="#ff5050" stroke-width="1.0" stroke-opacity="1" points="
369.3458,168.7704
346.4262,168.7704
344.0979,189.4344
346.4262,187.1061
353.2657,184.8505
360.1779,184.8505
367.0902,187.1061
371.6014,191.7628
373.9297,198.6023
373.9297,203.1862
371.6014,210.0621
367.0902,214.6460
360.1779,216.9380
353.2657,216.9380
346.4262,214.6460
344.0979,212.3540
341.8423,207.7701
" />
<polyline fill="none" stroke="#ff5050" stroke-width="1.0" stroke-opacity="1" points="
363.2343,271.5561
363.2343,223.3885
340.3147,255.5487
374.7304,255.5487
" />
<polyline fill="none" stroke="#ff5050" stroke-width="1.0" stroke-opacity="1" points="
353.3930,333.6432
346.5535,335.9715
344.2251,340.5554
344.2251,345.1393
346.5535,349.7232
351.1374,351.9788
360.3052,354.3072
367.2175,356.6355
371.7286,361.1467
374.0570,365.8033
374.0570,372.6428
371.7286,377.2267
369.4731,379.5187
362.5608,381.8107
353.3930,381.8107
346.5535,379.5187
344.2251,377.2267
341.9695,372.6428
341.9695,365.8033
344.2251,361.1467
348.8818,356.6355
355.7213,354.3072
364.8892,351.9788
369.4731,349.7232
371.7286,345.1393
371.7286,340.5554
369.4731,335.9715
362.5608,333.6432
353.3930,333.6432
" />
<polyline fill="none" stroke="#ff5050" stroke-width="1.0" stroke-opacity="1" points="
341.4604,388.7704
373.5478,388.7704
350.6282,436.9380
" />
<polyline fill="none" stroke="#ff5050" stroke-width="1.0" stroke-opacity="1" points="
396.4604,3.7705
428.5478,3.7705
405.6282,51.9380
" />
<polyline fill="none" stroke="#ff5050" stroke-width="1.0" stroke-opacity="1" points="
424.3458,113.7704
401.4262,113.7704
399.0979,134.4344
401.4262,132.1061
408.2657,129.8505
415.1779,129.8505
422.0902,132.1061
426.6014,136.7628
428.9297,143.6023
428.9297,148.1862
426.6014,155.0621
422.0902,159.6460
415.1779,161.9380
408.2657,161.9380
401.4262,159.6460
399.0979,157.3540
396.8423,152.7701
" />
<polyline fill="none" stroke="#ff5050" stroke-width="1.0" stroke-opacity="1" points="
408.3930,223.6431
401.5535,225.9715
399.2251,230.5554
399.2251,235.1393
401.5535,239.7232
406.1374,241.9788
415.3052,244.3072
422.2175,246.6355
426.7286,251.1467
429.0570,255.8033
429.0570,262.6428
426.7286,267.2267
424.4731,269.5187
417.5608,271.8107
408.3930,271.8107
401.5535,269.5187
399.2251,267.2267
396.9695,262.6428
396.9695,255.8033
399.2251,251.1467
403.8818,246.6355
410.7213,244.3072
419.8892,241.9788
424.4731,239.7232
426.7286,235.1393
426.7286,230.5554
424.4731,225.9715
417.5608,223.6431
408.3930,223.6431
" />
<polyline fill="none" stroke="#ff5050" stroke-width="1.0" stroke-opacity="1" points="
425.2011,285.3008
422.9455,280.7169
416.0332,278.3885
411.5221,278.3885
404.6098,280.7169
400.0259,287.5564
397.6976,299.0526
397.6976,310.5487
400.0259,319.6802
404.6098,324.2641
411.5221,326.5561
413.7776,326.5561
420.6899,324.2641
425.2011,319.6802
427.5294,312.8043
427.5294,310.5487
425.2011,303.6365
420.6899,299.0526
413.7776,296.7242
411.5221,296.7242
404.6098,299.0526
400.0259,303.6365
397.6976,310.5487
" />
<polyline fill="none" stroke="#ff5050" stroke-width="1.0" stroke-opacity="1" points="
402.2460,339.7053
405.9423,336.9404
410.7444,334.8304
414.6008,334.8304
418.7481,335.9945
422.1679,338.7594
423.7686,342.3975
424.4962,346.7631
423.3320,350.6922
419.4030,353.6754
415.1101,355.9309
411.3993,356.6585
408.6344,356.6585
412.1269,356.6585
415.7650,357.0951
419.4030,358.4776
423.3320,361.4608
425.1511,364.2256
425.8787,367.4271
425.6604,370.8469
424.9328,373.6118
422.6772,376.8060
419.4030,378.8651
415.3284,380.0074
410.9627,380.0074
406.8154,378.8651
402.7044,376.5731
400.1869,374.2666
" />
<polyline fill="none" stroke="#ff5050" stroke-width="1.0" stroke-opacity="1" points="
399.0939,454.9406
399.0939,452.6122
401.4222,448.1010
403.7506,445.7727
408.2617,443.4444
417.4296,443.4444
422.0862,445.7727
424.3418,448.1010
426.5974,452.6122
426.5974,457.2689
424.3418,461.7800
419.7579,468.6923
396.8383,491.6119
428.9258,491.6119
" />
<polyline fill="none" stroke="#ff5050" stroke-width="1.0" stroke-opacity="1" points="
454.0939,14.9405
454.0939,12.6122
456.4222,8.1010
458.7506,5.7727
463.2617,3.4444
472.4296,3.4444
477.0862,5.7727
479.3418,8.1010
481.5974,12.6122
481.5974,17.2689
479.3418,21.7800
474.7579,28.6923
451.8383,51.6119
483.9258,51.6119
" />
<polyline fill="none" stroke="#ff5050" stroke-width="1.0" stroke-opacity="1" points="
463.3930,113.6432
456.5535,115.9715
454.2251,120.5554
454.2251,125.1393
456.5535,129.7232
461.1374,131.9788
470.3052,134.3072
477.2175,136.6355
481.7286,141.1467
484.0570,145.8033
484.0570,152.6428
481.7286,157.2267
479.4731,159.5187
472.5608,161.8107
463.3930,161.8107
456.5535,159.5187
454.2251,157.2267
451.9695,152.6428
451.9695,145.8033
454.2251,141.1467
458.8818,136.6355
465.7213,134.3072
474.8892,131.9788
479.4731,129.7232
481.7286,125.1393
481.7286,120.5554
479.4731,115.9715
472.5608,113.6432
463.3930,113.6432
" />
<polyline fill="none" stroke="#ff5050" stroke-width="1.0" stroke-opacity="1" points="
459.4604,177.6131
463.9715,175.3576
470.8838,168.4453
470.8838,216.6128
" />
<polyline fill="none" stroke="#ff5050" stroke-width="1.0" stroke-opacity="1" points="
451.4604,223.7704
483.5478,223.7704
460.6282,271.9380
" />
<polyline fill="none" stroke="#ff5050" stroke-width="1.0" stroke-opacity="1" points="
457.2460,284.7053
460.9423,281.9404
465.7444,279.8304
469.6008,279.8304
473.7481,280.9945
477.1679,283.7594
478.7686,287.3975
479.4962,291.7631
478.3320,295.6922
474.4030,298.6754
470.1101,300.9309
466.3993,301.6585
463.6344,301.6585
467.1269,301.6585
470.7650,302.0951
474.4030,303.4776
478.3320,306.4608
480.1511,309.2256
480.8787,312.4271
480.6604,315.8469
479.9328,318.6118
477.6772,321.8060
474.4030,323.8651
470.3284,325.0074
465.9627,325.0074
461.8154,323.8651
457.7044,321.5731
455.1869,319.2666
" />
<polyline fill="none" stroke="#ff5050" stroke-width="1.0" stroke-opacity="1" points="
482.6198,349.4686
480.3642,356.3809
475.7802,360.8921
468.9408,363.2204
466.6124,363.2204
459.7729,360.8921
455.1162,356.3809
452.8607,349.4686
452.8607,347.2131
455.1162,340.3008
459.7729,335.7169
466.6124,333.3885
468.9408,333.3885
475.7802,335.7169
480.3642,340.3008
482.6198,349.4686
482.6198,360.8921
480.3642,372.3882
475.7802,379.2641
468.9408,381.5561
464.2841,381.5561
457.4446,379.2641
455.1162,374.6802
" />
</g>
</svg>
