<?xml version="1.0" encoding="UTF-8" ?>
<svg width="500mm" height="500mm" xmlns="http://www.w3.org/2000/svg" version="1.1">
<g id="0">
<polyline fill="none" stroke="#000000" stroke-width="1.0" stroke-opacity="1" points="
-1.0000,495.0000
-1.0000,0.0000
0.0000,0.0000
0.0000,495.0000
1.0000,495.0000
1.0000,0.0000
" />
<polyline fill="none" stroke="#000000" stroke-width="1.0" stroke-opacity="1" points="
55.0000,495.0000
55.0000,0.0000
" />
<polyline fill="none" stroke="#000000" stroke-width="1.0" stroke-opacity="1" points="
110.0000,0.0000
110.0000,495.0000
" />
<polyline fill="none" stroke="#000000" stroke-width="1.0" stroke-opacity="1" points="
164.0000,495.0000
164.0000,0.0000
165.0000,0.0000
165.0000,495.0000
166.0000,495.0000
166.0000,0.0000
" />
<polyline fill="none" stroke="#000000" stroke-width="1.0" stroke-opacity="1" points="
220.0000,0.0000
220.0000,495.0000
" />
<polyline fill="none" stroke="#000000" stroke-width="1.0" stroke-opacity="1" points="
275.0000,495.0000
275.0000,0.0000
" />
<polyline fill="none" stroke="#000000" stroke-width="1.0" stroke-opacity="1" points="
329.0000,495.0000
329.0000,0.0000
330.0000,0.0000
330.0000,495.0000
331.0000,495.0000
331.0000,0.0000
" />
<polyline fill="none" stroke="#000000" stroke-width="1.0" stroke-opacity="1" points="
385.0000,495.0000
385.0000,0.0000
" />
<polyline fill="none" stroke="#000000" stroke-width="1.0" stroke-opacity="1" points="
440.0000,0.0000
440.0000,495.0000
" />
<polyline fill="none" stroke="#000000" stroke-width="1.0" stroke-opacity="1" points="
494.0000,495.0000
494.0000,0.0000
495.0000,0.0000
495.0000,495.0000
496.0000,495.0000
496.0000,0.0000
" />
<polyline fill="none" stroke="#000000" stroke-width="1.0" stroke-opacity="1" points="
495.0000,-1.0000
0.0000,-1.0000
0.0000,0.0000
495.0000,0.0000
495.0000,1.0000
0.0000,1.0000
" />
<polyline fill="none" stroke="#000000" stroke-width="1.0" stroke-opacity="1" points="
495.0000,55.0000
0.0000,55.0000
" />
<polyline fill="none" stroke="#000000" stroke-width="1.0" stroke-opacity="1" points="
0.0000,110.0000
495.0000,110.0000
" />
<polyline fill="none" stroke="#000000" stroke-width="1.0" stroke-opacity="1" points="
495.0000,164.0000
0.0000,164.0000
0.0000,165.0000
495.0000,165.0000
495.0000,166.0000
0.0000,166.0000
" />
<polyline fill="none" stroke="#000000" stroke-width="1.0" stroke-opacity="1" points="
0.0000,220.0000
495.0000,220.0000
" />
<polyline fill="none" stroke="#000000" stroke-width="1.0" stroke-opacity="1" points="
495.0000,275.0000
0.0000,275.0000
" />
<polyline fill="none" stroke="#000000" stroke-width="1.0" stroke-opacity="1" points="
495.0000,329.0000
0.0000,329.0000
0.0000,330.0000
495.0000,330.0000
495.0000,331.0000
0.0000,331.0000
" />
<polyline fill="none" stroke="#000000" stroke-width="1.0" stroke-opacity="1" points="
495.0000,385.0000
0.0000,385.0000
" />
<polyline fill="none" stroke="#000000" stroke-width="1.0" stroke-opacity="1" points="
0.0000,440.0000
495.0000,440.0000
" />
<polyline fill="none" stroke="#000000" stroke-width="1.0" stroke-opacity="1" points="
495.0000,494.0000
0.0000,494.0000
0.0000,495.0000
495.0000,495.0000
495.0000,496.0000
0.0000,496.0000
" />
<polyline fill="none" stroke="#000000" stroke-width="1.0" stroke-opacity="1" points="
17.9918,120.9995
21.4192,118.4357
25.8721,116.4791
29.4480,116.4791
33.2937,117.5586
36.4647,120.1224
37.9491,123.4958
38.6238,127.5440
37.5443,131.1873
33.9009,133.9535
29.9203,136.0451
26.4794,136.7197
23.9155,136.7197
27.1540,136.7197
30.5275,137.1246
33.9009,138.4065
37.5443,141.1727
39.2310,143.7365
39.9057,146.7051
39.7033,149.8762
39.0286,152.4400
36.9370,155.4019
33.9009,157.3113
30.1227,158.3705
26.0745,158.3705
22.2288,157.3113
18.4168,155.1860
16.0824,153.0472
" />
<polyline fill="none" stroke="#000000" stroke-width="1.0" stroke-opacity="1" points="
38.4843,225.4962
17.2316,225.4962
15.0726,244.6574
17.2316,242.4984
23.5736,240.4069
29.9832,240.4069
36.3927,242.4984
40.5758,246.8164
42.7348,253.1585
42.7348,257.4090
40.5758,263.7849
36.3927,268.0354
29.9832,270.1606
23.5736,270.1606
17.2316,268.0354
15.0726,265.9101
12.9810,261.6596
" />
<polyline fill="none" stroke="#000000" stroke-width="1.0" stroke-opacity="1" points="
20.0451,453.6958
24.2281,451.6043
30.6377,445.1947
30.6377,489.8592
" />
<polyline fill="none" stroke="#000000" stroke-width="1.0" stroke-opacity="1" points="
78.6917,5.3782
72.3496,7.5372
70.1906,11.7877
70.1906,16.0383
72.3496,20.2888
76.6001,22.3804
85.1012,24.5394
91.5108,26.6984
95.6938,30.8814
97.8528,35.1995
97.8528,41.5415
95.6938,45.7921
93.6023,47.9173
87.1927,50.0426
78.6917,50.0426
72.3496,47.9173
70.1906,45.7921
68.0990,41.5415
68.0990,35.1995
70.1906,30.8814
74.5086,26.6984
80.8507,24.5394
89.3518,22.3804
93.6023,20.2888
95.6938,16.0383
95.6938,11.7877
93.6023,7.5372
87.1927,5.3782
78.6917,5.3782
" />
<polyline fill="none" stroke="#000000" stroke-width="1.0" stroke-opacity="1" points="
96.5201,185.0527
94.4286,191.4623
90.1780,195.6454
83.8360,197.8044
81.6770,197.8044
75.3349,195.6454
71.0169,191.4623
68.9253,185.0527
68.9253,182.9612
71.0169,176.5517
75.3349,172.3011
81.6770,170.1421
83.8360,170.1421
90.1780,172.3011
94.4286,176.5517
96.5201,185.0527
96.5201,195.6454
94.4286,206.3055
90.1780,212.6813
83.8360,214.8065
79.5180,214.8065
73.1759,212.6813
71.0169,208.4307
" />
<polyline fill="none" stroke="#000000" stroke-width="1.0" stroke-opacity="1" points="
151.5201,75.0527
149.4286,81.4623
145.1780,85.6454
138.8360,87.8044
136.6770,87.8044
130.3349,85.6454
126.0169,81.4623
123.9253,75.0527
123.9253,72.9612
126.0169,66.5517
130.3349,62.3011
136.6770,60.1421
138.8360,60.1421
145.1780,62.3011
149.4286,66.5517
151.5201,75.0527
151.5201,85.6454
149.4286,96.3055
145.1780,102.6813
138.8360,104.8065
134.5180,104.8065
128.1759,102.6813
126.0169,98.4307
" />
<polyline fill="none" stroke="#000000" stroke-width="1.0" stroke-opacity="1" points="
142.8172,324.8065
142.8172,280.1421
121.5645,309.9634
153.4773,309.9634
" />
<polyline fill="none" stroke="#000000" stroke-width="1.0" stroke-opacity="1" points="
182.9918,10.9995
186.4192,8.4357
190.8721,6.4791
194.4480,6.4791
198.2937,7.5586
201.4648,10.1224
202.9491,13.4958
203.6237,17.5440
202.5443,21.1873
198.9009,23.9535
194.9203,26.0451
191.4794,26.7197
188.9155,26.7197
192.1540,26.7197
195.5275,27.1246
198.9009,28.4065
202.5443,31.1727
204.2310,33.7365
204.9057,36.7051
204.7033,39.8762
204.0286,42.4400
201.9370,45.4019
198.9009,47.3113
195.1227,48.3705
191.0745,48.3705
187.2288,47.3113
183.4168,45.1860
181.0824,43.0472
" />
<polyline fill="none" stroke="#000000" stroke-width="1.0" stroke-opacity="1" points="
204.2774,66.5517
202.1858,62.3011
195.7763,60.1421
191.5932,60.1421
185.1837,62.3011
180.9331,68.6432
178.7741,79.3033
178.7741,89.9634
180.9331,98.4307
185.1837,102.6813
191.5932,104.8065
193.6847,104.8065
200.0943,102.6813
204.2774,98.4307
206.4364,92.0549
206.4364,89.9634
204.2774,83.5538
200.0943,79.3033
193.6847,77.1443
191.5932,77.1443
185.1837,79.3033
180.9331,83.5538
178.7741,89.9634
" />
<polyline fill="none" stroke="#000000" stroke-width="1.0" stroke-opacity="1" points="
197.8172,269.8065
197.8172,225.1421
176.5645,254.9634
208.4773,254.9634
" />
<polyline fill="none" stroke="#000000" stroke-width="1.0" stroke-opacity="1" points="
206.5201,405.0527
204.4286,411.4623
200.1780,415.6454
193.8360,417.8044
191.6770,417.8044
185.3349,415.6454
181.0169,411.4623
178.9253,405.0527
178.9253,402.9612
181.0169,396.5517
185.3349,392.3011
191.6770,390.1421
193.8360,390.1421
200.1780,392.3011
204.4286,396.5517
206.5201,405.0527
206.5201,415.6454
204.4286,426.3055
200.1780,432.6813
193.8360,434.8065
189.5180,434.8065
183.1759,432.6813
181.0169,428.4307
" />
<polyline fill="none" stroke="#000000" stroke-width="1.0" stroke-opacity="1" points="
237.9918,230.9995
241.4192,228.4357
245.8721,226.4791
249.4480,226.4791
253.2937,227.5586
256.4648,230.1224
257.9491,233.4958
258.6237,237.5440
257.5443,241.1873
253.9009,243.9535
249.9203,246.0451
246.4794,246.7197
243.9155,246.7197
247.1540,246.7197
250.5275,247.1246
253.9009,248.4065
257.5443,251.1727
259.2310,253.7365
259.9057,256.7051
259.7032,259.8762
259.0286,262.4400
256.9370,265.4019
253.9009,267.3113
250.1227,268.3705
246.0745,268.3705
242.2288,267.3113
238.4168,265.1860
236.0824,263.0472
" />
<polyline fill="none" stroke="#000000" stroke-width="1.0" stroke-opacity="1" points="
243.6917,280.3782
237.3496,282.5372
235.1906,286.7878
235.1906,291.0383
237.3496,295.2888
241.6001,297.3804
250.1012,299.5394
256.5107,301.6984
260.6938,305.8814
262.8528,310.1995
262.8528,316.5415
260.6938,320.7921
258.6023,322.9174
252.1927,325.0426
243.6917,325.0426
237.3496,322.9174
235.1906,320.7921
233.0990,316.5415
233.0990,310.1995
235.1906,305.8814
239.5086,301.6984
245.8507,299.5394
254.3517,297.3804
258.6023,295.2888
260.6938,291.0383
260.6938,286.7878
258.6023,282.5372
252.1927,280.3782
243.6917,280.3782
" />
<polyline fill="none" stroke="#000000" stroke-width="1.0" stroke-opacity="1" points="
235.0689,455.8540
235.0689,453.6949
237.2279,449.5119
239.3869,447.3529
243.5700,445.1939
252.0711,445.1939
256.3891,447.3529
258.4806,449.5119
260.5721,453.6949
260.5721,458.0130
258.4806,462.1960
254.2301,468.6056
232.9774,489.8583
262.7311,489.8583
" />
<polyline fill="none" stroke="#000000" stroke-width="1.0" stroke-opacity="1" points="
371.5201,20.0527
369.4286,26.4623
365.1780,30.6454
358.8360,32.8044
356.6770,32.8044
350.3349,30.6454
346.0169,26.4623
343.9254,20.0527
343.9254,17.9612
346.0169,11.5517
350.3349,7.3011
356.6770,5.1421
358.8360,5.1421
365.1780,7.3011
369.4286,11.5517
371.5201,20.0527
371.5201,30.6454
369.4286,41.3055
365.1780,47.6813
358.8360,49.8065
354.5179,49.8065
348.1759,47.6813
346.0169,43.4307
" />
<polyline fill="none" stroke="#000000" stroke-width="1.0" stroke-opacity="1" points="
350.0450,233.6958
354.2281,231.6043
360.6377,225.1947
360.6377,269.8592
" />
<polyline fill="none" stroke="#000000" stroke-width="1.0" stroke-opacity="1" points="
342.6269,335.4962
372.3807,335.4962
351.1280,380.1606
" />
<polyline fill="none" stroke="#000000" stroke-width="1.0" stroke-opacity="1" points="
347.9918,395.9995
351.4192,393.4357
355.8721,391.4791
359.4480,391.4791
363.2937,392.5586
366.4648,395.1224
367.9491,398.4958
368.6237,402.5440
367.5443,406.1873
363.9009,408.9535
359.9203,411.0450
356.4793,411.7198
353.9155,411.7198
357.1541,411.7198
360.5275,412.1246
363.9009,413.4065
367.5443,416.1727
369.2310,418.7365
369.9057,421.7051
369.7032,424.8762
369.0286,427.4400
366.9370,430.4019
363.9009,432.3113
360.1227,433.3705
356.0745,433.3705
352.2288,432.3113
348.4168,430.1860
346.0824,428.0472
" />
<polyline fill="none" stroke="#000000" stroke-width="1.0" stroke-opacity="1" points="
417.8172,49.8065
417.8172,5.1421
396.5645,34.9634
428.4773,34.9634
" />
<polyline fill="none" stroke="#000000" stroke-width="1.0" stroke-opacity="1" points="
426.5201,240.0527
424.4286,246.4623
420.1780,250.6454
413.8360,252.8044
411.6770,252.8044
405.3349,250.6454
401.0169,246.4623
398.9254,240.0527
398.9254,237.9612
401.0169,231.5517
405.3349,227.3011
411.6770,225.1421
413.8360,225.1421
420.1780,227.3011
424.4286,231.5517
426.5201,240.0527
426.5201,250.6454
424.4286,261.3055
420.1780,267.6813
413.8360,269.8065
409.5179,269.8065
403.1759,267.6813
401.0169,263.4307
" />
<polyline fill="none" stroke="#000000" stroke-width="1.0" stroke-opacity="1" points="
405.0450,343.6958
409.2281,341.6043
415.6377,335.1947
415.6377,379.8592
" />
<polyline fill="none" stroke="#000000" stroke-width="1.0" stroke-opacity="1" points="
463.6917,60.3782
457.3496,62.5372
455.1906,66.7877
455.1906,71.0383
457.3496,75.2888
461.6001,77.3804
470.1012,79.5394
476.5107,81.6984
480.6938,85.8814
482.8528,90.1995
482.8528,96.5415
480.6938,100.7921
478.6023,102.9173
472.1927,105.0426
463.6917,105.0426
457.3496,102.9173
455.1906,100.7921
453.0990,96.5415
453.0990,90.1995
455.1906,85.8814
459.5086,81.6984
465.8507,79.5394
474.3517,77.3804
478.6023,75.2888
480.6938,71.0383
480.6938,66.7877
478.6023,62.5372
472.1927,60.3782
463.6917,60.3782
" />
<polyline fill="none" stroke="#000000" stroke-width="1.0" stroke-opacity="1" points="
479.2773,121.5517
477.1858,117.3011
470.7763,115.1421
466.5932,115.1421
460.1837,117.3011
455.9331,123.6432
453.7741,134.3033
453.7741,144.9634
455.9331,153.4307
460.1837,157.6813
466.5932,159.8065
468.6847,159.8065
475.0943,157.6813
479.2773,153.4307
481.4364,147.0549
481.4364,144.9634
479.2773,138.5538
475.0943,134.3033
468.6847,132.1443
466.5932,132.1443
460.1837,134.3033
455.9331,138.5538
453.7741,144.9634
" />
<polyline fill="none" stroke="#000000" stroke-width="1.0" stroke-opacity="1" points="
457.9918,175.9995
461.4192,173.4357
465.8721,171.4791
469.4480,171.4791
473.2937,172.5586
476.4648,175.1224
477.9491,178.4958
478.6237,182.5440
477.5443,186.1873
473.9009,188.9535
469.9203,191.0451
466.4793,191.7197
463.9155,191.7197
467.1541,191.7197
470.5275,192.1246
473.9009,193.4065
477.5443,196.1727
479.2310,198.7365
479.9057,201.7051
479.7032,204.8762
479.0286,207.4400
476.9370,210.4019
473.9009,212.3113
470.1227,213.3705
466.0745,213.3705
462.2288,212.3113
458.4168,210.1860
456.0824,208.0472
" />
<polyline fill="none" stroke="#ff5050" stroke-width="1.0" stroke-opacity="1" points="
11.4604,3.7705
43.5478,3.7705
20.6282,51.9380
" />
<polyline fill="none" stroke="#ff5050" stroke-width="1.0" stroke-opacity="1" points="
33.2343,106.5561
33.2343,58.3885
10.3147,90.5487
44.7304,90.5487
" />
<polyline fill="none" stroke="#ff5050" stroke-width="1.0" stroke-opacity="1" points="
40.2011,175.3008
37.9455,170.7169
31.0332,168.3885
26.5221,168.3885
19.6098,170.7169
15.0259,177.5564
12.6976,189.0526
12.6976,200.5487
15.0259,209.6802
19.6098,214.2641
26.5221,216.5561
28.7777,216.5561
35.6899,214.2641
40.2011,209.6802
42.5294,202.8043
42.5294,200.5487
40.2011,193.6365
35.6899,189.0526
28.7777,186.7242
26.5221,186.7242
19.6098,189.0526
15.0259,193.6365
12.6976,200.5487
" />
<polyline fill="none" stroke="#ff5050" stroke-width="1.0" stroke-opacity="1" points="
14.0939,289.9406
14.0939,287.6122
16.4222,283.1010
18.7506,280.7727
23.2617,278.4444
32.4296,278.4444
37.0863,280.7727
39.3418,283.1010
41.5974,287.6122
41.5974,292.2689
39.3418,296.7800
34.7579,303.6923
11.8383,326.6119
43.9258,326.6119
" />
<polyline fill="none" stroke="#ff5050" stroke-width="1.0" stroke-opacity="1" points="
42.6197,349.4686
40.3642,356.3809
35.7803,360.8921
28.9408,363.2204
26.6124,363.2204
19.7729,360.8921
15.1162,356.3809
12.8607,349.4686
12.8607,347.2131
15.1162,340.3008
19.7729,335.7169
26.6124,333.3885
28.9408,333.3885
35.7803,335.7169
40.3642,340.3008
42.6197,349.4686
42.6197,360.8921
40.3642,372.3882
35.7803,379.2641
28.9408,381.5561
24.2841,381.5561
17.4446,379.2641
15.1162,374.6802
" />
<polyline fill="none" stroke="#ff5050" stroke-width="1.0" stroke-opacity="1" points="
23.3930,388.6432
16.5535,390.9715
14.2251,395.5554
14.2251,400.1393
16.5535,404.7232
21.1374,406.9788
30.3052,409.3072
37.2175,411.6355
41.7286,416.1467
44.0570,420.8033
44.0570,427.6428
41.7286,432.2267
39.4731,434.5187
32.5608,436.8107
23.3930,436.8107
16.5535,434.5187
14.2251,432.2267
11.9696,427.6428
11.9696,420.8033
14.2251,416.1467
18.8818,411.6355
25.7213,409.3072
34.8891,406.9788
39.4731,404.7232
41.7286,400.1393
41.7286,395.5554
39.4731,390.9715
32.5608,388.6432
23.3930,388.6432
" />
<polyline fill="none" stroke="#ff5050" stroke-width="1.0" stroke-opacity="1" points="
94.3458,58.7705
71.4262,58.7705
69.0979,79.4345
71.4262,77.1061
78.2657,74.8505
85.1780,74.8505
92.0902,77.1061
96.6014,81.7628
98.9297,88.6023
98.9297,93.1862
96.6014,100.0621
92.0902,104.6460
85.1780,106.9380
78.2657,106.9380
71.4262,104.6460
69.0979,102.3540
66.8423,97.7701
" />
<polyline fill="none" stroke="#ff5050" stroke-width="1.0" stroke-opacity="1" points="
74.4604,122.6131
78.9715,120.3576
85.8838,113.4453
85.8838,161.6128
" />
<polyline fill="none" stroke="#ff5050" stroke-width="1.0" stroke-opacity="1" points="
66.4604,223.7704
98.5478,223.7704
75.6282,271.9380
" />
<polyline fill="none" stroke="#ff5050" stroke-width="1.0" stroke-opacity="1" points="
72.2460,284.7053
75.9423,281.9404
80.7445,279.8304
84.6008,279.8304
88.7481,280.9945
92.1679,283.7594
93.7686,287.3975
94.4962,291.7631
93.3320,295.6922
89.4030,298.6754
85.1101,300.9309
81.3993,301.6585
78.6344,301.6585
82.1269,301.6585
85.7649,302.0951
89.4030,303.4776
93.3320,306.4608
95.1511,309.2256
95.8787,312.4271
95.6604,315.8469
94.9328,318.6118
92.6772,321.8060
89.4030,323.8651
85.3284,325.0074
80.9627,325.0074
76.8154,323.8651
72.7044,321.5731
70.1869,319.2666
" />
<polyline fill="none" stroke="#ff5050" stroke-width="1.0" stroke-opacity="1" points="
69.0939,344.9406
69.0939,342.6122
71.4222,338.1010
73.7506,335.7727
78.2617,333.4444
87.4296,333.4444
92.0863,335.7727
94.3418,338.1010
96.5974,342.6122
96.5974,347.2689
94.3418,351.7800
89.7579,358.6923
66.8383,381.6119
98.9258,381.6119
" />
<polyline fill="none" stroke="#ff5050" stroke-width="1.0" stroke-opacity="1" points="
95.2011,395.3008
92.9455,390.7169
86.0332,388.3885
81.5221,388.3885
74.6098,390.7169
70.0259,397.5564
67.6976,409.0526
67.6976,420.5487
70.0259,429.6802
74.6098,434.2641
81.5221,436.5561
83.7777,436.5561
90.6899,434.2641
95.2011,429.6802
97.5294,422.8043
97.5294,420.5487
95.2011,413.6365
90.6899,409.0526
83.7777,406.7242
81.5221,406.7242
74.6098,409.0526
70.0259,413.6365
67.6976,420.5487
" />
<polyline fill="none" stroke="#ff5050" stroke-width="1.0" stroke-opacity="1" points="
88.2343,491.5561
88.2343,443.3885
65.3147,475.5487
99.7304,475.5487
" />
<polyline fill="none" stroke="#ff5050" stroke-width="1.0" stroke-opacity="1" points="
150.2011,10.3008
147.9455,5.7169
141.0332,3.3886
136.5221,3.3886
129.6098,5.7169
125.0259,12.5564
122.6976,24.0526
122.6976,35.5487
125.0259,44.6802
129.6098,49.2641
136.5221,51.5561
138.7776,51.5561
145.6899,49.2641
150.2011,44.6802
152.5294,37.8043
152.5294,35.5487
150.2011,28.6365
145.6899,24.0526
138.7776,21.7242
136.5221,21.7242
129.6098,24.0526
125.0259,28.6365
122.6976,35.5487
" />
<polyline fill="none" stroke="#ff5050" stroke-width="1.0" stroke-opacity="1" points="
124.0939,124.9405
124.0939,122.6122
126.4222,118.1010
128.7506,115.7727
133.2617,113.4444
142.4296,113.4444
147.0863,115.7727
149.3418,118.1010
151.5974,122.6122
151.5974,127.2689
149.3418,131.7800
144.7579,138.6923
121.8383,161.6119
153.9258,161.6119
" />
<polyline fill="none" stroke="#ff5050" stroke-width="1.0" stroke-opacity="1" points="
129.4604,177.6131
133.9715,175.3576
140.8838,168.4453
140.8838,216.6128
" />
<polyline fill="none" stroke="#ff5050" stroke-width="1.0" stroke-opacity="1" points="
133.3930,223.6431
126.5535,225.9715
124.2251,230.5554
124.2251,235.1393
126.5535,239.7232
131.1374,241.9788
140.3052,244.3072
147.2175,246.6355
151.7286,251.1467
154.0570,255.8033
154.0570,262.6428
151.7286,267.2267
149.4731,269.5187
142.5608,271.8107
133.3930,271.8107
126.5535,269.5187
124.2251,267.2267
121.9696,262.6428
121.9696,255.8033
124.2251,251.1467
128.8818,246.6355
135.7213,244.3072
144.8891,241.9788
149.4731,239.7232
151.7286,235.1393
151.7286,230.5554
149.4731,225.9715
142.5608,223.6431
133.3930,223.6431
" />
<polyline fill="none" stroke="#ff5050" stroke-width="1.0" stroke-opacity="1" points="
127.2460,339.7053
130.9423,336.9404
135.7445,334.8304
139.6008,334.8304
143.7481,335.9945
147.1679,338.7594
148.7686,342.3975
149.4962,346.7631
148.3320,350.6922
144.4030,353.6754
140.1101,355.9309
136.3993,356.6585
133.6344,356.6585
137.1269,356.6585
140.7649,357.0951
144.4030,358.4776
148.3320,361.4608
150.1511,364.2256
150.8787,367.4271
150.6604,370.8469
149.9328,373.6118
147.6772,376.8060
144.4030,378.8651
140.3284,380.0074
135.9627,380.0074
131.8154,378.8651
127.7044,376.5731
125.1869,374.2666
" />
<polyline fill="none" stroke="#ff5050" stroke-width="1.0" stroke-opacity="1" points="
121.4604,388.7704
153.5478,388.7704
130.6282,436.9380
" />
<polyline fill="none" stroke="#ff5050" stroke-width="1.0" stroke-opacity="1" points="
149.3458,443.7704
126.4262,443.7704
124.0979,464.4344
126.4262,462.1061
133.2657,459.8505
140.1779,459.8505
147.0902,462.1061
151.6014,466.7628
153.9297,473.6023
153.9297,478.1862
151.6014,485.0621
147.0902,489.6460
140.1779,491.9380
133.2657,491.9380
126.4262,489.6460
124.0979,487.3540
121.8423,482.7701
" />
<polyline fill="none" stroke="#ff5050" stroke-width="1.0" stroke-opacity="1" points="
188.3930,113.6432
181.5535,115.9715
179.2251,120.5554
179.2251,125.1393
181.5535,129.7232
186.1374,131.9788
195.3052,134.3072
202.2175,136.6355
206.7286,141.1467
209.0570,145.8033
209.0570,152.6428
206.7286,157.2267
204.4731,159.5187
197.5608,161.8107
188.3930,161.8107
181.5535,159.5187
179.2251,157.2267
176.9696,152.6428
176.9696,145.8033
179.2251,141.1467
183.8818,136.6355
190.7213,134.3072
199.8891,131.9788
204.4731,129.7232
206.7286,125.1393
206.7286,120.5554
204.4731,115.9715
197.5608,113.6432
188.3930,113.6432
" />
<polyline fill="none" stroke="#ff5050" stroke-width="1.0" stroke-opacity="1" points="
179.0939,179.9406
179.0939,177.6122
181.4222,173.1010
183.7506,170.7727
188.2617,168.4444
197.4296,168.4444
202.0863,170.7727
204.3418,173.1010
206.5974,177.6122
206.5974,182.2689
204.3418,186.7800
199.7579,193.6923
176.8383,216.6119
208.9258,216.6119
" />
<polyline fill="none" stroke="#ff5050" stroke-width="1.0" stroke-opacity="1" points="
184.4604,287.6132
188.9715,285.3576
195.8838,278.4453
195.8838,326.6128
" />
<polyline fill="none" stroke="#ff5050" stroke-width="1.0" stroke-opacity="1" points="
204.3458,333.7704
181.4262,333.7704
179.0979,354.4344
181.4262,352.1061
188.2657,349.8505
195.1779,349.8505
202.0902,352.1061
206.6014,356.7628
208.9297,363.6023
208.9297,368.1862
206.6014,375.0621
202.0902,379.6460
195.1779,381.9380
188.2657,381.9380
181.4262,379.6460
179.0979,377.3540
176.8423,372.7701
" />
<polyline fill="none" stroke="#ff5050" stroke-width="1.0" stroke-opacity="1" points="
176.4604,443.7704
208.5478,443.7704
185.6282,491.9380
" />
<polyline fill="none" stroke="#ff5050" stroke-width="1.0" stroke-opacity="1" points="
259.3458,3.7705
236.4262,3.7705
234.0979,24.4345
236.4262,22.1061
243.2657,19.8505
250.1779,19.8505
257.0902,22.1061
261.6014,26.7628
263.9297,33.6023
263.9297,38.1862
261.6014,45.0621
257.0902,49.6460
250.1779,51.9380
243.2657,51.9380
236.4262,49.6460
234.0979,47.3540
231.8423,42.7701
" />
<polyline fill="none" stroke="#ff5050" stroke-width="1.0" stroke-opacity="1" points="
239.4604,67.6131
243.9715,65.3576
250.8838,58.4453
250.8838,106.6128
" />
<polyline fill="none" stroke="#ff5050" stroke-width="1.0" stroke-opacity="1" points="
262.6198,129.4686
260.3642,136.3809
255.7802,140.8921
248.9408,143.2204
246.6124,143.2204
239.7729,140.8921
235.1162,136.3809
232.8607,129.4686
232.8607,127.2131
235.1162,120.3008
239.7729,115.7169
246.6124,113.3885
248.9408,113.3885
255.7802,115.7169
260.3642,120.3008
262.6198,129.4686
262.6198,140.8921
260.3642,152.3882
255.7802,159.2641
248.9408,161.5561
244.2841,161.5561
237.4446,159.2641
235.1162,154.6802
" />
<polyline fill="none" stroke="#ff5050" stroke-width="1.0" stroke-opacity="1" points="
231.4604,168.7704
263.5478,168.7704
240.6282,216.9380
" />
<polyline fill="none" stroke="#ff5050" stroke-width="1.0" stroke-opacity="1" points="
260.2011,340.3008
257.9455,335.7169
251.0332,333.3885
246.5221,333.3885
239.6098,335.7169
235.0259,342.5564
232.6976,354.0526
232.6976,365.5487
235.0259,374.6802
239.6098,379.2641
246.5221,381.5561
248.7776,381.5561
255.6899,379.2641
260.2011,374.6802
262.5294,367.8043
262.5294,365.5487
260.2011,358.6365
255.6899,354.0526
248.7776,351.7242
246.5221,351.7242
239.6098,354.0526
235.0259,358.6365
232.6976,365.5487
" />
<polyline fill="none" stroke="#ff5050" stroke-width="1.0" stroke-opacity="1" points="
253.2343,436.5561
253.2343,388.3885
230.3147,420.5487
264.7304,420.5487
" />
<polyline fill="none" stroke="#ff5050" stroke-width="1.0" stroke-opacity="1" points="
289.0939,14.9405
289.0939,12.6122
291.4222,8.1010
293.7506,5.7727
298.2617,3.4444
307.4296,3.4444
312.0862,5.7727
314.3418,8.1010
316.5974,12.6122
316.5974,17.2689
314.3418,21.7800
309.7579,28.6923
286.8383,51.6119
318.9258,51.6119
" />
<polyline fill="none" stroke="#ff5050" stroke-width="1.0" stroke-opacity="1" points="
286.4604,58.7705
318.5478,58.7705
295.6282,106.9380
" />
<polyline fill="none" stroke="#ff5050" stroke-width="1.0" stroke-opacity="1" points="
308.2343,161.5561
308.2343,113.3885
285.3147,145.5487
319.7304,145.5487
" />
<polyline fill="none" stroke="#ff5050" stroke-width="1.0" stroke-opacity="1" points="
314.3458,168.7704
291.4262,168.7704
289.0979,189.4344
291.4262,187.1061
298.2657,184.8505
305.1779,184.8505
312.0902,187.1061
316.6014,191.7628
318.9297,198.6023
318.9297,203.1862
316.6014,210.0621
312.0902,214.6460
305.1779,216.9380
298.2657,216.9380
291.4262,214.6460
289.0979,212.3540
286.8423,207.7701
" />
<polyline fill="none" stroke="#ff5050" stroke-width="1.0" stroke-opacity="1" points="
315.2011,230.3008
312.9455,225.7169
306.0332,223.3885
301.5221,223.3885
294.6098,225.7169
290.0259,232.5564
287.6976,244.0526
287.6976,255.5487
290.0259,264.6802
294.6098,269.2641
301.5221,271.5561
303.7776,271.5561
310.6899,269.2641
315.2011,264.6802
317.5294,257.8043
317.5294,255.5487
315.2011,248.6365
310.6899,244.0526
303.7776,241.7242
301.5221,241.7242
294.6098,244.0526
290.0259,248.6365
287.6976,255.5487
" />
<polyline fill="none" stroke="#ff5050" stroke-width="1.0" stroke-opacity="1" points="
317.6198,294.4686
315.3642,301.3809
310.7802,305.8921
303.9408,308.2204
301.6124,308.2204
294.7729,305.8921
290.1162,301.3809
287.8607,294.4686
287.8607,292.2131
290.1162,285.3008
294.7729,280.7169
301.6124,278.3885
303.9408,278.3885
310.7802,280.7169
315.3642,285.3008
317.6198,294.4686
317.6198,305.8921
315.3642,317.3882
310.7802,324.2641
303.9408,326.5561
299.2841,326.5561
292.4446,324.2641
290.1162,319.6802
" />
<polyline fill="none" stroke="#ff5050" stroke-width="1.0" stroke-opacity="1" points="
298.3930,333.6432
291.5535,335.9715
289.2251,340.5554
289.2251,345.1393
291.5535,349.7232
296.1374,351.9788
305.3052,354.3072
312.2175,356.6355
316.7286,361.1467
319.0570,365.8033
319.0570,372.6428
316.7286,377.2267
314.4731,379.5187
307.5608,381.8107
298.3930,381.8107
291.5535,379.5187
289.2251,377.2267
286.9695,372.6428
286.9695,365.8033
289.2251,361.1467
293.8818,356.6355
300.7213,354.3072
309.8892,351.9788
314.4731,349.7232
316.7286,345.1393
316.7286,340.5554
314.4731,335.9715
307.5608,333.6432
298.3930,333.6432
" />
<polyline fill="none" stroke="#ff5050" stroke-width="1.0" stroke-opacity="1" points="
294.4604,397.6132
298.9715,395.3576
305.8838,388.4453
305.8838,436.6128
" />
<polyline fill="none" stroke="#ff5050" stroke-width="1.0" stroke-opacity="1" points="
292.2460,449.7053
295.9423,446.9404
300.7444,444.8304
304.6008,444.8304
308.7481,445.9945
312.1679,448.7594
313.7686,452.3975
314.4962,456.7631
313.3320,460.6922
309.4030,463.6754
305.1101,465.9309
301.3993,466.6585
298.6344,466.6585
302.1269,466.6585
305.7650,467.0951
309.4030,468.4776
313.3320,471.4608
315.1511,474.2256
315.8787,477.4271
315.6604,480.8469
314.9328,483.6118
312.6772,486.8060
309.4030,488.8651
305.3284,490.0074
300.9627,490.0074
296.8154,488.8651
292.7044,486.5731
290.1869,484.2666
" />
<polyline fill="none" stroke="#ff5050" stroke-width="1.0" stroke-opacity="1" points="
344.0939,69.9405
344.0939,67.6122
346.4222,63.1010
348.7506,60.7727
353.2617,58.4444
362.4296,58.4444
367.0862,60.7727
369.3418,63.1010
371.5974,67.6122
371.5974,72.2689
369.3418,76.7800
364.7579,83.6923
341.8383,106.6119
373.9258,106.6119
" />
<polyline fill="none" stroke="#ff5050" stroke-width="1.0" stroke-opacity="1" points="
369.3458,113.7704
346.4262,113.7704
344.0979,134.4344
346.4262,132.1061
353.2657,129.8505
360.1779,129.8505
367.0902,132.1061
371.6014,136.7628
373.9297,143.6023
373.9297,148.1862
371.6014,155.0621
367.0902,159.6460
360.1779,161.9380
353.2657,161.9380
346.4262,159.6460
344.0979,157.3540
341.8423,152.7701
" />
<polyline fill="none" stroke="#ff5050" stroke-width="1.0" stroke-opacity="1" points="
363.2343,216.5561
363.2343,168.3885
340.3147,200.5487
374.7304,200.5487
" />
<polyline fill="none" stroke="#ff5050" stroke-width="1.0" stroke-opacity="1" points="
370.2011,285.3008
367.9455,280.7169
361.0332,278.3885
356.5221,278.3885
349.6098,280.7169
345.0259,287.5564
342.6976,299.0526
342.6976,310.5487
345.0259,319.6802
349.6098,324.2641
356.5221,326.5561
358.7776,326.5561
365.6899,324.2641
370.2011,319.6802
372.5294,312.8043
372.5294,310.5487
370.2011,303.6365
365.6899,299.0526
358.7776,296.7242
356.5221,296.7242
349.6098,299.0526
345.0259,303.6365
342.6976,310.5487
" />
<polyline fill="none" stroke="#ff5050" stroke-width="1.0" stroke-opacity="1" points="
353.3930,443.6432
346.5535,445.9715
344.2251,450.5554
344.2251,455.1393
346.5535,459.7232
351.1374,461.9788
360.3052,464.3072
367.2175,466.6355
371.7286,471.1467
374.0570,475.8033
374.0570,482.6428
371.7286,487.2267
369.4731,489.5187
362.5608,491.8107
353.3930,491.8107
346.5535,489.5187
344.2251,487.2267
341.9695,482.6428
341.9695,475.8033
344.2251,471.1467
348.8818,466.6355
355.7213,464.3072
364.8892,461.9788
369.4731,459.7232
371.7286,455.1393
371.7286,450.5554
369.4731,445.9715
362.5608,443.6432
353.3930,443.6432
" />
<polyline fill="none" stroke="#ff5050" stroke-width="1.0" stroke-opacity="1" points="
402.2460,64.7053
405.9423,61.9404
410.7444,59.8304
414.6008,59.8304
418.7481,60.9945
422.1679,63.7594
423.7686,67.3975
424.4962,71.7631
423.3320,75.6922
419.4030,78.6754
415.1101,80.9309
411.3993,81.6586
408.6344,81.6586
412.1269,81.6586
415.7650,82.0951
419.4030,83.4776
423.3320,86.4608
425.1511,89.2257
425.8787,92.4271
425.6604,95.8469
424.9328,98.6118
422.6772,101.8060
419.4030,103.8651
415.3284,105.0074
410.9627,105.0074
406.8154,103.8651
402.7044,101.5731
400.1869,99.2666
" />
<polyline fill="none" stroke="#ff5050" stroke-width="1.0" stroke-opacity="1" points="
396.4604,113.7704
428.5478,113.7704
405.6282,161.9380
" />
<polyline fill="none" stroke="#ff5050" stroke-width="1.0" stroke-opacity="1" points="
408.3930,168.6431
401.5535,170.9715
399.2251,175.5554
399.2251,180.1393
401.5535,184.7232
406.1374,186.9788
415.3052,189.3072
422.2175,191.6355
426.7286,196.1467
429.0570,200.8033
429.0570,207.6428
426.7286,212.2267
424.4731,214.5187
417.5608,216.8107
408.3930,216.8107
401.5535,214.5187
399.2251,212.2267
396.9695,207.6428
396.9695,200.8033
399.2251,196.1467
403.8818,191.6355
410.7213,189.3072
419.8892,186.9788
424.4731,184.7232
426.7286,180.1393
426.7286,175.5554
424.4731,170.9715
417.5608,168.6431
408.3930,168.6431
" />
<polyline fill="none" stroke="#ff5050" stroke-width="1.0" stroke-opacity="1" points="
424.3458,278.7704
401.4262,278.7704
399.0979,299.4344
401.4262,297.1061
408.2657,294.8505
415.1779,294.8505
422.0902,297.1061
426.6014,301.7628
428.9297,308.6023
428.9297,313.1862
426.6014,320.0621
422.0902,324.6460
415.1779,326.9380
408.2657,326.9380
401.4262,324.6460
399.0979,322.3540
396.8423,317.7701
" />
<polyline fill="none" stroke="#ff5050" stroke-width="1.0" stroke-opacity="1" points="
399.0939,399.9406
399.0939,397.6122
401.4222,393.1010
403.7506,390.7727
408.2617,388.4444
417.4296,388.4444
422.0862,390.7727
424.3418,393.1010
426.5974,397.6122
426.5974,402.2689
424.3418,406.7800
419.7579,413.6923
396.8383,436.6119
428.9258,436.6119
" />
<polyline fill="none" stroke="#ff5050" stroke-width="1.0" stroke-opacity="1" points="
425.2011,450.3008
422.9455,445.7169
416.0332,443.3885
411.5221,443.3885
404.6098,445.7169
400.0259,452.5564
397.6976,464.0526
397.6976,475.5487
400.0259,484.6802
404.6098,489.2641
411.5221,491.5561
413.7776,491.5561
420.6899,489.2641
425.2011,484.6802
427.5294,477.8043
427.5294,475.5487
425.2011,468.6365
420.6899,464.0526
413.7776,461.7242
411.5221,461.7242
404.6098,464.0526
400.0259,468.6365
397.6976,475.5487
" />
<polyline fill="none" stroke="#ff5050" stroke-width="1.0" stroke-opacity="1" points="
459.4604,12.6131
463.9715,10.3576
470.8838,3.4453
470.8838,51.6128
" />
<polyline fill="none" stroke="#ff5050" stroke-width="1.0" stroke-opacity="1" points="
454.0939,234.9406
454.0939,232.6122
456.4222,228.1010
458.7506,225.7727
463.2617,223.4444
472.4296,223.4444
477.0862,225.7727
479.3418,228.1010
481.5974,232.6122
481.5974,237.2689
479.3418,241.7800
474.7579,248.6923
451.8383,271.6119
483.9258,271.6119
" />
<polyline fill="none" stroke="#ff5050" stroke-width="1.0" stroke-opacity="1" points="
451.4604,278.7704
483.5478,278.7704
460.6282,326.9380
" />
<polyline fill="none" stroke="#ff5050" stroke-width="1.0" stroke-opacity="1" points="
473.2343,381.5561
473.2343,333.3885
450.3147,365.5487
484.7304,365.5487
" />
<polyline fill="none" stroke="#ff5050" stroke-width="1.0" stroke-opacity="1" points="
479.3458,388.7704
456.4262,388.7704
454.0979,409.4344
456.4262,407.1061
463.2657,404.8505
470.1779,404.8505
477.0902,407.1061
481.6014,411.7628
483.9297,418.6023
483.9297,423.1862
481.6014,430.0621
477.0902,434.6460
470.1779,436.9380
463.2657,436.9380
456.4262,434.6460
454.0979,432.3540
451.8423,427.7701
" />
<polyline fill="none" stroke="#ff5050" stroke-width="1.0" stroke-opacity="1" points="
482.6198,459.4686
480.3642,466.3809
475.7802,470.8921
468.9408,473.2204
466.6124,473.2204
459.7729,470.8921
455.1162,466.3809
452.8607,459.4686
452.8607,457.2131
455.1162,450.3008
459.7729,445.7169
466.6124,443.3885
468.9408,443.3885
475.7802,445.7169
480.3642,450.3008
482.6198,459.4686
482.6198,470.8921
480.3642,482.3882
475.7802,489.2641
468.9408,491.5561
464.2841,491.5561
457.4446,489.2641
455.1162,484.6802
" />
</g>
</svg>
