<?xml version="1.0" encoding="UTF-8" ?>
<svg width="500mm" height="500mm" xmlns="http://www.w3.org/2000/svg" version="1.1">
<g id="0">
<polyline fill="none" stroke="#000000" stroke-width="1.0" stroke-opacity="1" points="
-1.0000,495.0000
-1.0000,0.0000
0.0000,0.0000
0.0000,495.0000
1.0000,495.0000
1.0000,0.0000
" />
<polyline fill="none" stroke="#000000" stroke-width="1.0" stroke-opacity="1" points="
55.0000,495.0000
55.0000,0.0000
" />
<polyline fill="none" stroke="#000000" stroke-width="1.0" stroke-opacity="1" points="
110.0000,0.0000
110.0000,495.0000
" />
<polyline fill="none" stroke="#000000" stroke-width="1.0" stroke-opacity="1" points="
164.0000,495.0000
164.0000,0.0000
165.0000,0.0000
165.0000,495.0000
166.0000,495.0000
166.0000,0.0000
" />
<polyline fill="none" stroke="#000000" stroke-width="1.0" stroke-opacity="1" points="
220.0000,0.0000
220.0000,495.0000
" />
<polyline fill="none" stroke="#000000" stroke-width="1.0" stroke-opacity="1" points="
275.0000,495.0000
275.0000,0.0000
" />
<polyline fill="none" stroke="#000000" stroke-width="1.0" stroke-opacity="1" points="
329.0000,495.0000
329.0000,0.0000
330.0000,0.0000
330.0000,495.0000
331.0000,495.0000
331.0000,0.0000
" />
<polyline fill="none" stroke="#000000" stroke-width="1.0" stroke-opacity="1" points="
385.0000,495.0000
385.0000,0.0000
" />
<polyline fill="none" stroke="#000000" stroke-width="1.0" stroke-opacity="1" points="
440.0000,0.0000
440.0000,495.0000
" />
<polyline fill="none" stroke="#000000" stroke-width="1.0" stroke-opacity="1" points="
494.0000,495.0000
494.0000,0.0000
495.0000,0.0000
495.0000,495.0000
496.0000,495.0000
496.0000,0.0000
" />
<polyline fill="none" stroke="#000000" stroke-width="1.0" stroke-opacity="1" points="
495.0000,-1.0000
0.0000,-1.0000
0.0000,0.0000
495.0000,0.0000
495.0000,1.0000
0.0000,1.0000
" />
<polyline fill="none" stroke="#000000" stroke-width="1.0" stroke-opacity="1" points="
495.0000,55.0000
0.0000,55.0000
" />
<polyline fill="none" stroke="#000000" stroke-width="1.0" stroke-opacity="1" points="
0.0000,110.0000
495.0000,110.0000
" />
<polyline fill="none" stroke="#000000" stroke-width="1.0" stroke-opacity="1" points="
495.0000,164.0000
0.0000,164.0000
0.0000,165.0000
495.0000,165.0000
495.0000,166.0000
0.0000,166.0000
" />
<polyline fill="none" stroke="#000000" stroke-width="1.0" stroke-opacity="1" points="
0.0000,220.0000
495.0000,220.0000
" />
<polyline fill="none" stroke="#000000" stroke-width="1.0" stroke-opacity="1" points="
495.0000,275.0000
0.0000,275.0000
" />
<polyline fill="none" stroke="#000000" stroke-width="1.0" stroke-opacity="1" points="
495.0000,329.0000
0.0000,329.0000
0.0000,330.0000
495.0000,330.0000
495.0000,331.0000
0.0000,331.0000
" />
<polyline fill="none" stroke="#000000" stroke-width="1.0" stroke-opacity="1" points="
495.0000,385.0000
0.0000,385.0000
" />
<polyline fill="none" stroke="#000000" stroke-width="1.0" stroke-opacity="1" points="
0.0000,440.0000
495.0000,440.0000
" />
<polyline fill="none" stroke="#000000" stroke-width="1.0" stroke-opacity="1" points="
495.0000,494.0000
0.0000,494.0000
0.0000,495.0000
495.0000,495.0000
495.0000,496.0000
0.0000,496.0000
" />
<polyline fill="none" stroke="#000000" stroke-width="1.0" stroke-opacity="1" points="
12.6269,280.4962
42.3807,280.4962
21.1280,325.1606
" />
<polyline fill="none" stroke="#000000" stroke-width="1.0" stroke-opacity="1" points="
32.8172,434.8065
32.8172,390.1421
11.5645,419.9634
43.4773,419.9634
" />
<polyline fill="none" stroke="#000000" stroke-width="1.0" stroke-opacity="1" points="
41.5201,460.0527
39.4286,466.4623
35.1780,470.6454
28.8360,472.8044
26.6770,472.8044
20.3349,470.6454
16.0169,466.4623
13.9253,460.0527
13.9253,457.9612
16.0169,451.5517
20.3349,447.3011
26.6770,445.1421
28.8360,445.1421
35.1780,447.3011
39.4286,451.5517
41.5201,460.0527
41.5201,470.6454
39.4286,481.3055
35.1780,487.6813
28.8360,489.8065
24.5180,489.8065
18.1759,487.6813
16.0169,483.4307
" />
<polyline fill="none" stroke="#000000" stroke-width="1.0" stroke-opacity="1" points="
93.4843,60.4962
72.2316,60.4962
70.0726,79.6574
72.2316,77.4984
78.5736,75.4069
84.9832,75.4069
91.3927,77.4984
95.5758,81.8164
97.7348,88.1585
97.7348,92.4090
95.5758,98.7849
91.3927,103.0354
84.9832,105.1607
78.5736,105.1607
72.2316,103.0354
70.0726,100.9101
67.9810,96.6596
" />
<polyline fill="none" stroke="#000000" stroke-width="1.0" stroke-opacity="1" points="
78.6917,390.3782
72.3496,392.5372
70.1906,396.7878
70.1906,401.0383
72.3496,405.2888
76.6001,407.3804
85.1012,409.5394
91.5108,411.6984
95.6938,415.8814
97.8528,420.1995
97.8528,426.5415
95.6938,430.7921
93.6023,432.9174
87.1927,435.0426
78.6917,435.0426
72.3496,432.9174
70.1906,430.7921
68.0990,426.5415
68.0990,420.1995
70.1906,415.8814
74.5086,411.6984
80.8507,409.5394
89.3518,407.3804
93.6023,405.2888
95.6938,401.0383
95.6938,396.7878
93.6023,392.5372
87.1927,390.3782
78.6917,390.3782
" />
<polyline fill="none" stroke="#000000" stroke-width="1.0" stroke-opacity="1" points="
75.0451,453.6958
79.2281,451.6043
85.6377,445.1947
85.6377,489.8592
" />
<polyline fill="none" stroke="#000000" stroke-width="1.0" stroke-opacity="1" points="
130.0451,68.6958
134.2281,66.6043
140.6377,60.1947
140.6377,104.8592
" />
<polyline fill="none" stroke="#000000" stroke-width="1.0" stroke-opacity="1" points="
125.0689,125.8540
125.0689,123.6950
127.2279,119.5119
129.3869,117.3529
133.5700,115.1939
142.0711,115.1939
146.3891,117.3529
148.4806,119.5119
150.5721,123.6950
150.5721,128.0130
148.4806,132.1960
144.2301,138.6056
122.9774,159.8583
152.7311,159.8583
" />
<polyline fill="none" stroke="#000000" stroke-width="1.0" stroke-opacity="1" points="
149.2774,176.5517
147.1858,172.3011
140.7763,170.1421
136.5932,170.1421
130.1837,172.3011
125.9331,178.6432
123.7741,189.3033
123.7741,199.9634
125.9331,208.4307
130.1837,212.6813
136.5932,214.8065
138.6847,214.8065
145.0943,212.6813
149.2774,208.4307
151.4364,202.0549
151.4364,199.9634
149.2774,193.5538
145.0943,189.3033
138.6847,187.1443
136.5932,187.1443
130.1837,189.3033
125.9331,193.5538
123.7741,199.9634
" />
<polyline fill="none" stroke="#000000" stroke-width="1.0" stroke-opacity="1" points="
133.6917,225.3782
127.3496,227.5372
125.1906,231.7877
125.1906,236.0383
127.3496,240.2888
131.6001,242.3804
140.1012,244.5394
146.5108,246.6984
150.6938,250.8814
152.8528,255.1995
152.8528,261.5415
150.6938,265.7921
148.6023,267.9174
142.1927,270.0426
133.6917,270.0426
127.3496,267.9174
125.1906,265.7921
123.0990,261.5415
123.0990,255.1995
125.1906,250.8814
129.5086,246.6984
135.8507,244.5394
144.3517,242.3804
148.6023,240.2888
150.6938,236.0383
150.6938,231.7877
148.6023,227.5372
142.1927,225.3782
133.6917,225.3782
" />
<polyline fill="none" stroke="#000000" stroke-width="1.0" stroke-opacity="1" points="
148.4843,335.4962
127.2316,335.4962
125.0726,354.6574
127.2316,352.4984
133.5736,350.4069
139.9832,350.4069
146.3927,352.4984
150.5758,356.8164
152.7348,363.1585
152.7348,367.4090
150.5758,373.7849
146.3927,378.0354
139.9832,380.1606
133.5736,380.1606
127.2316,378.0354
125.0726,375.9101
122.9810,371.6596
" />
<polyline fill="none" stroke="#000000" stroke-width="1.0" stroke-opacity="1" points="
188.6917,60.3782
182.3496,62.5372
180.1906,66.7877
180.1906,71.0383
182.3496,75.2888
186.6001,77.3804
195.1012,79.5394
201.5108,81.6984
205.6938,85.8814
207.8528,90.1995
207.8528,96.5415
205.6938,100.7921
203.6023,102.9173
197.1927,105.0426
188.6917,105.0426
182.3496,102.9173
180.1906,100.7921
178.0990,96.5415
178.0990,90.1995
180.1906,85.8814
184.5086,81.6984
190.8507,79.5394
199.3517,77.3804
203.6023,75.2888
205.6938,71.0383
205.6938,66.7877
203.6023,62.5372
197.1927,60.3782
188.6917,60.3782
" />
<polyline fill="none" stroke="#000000" stroke-width="1.0" stroke-opacity="1" points="
182.9918,120.9995
186.4192,118.4357
190.8721,116.4791
194.4480,116.4791
198.2937,117.5586
201.4648,120.1224
202.9491,123.4958
203.6237,127.5440
202.5443,131.1873
198.9009,133.9535
194.9203,136.0451
191.4794,136.7197
188.9155,136.7197
192.1540,136.7197
195.5275,137.1246
198.9009,138.4065
202.5443,141.1727
204.2310,143.7365
204.9057,146.7051
204.7033,149.8762
204.0286,152.4400
201.9370,155.4019
198.9009,157.3113
195.1227,158.3705
191.0745,158.3705
187.2288,157.3113
183.4168,155.1860
181.0824,153.0472
" />
<polyline fill="none" stroke="#000000" stroke-width="1.0" stroke-opacity="1" points="
197.8172,269.8065
197.8172,225.1421
176.5645,254.9634
208.4773,254.9634
" />
<polyline fill="none" stroke="#000000" stroke-width="1.0" stroke-opacity="1" points="
206.5201,405.0527
204.4286,411.4623
200.1780,415.6454
193.8360,417.8044
191.6770,417.8044
185.3349,415.6454
181.0169,411.4623
178.9253,405.0527
178.9253,402.9612
181.0169,396.5517
185.3349,392.3011
191.6770,390.1421
193.8360,390.1421
200.1780,392.3011
204.4286,396.5517
206.5201,405.0527
206.5201,415.6454
204.4286,426.3055
200.1780,432.6813
193.8360,434.8065
189.5180,434.8065
183.1759,432.6813
181.0169,428.4307
" />
<polyline fill="none" stroke="#000000" stroke-width="1.0" stroke-opacity="1" points="
295.0450,178.6958
299.2281,176.6043
305.6377,170.1947
305.6377,214.8592
" />
<polyline fill="none" stroke="#000000" stroke-width="1.0" stroke-opacity="1" points="
292.9918,450.9995
296.4192,448.4357
300.8721,446.4791
304.4480,446.4791
308.2937,447.5586
311.4648,450.1224
312.9491,453.4958
313.6237,457.5440
312.5443,461.1873
308.9009,463.9535
304.9203,466.0450
301.4793,466.7198
298.9155,466.7198
302.1541,466.7198
305.5275,467.1246
308.9009,468.4065
312.5443,471.1727
314.2310,473.7365
314.9057,476.7051
314.7032,479.8762
314.0286,482.4400
311.9370,485.4019
308.9009,487.3113
305.1227,488.3705
301.0745,488.3705
297.2288,487.3113
293.4168,485.1860
291.0824,483.0472
" />
<polyline fill="none" stroke="#000000" stroke-width="1.0" stroke-opacity="1" points="
347.9918,65.9995
351.4192,63.4357
355.8721,61.4791
359.4480,61.4791
363.2937,62.5586
366.4648,65.1224
367.9491,68.4958
368.6237,72.5440
367.5443,76.1873
363.9009,78.9535
359.9203,81.0451
356.4793,81.7197
353.9155,81.7197
357.1541,81.7197
360.5275,82.1246
363.9009,83.4065
367.5443,86.1727
369.2310,88.7365
369.9057,91.7051
369.7032,94.8762
369.0286,97.4400
366.9370,100.4019
363.9009,102.3113
360.1227,103.3705
356.0745,103.3705
352.2288,102.3113
348.4168,100.1860
346.0824,98.0472
" />
<polyline fill="none" stroke="#000000" stroke-width="1.0" stroke-opacity="1" points="
342.6269,170.4962
372.3807,170.4962
351.1280,215.1607
" />
<polyline fill="none" stroke="#000000" stroke-width="1.0" stroke-opacity="1" points="
424.2773,231.5517
422.1858,227.3011
415.7763,225.1421
411.5932,225.1421
405.1837,227.3011
400.9331,233.6432
398.7741,244.3033
398.7741,254.9634
400.9331,263.4307
405.1837,267.6813
411.5932,269.8065
413.6847,269.8065
420.0943,267.6813
424.2773,263.4307
426.4364,257.0549
426.4364,254.9634
424.2773,248.5538
420.0943,244.3033
413.6847,242.1443
411.5932,242.1443
405.1837,244.3033
400.9331,248.5538
398.7741,254.9634
" />
<polyline fill="none" stroke="#000000" stroke-width="1.0" stroke-opacity="1" points="
481.5201,20.0527
479.4286,26.4623
475.1780,30.6454
468.8360,32.8044
466.6770,32.8044
460.3349,30.6454
456.0169,26.4623
453.9254,20.0527
453.9254,17.9612
456.0169,11.5517
460.3349,7.3011
466.6770,5.1421
468.8360,5.1421
475.1780,7.3011
479.4286,11.5517
481.5201,20.0527
481.5201,30.6454
479.4286,41.3055
475.1780,47.6813
468.8360,49.8065
464.5179,49.8065
458.1759,47.6813
456.0169,43.4307
" />
<polyline fill="none" stroke="#000000" stroke-width="1.0" stroke-opacity="1" points="
478.4843,115.4962
457.2316,115.4962
455.0726,134.6574
457.2316,132.4984
463.5736,130.4069
469.9832,130.4069
476.3927,132.4984
480.5758,136.8164
482.7348,143.1585
482.7348,147.4090
480.5758,153.7849
476.3927,158.0354
469.9832,160.1607
463.5736,160.1607
457.2316,158.0354
455.0726,155.9101
452.9810,151.6596
" />
<polyline fill="none" stroke="#000000" stroke-width="1.0" stroke-opacity="1" points="
457.9918,230.9995
461.4192,228.4357
465.8721,226.4791
469.4480,226.4791
473.2937,227.5586
476.4648,230.1224
477.9491,233.4958
478.6237,237.5440
477.5443,241.1873
473.9009,243.9535
469.9203,246.0451
466.4793,246.7197
463.9155,246.7197
467.1541,246.7197
470.5275,247.1246
473.9009,248.4065
477.5443,251.1727
479.2310,253.7365
479.9057,256.7051
479.7032,259.8762
479.0286,262.4400
476.9370,265.4019
473.9009,267.3113
470.1227,268.3705
466.0745,268.3705
462.2288,267.3113
458.4168,265.1860
456.0824,263.0472
" />
<polyline fill="none" stroke="#000000" stroke-width="1.0" stroke-opacity="1" points="
463.6917,445.3782
457.3496,447.5372
455.1906,451.7878
455.1906,456.0383
457.3496,460.2888
461.6001,462.3804
470.1012,464.5394
476.5107,466.6984
480.6938,470.8814
482.8528,475.1995
482.8528,481.5415
480.6938,485.7921
478.6023,487.9174
472.1927,490.0426
463.6917,490.0426
457.3496,487.9174
455.1906,485.7921
453.0990,481.5415
453.0990,475.1995
455.1906,470.8814
459.5086,466.6984
465.8507,464.5394
474.3517,462.3804
478.6023,460.2888
480.6938,456.0383
480.6938,451.7878
478.6023,447.5372
472.1927,445.3782
463.6917,445.3782
" />
<polyline fill="none" stroke="#ff5050" stroke-width="1.0" stroke-opacity="1" points="
17.2460,9.7053
20.9423,6.9404
25.7445,4.8304
29.6008,4.8304
33.7481,5.9945
37.1679,8.7594
38.7686,12.3975
39.4962,16.7631
38.3320,20.6922
34.4030,23.6754
30.1101,25.9309
26.3993,26.6586
23.6344,26.6586
27.1269,26.6586
30.7649,27.0951
34.4030,28.4776
38.3320,31.4608
40.1511,34.2257
40.8787,37.4271
40.6604,40.8469
39.9328,43.6118
37.6772,46.8060
34.4030,48.8651
30.3284,50.0074
25.9627,50.0074
21.8154,48.8651
17.7044,46.5731
15.1869,44.2666
" />
<polyline fill="none" stroke="#ff5050" stroke-width="1.0" stroke-opacity="1" points="
40.2011,65.3008
37.9455,60.7169
31.0332,58.3885
26.5221,58.3885
19.6098,60.7169
15.0259,67.5564
12.6976,79.0526
12.6976,90.5487
15.0259,99.6802
19.6098,104.2641
26.5221,106.5561
28.7777,106.5561
35.6899,104.2641
40.2011,99.6802
42.5294,92.8043
42.5294,90.5487
40.2011,83.6365
35.6899,79.0526
28.7777,76.7242
26.5221,76.7242
19.6098,79.0526
15.0259,83.6365
12.6976,90.5487
" />
<polyline fill="none" stroke="#ff5050" stroke-width="1.0" stroke-opacity="1" points="
23.3930,113.6432
16.5535,115.9715
14.2251,120.5554
14.2251,125.1393
16.5535,129.7232
21.1374,131.9788
30.3052,134.3072
37.2175,136.6355
41.7286,141.1467
44.0570,145.8033
44.0570,152.6428
41.7286,157.2267
39.4731,159.5187
32.5608,161.8107
23.3930,161.8107
16.5535,159.5187
14.2251,157.2267
11.9696,152.6428
11.9696,145.8033
14.2251,141.1467
18.8818,136.6355
25.7213,134.3072
34.8891,131.9788
39.4731,129.7232
41.7286,125.1393
41.7286,120.5554
39.4731,115.9715
32.5608,113.6432
23.3930,113.6432
" />
<polyline fill="none" stroke="#ff5050" stroke-width="1.0" stroke-opacity="1" points="
39.3458,168.7704
16.4262,168.7704
14.0979,189.4344
16.4262,187.1061
23.2657,184.8505
30.1780,184.8505
37.0902,187.1061
41.6014,191.7628
43.9297,198.6023
43.9297,203.1862
41.6014,210.0621
37.0902,214.6460
30.1780,216.9380
23.2657,216.9380
16.4262,214.6460
14.0979,212.3540
11.8423,207.7701
" />
<polyline fill="none" stroke="#ff5050" stroke-width="1.0" stroke-opacity="1" points="
19.4604,232.6131
23.9715,230.3576
30.8838,223.4453
30.8838,271.6128
" />
<polyline fill="none" stroke="#ff5050" stroke-width="1.0" stroke-opacity="1" points="
14.0939,344.9406
14.0939,342.6122
16.4222,338.1010
18.7506,335.7727
23.2617,333.4444
32.4296,333.4444
37.0863,335.7727
39.3418,338.1010
41.5974,342.6122
41.5974,347.2689
39.3418,351.7800
34.7579,358.6923
11.8383,381.6119
43.9258,381.6119
" />
<polyline fill="none" stroke="#ff5050" stroke-width="1.0" stroke-opacity="1" points="
66.4604,3.7705
98.5478,3.7705
75.6282,51.9380
" />
<polyline fill="none" stroke="#ff5050" stroke-width="1.0" stroke-opacity="1" points="
97.6198,129.4686
95.3642,136.3809
90.7803,140.8921
83.9408,143.2204
81.6124,143.2204
74.7729,140.8921
70.1162,136.3809
67.8607,129.4686
67.8607,127.2131
70.1162,120.3008
74.7729,115.7169
81.6124,113.3885
83.9408,113.3885
90.7803,115.7169
95.3642,120.3008
97.6198,129.4686
97.6198,140.8921
95.3642,152.3882
90.7803,159.2641
83.9408,161.5561
79.2841,161.5561
72.4446,159.2641
70.1162,154.6802
" />
<polyline fill="none" stroke="#ff5050" stroke-width="1.0" stroke-opacity="1" points="
72.2460,174.7053
75.9423,171.9404
80.7445,169.8304
84.6008,169.8304
88.7481,170.9945
92.1679,173.7594
93.7686,177.3975
94.4962,181.7631
93.3320,185.6922
89.4030,188.6754
85.1101,190.9309
81.3993,191.6586
78.6344,191.6586
82.1269,191.6586
85.7649,192.0951
89.4030,193.4776
93.3320,196.4608
95.1511,199.2256
95.8787,202.4271
95.6604,205.8469
94.9328,208.6118
92.6772,211.8060
89.4030,213.8651
85.3284,215.0074
80.9627,215.0074
76.8154,213.8651
72.7044,211.5731
70.1869,209.2666
" />
<polyline fill="none" stroke="#ff5050" stroke-width="1.0" stroke-opacity="1" points="
69.0939,234.9406
69.0939,232.6122
71.4222,228.1010
73.7506,225.7727
78.2617,223.4444
87.4296,223.4444
92.0863,225.7727
94.3418,228.1010
96.5974,232.6122
96.5974,237.2689
94.3418,241.7800
89.7579,248.6923
66.8383,271.6119
98.9258,271.6119
" />
<polyline fill="none" stroke="#ff5050" stroke-width="1.0" stroke-opacity="1" points="
88.2343,326.5561
88.2343,278.3885
65.3147,310.5487
99.7304,310.5487
" />
<polyline fill="none" stroke="#ff5050" stroke-width="1.0" stroke-opacity="1" points="
95.2011,340.3008
92.9455,335.7169
86.0332,333.3885
81.5221,333.3885
74.6098,335.7169
70.0259,342.5564
67.6976,354.0526
67.6976,365.5487
70.0259,374.6802
74.6098,379.2641
81.5221,381.5561
83.7777,381.5561
90.6899,379.2641
95.2011,374.6802
97.5294,367.8043
97.5294,365.5487
95.2011,358.6365
90.6899,354.0526
83.7777,351.7242
81.5221,351.7242
74.6098,354.0526
70.0259,358.6365
67.6976,365.5487
" />
<polyline fill="none" stroke="#ff5050" stroke-width="1.0" stroke-opacity="1" points="
143.2343,51.5561
143.2343,3.3886
120.3147,35.5487
154.7304,35.5487
" />
<polyline fill="none" stroke="#ff5050" stroke-width="1.0" stroke-opacity="1" points="
152.6198,294.4686
150.3642,301.3809
145.7802,305.8921
138.9408,308.2204
136.6124,308.2204
129.7729,305.8921
125.1162,301.3809
122.8607,294.4686
122.8607,292.2131
125.1162,285.3008
129.7729,280.7169
136.6124,278.3885
138.9408,278.3885
145.7802,280.7169
150.3642,285.3008
152.6198,294.4686
152.6198,305.8921
150.3642,317.3882
145.7802,324.2641
138.9408,326.5561
134.2841,326.5561
127.4446,324.2641
125.1162,319.6802
" />
<polyline fill="none" stroke="#ff5050" stroke-width="1.0" stroke-opacity="1" points="
127.2460,394.7053
130.9423,391.9404
135.7445,389.8304
139.6008,389.8304
143.7481,390.9945
147.1679,393.7594
148.7686,397.3975
149.4962,401.7631
148.3320,405.6922
144.4030,408.6754
140.1101,410.9309
136.3993,411.6585
133.6344,411.6585
137.1269,411.6585
140.7649,412.0951
144.4030,413.4776
148.3320,416.4608
150.1511,419.2256
150.8787,422.4271
150.6604,425.8469
149.9328,428.6118
147.6772,431.8060
144.4030,433.8651
140.3284,435.0074
135.9627,435.0074
131.8154,433.8651
127.7044,431.5731
125.1869,429.2666
" />
<polyline fill="none" stroke="#ff5050" stroke-width="1.0" stroke-opacity="1" points="
121.4604,443.7704
153.5478,443.7704
130.6282,491.9380
" />
<polyline fill="none" stroke="#ff5050" stroke-width="1.0" stroke-opacity="1" points="
184.4604,12.6131
188.9715,10.3576
195.8838,3.4453
195.8838,51.6128
" />
<polyline fill="none" stroke="#ff5050" stroke-width="1.0" stroke-opacity="1" points="
179.0939,179.9406
179.0939,177.6122
181.4222,173.1010
183.7506,170.7727
188.2617,168.4444
197.4296,168.4444
202.0863,170.7727
204.3418,173.1010
206.5974,177.6122
206.5974,182.2689
204.3418,186.7800
199.7579,193.6923
176.8383,216.6119
208.9258,216.6119
" />
<polyline fill="none" stroke="#ff5050" stroke-width="1.0" stroke-opacity="1" points="
204.3458,278.7704
181.4262,278.7704
179.0979,299.4344
181.4262,297.1061
188.2657,294.8505
195.1779,294.8505
202.0902,297.1061
206.6014,301.7628
208.9297,308.6023
208.9297,313.1862
206.6014,320.0621
202.0902,324.6460
195.1779,326.9380
188.2657,326.9380
181.4262,324.6460
179.0979,322.3540
176.8423,317.7701
" />
<polyline fill="none" stroke="#ff5050" stroke-width="1.0" stroke-opacity="1" points="
176.4604,333.7704
208.5478,333.7704
185.6282,381.9380
" />
<polyline fill="none" stroke="#ff5050" stroke-width="1.0" stroke-opacity="1" points="
205.2011,450.3008
202.9455,445.7169
196.0332,443.3885
191.5221,443.3885
184.6098,445.7169
180.0259,452.5564
177.6976,464.0526
177.6976,475.5487
180.0259,484.6802
184.6098,489.2641
191.5221,491.5561
193.7776,491.5561
200.6899,489.2641
205.2011,484.6802
207.5294,477.8043
207.5294,475.5487
205.2011,468.6365
200.6899,464.0526
193.7776,461.7242
191.5221,461.7242
184.6098,464.0526
180.0259,468.6365
177.6976,475.5487
" />
<polyline fill="none" stroke="#ff5050" stroke-width="1.0" stroke-opacity="1" points="
259.3458,3.7705
236.4262,3.7705
234.0979,24.4345
236.4262,22.1061
243.2657,19.8505
250.1779,19.8505
257.0902,22.1061
261.6014,26.7628
263.9297,33.6023
263.9297,38.1862
261.6014,45.0621
257.0902,49.6460
250.1779,51.9380
243.2657,51.9380
236.4262,49.6460
234.0979,47.3540
231.8423,42.7701
" />
<polyline fill="none" stroke="#ff5050" stroke-width="1.0" stroke-opacity="1" points="
262.6198,74.4686
260.3642,81.3809
255.7802,85.8921
248.9408,88.2204
246.6124,88.2204
239.7729,85.8921
235.1162,81.3809
232.8607,74.4686
232.8607,72.2131
235.1162,65.3008
239.7729,60.7169
246.6124,58.3885
248.9408,58.3885
255.7802,60.7169
260.3642,65.3008
262.6198,74.4686
262.6198,85.8921
260.3642,97.3882
255.7802,104.2641
248.9408,106.5561
244.2841,106.5561
237.4446,104.2641
235.1162,99.6802
" />
<polyline fill="none" stroke="#ff5050" stroke-width="1.0" stroke-opacity="1" points="
260.2011,120.3008
257.9455,115.7169
251.0332,113.3885
246.5221,113.3885
239.6098,115.7169
235.0259,122.5564
232.6976,134.0526
232.6976,145.5487
235.0259,154.6802
239.6098,159.2641
246.5221,161.5561
248.7776,161.5561
255.6899,159.2641
260.2011,154.6802
262.5294,147.8043
262.5294,145.5487
260.2011,138.6365
255.6899,134.0526
248.7776,131.7242
246.5221,131.7242
239.6098,134.0526
235.0259,138.6365
232.6976,145.5487
" />
<polyline fill="none" stroke="#ff5050" stroke-width="1.0" stroke-opacity="1" points="
243.3930,168.6431
236.5535,170.9715
234.2251,175.5554
234.2251,180.1393
236.5535,184.7232
241.1374,186.9788
250.3052,189.3072
257.2175,191.6355
261.7286,196.1467
264.0570,200.8033
264.0570,207.6428
261.7286,212.2267
259.4731,214.5187
252.5608,216.8107
243.3930,216.8107
236.5535,214.5187
234.2251,212.2267
231.9696,207.6428
231.9696,200.8033
234.2251,196.1467
238.8818,191.6355
245.7213,189.3072
254.8891,186.9788
259.4731,184.7232
261.7286,180.1393
261.7286,175.5554
259.4731,170.9715
252.5608,168.6431
243.3930,168.6431
" />
<polyline fill="none" stroke="#ff5050" stroke-width="1.0" stroke-opacity="1" points="
231.4604,223.7704
263.5478,223.7704
240.6282,271.9380
" />
<polyline fill="none" stroke="#ff5050" stroke-width="1.0" stroke-opacity="1" points="
237.2460,284.7053
240.9423,281.9404
245.7445,279.8304
249.6008,279.8304
253.7481,280.9945
257.1679,283.7594
258.7686,287.3975
259.4962,291.7631
258.3320,295.6922
254.4030,298.6754
250.1101,300.9309
246.3993,301.6585
243.6344,301.6585
247.1269,301.6585
250.7649,302.0951
254.4030,303.4776
258.3320,306.4608
260.1511,309.2256
260.8787,312.4271
260.6604,315.8469
259.9328,318.6118
257.6772,321.8060
254.4030,323.8651
250.3284,325.0074
245.9627,325.0074
241.8154,323.8651
237.7044,321.5731
235.1869,319.2666
" />
<polyline fill="none" stroke="#ff5050" stroke-width="1.0" stroke-opacity="1" points="
253.2343,381.5561
253.2343,333.3885
230.3147,365.5487
264.7304,365.5487
" />
<polyline fill="none" stroke="#ff5050" stroke-width="1.0" stroke-opacity="1" points="
239.4604,397.6132
243.9715,395.3576
250.8838,388.4453
250.8838,436.6128
" />
<polyline fill="none" stroke="#ff5050" stroke-width="1.0" stroke-opacity="1" points="
234.0939,454.9406
234.0939,452.6122
236.4222,448.1010
238.7506,445.7727
243.2617,443.4444
252.4296,443.4444
257.0862,445.7727
259.3418,448.1010
261.5974,452.6122
261.5974,457.2689
259.3418,461.7800
254.7579,468.6923
231.8383,491.6119
263.9258,491.6119
" />
<polyline fill="none" stroke="#ff5050" stroke-width="1.0" stroke-opacity="1" points="
289.0939,14.9405
289.0939,12.6122
291.4222,8.1010
293.7506,5.7727
298.2617,3.4444
307.4296,3.4444
312.0862,5.7727
314.3418,8.1010
316.5974,12.6122
316.5974,17.2689
314.3418,21.7800
309.7579,28.6923
286.8383,51.6119
318.9258,51.6119
" />
<polyline fill="none" stroke="#ff5050" stroke-width="1.0" stroke-opacity="1" points="
308.2343,106.5561
308.2343,58.3885
285.3147,90.5487
319.7304,90.5487
" />
<polyline fill="none" stroke="#ff5050" stroke-width="1.0" stroke-opacity="1" points="
286.4604,113.7704
318.5478,113.7704
295.6282,161.9380
" />
<polyline fill="none" stroke="#ff5050" stroke-width="1.0" stroke-opacity="1" points="
317.6198,239.4686
315.3642,246.3809
310.7802,250.8921
303.9408,253.2204
301.6124,253.2204
294.7729,250.8921
290.1162,246.3809
287.8607,239.4686
287.8607,237.2131
290.1162,230.3008
294.7729,225.7169
301.6124,223.3885
303.9408,223.3885
310.7802,225.7169
315.3642,230.3008
317.6198,239.4686
317.6198,250.8921
315.3642,262.3882
310.7802,269.2641
303.9408,271.5561
299.2841,271.5561
292.4446,269.2641
290.1162,264.6802
" />
<polyline fill="none" stroke="#ff5050" stroke-width="1.0" stroke-opacity="1" points="
315.2011,285.3008
312.9455,280.7169
306.0332,278.3885
301.5221,278.3885
294.6098,280.7169
290.0259,287.5564
287.6976,299.0526
287.6976,310.5487
290.0259,319.6802
294.6098,324.2641
301.5221,326.5561
303.7776,326.5561
310.6899,324.2641
315.2011,319.6802
317.5294,312.8043
317.5294,310.5487
315.2011,303.6365
310.6899,299.0526
303.7776,296.7242
301.5221,296.7242
294.6098,299.0526
290.0259,303.6365
287.6976,310.5487
" />
<polyline fill="none" stroke="#ff5050" stroke-width="1.0" stroke-opacity="1" points="
298.3930,333.6432
291.5535,335.9715
289.2251,340.5554
289.2251,345.1393
291.5535,349.7232
296.1374,351.9788
305.3052,354.3072
312.2175,356.6355
316.7286,361.1467
319.0570,365.8033
319.0570,372.6428
316.7286,377.2267
314.4731,379.5187
307.5608,381.8107
298.3930,381.8107
291.5535,379.5187
289.2251,377.2267
286.9695,372.6428
286.9695,365.8033
289.2251,361.1467
293.8818,356.6355
300.7213,354.3072
309.8892,351.9788
314.4731,349.7232
316.7286,345.1393
316.7286,340.5554
314.4731,335.9715
307.5608,333.6432
298.3930,333.6432
" />
<polyline fill="none" stroke="#ff5050" stroke-width="1.0" stroke-opacity="1" points="
314.3458,388.7704
291.4262,388.7704
289.0979,409.4344
291.4262,407.1061
298.2657,404.8505
305.1779,404.8505
312.0902,407.1061
316.6014,411.7628
318.9297,418.6023
318.9297,423.1862
316.6014,430.0621
312.0902,434.6460
305.1779,436.9380
298.2657,436.9380
291.4262,434.6460
289.0979,432.3540
286.8423,427.7701
" />
<polyline fill="none" stroke="#ff5050" stroke-width="1.0" stroke-opacity="1" points="
370.2011,10.3008
367.9455,5.7169
361.0332,3.3886
356.5221,3.3886
349.6098,5.7169
345.0259,12.5564
342.6976,24.0526
342.6976,35.5487
345.0259,44.6802
349.6098,49.2641
356.5221,51.5561
358.7776,51.5561
365.6899,49.2641
370.2011,44.6802
372.5294,37.8043
372.5294,35.5487
370.2011,28.6365
365.6899,24.0526
358.7776,21.7242
356.5221,21.7242
349.6098,24.0526
345.0259,28.6365
342.6976,35.5487
" />
<polyline fill="none" stroke="#ff5050" stroke-width="1.0" stroke-opacity="1" points="
349.4604,122.6131
353.9715,120.3576
360.8838,113.4453
360.8838,161.6128
" />
<polyline fill="none" stroke="#ff5050" stroke-width="1.0" stroke-opacity="1" points="
369.3458,223.7704
346.4262,223.7704
344.0979,244.4344
346.4262,242.1061
353.2657,239.8505
360.1779,239.8505
367.0902,242.1061
371.6014,246.7628
373.9297,253.6023
373.9297,258.1862
371.6014,265.0621
367.0902,269.6460
360.1779,271.9380
353.2657,271.9380
346.4262,269.6460
344.0979,267.3540
341.8423,262.7701
" />
<polyline fill="none" stroke="#ff5050" stroke-width="1.0" stroke-opacity="1" points="
353.3930,278.6432
346.5535,280.9715
344.2251,285.5554
344.2251,290.1393
346.5535,294.7232
351.1374,296.9788
360.3052,299.3072
367.2175,301.6355
371.7286,306.1467
374.0570,310.8033
374.0570,317.6428
371.7286,322.2267
369.4731,324.5187
362.5608,326.8107
353.3930,326.8107
346.5535,324.5187
344.2251,322.2267
341.9695,317.6428
341.9695,310.8033
344.2251,306.1467
348.8818,301.6355
355.7213,299.3072
364.8892,296.9788
369.4731,294.7232
371.7286,290.1393
371.7286,285.5554
369.4731,280.9715
362.5608,278.6432
353.3930,278.6432
" />
<polyline fill="none" stroke="#ff5050" stroke-width="1.0" stroke-opacity="1" points="
372.6198,349.4686
370.3642,356.3809
365.7802,360.8921
358.9408,363.2204
356.6124,363.2204
349.7729,360.8921
345.1162,356.3809
342.8607,349.4686
342.8607,347.2131
345.1162,340.3008
349.7729,335.7169
356.6124,333.3885
358.9408,333.3885
365.7802,335.7169
370.3642,340.3008
372.6198,349.4686
372.6198,360.8921
370.3642,372.3882
365.7802,379.2641
358.9408,381.5561
354.2841,381.5561
347.4446,379.2641
345.1162,374.6802
" />
<polyline fill="none" stroke="#ff5050" stroke-width="1.0" stroke-opacity="1" points="
344.0939,399.9406
344.0939,397.6122
346.4222,393.1010
348.7506,390.7727
353.2617,388.4444
362.4296,388.4444
367.0862,390.7727
369.3418,393.1010
371.5974,397.6122
371.5974,402.2689
369.3418,406.7800
364.7579,413.6923
341.8383,436.6119
373.9258,436.6119
" />
<polyline fill="none" stroke="#ff5050" stroke-width="1.0" stroke-opacity="1" points="
363.2343,491.5561
363.2343,443.3885
340.3147,475.5487
374.7304,475.5487
" />
<polyline fill="none" stroke="#ff5050" stroke-width="1.0" stroke-opacity="1" points="
408.3930,3.6431
401.5535,5.9715
399.2251,10.5554
399.2251,15.1393
401.5535,19.7232
406.1374,21.9788
415.3052,24.3072
422.2175,26.6355
426.7286,31.1467
429.0570,35.8033
429.0570,42.6428
426.7286,47.2267
424.4731,49.5187
417.5608,51.8107
408.3930,51.8107
401.5535,49.5187
399.2251,47.2267
396.9695,42.6428
396.9695,35.8033
399.2251,31.1467
403.8818,26.6355
410.7213,24.3072
419.8892,21.9788
424.4731,19.7232
426.7286,15.1393
426.7286,10.5554
424.4731,5.9715
417.5608,3.6431
408.3930,3.6431
" />
<polyline fill="none" stroke="#ff5050" stroke-width="1.0" stroke-opacity="1" points="
399.0939,69.9405
399.0939,67.6122
401.4222,63.1010
403.7506,60.7727
408.2617,58.4444
417.4296,58.4444
422.0862,60.7727
424.3418,63.1010
426.5974,67.6122
426.5974,72.2689
424.3418,76.7800
419.7579,83.6923
396.8383,106.6119
428.9258,106.6119
" />
<polyline fill="none" stroke="#ff5050" stroke-width="1.0" stroke-opacity="1" points="
418.2343,161.5561
418.2343,113.3885
395.3147,145.5487
429.7304,145.5487
" />
<polyline fill="none" stroke="#ff5050" stroke-width="1.0" stroke-opacity="1" points="
427.6198,184.4686
425.3642,191.3809
420.7802,195.8921
413.9408,198.2204
411.6124,198.2204
404.7729,195.8921
400.1162,191.3809
397.8607,184.4686
397.8607,182.2131
400.1162,175.3008
404.7729,170.7169
411.6124,168.3885
413.9408,168.3885
420.7802,170.7169
425.3642,175.3008
427.6198,184.4686
427.6198,195.8921
425.3642,207.3882
420.7802,214.2641
413.9408,216.5561
409.2841,216.5561
402.4446,214.2641
400.1162,209.6802
" />
<polyline fill="none" stroke="#ff5050" stroke-width="1.0" stroke-opacity="1" points="
404.4604,287.6132
408.9715,285.3576
415.8838,278.4453
415.8838,326.6128
" />
<polyline fill="none" stroke="#ff5050" stroke-width="1.0" stroke-opacity="1" points="
402.2460,339.7053
405.9423,336.9404
410.7444,334.8304
414.6008,334.8304
418.7481,335.9945
422.1679,338.7594
423.7686,342.3975
424.4962,346.7631
423.3320,350.6922
419.4030,353.6754
415.1101,355.9309
411.3993,356.6585
408.6344,356.6585
412.1269,356.6585
415.7650,357.0951
419.4030,358.4776
423.3320,361.4608
425.1511,364.2256
425.8787,367.4271
425.6604,370.8469
424.9328,373.6118
422.6772,376.8060
419.4030,378.8651
415.3284,380.0074
410.9627,380.0074
406.8154,378.8651
402.7044,376.5731
400.1869,374.2666
" />
<polyline fill="none" stroke="#ff5050" stroke-width="1.0" stroke-opacity="1" points="
396.4604,388.7704
428.5478,388.7704
405.6282,436.9380
" />
<polyline fill="none" stroke="#ff5050" stroke-width="1.0" stroke-opacity="1" points="
424.3458,443.7704
401.4262,443.7704
399.0979,464.4344
401.4262,462.1061
408.2657,459.8505
415.1779,459.8505
422.0902,462.1061
426.6014,466.7628
428.9297,473.6023
428.9297,478.1862
426.6014,485.0621
422.0902,489.6460
415.1779,491.9380
408.2657,491.9380
401.4262,489.6460
399.0979,487.3540
396.8423,482.7701
" />
<polyline fill="none" stroke="#ff5050" stroke-width="1.0" stroke-opacity="1" points="
451.4604,58.7705
483.5478,58.7705
460.6282,106.9380
" />
<polyline fill="none" stroke="#ff5050" stroke-width="1.0" stroke-opacity="1" points="
473.2343,216.5561
473.2343,168.3885
450.3147,200.5487
484.7304,200.5487
" />
<polyline fill="none" stroke="#ff5050" stroke-width="1.0" stroke-opacity="1" points="
454.0939,289.9406
454.0939,287.6122
456.4222,283.1010
458.7506,280.7727
463.2617,278.4444
472.4296,278.4444
477.0862,280.7727
479.3418,283.1010
481.5974,287.6122
481.5974,292.2689
479.3418,296.7800
474.7579,303.6923
451.8383,326.6119
483.9258,326.6119
" />
<polyline fill="none" stroke="#ff5050" stroke-width="1.0" stroke-opacity="1" points="
459.4604,342.6132
463.9715,340.3576
470.8838,333.4453
470.8838,381.6128
" />
<polyline fill="none" stroke="#ff5050" stroke-width="1.0" stroke-opacity="1" points="
480.2011,395.3008
477.9455,390.7169
471.0332,388.3885
466.5221,388.3885
459.6098,390.7169
455.0259,397.5564
452.6976,409.0526
452.6976,420.5487
455.0259,429.6802
459.6098,434.2641
466.5221,436.5561
468.7776,436.5561
475.6899,434.2641
480.2011,429.6802
482.5294,422.8043
482.5294,420.5487
480.2011,413.6365
475.6899,409.0526
468.7776,406.7242
466.5221,406.7242
459.6098,409.0526
455.0259,413.6365
452.6976,420.5487
" />
</g>
</svg>
