<?xml version="1.0" encoding="UTF-8" ?>
<svg width="500mm" height="500mm" xmlns="http://www.w3.org/2000/svg" version="1.1">
<g id="0">
<polyline fill="none" stroke="#000000" stroke-width="1.0" stroke-opacity="1" points="
-1.0000,495.0000
-1.0000,0.0000
0.0000,0.0000
0.0000,495.0000
1.0000,495.0000
1.0000,0.0000
" />
<polyline fill="none" stroke="#000000" stroke-width="1.0" stroke-opacity="1" points="
55.0000,495.0000
55.0000,0.0000
" />
<polyline fill="none" stroke="#000000" stroke-width="1.0" stroke-opacity="1" points="
110.0000,0.0000
110.0000,495.0000
" />
<polyline fill="none" stroke="#000000" stroke-width="1.0" stroke-opacity="1" points="
164.0000,495.0000
164.0000,0.0000
165.0000,0.0000
165.0000,495.0000
166.0000,495.0000
166.0000,0.0000
" />
<polyline fill="none" stroke="#000000" stroke-width="1.0" stroke-opacity="1" points="
220.0000,0.0000
220.0000,495.0000
" />
<polyline fill="none" stroke="#000000" stroke-width="1.0" stroke-opacity="1" points="
275.0000,495.0000
275.0000,0.0000
" />
<polyline fill="none" stroke="#000000" stroke-width="1.0" stroke-opacity="1" points="
329.0000,495.0000
329.0000,0.0000
330.0000,0.0000
330.0000,495.0000
331.0000,495.0000
331.0000,0.0000
" />
<polyline fill="none" stroke="#000000" stroke-width="1.0" stroke-opacity="1" points="
385.0000,495.0000
385.0000,0.0000
" />
<polyline fill="none" stroke="#000000" stroke-width="1.0" stroke-opacity="1" points="
440.0000,0.0000
440.0000,495.0000
" />
<polyline fill="none" stroke="#000000" stroke-width="1.0" stroke-opacity="1" points="
494.0000,495.0000
494.0000,0.0000
495.0000,0.0000
495.0000,495.0000
496.0000,495.0000
496.0000,0.0000
" />
<polyline fill="none" stroke="#000000" stroke-width="1.0" stroke-opacity="1" points="
495.0000,-1.0000
0.0000,-1.0000
0.0000,0.0000
495.0000,0.0000
495.0000,1.0000
0.0000,1.0000
" />
<polyline fill="none" stroke="#000000" stroke-width="1.0" stroke-opacity="1" points="
495.0000,55.0000
0.0000,55.0000
" />
<polyline fill="none" stroke="#000000" stroke-width="1.0" stroke-opacity="1" points="
0.0000,110.0000
495.0000,110.0000
" />
<polyline fill="none" stroke="#000000" stroke-width="1.0" stroke-opacity="1" points="
495.0000,164.0000
0.0000,164.0000
0.0000,165.0000
495.0000,165.0000
495.0000,166.0000
0.0000,166.0000
" />
<polyline fill="none" stroke="#000000" stroke-width="1.0" stroke-opacity="1" points="
0.0000,220.0000
495.0000,220.0000
" />
<polyline fill="none" stroke="#000000" stroke-width="1.0" stroke-opacity="1" points="
495.0000,275.0000
0.0000,275.0000
" />
<polyline fill="none" stroke="#000000" stroke-width="1.0" stroke-opacity="1" points="
495.0000,329.0000
0.0000,329.0000
0.0000,330.0000
495.0000,330.0000
495.0000,331.0000
0.0000,331.0000
" />
<polyline fill="none" stroke="#000000" stroke-width="1.0" stroke-opacity="1" points="
495.0000,385.0000
0.0000,385.0000
" />
<polyline fill="none" stroke="#000000" stroke-width="1.0" stroke-opacity="1" points="
0.0000,440.0000
495.0000,440.0000
" />
<polyline fill="none" stroke="#000000" stroke-width="1.0" stroke-opacity="1" points="
495.0000,494.0000
0.0000,494.0000
0.0000,495.0000
495.0000,495.0000
495.0000,496.0000
0.0000,496.0000
" />
<polyline fill="none" stroke="#000000" stroke-width="1.0" stroke-opacity="1" points="
41.5201,130.0527
39.4286,136.4623
35.1780,140.6454
28.8360,142.8044
26.6770,142.8044
20.3349,140.6454
16.0169,136.4623
13.9253,130.0527
13.9253,127.9612
16.0169,121.5517
20.3349,117.3011
26.6770,115.1421
28.8360,115.1421
35.1780,117.3011
39.4286,121.5517
41.5201,130.0527
41.5201,140.6454
39.4286,151.3055
35.1780,157.6813
28.8360,159.8065
24.5180,159.8065
18.1759,157.6813
16.0169,153.4307
" />
<polyline fill="none" stroke="#000000" stroke-width="1.0" stroke-opacity="1" points="
39.2774,286.5517
37.1858,282.3011
30.7763,280.1421
26.5932,280.1421
20.1837,282.3011
15.9331,288.6432
13.7741,299.3033
13.7741,309.9634
15.9331,318.4307
20.1837,322.6813
26.5932,324.8065
28.6847,324.8065
35.0943,322.6813
39.2774,318.4307
41.4364,312.0549
41.4364,309.9634
39.2774,303.5538
35.0943,299.3033
28.6847,297.1443
26.5932,297.1443
20.1837,299.3033
15.9331,303.5538
13.7741,309.9634
" />
<polyline fill="none" stroke="#000000" stroke-width="1.0" stroke-opacity="1" points="
75.0451,68.6958
79.2281,66.6043
85.6377,60.1947
85.6377,104.8592
" />
<polyline fill="none" stroke="#000000" stroke-width="1.0" stroke-opacity="1" points="
72.9918,175.9995
76.4192,173.4357
80.8721,171.4791
84.4480,171.4791
88.2937,172.5586
91.4648,175.1224
92.9491,178.4958
93.6238,182.5440
92.5443,186.1873
88.9009,188.9535
84.9203,191.0451
81.4794,191.7197
78.9155,191.7197
82.1540,191.7197
85.5275,192.1246
88.9009,193.4065
92.5443,196.1727
94.2310,198.7365
94.9057,201.7051
94.7033,204.8762
94.0286,207.4400
91.9370,210.4019
88.9009,212.3113
85.1227,213.3705
81.0745,213.3705
77.2288,212.3113
73.4168,210.1860
71.0824,208.0472
" />
<polyline fill="none" stroke="#000000" stroke-width="1.0" stroke-opacity="1" points="
78.6917,225.3782
72.3496,227.5372
70.1906,231.7877
70.1906,236.0383
72.3496,240.2888
76.6001,242.3804
85.1012,244.5394
91.5108,246.6984
95.6938,250.8814
97.8528,255.1995
97.8528,261.5415
95.6938,265.7921
93.6023,267.9174
87.1927,270.0426
78.6917,270.0426
72.3496,267.9174
70.1906,265.7921
68.0990,261.5415
68.0990,255.1995
70.1906,250.8814
74.5086,246.6984
80.8507,244.5394
89.3518,242.3804
93.6023,240.2888
95.6938,236.0383
95.6938,231.7877
93.6023,227.5372
87.1927,225.3782
78.6917,225.3782
" />
<polyline fill="none" stroke="#000000" stroke-width="1.0" stroke-opacity="1" points="
125.0689,70.8540
125.0689,68.6950
127.2279,64.5119
129.3869,62.3529
133.5700,60.1939
142.0711,60.1939
146.3891,62.3529
148.4806,64.5119
150.5721,68.6950
150.5721,73.0130
148.4806,77.1960
144.2301,83.6056
122.9774,104.8583
152.7311,104.8583
" />
<polyline fill="none" stroke="#000000" stroke-width="1.0" stroke-opacity="1" points="
151.5201,240.0527
149.4286,246.4623
145.1780,250.6454
138.8360,252.8044
136.6770,252.8044
130.3349,250.6454
126.0169,246.4623
123.9253,240.0527
123.9253,237.9612
126.0169,231.5517
130.3349,227.3011
136.6770,225.1421
138.8360,225.1421
145.1780,227.3011
149.4286,231.5517
151.5201,240.0527
151.5201,250.6454
149.4286,261.3055
145.1780,267.6813
138.8360,269.8065
134.5180,269.8065
128.1759,267.6813
126.0169,263.4307
" />
<polyline fill="none" stroke="#000000" stroke-width="1.0" stroke-opacity="1" points="
148.4843,445.4962
127.2316,445.4962
125.0726,464.6574
127.2316,462.4984
133.5736,460.4069
139.9832,460.4069
146.3927,462.4984
150.5758,466.8164
152.7348,473.1585
152.7348,477.4090
150.5758,483.7849
146.3927,488.0354
139.9832,490.1606
133.5736,490.1606
127.2316,488.0354
125.0726,485.9101
122.9810,481.6596
" />
<polyline fill="none" stroke="#000000" stroke-width="1.0" stroke-opacity="1" points="
182.9918,230.9995
186.4192,228.4357
190.8721,226.4791
194.4480,226.4791
198.2937,227.5586
201.4648,230.1224
202.9491,233.4958
203.6237,237.5440
202.5443,241.1873
198.9009,243.9535
194.9203,246.0451
191.4794,246.7197
188.9155,246.7197
192.1540,246.7197
195.5275,247.1246
198.9009,248.4065
202.5443,251.1727
204.2310,253.7365
204.9057,256.7051
204.7033,259.8762
204.0286,262.4400
201.9370,265.4019
198.9009,267.3113
195.1227,268.3705
191.0745,268.3705
187.2288,267.3113
183.4168,265.1860
181.0824,263.0472
" />
<polyline fill="none" stroke="#000000" stroke-width="1.0" stroke-opacity="1" points="
206.5201,295.0527
204.4286,301.4623
200.1780,305.6454
193.8360,307.8044
191.6770,307.8044
185.3349,305.6454
181.0169,301.4623
178.9253,295.0527
178.9253,292.9612
181.0169,286.5517
185.3349,282.3011
191.6770,280.1421
193.8360,280.1421
200.1780,282.3011
204.4286,286.5517
206.5201,295.0527
206.5201,305.6454
204.4286,316.3055
200.1780,322.6813
193.8360,324.8065
189.5180,324.8065
183.1759,322.6813
181.0169,318.4307
" />
<polyline fill="none" stroke="#000000" stroke-width="1.0" stroke-opacity="1" points="
185.0451,343.6958
189.2281,341.6043
195.6377,335.1947
195.6377,379.8592
" />
<polyline fill="none" stroke="#000000" stroke-width="1.0" stroke-opacity="1" points="
252.8172,434.8065
252.8172,390.1421
231.5645,419.9634
263.4773,419.9634
" />
<polyline fill="none" stroke="#000000" stroke-width="1.0" stroke-opacity="1" points="
261.5201,460.0527
259.4286,466.4623
255.1780,470.6454
248.8360,472.8044
246.6770,472.8044
240.3349,470.6454
236.0169,466.4623
233.9253,460.0527
233.9253,457.9612
236.0169,451.5517
240.3349,447.3011
246.6770,445.1421
248.8360,445.1421
255.1780,447.3011
259.4286,451.5517
261.5201,460.0527
261.5201,470.6454
259.4286,481.3055
255.1780,487.6813
248.8360,489.8065
244.5180,489.8065
238.1759,487.6813
236.0169,483.4307
" />
<polyline fill="none" stroke="#000000" stroke-width="1.0" stroke-opacity="1" points="
307.8172,49.8065
307.8172,5.1421
286.5645,34.9634
318.4773,34.9634
" />
<polyline fill="none" stroke="#000000" stroke-width="1.0" stroke-opacity="1" points="
314.2773,341.5517
312.1858,337.3011
305.7763,335.1421
301.5932,335.1421
295.1837,337.3011
290.9331,343.6432
288.7741,354.3033
288.7741,364.9634
290.9331,373.4307
295.1837,377.6813
301.5932,379.8065
303.6847,379.8065
310.0943,377.6813
314.2773,373.4307
316.4364,367.0549
316.4364,364.9634
314.2773,358.5538
310.0943,354.3033
303.6847,352.1443
301.5932,352.1443
295.1837,354.3033
290.9331,358.5538
288.7741,364.9634
" />
<polyline fill="none" stroke="#000000" stroke-width="1.0" stroke-opacity="1" points="
353.6917,60.3782
347.3496,62.5372
345.1906,66.7877
345.1906,71.0383
347.3496,75.2888
351.6001,77.3804
360.1012,79.5394
366.5107,81.6984
370.6938,85.8814
372.8528,90.1995
372.8528,96.5415
370.6938,100.7921
368.6023,102.9173
362.1927,105.0426
353.6917,105.0426
347.3496,102.9173
345.1906,100.7921
343.0990,96.5415
343.0990,90.1995
345.1906,85.8814
349.5086,81.6984
355.8507,79.5394
364.3517,77.3804
368.6023,75.2888
370.6938,71.0383
370.6938,66.7877
368.6023,62.5372
362.1927,60.3782
353.6917,60.3782
" />
<polyline fill="none" stroke="#000000" stroke-width="1.0" stroke-opacity="1" points="
345.0689,125.8540
345.0689,123.6950
347.2279,119.5119
349.3869,117.3529
353.5700,115.1939
362.0710,115.1939
366.3891,117.3529
368.4806,119.5119
370.5721,123.6950
370.5721,128.0130
368.4806,132.1960
364.2301,138.6056
342.9774,159.8583
372.7311,159.8583
" />
<polyline fill="none" stroke="#000000" stroke-width="1.0" stroke-opacity="1" points="
400.0689,180.8540
400.0689,178.6950
402.2279,174.5119
404.3869,172.3529
408.5700,170.1939
417.0710,170.1939
421.3891,172.3529
423.4806,174.5119
425.5721,178.6950
425.5721,183.0130
423.4806,187.1960
419.2301,193.6056
397.9774,214.8583
427.7311,214.8583
" />
<polyline fill="none" stroke="#000000" stroke-width="1.0" stroke-opacity="1" points="
397.6269,335.4962
427.3807,335.4962
406.1280,380.1606
" />
<polyline fill="none" stroke="#000000" stroke-width="1.0" stroke-opacity="1" points="
408.6917,445.3782
402.3496,447.5372
400.1906,451.7878
400.1906,456.0383
402.3496,460.2888
406.6001,462.3804
415.1012,464.5394
421.5107,466.6984
425.6938,470.8814
427.8528,475.1995
427.8528,481.5415
425.6938,485.7921
423.6023,487.9174
417.1927,490.0426
408.6917,490.0426
402.3496,487.9174
400.1906,485.7921
398.0990,481.5415
398.0990,475.1995
400.1906,470.8814
404.5086,466.6984
410.8507,464.5394
419.3517,462.3804
423.6023,460.2888
425.6938,456.0383
425.6938,451.7878
423.6023,447.5372
417.1927,445.3782
408.6917,445.3782
" />
<polyline fill="none" stroke="#000000" stroke-width="1.0" stroke-opacity="1" points="
478.4843,115.4962
457.2316,115.4962
455.0726,134.6574
457.2316,132.4984
463.5736,130.4069
469.9832,130.4069
476.3927,132.4984
480.5758,136.8164
482.7348,143.1585
482.7348,147.4090
480.5758,153.7849
476.3927,158.0354
469.9832,160.1607
463.5736,160.1607
457.2316,158.0354
455.0726,155.9101
452.9810,151.6596
" />
<polyline fill="none" stroke="#000000" stroke-width="1.0" stroke-opacity="1" points="
452.6269,225.4962
482.3807,225.4962
461.1280,270.1606
" />
<polyline fill="none" stroke="#000000" stroke-width="1.0" stroke-opacity="1" points="
481.5201,350.0527
479.4286,356.4623
475.1780,360.6454
468.8360,362.8044
466.6770,362.8044
460.3349,360.6454
456.0169,356.4623
453.9254,350.0527
453.9254,347.9612
456.0169,341.5517
460.3349,337.3011
466.6770,335.1421
468.8360,335.1421
475.1780,337.3011
479.4286,341.5517
481.5201,350.0527
481.5201,360.6454
479.4286,371.3055
475.1780,377.6813
468.8360,379.8065
464.5179,379.8065
458.1759,377.6813
456.0169,373.4307
" />
<polyline fill="none" stroke="#000000" stroke-width="1.0" stroke-opacity="1" points="
457.9918,395.9995
461.4192,393.4357
465.8721,391.4791
469.4480,391.4791
473.2937,392.5586
476.4648,395.1224
477.9491,398.4958
478.6237,402.5440
477.5443,406.1873
473.9009,408.9535
469.9203,411.0450
466.4793,411.7198
463.9155,411.7198
467.1541,411.7198
470.5275,412.1246
473.9009,413.4065
477.5443,416.1727
479.2310,418.7365
479.9057,421.7051
479.7032,424.8762
479.0286,427.4400
476.9370,430.4019
473.9009,432.3113
470.1227,433.3705
466.0745,433.3705
462.2288,432.3113
458.4168,430.1860
456.0824,428.0472
" />
<polyline fill="none" stroke="#ff5050" stroke-width="1.0" stroke-opacity="1" points="
17.2460,9.7053
20.9423,6.9404
25.7445,4.8304
29.6008,4.8304
33.7481,5.9945
37.1679,8.7594
38.7686,12.3975
39.4962,16.7631
38.3320,20.6922
34.4030,23.6754
30.1101,25.9309
26.3993,26.6586
23.6344,26.6586
27.1269,26.6586
30.7649,27.0951
34.4030,28.4776
38.3320,31.4608
40.1511,34.2257
40.8787,37.4271
40.6604,40.8469
39.9328,43.6118
37.6772,46.8060
34.4030,48.8651
30.3284,50.0074
25.9627,50.0074
21.8154,48.8651
17.7044,46.5731
15.1869,44.2666
" />
<polyline fill="none" stroke="#ff5050" stroke-width="1.0" stroke-opacity="1" points="
11.4604,58.7705
43.5478,58.7705
20.6282,106.9380
" />
<polyline fill="none" stroke="#ff5050" stroke-width="1.0" stroke-opacity="1" points="
39.3458,168.7704
16.4262,168.7704
14.0979,189.4344
16.4262,187.1061
23.2657,184.8505
30.1780,184.8505
37.0902,187.1061
41.6014,191.7628
43.9297,198.6023
43.9297,203.1862
41.6014,210.0621
37.0902,214.6460
30.1780,216.9380
23.2657,216.9380
16.4262,214.6460
14.0979,212.3540
11.8423,207.7701
" />
<polyline fill="none" stroke="#ff5050" stroke-width="1.0" stroke-opacity="1" points="
14.0939,234.9406
14.0939,232.6122
16.4222,228.1010
18.7506,225.7727
23.2617,223.4444
32.4296,223.4444
37.0863,225.7727
39.3418,228.1010
41.5974,232.6122
41.5974,237.2689
39.3418,241.7800
34.7579,248.6923
11.8383,271.6119
43.9258,271.6119
" />
<polyline fill="none" stroke="#ff5050" stroke-width="1.0" stroke-opacity="1" points="
23.3930,333.6432
16.5535,335.9715
14.2251,340.5554
14.2251,345.1393
16.5535,349.7232
21.1374,351.9788
30.3052,354.3072
37.2175,356.6355
41.7286,361.1467
44.0570,365.8033
44.0570,372.6428
41.7286,377.2267
39.4731,379.5187
32.5608,381.8107
23.3930,381.8107
16.5535,379.5187
14.2251,377.2267
11.9696,372.6428
11.9696,365.8033
14.2251,361.1467
18.8818,356.6355
25.7213,354.3072
34.8891,351.9788
39.4731,349.7232
41.7286,345.1393
41.7286,340.5554
39.4731,335.9715
32.5608,333.6432
23.3930,333.6432
" />
<polyline fill="none" stroke="#ff5050" stroke-width="1.0" stroke-opacity="1" points="
19.4604,397.6132
23.9715,395.3576
30.8838,388.4453
30.8838,436.6128
" />
<polyline fill="none" stroke="#ff5050" stroke-width="1.0" stroke-opacity="1" points="
33.2343,491.5561
33.2343,443.3885
10.3147,475.5487
44.7304,475.5487
" />
<polyline fill="none" stroke="#ff5050" stroke-width="1.0" stroke-opacity="1" points="
94.3458,3.7705
71.4262,3.7705
69.0979,24.4345
71.4262,22.1061
78.2657,19.8505
85.1780,19.8505
92.0902,22.1061
96.6014,26.7628
98.9297,33.6023
98.9297,38.1862
96.6014,45.0621
92.0902,49.6460
85.1780,51.9380
78.2657,51.9380
71.4262,49.6460
69.0979,47.3540
66.8423,42.7701
" />
<polyline fill="none" stroke="#ff5050" stroke-width="1.0" stroke-opacity="1" points="
88.2343,161.5561
88.2343,113.3885
65.3147,145.5487
99.7304,145.5487
" />
<polyline fill="none" stroke="#ff5050" stroke-width="1.0" stroke-opacity="1" points="
66.4604,278.7704
98.5478,278.7704
75.6282,326.9380
" />
<polyline fill="none" stroke="#ff5050" stroke-width="1.0" stroke-opacity="1" points="
69.0939,344.9406
69.0939,342.6122
71.4222,338.1010
73.7506,335.7727
78.2617,333.4444
87.4296,333.4444
92.0863,335.7727
94.3418,338.1010
96.5974,342.6122
96.5974,347.2689
94.3418,351.7800
89.7579,358.6923
66.8383,381.6119
98.9258,381.6119
" />
<polyline fill="none" stroke="#ff5050" stroke-width="1.0" stroke-opacity="1" points="
97.6198,404.4686
95.3642,411.3809
90.7803,415.8921
83.9408,418.2204
81.6124,418.2204
74.7729,415.8921
70.1162,411.3809
67.8607,404.4686
67.8607,402.2131
70.1162,395.3008
74.7729,390.7169
81.6124,388.3885
83.9408,388.3885
90.7803,390.7169
95.3642,395.3008
97.6198,404.4686
97.6198,415.8921
95.3642,427.3882
90.7803,434.2641
83.9408,436.5561
79.2841,436.5561
72.4446,434.2641
70.1162,429.6802
" />
<polyline fill="none" stroke="#ff5050" stroke-width="1.0" stroke-opacity="1" points="
95.2011,450.3008
92.9455,445.7169
86.0332,443.3885
81.5221,443.3885
74.6098,445.7169
70.0259,452.5564
67.6976,464.0526
67.6976,475.5487
70.0259,484.6802
74.6098,489.2641
81.5221,491.5561
83.7777,491.5561
90.6899,489.2641
95.2011,484.6802
97.5294,477.8043
97.5294,475.5487
95.2011,468.6365
90.6899,464.0526
83.7777,461.7242
81.5221,461.7242
74.6098,464.0526
70.0259,468.6365
67.6976,475.5487
" />
<polyline fill="none" stroke="#ff5050" stroke-width="1.0" stroke-opacity="1" points="
150.2011,10.3008
147.9455,5.7169
141.0332,3.3886
136.5221,3.3886
129.6098,5.7169
125.0259,12.5564
122.6976,24.0526
122.6976,35.5487
125.0259,44.6802
129.6098,49.2641
136.5221,51.5561
138.7776,51.5561
145.6899,49.2641
150.2011,44.6802
152.5294,37.8043
152.5294,35.5487
150.2011,28.6365
145.6899,24.0526
138.7776,21.7242
136.5221,21.7242
129.6098,24.0526
125.0259,28.6365
122.6976,35.5487
" />
<polyline fill="none" stroke="#ff5050" stroke-width="1.0" stroke-opacity="1" points="
133.3930,113.6432
126.5535,115.9715
124.2251,120.5554
124.2251,125.1393
126.5535,129.7232
131.1374,131.9788
140.3052,134.3072
147.2175,136.6355
151.7286,141.1467
154.0570,145.8033
154.0570,152.6428
151.7286,157.2267
149.4731,159.5187
142.5608,161.8107
133.3930,161.8107
126.5535,159.5187
124.2251,157.2267
121.9696,152.6428
121.9696,145.8033
124.2251,141.1467
128.8818,136.6355
135.7213,134.3072
144.8891,131.9788
149.4731,129.7232
151.7286,125.1393
151.7286,120.5554
149.4731,115.9715
142.5608,113.6432
133.3930,113.6432
" />
<polyline fill="none" stroke="#ff5050" stroke-width="1.0" stroke-opacity="1" points="
129.4604,177.6131
133.9715,175.3576
140.8838,168.4453
140.8838,216.6128
" />
<polyline fill="none" stroke="#ff5050" stroke-width="1.0" stroke-opacity="1" points="
143.2343,326.5561
143.2343,278.3885
120.3147,310.5487
154.7304,310.5487
" />
<polyline fill="none" stroke="#ff5050" stroke-width="1.0" stroke-opacity="1" points="
127.2460,339.7053
130.9423,336.9404
135.7445,334.8304
139.6008,334.8304
143.7481,335.9945
147.1679,338.7594
148.7686,342.3975
149.4962,346.7631
148.3320,350.6922
144.4030,353.6754
140.1101,355.9309
136.3993,356.6585
133.6344,356.6585
137.1269,356.6585
140.7649,357.0951
144.4030,358.4776
148.3320,361.4608
150.1511,364.2256
150.8787,367.4271
150.6604,370.8469
149.9328,373.6118
147.6772,376.8060
144.4030,378.8651
140.3284,380.0074
135.9627,380.0074
131.8154,378.8651
127.7044,376.5731
125.1869,374.2666
" />
<polyline fill="none" stroke="#ff5050" stroke-width="1.0" stroke-opacity="1" points="
121.4604,388.7704
153.5478,388.7704
130.6282,436.9380
" />
<polyline fill="none" stroke="#ff5050" stroke-width="1.0" stroke-opacity="1" points="
179.0939,14.9405
179.0939,12.6122
181.4222,8.1010
183.7506,5.7727
188.2617,3.4444
197.4296,3.4444
202.0863,5.7727
204.3418,8.1010
206.5974,12.6122
206.5974,17.2689
204.3418,21.7800
199.7579,28.6923
176.8383,51.6119
208.9258,51.6119
" />
<polyline fill="none" stroke="#ff5050" stroke-width="1.0" stroke-opacity="1" points="
204.3458,58.7705
181.4262,58.7705
179.0979,79.4345
181.4262,77.1061
188.2657,74.8505
195.1779,74.8505
202.0902,77.1061
206.6014,81.7628
208.9297,88.6023
208.9297,93.1862
206.6014,100.0621
202.0902,104.6460
195.1779,106.9380
188.2657,106.9380
181.4262,104.6460
179.0979,102.3540
176.8423,97.7701
" />
<polyline fill="none" stroke="#ff5050" stroke-width="1.0" stroke-opacity="1" points="
205.2011,120.3008
202.9455,115.7169
196.0332,113.3885
191.5221,113.3885
184.6098,115.7169
180.0259,122.5564
177.6976,134.0526
177.6976,145.5487
180.0259,154.6802
184.6098,159.2641
191.5221,161.5561
193.7776,161.5561
200.6899,159.2641
205.2011,154.6802
207.5294,147.8043
207.5294,145.5487
205.2011,138.6365
200.6899,134.0526
193.7776,131.7242
191.5221,131.7242
184.6098,134.0526
180.0259,138.6365
177.6976,145.5487
" />
<polyline fill="none" stroke="#ff5050" stroke-width="1.0" stroke-opacity="1" points="
198.2343,216.5561
198.2343,168.3885
175.3147,200.5487
209.7304,200.5487
" />
<polyline fill="none" stroke="#ff5050" stroke-width="1.0" stroke-opacity="1" points="
188.3930,388.6432
181.5535,390.9715
179.2251,395.5554
179.2251,400.1393
181.5535,404.7232
186.1374,406.9788
195.3052,409.3072
202.2175,411.6355
206.7286,416.1467
209.0570,420.8033
209.0570,427.6428
206.7286,432.2267
204.4731,434.5187
197.5608,436.8107
188.3930,436.8107
181.5535,434.5187
179.2251,432.2267
176.9696,427.6428
176.9696,420.8033
179.2251,416.1467
183.8818,411.6355
190.7213,409.3072
199.8891,406.9788
204.4731,404.7232
206.7286,400.1393
206.7286,395.5554
204.4731,390.9715
197.5608,388.6432
188.3930,388.6432
" />
<polyline fill="none" stroke="#ff5050" stroke-width="1.0" stroke-opacity="1" points="
176.4604,443.7704
208.5478,443.7704
185.6282,491.9380
" />
<polyline fill="none" stroke="#ff5050" stroke-width="1.0" stroke-opacity="1" points="
243.3930,3.6431
236.5535,5.9715
234.2251,10.5554
234.2251,15.1393
236.5535,19.7232
241.1374,21.9788
250.3052,24.3072
257.2175,26.6355
261.7286,31.1467
264.0570,35.8033
264.0570,42.6428
261.7286,47.2267
259.4731,49.5187
252.5608,51.8107
243.3930,51.8107
236.5535,49.5187
234.2251,47.2267
231.9696,42.6428
231.9696,35.8033
234.2251,31.1467
238.8818,26.6355
245.7213,24.3072
254.8891,21.9788
259.4731,19.7232
261.7286,15.1393
261.7286,10.5554
259.4731,5.9715
252.5608,3.6431
243.3930,3.6431
" />
<polyline fill="none" stroke="#ff5050" stroke-width="1.0" stroke-opacity="1" points="
237.2460,64.7053
240.9423,61.9404
245.7445,59.8304
249.6008,59.8304
253.7481,60.9945
257.1679,63.7594
258.7686,67.3975
259.4962,71.7631
258.3320,75.6922
254.4030,78.6754
250.1101,80.9309
246.3993,81.6586
243.6344,81.6586
247.1269,81.6586
250.7649,82.0951
254.4030,83.4776
258.3320,86.4608
260.1511,89.2257
260.8787,92.4271
260.6604,95.8469
259.9328,98.6118
257.6772,101.8060
254.4030,103.8651
250.3284,105.0074
245.9627,105.0074
241.8154,103.8651
237.7044,101.5731
235.1869,99.2666
" />
<polyline fill="none" stroke="#ff5050" stroke-width="1.0" stroke-opacity="1" points="
239.4604,122.6131
243.9715,120.3576
250.8838,113.4453
250.8838,161.6128
" />
<polyline fill="none" stroke="#ff5050" stroke-width="1.0" stroke-opacity="1" points="
231.4604,168.7704
263.5478,168.7704
240.6282,216.9380
" />
<polyline fill="none" stroke="#ff5050" stroke-width="1.0" stroke-opacity="1" points="
260.2011,230.3008
257.9455,225.7169
251.0332,223.3885
246.5221,223.3885
239.6098,225.7169
235.0259,232.5564
232.6976,244.0526
232.6976,255.5487
235.0259,264.6802
239.6098,269.2641
246.5221,271.5561
248.7776,271.5561
255.6899,269.2641
260.2011,264.6802
262.5294,257.8043
262.5294,255.5487
260.2011,248.6365
255.6899,244.0526
248.7776,241.7242
246.5221,241.7242
239.6098,244.0526
235.0259,248.6365
232.6976,255.5487
" />
<polyline fill="none" stroke="#ff5050" stroke-width="1.0" stroke-opacity="1" points="
234.0939,289.9406
234.0939,287.6122
236.4222,283.1010
238.7506,280.7727
243.2617,278.4444
252.4296,278.4444
257.0862,280.7727
259.3418,283.1010
261.5974,287.6122
261.5974,292.2689
259.3418,296.7800
254.7579,303.6923
231.8383,326.6119
263.9258,326.6119
" />
<polyline fill="none" stroke="#ff5050" stroke-width="1.0" stroke-opacity="1" points="
259.3458,333.7704
236.4262,333.7704
234.0979,354.4344
236.4262,352.1061
243.2657,349.8505
250.1779,349.8505
257.0902,352.1061
261.6014,356.7628
263.9297,363.6023
263.9297,368.1862
261.6014,375.0621
257.0902,379.6460
250.1779,381.9380
243.2657,381.9380
236.4262,379.6460
234.0979,377.3540
231.8423,372.7701
" />
<polyline fill="none" stroke="#ff5050" stroke-width="1.0" stroke-opacity="1" points="
317.6198,74.4686
315.3642,81.3809
310.7802,85.8921
303.9408,88.2204
301.6124,88.2204
294.7729,85.8921
290.1162,81.3809
287.8607,74.4686
287.8607,72.2131
290.1162,65.3008
294.7729,60.7169
301.6124,58.3885
303.9408,58.3885
310.7802,60.7169
315.3642,65.3008
317.6198,74.4686
317.6198,85.8921
315.3642,97.3882
310.7802,104.2641
303.9408,106.5561
299.2841,106.5561
292.4446,104.2641
290.1162,99.6802
" />
<polyline fill="none" stroke="#ff5050" stroke-width="1.0" stroke-opacity="1" points="
286.4604,113.7704
318.5478,113.7704
295.6282,161.9380
" />
<polyline fill="none" stroke="#ff5050" stroke-width="1.0" stroke-opacity="1" points="
298.3930,168.6431
291.5535,170.9715
289.2251,175.5554
289.2251,180.1393
291.5535,184.7232
296.1374,186.9788
305.3052,189.3072
312.2175,191.6355
316.7286,196.1467
319.0570,200.8033
319.0570,207.6428
316.7286,212.2267
314.4731,214.5187
307.5608,216.8107
298.3930,216.8107
291.5535,214.5187
289.2251,212.2267
286.9695,207.6428
286.9695,200.8033
289.2251,196.1467
293.8818,191.6355
300.7213,189.3072
309.8892,186.9788
314.4731,184.7232
316.7286,180.1393
316.7286,175.5554
314.4731,170.9715
307.5608,168.6431
298.3930,168.6431
" />
<polyline fill="none" stroke="#ff5050" stroke-width="1.0" stroke-opacity="1" points="
294.4604,232.6131
298.9715,230.3576
305.8838,223.4453
305.8838,271.6128
" />
<polyline fill="none" stroke="#ff5050" stroke-width="1.0" stroke-opacity="1" points="
314.3458,278.7704
291.4262,278.7704
289.0979,299.4344
291.4262,297.1061
298.2657,294.8505
305.1779,294.8505
312.0902,297.1061
316.6014,301.7628
318.9297,308.6023
318.9297,313.1862
316.6014,320.0621
312.0902,324.6460
305.1779,326.9380
298.2657,326.9380
291.4262,324.6460
289.0979,322.3540
286.8423,317.7701
" />
<polyline fill="none" stroke="#ff5050" stroke-width="1.0" stroke-opacity="1" points="
289.0939,399.9406
289.0939,397.6122
291.4222,393.1010
293.7506,390.7727
298.2617,388.4444
307.4296,388.4444
312.0862,390.7727
314.3418,393.1010
316.5974,397.6122
316.5974,402.2689
314.3418,406.7800
309.7579,413.6923
286.8383,436.6119
318.9258,436.6119
" />
<polyline fill="none" stroke="#ff5050" stroke-width="1.0" stroke-opacity="1" points="
292.2460,449.7053
295.9423,446.9404
300.7444,444.8304
304.6008,444.8304
308.7481,445.9945
312.1679,448.7594
313.7686,452.3975
314.4962,456.7631
313.3320,460.6922
309.4030,463.6754
305.1101,465.9309
301.3993,466.6585
298.6344,466.6585
302.1269,466.6585
305.7650,467.0951
309.4030,468.4776
313.3320,471.4608
315.1511,474.2256
315.8787,477.4271
315.6604,480.8469
314.9328,483.6118
312.6772,486.8060
309.4030,488.8651
305.3284,490.0074
300.9627,490.0074
296.8154,488.8651
292.7044,486.5731
290.1869,484.2666
" />
<polyline fill="none" stroke="#ff5050" stroke-width="1.0" stroke-opacity="1" points="
341.4604,3.7705
373.5478,3.7705
350.6282,51.9380
" />
<polyline fill="none" stroke="#ff5050" stroke-width="1.0" stroke-opacity="1" points="
372.6198,184.4686
370.3642,191.3809
365.7802,195.8921
358.9408,198.2204
356.6124,198.2204
349.7729,195.8921
345.1162,191.3809
342.8607,184.4686
342.8607,182.2131
345.1162,175.3008
349.7729,170.7169
356.6124,168.3885
358.9408,168.3885
365.7802,170.7169
370.3642,175.3008
372.6198,184.4686
372.6198,195.8921
370.3642,207.3882
365.7802,214.2641
358.9408,216.5561
354.2841,216.5561
347.4446,214.2641
345.1162,209.6802
" />
<polyline fill="none" stroke="#ff5050" stroke-width="1.0" stroke-opacity="1" points="
369.3458,223.7704
346.4262,223.7704
344.0979,244.4344
346.4262,242.1061
353.2657,239.8505
360.1779,239.8505
367.0902,242.1061
371.6014,246.7628
373.9297,253.6023
373.9297,258.1862
371.6014,265.0621
367.0902,269.6460
360.1779,271.9380
353.2657,271.9380
346.4262,269.6460
344.0979,267.3540
341.8423,262.7701
" />
<polyline fill="none" stroke="#ff5050" stroke-width="1.0" stroke-opacity="1" points="
347.2460,284.7053
350.9423,281.9404
355.7444,279.8304
359.6008,279.8304
363.7481,280.9945
367.1679,283.7594
368.7686,287.3975
369.4962,291.7631
368.3320,295.6922
364.4030,298.6754
360.1101,300.9309
356.3993,301.6585
353.6344,301.6585
357.1269,301.6585
360.7650,302.0951
364.4030,303.4776
368.3320,306.4608
370.1511,309.2256
370.8787,312.4271
370.6604,315.8469
369.9328,318.6118
367.6772,321.8060
364.4030,323.8651
360.3284,325.0074
355.9627,325.0074
351.8154,323.8651
347.7044,321.5731
345.1869,319.2666
" />
<polyline fill="none" stroke="#ff5050" stroke-width="1.0" stroke-opacity="1" points="
363.2343,381.5561
363.2343,333.3885
340.3147,365.5487
374.7304,365.5487
" />
<polyline fill="none" stroke="#ff5050" stroke-width="1.0" stroke-opacity="1" points="
370.2011,395.3008
367.9455,390.7169
361.0332,388.3885
356.5221,388.3885
349.6098,390.7169
345.0259,397.5564
342.6976,409.0526
342.6976,420.5487
345.0259,429.6802
349.6098,434.2641
356.5221,436.5561
358.7776,436.5561
365.6899,434.2641
370.2011,429.6802
372.5294,422.8043
372.5294,420.5487
370.2011,413.6365
365.6899,409.0526
358.7776,406.7242
356.5221,406.7242
349.6098,409.0526
345.0259,413.6365
342.6976,420.5487
" />
<polyline fill="none" stroke="#ff5050" stroke-width="1.0" stroke-opacity="1" points="
349.4604,452.6132
353.9715,450.3576
360.8838,443.4453
360.8838,491.6128
" />
<polyline fill="none" stroke="#ff5050" stroke-width="1.0" stroke-opacity="1" points="
427.6198,19.4686
425.3642,26.3809
420.7802,30.8921
413.9408,33.2204
411.6124,33.2204
404.7729,30.8921
400.1162,26.3809
397.8607,19.4686
397.8607,17.2131
400.1162,10.3008
404.7729,5.7169
411.6124,3.3886
413.9408,3.3886
420.7802,5.7169
425.3642,10.3008
427.6198,19.4686
427.6198,30.8921
425.3642,42.3882
420.7802,49.2641
413.9408,51.5561
409.2841,51.5561
402.4446,49.2641
400.1162,44.6802
" />
<polyline fill="none" stroke="#ff5050" stroke-width="1.0" stroke-opacity="1" points="
425.2011,65.3008
422.9455,60.7169
416.0332,58.3885
411.5221,58.3885
404.6098,60.7169
400.0259,67.5564
397.6976,79.0526
397.6976,90.5487
400.0259,99.6802
404.6098,104.2641
411.5221,106.5561
413.7776,106.5561
420.6899,104.2641
425.2011,99.6802
427.5294,92.8043
427.5294,90.5487
425.2011,83.6365
420.6899,79.0526
413.7776,76.7242
411.5221,76.7242
404.6098,79.0526
400.0259,83.6365
397.6976,90.5487
" />
<polyline fill="none" stroke="#ff5050" stroke-width="1.0" stroke-opacity="1" points="
402.2460,119.7053
405.9423,116.9404
410.7444,114.8304
414.6008,114.8304
418.7481,115.9945
422.1679,118.7594
423.7686,122.3975
424.4962,126.7631
423.3320,130.6922
419.4030,133.6754
415.1101,135.9309
411.3993,136.6586
408.6344,136.6586
412.1269,136.6586
415.7650,137.0951
419.4030,138.4776
423.3320,141.4608
425.1511,144.2256
425.8787,147.4271
425.6604,150.8469
424.9328,153.6118
422.6772,156.8060
419.4030,158.8651
415.3284,160.0074
410.9627,160.0074
406.8154,158.8651
402.7044,156.5731
400.1869,154.2666
" />
<polyline fill="none" stroke="#ff5050" stroke-width="1.0" stroke-opacity="1" points="
418.2343,271.5561
418.2343,223.3885
395.3147,255.5487
429.7304,255.5487
" />
<polyline fill="none" stroke="#ff5050" stroke-width="1.0" stroke-opacity="1" points="
404.4604,287.6132
408.9715,285.3576
415.8838,278.4453
415.8838,326.6128
" />
<polyline fill="none" stroke="#ff5050" stroke-width="1.0" stroke-opacity="1" points="
424.3458,388.7704
401.4262,388.7704
399.0979,409.4344
401.4262,407.1061
408.2657,404.8505
415.1779,404.8505
422.0902,407.1061
426.6014,411.7628
428.9297,418.6023
428.9297,423.1862
426.6014,430.0621
422.0902,434.6460
415.1779,436.9380
408.2657,436.9380
401.4262,434.6460
399.0979,432.3540
396.8423,427.7701
" />
<polyline fill="none" stroke="#ff5050" stroke-width="1.0" stroke-opacity="1" points="
459.4604,12.6131
463.9715,10.3576
470.8838,3.4453
470.8838,51.6128
" />
<polyline fill="none" stroke="#ff5050" stroke-width="1.0" stroke-opacity="1" points="
473.2343,106.5561
473.2343,58.3885
450.3147,90.5487
484.7304,90.5487
" />
<polyline fill="none" stroke="#ff5050" stroke-width="1.0" stroke-opacity="1" points="
480.2011,175.3008
477.9455,170.7169
471.0332,168.3885
466.5221,168.3885
459.6098,170.7169
455.0259,177.5564
452.6976,189.0526
452.6976,200.5487
455.0259,209.6802
459.6098,214.2641
466.5221,216.5561
468.7776,216.5561
475.6899,214.2641
480.2011,209.6802
482.5294,202.8043
482.5294,200.5487
480.2011,193.6365
475.6899,189.0526
468.7776,186.7242
466.5221,186.7242
459.6098,189.0526
455.0259,193.6365
452.6976,200.5487
" />
<polyline fill="none" stroke="#ff5050" stroke-width="1.0" stroke-opacity="1" points="
463.3930,278.6432
456.5535,280.9715
454.2251,285.5554
454.2251,290.1393
456.5535,294.7232
461.1374,296.9788
470.3052,299.3072
477.2175,301.6355
481.7286,306.1467
484.0570,310.8033
484.0570,317.6428
481.7286,322.2267
479.4731,324.5187
472.5608,326.8107
463.3930,326.8107
456.5535,324.5187
454.2251,322.2267
451.9695,317.6428
451.9695,310.8033
454.2251,306.1467
458.8818,301.6355
465.7213,299.3072
474.8892,296.9788
479.4731,294.7232
481.7286,290.1393
481.7286,285.5554
479.4731,280.9715
472.5608,278.6432
463.3930,278.6432
" />
<polyline fill="none" stroke="#ff5050" stroke-width="1.0" stroke-opacity="1" points="
454.0939,454.9406
454.0939,452.6122
456.4222,448.1010
458.7506,445.7727
463.2617,443.4444
472.4296,443.4444
477.0862,445.7727
479.3418,448.1010
481.5974,452.6122
481.5974,457.2689
479.3418,461.7800
474.7579,468.6923
451.8383,491.6119
483.9258,491.6119
" />
</g>
</svg>
