<?xml version="1.0" encoding="UTF-8" ?>
<svg width="500mm" height="500mm" xmlns="http://www.w3.org/2000/svg" version="1.1">
<g id="0">
<polyline fill="none" stroke="#000000" stroke-width="1.0" stroke-opacity="1" points="
0.0000,0.0000
0.0000,495.0000
" />
<polyline fill="none" stroke="#000000" stroke-width="1.0" stroke-opacity="1" points="
55.0000,495.0000
55.0000,0.0000
" />
<polyline fill="none" stroke="#000000" stroke-width="1.0" stroke-opacity="1" points="
110.0000,0.0000
110.0000,495.0000
" />
<polyline fill="none" stroke="#000000" stroke-width="1.0" stroke-opacity="1" points="
165.0000,495.0000
165.0000,0.0000
" />
<polyline fill="none" stroke="#000000" stroke-width="1.0" stroke-opacity="1" points="
220.0000,0.0000
220.0000,495.0000
" />
<polyline fill="none" stroke="#000000" stroke-width="1.0" stroke-opacity="1" points="
275.0000,495.0000
275.0000,0.0000
" />
<polyline fill="none" stroke="#000000" stroke-width="1.0" stroke-opacity="1" points="
330.0000,0.0000
330.0000,495.0000
" />
<polyline fill="none" stroke="#000000" stroke-width="1.0" stroke-opacity="1" points="
385.0000,495.0000
385.0000,0.0000
" />
<polyline fill="none" stroke="#000000" stroke-width="1.0" stroke-opacity="1" points="
440.0000,0.0000
440.0000,495.0000
" />
<polyline fill="none" stroke="#000000" stroke-width="1.0" stroke-opacity="1" points="
495.0000,495.0000
495.0000,0.0000
" />
<polyline fill="none" stroke="#000000" stroke-width="1.0" stroke-opacity="1" points="
0.0000,0.0000
495.0000,0.0000
" />
<polyline fill="none" stroke="#000000" stroke-width="1.0" stroke-opacity="1" points="
495.0000,55.0000
0.0000,55.0000
" />
<polyline fill="none" stroke="#000000" stroke-width="1.0" stroke-opacity="1" points="
0.0000,110.0000
495.0000,110.0000
" />
<polyline fill="none" stroke="#000000" stroke-width="1.0" stroke-opacity="1" points="
495.0000,165.0000
0.0000,165.0000
" />
<polyline fill="none" stroke="#000000" stroke-width="1.0" stroke-opacity="1" points="
0.0000,220.0000
495.0000,220.0000
" />
<polyline fill="none" stroke="#000000" stroke-width="1.0" stroke-opacity="1" points="
495.0000,275.0000
0.0000,275.0000
" />
<polyline fill="none" stroke="#000000" stroke-width="1.0" stroke-opacity="1" points="
0.0000,330.0000
495.0000,330.0000
" />
<polyline fill="none" stroke="#000000" stroke-width="1.0" stroke-opacity="1" points="
495.0000,385.0000
0.0000,385.0000
" />
<polyline fill="none" stroke="#000000" stroke-width="1.0" stroke-opacity="1" points="
0.0000,440.0000
495.0000,440.0000
" />
<polyline fill="none" stroke="#000000" stroke-width="1.0" stroke-opacity="1" points="
495.0000,495.0000
0.0000,495.0000
" />
<polyline fill="none" stroke="#000000" stroke-width="1.0" stroke-opacity="1" points="
17.2460,64.7053
20.9423,61.9404
25.7445,59.8304
29.6008,59.8304
33.7481,60.9945
37.1679,63.7594
38.7686,67.3975
39.4962,71.7631
38.3320,75.6922
34.4030,78.6754
30.1101,80.9309
26.3993,81.6586
23.6344,81.6586
27.1269,81.6586
30.7649,82.0951
34.4030,83.4776
38.3320,86.4608
40.1511,89.2257
40.8787,92.4271
40.6604,95.8469
39.9328,98.6118
37.6772,101.8060
34.4030,103.8651
30.3284,105.0074
25.9627,105.0074
21.8154,103.8651
17.7044,101.5731
15.1869,99.2666
" />
<polyline fill="none" stroke="#000000" stroke-width="1.0" stroke-opacity="1" points="
39.3458,278.7704
16.4262,278.7704
14.0979,299.4344
16.4262,297.1061
23.2657,294.8505
30.1780,294.8505
37.0902,297.1061
41.6014,301.7628
43.9297,308.6023
43.9297,313.1862
41.6014,320.0621
37.0902,324.6460
30.1780,326.9380
23.2657,326.9380
16.4262,324.6460
14.0979,322.3540
11.8423,317.7701
" />
<polyline fill="none" stroke="#000000" stroke-width="1.0" stroke-opacity="1" points="
14.0939,344.9406
14.0939,342.6122
16.4222,338.1010
18.7506,335.7727
23.2617,333.4444
32.4296,333.4444
37.0863,335.7727
39.3418,338.1010
41.5974,342.6122
41.5974,347.2689
39.3418,351.7800
34.7579,358.6923
11.8383,381.6119
43.9258,381.6119
" />
<polyline fill="none" stroke="#000000" stroke-width="1.0" stroke-opacity="1" points="
94.3458,3.7705
71.4262,3.7705
69.0979,24.4345
71.4262,22.1061
78.2657,19.8505
85.1780,19.8505
92.0902,22.1061
96.6014,26.7628
98.9297,33.6023
98.9297,38.1862
96.6014,45.0621
92.0902,49.6460
85.1780,51.9380
78.2657,51.9380
71.4262,49.6460
69.0979,47.3540
66.8423,42.7701
" />
<polyline fill="none" stroke="#000000" stroke-width="1.0" stroke-opacity="1" points="
97.6198,349.4686
95.3642,356.3809
90.7803,360.8921
83.9408,363.2204
81.6124,363.2204
74.7729,360.8921
70.1162,356.3809
67.8607,349.4686
67.8607,347.2131
70.1162,340.3008
74.7729,335.7169
81.6124,333.3885
83.9408,333.3885
90.7803,335.7169
95.3642,340.3008
97.6198,349.4686
97.6198,360.8921
95.3642,372.3882
90.7803,379.2641
83.9408,381.5561
79.2841,381.5561
72.4446,379.2641
70.1162,374.6802
" />
<polyline fill="none" stroke="#000000" stroke-width="1.0" stroke-opacity="1" points="
74.4604,452.6132
78.9715,450.3576
85.8838,443.4453
85.8838,491.6128
" />
<polyline fill="none" stroke="#000000" stroke-width="1.0" stroke-opacity="1" points="
124.0939,69.9405
124.0939,67.6122
126.4222,63.1010
128.7506,60.7727
133.2617,58.4444
142.4296,58.4444
147.0863,60.7727
149.3418,63.1010
151.5974,67.6122
151.5974,72.2689
149.3418,76.7800
144.7579,83.6923
121.8383,106.6119
153.9258,106.6119
" />
<polyline fill="none" stroke="#000000" stroke-width="1.0" stroke-opacity="1" points="
129.4604,122.6131
133.9715,120.3576
140.8838,113.4453
140.8838,161.6128
" />
<polyline fill="none" stroke="#000000" stroke-width="1.0" stroke-opacity="1" points="
143.2343,436.5561
143.2343,388.3885
120.3147,420.5487
154.7304,420.5487
" />
<polyline fill="none" stroke="#000000" stroke-width="1.0" stroke-opacity="1" points="
198.2343,161.5561
198.2343,113.3885
175.3147,145.5487
209.7304,145.5487
" />
<polyline fill="none" stroke="#000000" stroke-width="1.0" stroke-opacity="1" points="
205.2011,230.3008
202.9455,225.7169
196.0332,223.3885
191.5221,223.3885
184.6098,225.7169
180.0259,232.5564
177.6976,244.0526
177.6976,255.5487
180.0259,264.6802
184.6098,269.2641
191.5221,271.5561
193.7776,271.5561
200.6899,269.2641
205.2011,264.6802
207.5294,257.8043
207.5294,255.5487
205.2011,248.6365
200.6899,244.0526
193.7776,241.7242
191.5221,241.7242
184.6098,244.0526
180.0259,248.6365
177.6976,255.5487
" />
<polyline fill="none" stroke="#000000" stroke-width="1.0" stroke-opacity="1" points="
182.2460,339.7053
185.9423,336.9404
190.7445,334.8304
194.6008,334.8304
198.7481,335.9945
202.1679,338.7594
203.7686,342.3975
204.4962,346.7631
203.3320,350.6922
199.4030,353.6754
195.1101,355.9309
191.3993,356.6585
188.6344,356.6585
192.1269,356.6585
195.7649,357.0951
199.4030,358.4776
203.3320,361.4608
205.1511,364.2256
205.8787,367.4271
205.6604,370.8469
204.9328,373.6118
202.6772,376.8060
199.4030,378.8651
195.3284,380.0074
190.9627,380.0074
186.8154,378.8651
182.7044,376.5731
180.1869,374.2666
" />
<polyline fill="none" stroke="#000000" stroke-width="1.0" stroke-opacity="1" points="
262.6198,129.4686
260.3642,136.3809
255.7802,140.8921
248.9408,143.2204
246.6124,143.2204
239.7729,140.8921
235.1162,136.3809
232.8607,129.4686
232.8607,127.2131
235.1162,120.3008
239.7729,115.7169
246.6124,113.3885
248.9408,113.3885
255.7802,115.7169
260.3642,120.3008
262.6198,129.4686
262.6198,140.8921
260.3642,152.3882
255.7802,159.2641
248.9408,161.5561
244.2841,161.5561
237.4446,159.2641
235.1162,154.6802
" />
<polyline fill="none" stroke="#000000" stroke-width="1.0" stroke-opacity="1" points="
259.3458,168.7704
236.4262,168.7704
234.0979,189.4344
236.4262,187.1061
243.2657,184.8505
250.1779,184.8505
257.0902,187.1061
261.6014,191.7628
263.9297,198.6023
263.9297,203.1862
261.6014,210.0621
257.0902,214.6460
250.1779,216.9380
243.2657,216.9380
236.4262,214.6460
234.0979,212.3540
231.8423,207.7701
" />
<polyline fill="none" stroke="#000000" stroke-width="1.0" stroke-opacity="1" points="
253.2343,271.5561
253.2343,223.3885
230.3147,255.5487
264.7304,255.5487
" />
<polyline fill="none" stroke="#000000" stroke-width="1.0" stroke-opacity="1" points="
239.4604,397.6132
243.9715,395.3576
250.8838,388.4453
250.8838,436.6128
" />
<polyline fill="none" stroke="#000000" stroke-width="1.0" stroke-opacity="1" points="
292.2460,229.7053
295.9423,226.9404
300.7444,224.8304
304.6008,224.8304
308.7481,225.9945
312.1679,228.7594
313.7686,232.3975
314.4962,236.7631
313.3320,240.6922
309.4030,243.6754
305.1101,245.9309
301.3993,246.6586
298.6344,246.6586
302.1269,246.6586
305.7650,247.0951
309.4030,248.4776
313.3320,251.4608
315.1511,254.2256
315.8787,257.4271
315.6604,260.8469
314.9328,263.6118
312.6772,266.8060
309.4030,268.8651
305.3284,270.0074
300.9627,270.0074
296.8154,268.8651
292.7044,266.5731
290.1869,264.2666
" />
<polyline fill="none" stroke="#000000" stroke-width="1.0" stroke-opacity="1" points="
294.4604,287.6132
298.9715,285.3576
305.8838,278.4453
305.8838,326.6128
" />
<polyline fill="none" stroke="#000000" stroke-width="1.0" stroke-opacity="1" points="
308.2343,491.5561
308.2343,443.3885
285.3147,475.5487
319.7304,475.5487
" />
<polyline fill="none" stroke="#000000" stroke-width="1.0" stroke-opacity="1" points="
349.4604,67.6131
353.9715,65.3576
360.8838,58.4453
360.8838,106.6128
" />
<polyline fill="none" stroke="#000000" stroke-width="1.0" stroke-opacity="1" points="
344.0939,124.9405
344.0939,122.6122
346.4222,118.1010
348.7506,115.7727
353.2617,113.4444
362.4296,113.4444
367.0862,115.7727
369.3418,118.1010
371.5974,122.6122
371.5974,127.2689
369.3418,131.7800
364.7579,138.6923
341.8383,161.6119
373.9258,161.6119
" />
<polyline fill="none" stroke="#000000" stroke-width="1.0" stroke-opacity="1" points="
353.3930,278.6432
346.5535,280.9715
344.2251,285.5554
344.2251,290.1393
346.5535,294.7232
351.1374,296.9788
360.3052,299.3072
367.2175,301.6355
371.7286,306.1467
374.0570,310.8033
374.0570,317.6428
371.7286,322.2267
369.4731,324.5187
362.5608,326.8107
353.3930,326.8107
346.5535,324.5187
344.2251,322.2267
341.9695,317.6428
341.9695,310.8033
344.2251,306.1467
348.8818,301.6355
355.7213,299.3072
364.8892,296.9788
369.4731,294.7232
371.7286,290.1393
371.7286,285.5554
369.4731,280.9715
362.5608,278.6432
353.3930,278.6432
" />
<polyline fill="none" stroke="#000000" stroke-width="1.0" stroke-opacity="1" points="
425.2011,120.3008
422.9455,115.7169
416.0332,113.3885
411.5221,113.3885
404.6098,115.7169
400.0259,122.5564
397.6976,134.0526
397.6976,145.5487
400.0259,154.6802
404.6098,159.2641
411.5221,161.5561
413.7776,161.5561
420.6899,159.2641
425.2011,154.6802
427.5294,147.8043
427.5294,145.5487
425.2011,138.6365
420.6899,134.0526
413.7776,131.7242
411.5221,131.7242
404.6098,134.0526
400.0259,138.6365
397.6976,145.5487
" />
<polyline fill="none" stroke="#000000" stroke-width="1.0" stroke-opacity="1" points="
482.6198,184.4686
480.3642,191.3809
475.7802,195.8921
468.9408,198.2204
466.6124,198.2204
459.7729,195.8921
455.1162,191.3809
452.8607,184.4686
452.8607,182.2131
455.1162,175.3008
459.7729,170.7169
466.6124,168.3885
468.9408,168.3885
475.7802,170.7169
480.3642,175.3008
482.6198,184.4686
482.6198,195.8921
480.3642,207.3882
475.7802,214.2641
468.9408,216.5561
464.2841,216.5561
457.4446,214.2641
455.1162,209.6802
" />
<polyline fill="none" stroke="#ff5050" stroke-width="1.0" stroke-opacity="1" points="
42.6197,19.4686
40.3642,26.3809
35.7803,30.8921
28.9408,33.2204
26.6124,33.2204
19.7729,30.8921
15.1162,26.3809
12.8607,19.4686
12.8607,17.2131
15.1162,10.3008
19.7729,5.7169
26.6124,3.3886
28.9408,3.3886
35.7803,5.7169
40.3642,10.3008
42.6197,19.4686
42.6197,30.8921
40.3642,42.3882
35.7803,49.2641
28.9408,51.5561
24.2841,51.5561
17.4446,49.2641
15.1162,44.6802
" />
<polyline fill="none" stroke="#ff5050" stroke-width="1.0" stroke-opacity="1" points="
23.3930,113.6432
16.5535,115.9715
14.2251,120.5554
14.2251,125.1393
16.5535,129.7232
21.1374,131.9788
30.3052,134.3072
37.2175,136.6355
41.7286,141.1467
44.0570,145.8033
44.0570,152.6428
41.7286,157.2267
39.4731,159.5187
32.5608,161.8107
23.3930,161.8107
16.5535,159.5187
14.2251,157.2267
11.9696,152.6428
11.9696,145.8033
14.2251,141.1467
18.8818,136.6355
25.7213,134.3072
34.8891,131.9788
39.4731,129.7232
41.7286,125.1393
41.7286,120.5554
39.4731,115.9715
32.5608,113.6432
23.3930,113.6432
" />
<polyline fill="none" stroke="#ff5050" stroke-width="1.0" stroke-opacity="1" points="
33.2343,216.5561
33.2343,168.3885
10.3147,200.5487
44.7304,200.5487
" />
<polyline fill="none" stroke="#ff5050" stroke-width="1.0" stroke-opacity="1" points="
19.4604,232.6131
23.9715,230.3576
30.8838,223.4453
30.8838,271.6128
" />
<polyline fill="none" stroke="#ff5050" stroke-width="1.0" stroke-opacity="1" points="
11.4604,388.7704
43.5478,388.7704
20.6282,436.9380
" />
<polyline fill="none" stroke="#ff5050" stroke-width="1.0" stroke-opacity="1" points="
40.2011,450.3008
37.9455,445.7169
31.0332,443.3885
26.5221,443.3885
19.6098,445.7169
15.0259,452.5564
12.6976,464.0526
12.6976,475.5487
15.0259,484.6802
19.6098,489.2641
26.5221,491.5561
28.7777,491.5561
35.6899,489.2641
40.2011,484.6802
42.5294,477.8043
42.5294,475.5487
40.2011,468.6365
35.6899,464.0526
28.7777,461.7242
26.5221,461.7242
19.6098,464.0526
15.0259,468.6365
12.6976,475.5487
" />
<polyline fill="none" stroke="#ff5050" stroke-width="1.0" stroke-opacity="1" points="
88.2343,106.5561
88.2343,58.3885
65.3147,90.5487
99.7304,90.5487
" />
<polyline fill="none" stroke="#ff5050" stroke-width="1.0" stroke-opacity="1" points="
66.4604,113.7704
98.5478,113.7704
75.6282,161.9380
" />
<polyline fill="none" stroke="#ff5050" stroke-width="1.0" stroke-opacity="1" points="
95.2011,175.3008
92.9455,170.7169
86.0332,168.3885
81.5221,168.3885
74.6098,170.7169
70.0259,177.5564
67.6976,189.0526
67.6976,200.5487
70.0259,209.6802
74.6098,214.2641
81.5221,216.5561
83.7777,216.5561
90.6899,214.2641
95.2011,209.6802
97.5294,202.8043
97.5294,200.5487
95.2011,193.6365
90.6899,189.0526
83.7777,186.7242
81.5221,186.7242
74.6098,189.0526
70.0259,193.6365
67.6976,200.5487
" />
<polyline fill="none" stroke="#ff5050" stroke-width="1.0" stroke-opacity="1" points="
78.3930,223.6431
71.5535,225.9715
69.2251,230.5554
69.2251,235.1393
71.5535,239.7232
76.1374,241.9788
85.3052,244.3072
92.2175,246.6355
96.7286,251.1467
99.0570,255.8033
99.0570,262.6428
96.7286,267.2267
94.4731,269.5187
87.5608,271.8107
78.3930,271.8107
71.5535,269.5187
69.2251,267.2267
66.9696,262.6428
66.9696,255.8033
69.2251,251.1467
73.8818,246.6355
80.7213,244.3072
89.8891,241.9788
94.4731,239.7232
96.7286,235.1393
96.7286,230.5554
94.4731,225.9715
87.5608,223.6431
78.3930,223.6431
" />
<polyline fill="none" stroke="#ff5050" stroke-width="1.0" stroke-opacity="1" points="
69.0939,289.9406
69.0939,287.6122
71.4222,283.1010
73.7506,280.7727
78.2617,278.4444
87.4296,278.4444
92.0863,280.7727
94.3418,283.1010
96.5974,287.6122
96.5974,292.2689
94.3418,296.7800
89.7579,303.6923
66.8383,326.6119
98.9258,326.6119
" />
<polyline fill="none" stroke="#ff5050" stroke-width="1.0" stroke-opacity="1" points="
72.2460,394.7053
75.9423,391.9404
80.7445,389.8304
84.6008,389.8304
88.7481,390.9945
92.1679,393.7594
93.7686,397.3975
94.4962,401.7631
93.3320,405.6922
89.4030,408.6754
85.1101,410.9309
81.3993,411.6585
78.6344,411.6585
82.1269,411.6585
85.7649,412.0951
89.4030,413.4776
93.3320,416.4608
95.1511,419.2256
95.8787,422.4271
95.6604,425.8469
94.9328,428.6118
92.6772,431.8060
89.4030,433.8651
85.3284,435.0074
80.9627,435.0074
76.8154,433.8651
72.7044,431.5731
70.1869,429.2666
" />
<polyline fill="none" stroke="#ff5050" stroke-width="1.0" stroke-opacity="1" points="
150.2011,10.3008
147.9455,5.7169
141.0332,3.3886
136.5221,3.3886
129.6098,5.7169
125.0259,12.5564
122.6976,24.0526
122.6976,35.5487
125.0259,44.6802
129.6098,49.2641
136.5221,51.5561
138.7776,51.5561
145.6899,49.2641
150.2011,44.6802
152.5294,37.8043
152.5294,35.5487
150.2011,28.6365
145.6899,24.0526
138.7776,21.7242
136.5221,21.7242
129.6098,24.0526
125.0259,28.6365
122.6976,35.5487
" />
<polyline fill="none" stroke="#ff5050" stroke-width="1.0" stroke-opacity="1" points="
121.4604,168.7704
153.5478,168.7704
130.6282,216.9380
" />
<polyline fill="none" stroke="#ff5050" stroke-width="1.0" stroke-opacity="1" points="
152.6198,239.4686
150.3642,246.3809
145.7802,250.8921
138.9408,253.2204
136.6124,253.2204
129.7729,250.8921
125.1162,246.3809
122.8607,239.4686
122.8607,237.2131
125.1162,230.3008
129.7729,225.7169
136.6124,223.3885
138.9408,223.3885
145.7802,225.7169
150.3642,230.3008
152.6198,239.4686
152.6198,250.8921
150.3642,262.3882
145.7802,269.2641
138.9408,271.5561
134.2841,271.5561
127.4446,269.2641
125.1162,264.6802
" />
<polyline fill="none" stroke="#ff5050" stroke-width="1.0" stroke-opacity="1" points="
127.2460,284.7053
130.9423,281.9404
135.7445,279.8304
139.6008,279.8304
143.7481,280.9945
147.1679,283.7594
148.7686,287.3975
149.4962,291.7631
148.3320,295.6922
144.4030,298.6754
140.1101,300.9309
136.3993,301.6585
133.6344,301.6585
137.1269,301.6585
140.7649,302.0951
144.4030,303.4776
148.3320,306.4608
150.1511,309.2256
150.8787,312.4271
150.6604,315.8469
149.9328,318.6118
147.6772,321.8060
144.4030,323.8651
140.3284,325.0074
135.9627,325.0074
131.8154,323.8651
127.7044,321.5731
125.1869,319.2666
" />
<polyline fill="none" stroke="#ff5050" stroke-width="1.0" stroke-opacity="1" points="
133.3930,333.6432
126.5535,335.9715
124.2251,340.5554
124.2251,345.1393
126.5535,349.7232
131.1374,351.9788
140.3052,354.3072
147.2175,356.6355
151.7286,361.1467
154.0570,365.8033
154.0570,372.6428
151.7286,377.2267
149.4731,379.5187
142.5608,381.8107
133.3930,381.8107
126.5535,379.5187
124.2251,377.2267
121.9696,372.6428
121.9696,365.8033
124.2251,361.1467
128.8818,356.6355
135.7213,354.3072
144.8891,351.9788
149.4731,349.7232
151.7286,345.1393
151.7286,340.5554
149.4731,335.9715
142.5608,333.6432
133.3930,333.6432
" />
<polyline fill="none" stroke="#ff5050" stroke-width="1.0" stroke-opacity="1" points="
149.3458,443.7704
126.4262,443.7704
124.0979,464.4344
126.4262,462.1061
133.2657,459.8505
140.1779,459.8505
147.0902,462.1061
151.6014,466.7628
153.9297,473.6023
153.9297,478.1862
151.6014,485.0621
147.0902,489.6460
140.1779,491.9380
133.2657,491.9380
126.4262,489.6460
124.0979,487.3540
121.8423,482.7701
" />
<polyline fill="none" stroke="#ff5050" stroke-width="1.0" stroke-opacity="1" points="
184.4604,12.6131
188.9715,10.3576
195.8838,3.4453
195.8838,51.6128
" />
<polyline fill="none" stroke="#ff5050" stroke-width="1.0" stroke-opacity="1" points="
176.4604,58.7705
208.5478,58.7705
185.6282,106.9380
" />
<polyline fill="none" stroke="#ff5050" stroke-width="1.0" stroke-opacity="1" points="
179.0939,179.9406
179.0939,177.6122
181.4222,173.1010
183.7506,170.7727
188.2617,168.4444
197.4296,168.4444
202.0863,170.7727
204.3418,173.1010
206.5974,177.6122
206.5974,182.2689
204.3418,186.7800
199.7579,193.6923
176.8383,216.6119
208.9258,216.6119
" />
<polyline fill="none" stroke="#ff5050" stroke-width="1.0" stroke-opacity="1" points="
207.6198,294.4686
205.3642,301.3809
200.7802,305.8921
193.9408,308.2204
191.6124,308.2204
184.7729,305.8921
180.1162,301.3809
177.8607,294.4686
177.8607,292.2131
180.1162,285.3008
184.7729,280.7169
191.6124,278.3885
193.9408,278.3885
200.7802,280.7169
205.3642,285.3008
207.6198,294.4686
207.6198,305.8921
205.3642,317.3882
200.7802,324.2641
193.9408,326.5561
189.2841,326.5561
182.4446,324.2641
180.1162,319.6802
" />
<polyline fill="none" stroke="#ff5050" stroke-width="1.0" stroke-opacity="1" points="
204.3458,388.7704
181.4262,388.7704
179.0979,409.4344
181.4262,407.1061
188.2657,404.8505
195.1779,404.8505
202.0902,407.1061
206.6014,411.7628
208.9297,418.6023
208.9297,423.1862
206.6014,430.0621
202.0902,434.6460
195.1779,436.9380
188.2657,436.9380
181.4262,434.6460
179.0979,432.3540
176.8423,427.7701
" />
<polyline fill="none" stroke="#ff5050" stroke-width="1.0" stroke-opacity="1" points="
188.3930,443.6432
181.5535,445.9715
179.2251,450.5554
179.2251,455.1393
181.5535,459.7232
186.1374,461.9788
195.3052,464.3072
202.2175,466.6355
206.7286,471.1467
209.0570,475.8033
209.0570,482.6428
206.7286,487.2267
204.4731,489.5187
197.5608,491.8107
188.3930,491.8107
181.5535,489.5187
179.2251,487.2267
176.9696,482.6428
176.9696,475.8033
179.2251,471.1467
183.8818,466.6355
190.7213,464.3072
199.8891,461.9788
204.4731,459.7232
206.7286,455.1393
206.7286,450.5554
204.4731,445.9715
197.5608,443.6432
188.3930,443.6432
" />
<polyline fill="none" stroke="#ff5050" stroke-width="1.0" stroke-opacity="1" points="
237.2460,9.7053
240.9423,6.9404
245.7445,4.8304
249.6008,4.8304
253.7481,5.9945
257.1679,8.7594
258.7686,12.3975
259.4962,16.7631
258.3320,20.6922
254.4030,23.6754
250.1101,25.9309
246.3993,26.6586
243.6344,26.6586
247.1269,26.6586
250.7649,27.0951
254.4030,28.4776
258.3320,31.4608
260.1511,34.2257
260.8787,37.4271
260.6604,40.8469
259.9328,43.6118
257.6772,46.8060
254.4030,48.8651
250.3284,50.0074
245.9627,50.0074
241.8154,48.8651
237.7044,46.5731
235.1869,44.2666
" />
<polyline fill="none" stroke="#ff5050" stroke-width="1.0" stroke-opacity="1" points="
243.3930,58.6432
236.5535,60.9715
234.2251,65.5554
234.2251,70.1393
236.5535,74.7232
241.1374,76.9788
250.3052,79.3072
257.2175,81.6355
261.7286,86.1467
264.0570,90.8033
264.0570,97.6428
261.7286,102.2267
259.4731,104.5187
252.5608,106.8107
243.3930,106.8107
236.5535,104.5187
234.2251,102.2267
231.9696,97.6428
231.9696,90.8033
234.2251,86.1467
238.8818,81.6355
245.7213,79.3072
254.8891,76.9788
259.4731,74.7232
261.7286,70.1393
261.7286,65.5554
259.4731,60.9715
252.5608,58.6432
243.3930,58.6432
" />
<polyline fill="none" stroke="#ff5050" stroke-width="1.0" stroke-opacity="1" points="
231.4604,278.7704
263.5478,278.7704
240.6282,326.9380
" />
<polyline fill="none" stroke="#ff5050" stroke-width="1.0" stroke-opacity="1" points="
260.2011,340.3008
257.9455,335.7169
251.0332,333.3885
246.5221,333.3885
239.6098,335.7169
235.0259,342.5564
232.6976,354.0526
232.6976,365.5487
235.0259,374.6802
239.6098,379.2641
246.5221,381.5561
248.7776,381.5561
255.6899,379.2641
260.2011,374.6802
262.5294,367.8043
262.5294,365.5487
260.2011,358.6365
255.6899,354.0526
248.7776,351.7242
246.5221,351.7242
239.6098,354.0526
235.0259,358.6365
232.6976,365.5487
" />
<polyline fill="none" stroke="#ff5050" stroke-width="1.0" stroke-opacity="1" points="
234.0939,454.9406
234.0939,452.6122
236.4222,448.1010
238.7506,445.7727
243.2617,443.4444
252.4296,443.4444
257.0862,445.7727
259.3418,448.1010
261.5974,452.6122
261.5974,457.2689
259.3418,461.7800
254.7579,468.6923
231.8383,491.6119
263.9258,491.6119
" />
<polyline fill="none" stroke="#ff5050" stroke-width="1.0" stroke-opacity="1" points="
289.0939,14.9405
289.0939,12.6122
291.4222,8.1010
293.7506,5.7727
298.2617,3.4444
307.4296,3.4444
312.0862,5.7727
314.3418,8.1010
316.5974,12.6122
316.5974,17.2689
314.3418,21.7800
309.7579,28.6923
286.8383,51.6119
318.9258,51.6119
" />
<polyline fill="none" stroke="#ff5050" stroke-width="1.0" stroke-opacity="1" points="
315.2011,65.3008
312.9455,60.7169
306.0332,58.3885
301.5221,58.3885
294.6098,60.7169
290.0259,67.5564
287.6976,79.0526
287.6976,90.5487
290.0259,99.6802
294.6098,104.2641
301.5221,106.5561
303.7776,106.5561
310.6899,104.2641
315.2011,99.6802
317.5294,92.8043
317.5294,90.5487
315.2011,83.6365
310.6899,79.0526
303.7776,76.7242
301.5221,76.7242
294.6098,79.0526
290.0259,83.6365
287.6976,90.5487
" />
<polyline fill="none" stroke="#ff5050" stroke-width="1.0" stroke-opacity="1" points="
314.3458,113.7704
291.4262,113.7704
289.0979,134.4344
291.4262,132.1061
298.2657,129.8505
305.1779,129.8505
312.0902,132.1061
316.6014,136.7628
318.9297,143.6023
318.9297,148.1862
316.6014,155.0621
312.0902,159.6460
305.1779,161.9380
298.2657,161.9380
291.4262,159.6460
289.0979,157.3540
286.8423,152.7701
" />
<polyline fill="none" stroke="#ff5050" stroke-width="1.0" stroke-opacity="1" points="
298.3930,168.6431
291.5535,170.9715
289.2251,175.5554
289.2251,180.1393
291.5535,184.7232
296.1374,186.9788
305.3052,189.3072
312.2175,191.6355
316.7286,196.1467
319.0570,200.8033
319.0570,207.6428
316.7286,212.2267
314.4731,214.5187
307.5608,216.8107
298.3930,216.8107
291.5535,214.5187
289.2251,212.2267
286.9695,207.6428
286.9695,200.8033
289.2251,196.1467
293.8818,191.6355
300.7213,189.3072
309.8892,186.9788
314.4731,184.7232
316.7286,180.1393
316.7286,175.5554
314.4731,170.9715
307.5608,168.6431
298.3930,168.6431
" />
<polyline fill="none" stroke="#ff5050" stroke-width="1.0" stroke-opacity="1" points="
286.4604,333.7704
318.5478,333.7704
295.6282,381.9380
" />
<polyline fill="none" stroke="#ff5050" stroke-width="1.0" stroke-opacity="1" points="
317.6198,404.4686
315.3642,411.3809
310.7802,415.8921
303.9408,418.2204
301.6124,418.2204
294.7729,415.8921
290.1162,411.3809
287.8607,404.4686
287.8607,402.2131
290.1162,395.3008
294.7729,390.7169
301.6124,388.3885
303.9408,388.3885
310.7802,390.7169
315.3642,395.3008
317.6198,404.4686
317.6198,415.8921
315.3642,427.3882
310.7802,434.2641
303.9408,436.5561
299.2841,436.5561
292.4446,434.2641
290.1162,429.6802
" />
<polyline fill="none" stroke="#ff5050" stroke-width="1.0" stroke-opacity="1" points="
341.4604,3.7705
373.5478,3.7705
350.6282,51.9380
" />
<polyline fill="none" stroke="#ff5050" stroke-width="1.0" stroke-opacity="1" points="
347.2460,174.7053
350.9423,171.9404
355.7444,169.8304
359.6008,169.8304
363.7481,170.9945
367.1679,173.7594
368.7686,177.3975
369.4962,181.7631
368.3320,185.6922
364.4030,188.6754
360.1101,190.9309
356.3993,191.6586
353.6344,191.6586
357.1269,191.6586
360.7650,192.0951
364.4030,193.4776
368.3320,196.4608
370.1511,199.2256
370.8787,202.4271
370.6604,205.8469
369.9328,208.6118
367.6772,211.8060
364.4030,213.8651
360.3284,215.0074
355.9627,215.0074
351.8154,213.8651
347.7044,211.5731
345.1869,209.2666
" />
<polyline fill="none" stroke="#ff5050" stroke-width="1.0" stroke-opacity="1" points="
369.3458,223.7704
346.4262,223.7704
344.0979,244.4344
346.4262,242.1061
353.2657,239.8505
360.1779,239.8505
367.0902,242.1061
371.6014,246.7628
373.9297,253.6023
373.9297,258.1862
371.6014,265.0621
367.0902,269.6460
360.1779,271.9380
353.2657,271.9380
346.4262,269.6460
344.0979,267.3540
341.8423,262.7701
" />
<polyline fill="none" stroke="#ff5050" stroke-width="1.0" stroke-opacity="1" points="
363.2343,381.5561
363.2343,333.3885
340.3147,365.5487
374.7304,365.5487
" />
<polyline fill="none" stroke="#ff5050" stroke-width="1.0" stroke-opacity="1" points="
370.2011,395.3008
367.9455,390.7169
361.0332,388.3885
356.5221,388.3885
349.6098,390.7169
345.0259,397.5564
342.6976,409.0526
342.6976,420.5487
345.0259,429.6802
349.6098,434.2641
356.5221,436.5561
358.7776,436.5561
365.6899,434.2641
370.2011,429.6802
372.5294,422.8043
372.5294,420.5487
370.2011,413.6365
365.6899,409.0526
358.7776,406.7242
356.5221,406.7242
349.6098,409.0526
345.0259,413.6365
342.6976,420.5487
" />
<polyline fill="none" stroke="#ff5050" stroke-width="1.0" stroke-opacity="1" points="
372.6198,459.4686
370.3642,466.3809
365.7802,470.8921
358.9408,473.2204
356.6124,473.2204
349.7729,470.8921
345.1162,466.3809
342.8607,459.4686
342.8607,457.2131
345.1162,450.3008
349.7729,445.7169
356.6124,443.3885
358.9408,443.3885
365.7802,445.7169
370.3642,450.3008
372.6198,459.4686
372.6198,470.8921
370.3642,482.3882
365.7802,489.2641
358.9408,491.5561
354.2841,491.5561
347.4446,489.2641
345.1162,484.6802
" />
<polyline fill="none" stroke="#ff5050" stroke-width="1.0" stroke-opacity="1" points="
408.3930,3.6431
401.5535,5.9715
399.2251,10.5554
399.2251,15.1393
401.5535,19.7232
406.1374,21.9788
415.3052,24.3072
422.2175,26.6355
426.7286,31.1467
429.0570,35.8033
429.0570,42.6428
426.7286,47.2267
424.4731,49.5187
417.5608,51.8107
408.3930,51.8107
401.5535,49.5187
399.2251,47.2267
396.9695,42.6428
396.9695,35.8033
399.2251,31.1467
403.8818,26.6355
410.7213,24.3072
419.8892,21.9788
424.4731,19.7232
426.7286,15.1393
426.7286,10.5554
424.4731,5.9715
417.5608,3.6431
408.3930,3.6431
" />
<polyline fill="none" stroke="#ff5050" stroke-width="1.0" stroke-opacity="1" points="
427.6198,74.4686
425.3642,81.3809
420.7802,85.8921
413.9408,88.2204
411.6124,88.2204
404.7729,85.8921
400.1162,81.3809
397.8607,74.4686
397.8607,72.2131
400.1162,65.3008
404.7729,60.7169
411.6124,58.3885
413.9408,58.3885
420.7802,60.7169
425.3642,65.3008
427.6198,74.4686
427.6198,85.8921
425.3642,97.3882
420.7802,104.2641
413.9408,106.5561
409.2841,106.5561
402.4446,104.2641
400.1162,99.6802
" />
<polyline fill="none" stroke="#ff5050" stroke-width="1.0" stroke-opacity="1" points="
404.4604,177.6131
408.9715,175.3576
415.8838,168.4453
415.8838,216.6128
" />
<polyline fill="none" stroke="#ff5050" stroke-width="1.0" stroke-opacity="1" points="
396.4604,223.7704
428.5478,223.7704
405.6282,271.9380
" />
<polyline fill="none" stroke="#ff5050" stroke-width="1.0" stroke-opacity="1" points="
418.2343,326.5561
418.2343,278.3885
395.3147,310.5487
429.7304,310.5487
" />
<polyline fill="none" stroke="#ff5050" stroke-width="1.0" stroke-opacity="1" points="
424.3458,333.7704
401.4262,333.7704
399.0979,354.4344
401.4262,352.1061
408.2657,349.8505
415.1779,349.8505
422.0902,352.1061
426.6014,356.7628
428.9297,363.6023
428.9297,368.1862
426.6014,375.0621
422.0902,379.6460
415.1779,381.9380
408.2657,381.9380
401.4262,379.6460
399.0979,377.3540
396.8423,372.7701
" />
<polyline fill="none" stroke="#ff5050" stroke-width="1.0" stroke-opacity="1" points="
399.0939,399.9406
399.0939,397.6122
401.4222,393.1010
403.7506,390.7727
408.2617,388.4444
417.4296,388.4444
422.0862,390.7727
424.3418,393.1010
426.5974,397.6122
426.5974,402.2689
424.3418,406.7800
419.7579,413.6923
396.8383,436.6119
428.9258,436.6119
" />
<polyline fill="none" stroke="#ff5050" stroke-width="1.0" stroke-opacity="1" points="
402.2460,449.7053
405.9423,446.9404
410.7444,444.8304
414.6008,444.8304
418.7481,445.9945
422.1679,448.7594
423.7686,452.3975
424.4962,456.7631
423.3320,460.6922
419.4030,463.6754
415.1101,465.9309
411.3993,466.6585
408.6344,466.6585
412.1269,466.6585
415.7650,467.0951
419.4030,468.4776
423.3320,471.4608
425.1511,474.2256
425.8787,477.4271
425.6604,480.8469
424.9328,483.6118
422.6772,486.8060
419.4030,488.8651
415.3284,490.0074
410.9627,490.0074
406.8154,488.8651
402.7044,486.5731
400.1869,484.2666
" />
<polyline fill="none" stroke="#ff5050" stroke-width="1.0" stroke-opacity="1" points="
473.2343,51.5561
473.2343,3.3886
450.3147,35.5487
484.7304,35.5487
" />
<polyline fill="none" stroke="#ff5050" stroke-width="1.0" stroke-opacity="1" points="
479.3458,58.7705
456.4262,58.7705
454.0979,79.4345
456.4262,77.1061
463.2657,74.8505
470.1779,74.8505
477.0902,77.1061
481.6014,81.7628
483.9297,88.6023
483.9297,93.1862
481.6014,100.0621
477.0902,104.6460
470.1779,106.9380
463.2657,106.9380
456.4262,104.6460
454.0979,102.3540
451.8423,97.7701
" />
<polyline fill="none" stroke="#ff5050" stroke-width="1.0" stroke-opacity="1" points="
457.2460,119.7053
460.9423,116.9404
465.7444,114.8304
469.6008,114.8304
473.7481,115.9945
477.1679,118.7594
478.7686,122.3975
479.4962,126.7631
478.3320,130.6922
474.4030,133.6754
470.1101,135.9309
466.3993,136.6586
463.6344,136.6586
467.1269,136.6586
470.7650,137.0951
474.4030,138.4776
478.3320,141.4608
480.1511,144.2256
480.8787,147.4271
480.6604,150.8469
479.9328,153.6118
477.6772,156.8060
474.4030,158.8651
470.3284,160.0074
465.9627,160.0074
461.8154,158.8651
457.7044,156.5731
455.1869,154.2666
" />
<polyline fill="none" stroke="#ff5050" stroke-width="1.0" stroke-opacity="1" points="
454.0939,234.9406
454.0939,232.6122
456.4222,228.1010
458.7506,225.7727
463.2617,223.4444
472.4296,223.4444
477.0862,225.7727
479.3418,228.1010
481.5974,232.6122
481.5974,237.2689
479.3418,241.7800
474.7579,248.6923
451.8383,271.6119
483.9258,271.6119
" />
<polyline fill="none" stroke="#ff5050" stroke-width="1.0" stroke-opacity="1" points="
480.2011,285.3008
477.9455,280.7169
471.0332,278.3885
466.5221,278.3885
459.6098,280.7169
455.0259,287.5564
452.6976,299.0526
452.6976,310.5487
455.0259,319.6802
459.6098,324.2641
466.5221,326.5561
468.7776,326.5561
475.6899,324.2641
480.2011,319.6802
482.5294,312.8043
482.5294,310.5487
480.2011,303.6365
475.6899,299.0526
468.7776,296.7242
466.5221,296.7242
459.6098,299.0526
455.0259,303.6365
452.6976,310.5487
" />
<polyline fill="none" stroke="#ff5050" stroke-width="1.0" stroke-opacity="1" points="
459.4604,342.6132
463.9715,340.3576
470.8838,333.4453
470.8838,381.6128
" />
<polyline fill="none" stroke="#ff5050" stroke-width="1.0" stroke-opacity="1" points="
463.3930,388.6432
456.5535,390.9715
454.2251,395.5554
454.2251,400.1393
456.5535,404.7232
461.1374,406.9788
470.3052,409.3072
477.2175,411.6355
481.7286,416.1467
484.0570,420.8033
484.0570,427.6428
481.7286,432.2267
479.4731,434.5187
472.5608,436.8107
463.3930,436.8107
456.5535,434.5187
454.2251,432.2267
451.9695,427.6428
451.9695,420.8033
454.2251,416.1467
458.8818,411.6355
465.7213,409.3072
474.8892,406.9788
479.4731,404.7232
481.7286,400.1393
481.7286,395.5554
479.4731,390.9715
472.5608,388.6432
463.3930,388.6432
" />
<polyline fill="none" stroke="#ff5050" stroke-width="1.0" stroke-opacity="1" points="
451.4604,443.7704
483.5478,443.7704
460.6282,491.9380
" />
</g>
</svg>
