<?xml version="1.0" encoding="UTF-8" ?>
<svg width="500mm" height="500mm" xmlns="http://www.w3.org/2000/svg" version="1.1">
<g id="0">
<polyline fill="none" stroke="#000000" stroke-width="1.0" stroke-opacity="1" points="
-1.0000,495.0000
-1.0000,0.0000
0.0000,0.0000
0.0000,495.0000
1.0000,495.0000
1.0000,0.0000
" />
<polyline fill="none" stroke="#000000" stroke-width="1.0" stroke-opacity="1" points="
55.0000,495.0000
55.0000,0.0000
" />
<polyline fill="none" stroke="#000000" stroke-width="1.0" stroke-opacity="1" points="
110.0000,0.0000
110.0000,495.0000
" />
<polyline fill="none" stroke="#000000" stroke-width="1.0" stroke-opacity="1" points="
164.0000,495.0000
164.0000,0.0000
165.0000,0.0000
165.0000,495.0000
166.0000,495.0000
166.0000,0.0000
" />
<polyline fill="none" stroke="#000000" stroke-width="1.0" stroke-opacity="1" points="
220.0000,0.0000
220.0000,495.0000
" />
<polyline fill="none" stroke="#000000" stroke-width="1.0" stroke-opacity="1" points="
275.0000,495.0000
275.0000,0.0000
" />
<polyline fill="none" stroke="#000000" stroke-width="1.0" stroke-opacity="1" points="
329.0000,495.0000
329.0000,0.0000
330.0000,0.0000
330.0000,495.0000
331.0000,495.0000
331.0000,0.0000
" />
<polyline fill="none" stroke="#000000" stroke-width="1.0" stroke-opacity="1" points="
385.0000,495.0000
385.0000,0.0000
" />
<polyline fill="none" stroke="#000000" stroke-width="1.0" stroke-opacity="1" points="
440.0000,0.0000
440.0000,495.0000
" />
<polyline fill="none" stroke="#000000" stroke-width="1.0" stroke-opacity="1" points="
494.0000,495.0000
494.0000,0.0000
495.0000,0.0000
495.0000,495.0000
496.0000,495.0000
496.0000,0.0000
" />
<polyline fill="none" stroke="#000000" stroke-width="1.0" stroke-opacity="1" points="
495.0000,-1.0000
0.0000,-1.0000
0.0000,0.0000
495.0000,0.0000
495.0000,1.0000
0.0000,1.0000
" />
<polyline fill="none" stroke="#000000" stroke-width="1.0" stroke-opacity="1" points="
495.0000,55.0000
0.0000,55.0000
" />
<polyline fill="none" stroke="#000000" stroke-width="1.0" stroke-opacity="1" points="
0.0000,110.0000
495.0000,110.0000
" />
<polyline fill="none" stroke="#000000" stroke-width="1.0" stroke-opacity="1" points="
495.0000,164.0000
0.0000,164.0000
0.0000,165.0000
495.0000,165.0000
495.0000,166.0000
0.0000,166.0000
" />
<polyline fill="none" stroke="#000000" stroke-width="1.0" stroke-opacity="1" points="
0.0000,220.0000
495.0000,220.0000
" />
<polyline fill="none" stroke="#000000" stroke-width="1.0" stroke-opacity="1" points="
495.0000,275.0000
0.0000,275.0000
" />
<polyline fill="none" stroke="#000000" stroke-width="1.0" stroke-opacity="1" points="
495.0000,329.0000
0.0000,329.0000
0.0000,330.0000
495.0000,330.0000
495.0000,331.0000
0.0000,331.0000
" />
<polyline fill="none" stroke="#000000" stroke-width="1.0" stroke-opacity="1" points="
495.0000,385.0000
0.0000,385.0000
" />
<polyline fill="none" stroke="#000000" stroke-width="1.0" stroke-opacity="1" points="
0.0000,440.0000
495.0000,440.0000
" />
<polyline fill="none" stroke="#000000" stroke-width="1.0" stroke-opacity="1" points="
495.0000,494.0000
0.0000,494.0000
0.0000,495.0000
495.0000,495.0000
495.0000,496.0000
0.0000,496.0000
" />
<polyline fill="none" stroke="#000000" stroke-width="1.0" stroke-opacity="1" points="
15.0689,15.8540
15.0689,13.6950
17.2279,9.5119
19.3869,7.3529
23.5700,5.1939
32.0711,5.1939
36.3891,7.3529
38.4806,9.5119
40.5721,13.6950
40.5721,18.0130
38.4806,22.1960
34.2301,28.6056
12.9774,49.8583
42.7311,49.8583
" />
<polyline fill="none" stroke="#000000" stroke-width="1.0" stroke-opacity="1" points="
32.8172,269.8065
32.8172,225.1421
11.5645,254.9634
43.4773,254.9634
" />
<polyline fill="none" stroke="#000000" stroke-width="1.0" stroke-opacity="1" points="
17.9918,285.9995
21.4192,283.4357
25.8721,281.4791
29.4480,281.4791
33.2937,282.5586
36.4647,285.1224
37.9491,288.4958
38.6238,292.5440
37.5443,296.1873
33.9009,298.9535
29.9203,301.0450
26.4794,301.7198
23.9155,301.7198
27.1540,301.7198
30.5275,302.1246
33.9009,303.4065
37.5443,306.1727
39.2310,308.7365
39.9057,311.7051
39.7033,314.8762
39.0286,317.4400
36.9370,320.4019
33.9009,322.3113
30.1227,323.3705
26.0745,323.3705
22.2288,322.3113
18.4168,320.1860
16.0824,318.0472
" />
<polyline fill="none" stroke="#000000" stroke-width="1.0" stroke-opacity="1" points="
93.4843,115.4962
72.2316,115.4962
70.0726,134.6574
72.2316,132.4984
78.5736,130.4069
84.9832,130.4069
91.3927,132.4984
95.5758,136.8164
97.7348,143.1585
97.7348,147.4090
95.5758,153.7849
91.3927,158.0354
84.9832,160.1607
78.5736,160.1607
72.2316,158.0354
70.0726,155.9101
67.9810,151.6596
" />
<polyline fill="none" stroke="#000000" stroke-width="1.0" stroke-opacity="1" points="
75.0451,178.6958
79.2281,176.6043
85.6377,170.1947
85.6377,214.8592
" />
<polyline fill="none" stroke="#000000" stroke-width="1.0" stroke-opacity="1" points="
96.5201,460.0527
94.4286,466.4623
90.1780,470.6454
83.8360,472.8044
81.6770,472.8044
75.3349,470.6454
71.0169,466.4623
68.9253,460.0527
68.9253,457.9612
71.0169,451.5517
75.3349,447.3011
81.6770,445.1421
83.8360,445.1421
90.1780,447.3011
94.4286,451.5517
96.5201,460.0527
96.5201,470.6454
94.4286,481.3055
90.1780,487.6813
83.8360,489.8065
79.5180,489.8065
73.1759,487.6813
71.0169,483.4307
" />
<polyline fill="none" stroke="#000000" stroke-width="1.0" stroke-opacity="1" points="
133.6917,115.3782
127.3496,117.5372
125.1906,121.7877
125.1906,126.0383
127.3496,130.2888
131.6001,132.3804
140.1012,134.5394
146.5108,136.6984
150.6938,140.8814
152.8528,145.1995
152.8528,151.5415
150.6938,155.7921
148.6023,157.9173
142.1927,160.0426
133.6917,160.0426
127.3496,157.9173
125.1906,155.7921
123.0990,151.5415
123.0990,145.1995
125.1906,140.8814
129.5086,136.6984
135.8507,134.5394
144.3517,132.3804
148.6023,130.2888
150.6938,126.0383
150.6938,121.7877
148.6023,117.5372
142.1927,115.3782
133.6917,115.3782
" />
<polyline fill="none" stroke="#000000" stroke-width="1.0" stroke-opacity="1" points="
151.5201,295.0527
149.4286,301.4623
145.1780,305.6454
138.8360,307.8044
136.6770,307.8044
130.3349,305.6454
126.0169,301.4623
123.9253,295.0527
123.9253,292.9612
126.0169,286.5517
130.3349,282.3011
136.6770,280.1421
138.8360,280.1421
145.1780,282.3011
149.4286,286.5517
151.5201,295.0527
151.5201,305.6454
149.4286,316.3055
145.1780,322.6813
138.8360,324.8065
134.5180,324.8065
128.1759,322.6813
126.0169,318.4307
" />
<polyline fill="none" stroke="#000000" stroke-width="1.0" stroke-opacity="1" points="
149.2774,396.5517
147.1858,392.3011
140.7763,390.1421
136.5932,390.1421
130.1837,392.3011
125.9331,398.6432
123.7741,409.3033
123.7741,419.9634
125.9331,428.4307
130.1837,432.6813
136.5932,434.8065
138.6847,434.8065
145.0943,432.6813
149.2774,428.4307
151.4364,422.0549
151.4364,419.9634
149.2774,413.5538
145.0943,409.3033
138.6847,407.1443
136.5932,407.1443
130.1837,409.3033
125.9331,413.5538
123.7741,419.9634
" />
<polyline fill="none" stroke="#000000" stroke-width="1.0" stroke-opacity="1" points="
188.6917,5.3782
182.3496,7.5372
180.1906,11.7877
180.1906,16.0383
182.3496,20.2888
186.6001,22.3804
195.1012,24.5394
201.5108,26.6984
205.6938,30.8814
207.8528,35.1995
207.8528,41.5415
205.6938,45.7921
203.6023,47.9173
197.1927,50.0426
188.6917,50.0426
182.3496,47.9173
180.1906,45.7921
178.0990,41.5415
178.0990,35.1995
180.1906,30.8814
184.5086,26.6984
190.8507,24.5394
199.3517,22.3804
203.6023,20.2888
205.6938,16.0383
205.6938,11.7877
203.6023,7.5372
197.1927,5.3782
188.6917,5.3782
" />
<polyline fill="none" stroke="#000000" stroke-width="1.0" stroke-opacity="1" points="
180.0689,180.8540
180.0689,178.6950
182.2279,174.5119
184.3869,172.3529
188.5700,170.1939
197.0711,170.1939
201.3891,172.3529
203.4806,174.5119
205.5721,178.6950
205.5721,183.0130
203.4806,187.1960
199.2301,193.6056
177.9774,214.8583
207.7311,214.8583
" />
<polyline fill="none" stroke="#000000" stroke-width="1.0" stroke-opacity="1" points="
206.5201,240.0527
204.4286,246.4623
200.1780,250.6454
193.8360,252.8044
191.6770,252.8044
185.3349,250.6454
181.0169,246.4623
178.9253,240.0527
178.9253,237.9612
181.0169,231.5517
185.3349,227.3011
191.6770,225.1421
193.8360,225.1421
200.1780,227.3011
204.4286,231.5517
206.5201,240.0527
206.5201,250.6454
204.4286,261.3055
200.1780,267.6813
193.8360,269.8065
189.5180,269.8065
183.1759,267.6813
181.0169,263.4307
" />
<polyline fill="none" stroke="#000000" stroke-width="1.0" stroke-opacity="1" points="
185.0451,288.6958
189.2281,286.6043
195.6377,280.1947
195.6377,324.8592
" />
<polyline fill="none" stroke="#000000" stroke-width="1.0" stroke-opacity="1" points="
252.8172,104.8065
252.8172,60.1421
231.5645,89.9634
263.4773,89.9634
" />
<polyline fill="none" stroke="#000000" stroke-width="1.0" stroke-opacity="1" points="
243.6917,390.3782
237.3496,392.5372
235.1906,396.7878
235.1906,401.0383
237.3496,405.2888
241.6001,407.3804
250.1012,409.5394
256.5107,411.6984
260.6938,415.8814
262.8528,420.1995
262.8528,426.5415
260.6938,430.7921
258.6023,432.9174
252.1927,435.0426
243.6917,435.0426
237.3496,432.9174
235.1906,430.7921
233.0990,426.5415
233.0990,420.1995
235.1906,415.8814
239.5086,411.6984
245.8507,409.5394
254.3517,407.3804
258.6023,405.2888
260.6938,401.0383
260.6938,396.7878
258.6023,392.5372
252.1927,390.3782
243.6917,390.3782
" />
<polyline fill="none" stroke="#000000" stroke-width="1.0" stroke-opacity="1" points="
287.6269,280.4962
317.3807,280.4962
296.1280,325.1606
" />
<polyline fill="none" stroke="#000000" stroke-width="1.0" stroke-opacity="1" points="
295.0450,343.6958
299.2281,341.6043
305.6377,335.1947
305.6377,379.8592
" />
<polyline fill="none" stroke="#000000" stroke-width="1.0" stroke-opacity="1" points="
292.9918,450.9995
296.4192,448.4357
300.8721,446.4791
304.4480,446.4791
308.2937,447.5586
311.4648,450.1224
312.9491,453.4958
313.6237,457.5440
312.5443,461.1873
308.9009,463.9535
304.9203,466.0450
301.4793,466.7198
298.9155,466.7198
302.1541,466.7198
305.5275,467.1246
308.9009,468.4065
312.5443,471.1727
314.2310,473.7365
314.9057,476.7051
314.7032,479.8762
314.0286,482.4400
311.9370,485.4019
308.9009,487.3113
305.1227,488.3705
301.0745,488.3705
297.2288,487.3113
293.4168,485.1860
291.0824,483.0472
" />
<polyline fill="none" stroke="#000000" stroke-width="1.0" stroke-opacity="1" points="
347.9918,10.9995
351.4192,8.4357
355.8721,6.4791
359.4480,6.4791
363.2937,7.5586
366.4648,10.1224
367.9491,13.4958
368.6237,17.5440
367.5443,21.1873
363.9009,23.9535
359.9203,26.0451
356.4793,26.7197
353.9155,26.7197
357.1541,26.7197
360.5275,27.1246
363.9009,28.4065
367.5443,31.1727
369.2310,33.7365
369.9057,36.7051
369.7032,39.8762
369.0286,42.4400
366.9370,45.4019
363.9009,47.3113
360.1227,48.3705
356.0745,48.3705
352.2288,47.3113
348.4168,45.1860
346.0824,43.0472
" />
<polyline fill="none" stroke="#000000" stroke-width="1.0" stroke-opacity="1" points="
362.8172,159.8065
362.8172,115.1421
341.5645,144.9634
373.4773,144.9634
" />
<polyline fill="none" stroke="#000000" stroke-width="1.0" stroke-opacity="1" points="
368.4843,390.4962
347.2316,390.4962
345.0726,409.6574
347.2316,407.4984
353.5736,405.4069
359.9832,405.4069
366.3927,407.4984
370.5758,411.8164
372.7348,418.1585
372.7348,422.4090
370.5758,428.7849
366.3927,433.0354
359.9832,435.1606
353.5736,435.1606
347.2316,433.0354
345.0726,430.9101
342.9810,426.6596
" />
<polyline fill="none" stroke="#000000" stroke-width="1.0" stroke-opacity="1" points="
424.2773,66.5517
422.1858,62.3011
415.7763,60.1421
411.5932,60.1421
405.1837,62.3011
400.9331,68.6432
398.7741,79.3033
398.7741,89.9634
400.9331,98.4307
405.1837,102.6813
411.5932,104.8065
413.6847,104.8065
420.0943,102.6813
424.2773,98.4307
426.4364,92.0549
426.4364,89.9634
424.2773,83.5538
420.0943,79.3033
413.6847,77.1443
411.5932,77.1443
405.1837,79.3033
400.9331,83.5538
398.7741,89.9634
" />
<polyline fill="none" stroke="#000000" stroke-width="1.0" stroke-opacity="1" points="
405.0450,398.6958
409.2281,396.6043
415.6377,390.1947
415.6377,434.8592
" />
<polyline fill="none" stroke="#000000" stroke-width="1.0" stroke-opacity="1" points="
478.4843,5.4962
457.2316,5.4962
455.0726,24.6574
457.2316,22.4984
463.5736,20.4069
469.9832,20.4069
476.3927,22.4984
480.5758,26.8164
482.7348,33.1585
482.7348,37.4090
480.5758,43.7848
476.3927,48.0354
469.9832,50.1607
463.5736,50.1607
457.2316,48.0354
455.0726,45.9101
452.9810,41.6596
" />
<polyline fill="none" stroke="#000000" stroke-width="1.0" stroke-opacity="1" points="
455.0689,70.8540
455.0689,68.6950
457.2279,64.5119
459.3869,62.3529
463.5700,60.1939
472.0710,60.1939
476.3891,62.3529
478.4806,64.5119
480.5721,68.6950
480.5721,73.0130
478.4806,77.1960
474.2301,83.6056
452.9774,104.8583
482.7311,104.8583
" />
<polyline fill="none" stroke="#000000" stroke-width="1.0" stroke-opacity="1" points="
472.8172,489.8065
472.8172,445.1421
451.5645,474.9634
483.4773,474.9634
" />
<polyline fill="none" stroke="#ff5050" stroke-width="1.0" stroke-opacity="1" points="
42.6197,74.4686
40.3642,81.3809
35.7803,85.8921
28.9408,88.2204
26.6124,88.2204
19.7729,85.8921
15.1162,81.3809
12.8607,74.4686
12.8607,72.2131
15.1162,65.3008
19.7729,60.7169
26.6124,58.3885
28.9408,58.3885
35.7803,60.7169
40.3642,65.3008
42.6197,74.4686
42.6197,85.8921
40.3642,97.3882
35.7803,104.2641
28.9408,106.5561
24.2841,106.5561
17.4446,104.2641
15.1162,99.6802
" />
<polyline fill="none" stroke="#ff5050" stroke-width="1.0" stroke-opacity="1" points="
40.2011,120.3008
37.9455,115.7169
31.0332,113.3885
26.5221,113.3885
19.6098,115.7169
15.0259,122.5564
12.6976,134.0526
12.6976,145.5487
15.0259,154.6802
19.6098,159.2641
26.5221,161.5561
28.7777,161.5561
35.6899,159.2641
40.2011,154.6802
42.5294,147.8043
42.5294,145.5487
40.2011,138.6365
35.6899,134.0526
28.7777,131.7242
26.5221,131.7242
19.6098,134.0526
15.0259,138.6365
12.6976,145.5487
" />
<polyline fill="none" stroke="#ff5050" stroke-width="1.0" stroke-opacity="1" points="
39.3458,168.7704
16.4262,168.7704
14.0979,189.4344
16.4262,187.1061
23.2657,184.8505
30.1780,184.8505
37.0902,187.1061
41.6014,191.7628
43.9297,198.6023
43.9297,203.1862
41.6014,210.0621
37.0902,214.6460
30.1780,216.9380
23.2657,216.9380
16.4262,214.6460
14.0979,212.3540
11.8423,207.7701
" />
<polyline fill="none" stroke="#ff5050" stroke-width="1.0" stroke-opacity="1" points="
23.3930,333.6432
16.5535,335.9715
14.2251,340.5554
14.2251,345.1393
16.5535,349.7232
21.1374,351.9788
30.3052,354.3072
37.2175,356.6355
41.7286,361.1467
44.0570,365.8033
44.0570,372.6428
41.7286,377.2267
39.4731,379.5187
32.5608,381.8107
23.3930,381.8107
16.5535,379.5187
14.2251,377.2267
11.9696,372.6428
11.9696,365.8033
14.2251,361.1467
18.8818,356.6355
25.7213,354.3072
34.8891,351.9788
39.4731,349.7232
41.7286,345.1393
41.7286,340.5554
39.4731,335.9715
32.5608,333.6432
23.3930,333.6432
" />
<polyline fill="none" stroke="#ff5050" stroke-width="1.0" stroke-opacity="1" points="
11.4604,388.7704
43.5478,388.7704
20.6282,436.9380
" />
<polyline fill="none" stroke="#ff5050" stroke-width="1.0" stroke-opacity="1" points="
19.4604,452.6132
23.9715,450.3576
30.8838,443.4453
30.8838,491.6128
" />
<polyline fill="none" stroke="#ff5050" stroke-width="1.0" stroke-opacity="1" points="
66.4604,3.7705
98.5478,3.7705
75.6282,51.9380
" />
<polyline fill="none" stroke="#ff5050" stroke-width="1.0" stroke-opacity="1" points="
72.2460,64.7053
75.9423,61.9404
80.7445,59.8304
84.6008,59.8304
88.7481,60.9945
92.1679,63.7594
93.7686,67.3975
94.4962,71.7631
93.3320,75.6922
89.4030,78.6754
85.1101,80.9309
81.3993,81.6586
78.6344,81.6586
82.1269,81.6586
85.7649,82.0951
89.4030,83.4776
93.3320,86.4608
95.1511,89.2257
95.8787,92.4271
95.6604,95.8469
94.9328,98.6118
92.6772,101.8060
89.4030,103.8651
85.3284,105.0074
80.9627,105.0074
76.8154,103.8651
72.7044,101.5731
70.1869,99.2666
" />
<polyline fill="none" stroke="#ff5050" stroke-width="1.0" stroke-opacity="1" points="
95.2011,230.3008
92.9455,225.7169
86.0332,223.3885
81.5221,223.3885
74.6098,225.7169
70.0259,232.5564
67.6976,244.0526
67.6976,255.5487
70.0259,264.6802
74.6098,269.2641
81.5221,271.5561
83.7777,271.5561
90.6899,269.2641
95.2011,264.6802
97.5294,257.8043
97.5294,255.5487
95.2011,248.6365
90.6899,244.0526
83.7777,241.7242
81.5221,241.7242
74.6098,244.0526
70.0259,248.6365
67.6976,255.5487
" />
<polyline fill="none" stroke="#ff5050" stroke-width="1.0" stroke-opacity="1" points="
78.3930,278.6432
71.5535,280.9715
69.2251,285.5554
69.2251,290.1393
71.5535,294.7232
76.1374,296.9788
85.3052,299.3072
92.2175,301.6355
96.7286,306.1467
99.0570,310.8033
99.0570,317.6428
96.7286,322.2267
94.4731,324.5187
87.5608,326.8107
78.3930,326.8107
71.5535,324.5187
69.2251,322.2267
66.9696,317.6428
66.9696,310.8033
69.2251,306.1467
73.8818,301.6355
80.7213,299.3072
89.8891,296.9788
94.4731,294.7232
96.7286,290.1393
96.7286,285.5554
94.4731,280.9715
87.5608,278.6432
78.3930,278.6432
" />
<polyline fill="none" stroke="#ff5050" stroke-width="1.0" stroke-opacity="1" points="
88.2343,381.5561
88.2343,333.3885
65.3147,365.5487
99.7304,365.5487
" />
<polyline fill="none" stroke="#ff5050" stroke-width="1.0" stroke-opacity="1" points="
69.0939,399.9406
69.0939,397.6122
71.4222,393.1010
73.7506,390.7727
78.2617,388.4444
87.4296,388.4444
92.0863,390.7727
94.3418,393.1010
96.5974,397.6122
96.5974,402.2689
94.3418,406.7800
89.7579,413.6923
66.8383,436.6119
98.9258,436.6119
" />
<polyline fill="none" stroke="#ff5050" stroke-width="1.0" stroke-opacity="1" points="
143.2343,51.5561
143.2343,3.3886
120.3147,35.5487
154.7304,35.5487
" />
<polyline fill="none" stroke="#ff5050" stroke-width="1.0" stroke-opacity="1" points="
129.4604,67.6131
133.9715,65.3576
140.8838,58.4453
140.8838,106.6128
" />
<polyline fill="none" stroke="#ff5050" stroke-width="1.0" stroke-opacity="1" points="
121.4604,168.7704
153.5478,168.7704
130.6282,216.9380
" />
<polyline fill="none" stroke="#ff5050" stroke-width="1.0" stroke-opacity="1" points="
124.0939,234.9406
124.0939,232.6122
126.4222,228.1010
128.7506,225.7727
133.2617,223.4444
142.4296,223.4444
147.0863,225.7727
149.3418,228.1010
151.5974,232.6122
151.5974,237.2689
149.3418,241.7800
144.7579,248.6923
121.8383,271.6119
153.9258,271.6119
" />
<polyline fill="none" stroke="#ff5050" stroke-width="1.0" stroke-opacity="1" points="
127.2460,339.7053
130.9423,336.9404
135.7445,334.8304
139.6008,334.8304
143.7481,335.9945
147.1679,338.7594
148.7686,342.3975
149.4962,346.7631
148.3320,350.6922
144.4030,353.6754
140.1101,355.9309
136.3993,356.6585
133.6344,356.6585
137.1269,356.6585
140.7649,357.0951
144.4030,358.4776
148.3320,361.4608
150.1511,364.2256
150.8787,367.4271
150.6604,370.8469
149.9328,373.6118
147.6772,376.8060
144.4030,378.8651
140.3284,380.0074
135.9627,380.0074
131.8154,378.8651
127.7044,376.5731
125.1869,374.2666
" />
<polyline fill="none" stroke="#ff5050" stroke-width="1.0" stroke-opacity="1" points="
149.3458,443.7704
126.4262,443.7704
124.0979,464.4344
126.4262,462.1061
133.2657,459.8505
140.1779,459.8505
147.0902,462.1061
151.6014,466.7628
153.9297,473.6023
153.9297,478.1862
151.6014,485.0621
147.0902,489.6460
140.1779,491.9380
133.2657,491.9380
126.4262,489.6460
124.0979,487.3540
121.8423,482.7701
" />
<polyline fill="none" stroke="#ff5050" stroke-width="1.0" stroke-opacity="1" points="
176.4604,58.7705
208.5478,58.7705
185.6282,106.9380
" />
<polyline fill="none" stroke="#ff5050" stroke-width="1.0" stroke-opacity="1" points="
182.2460,119.7053
185.9423,116.9404
190.7445,114.8304
194.6008,114.8304
198.7481,115.9945
202.1679,118.7594
203.7686,122.3975
204.4962,126.7631
203.3320,130.6922
199.4030,133.6754
195.1101,135.9309
191.3993,136.6586
188.6344,136.6586
192.1269,136.6586
195.7649,137.0951
199.4030,138.4776
203.3320,141.4608
205.1511,144.2256
205.8787,147.4271
205.6604,150.8469
204.9328,153.6118
202.6772,156.8060
199.4030,158.8651
195.3284,160.0074
190.9627,160.0074
186.8154,158.8651
182.7044,156.5731
180.1869,154.2666
" />
<polyline fill="none" stroke="#ff5050" stroke-width="1.0" stroke-opacity="1" points="
204.3458,333.7704
181.4262,333.7704
179.0979,354.4344
181.4262,352.1061
188.2657,349.8505
195.1779,349.8505
202.0902,352.1061
206.6014,356.7628
208.9297,363.6023
208.9297,368.1862
206.6014,375.0621
202.0902,379.6460
195.1779,381.9380
188.2657,381.9380
181.4262,379.6460
179.0979,377.3540
176.8423,372.7701
" />
<polyline fill="none" stroke="#ff5050" stroke-width="1.0" stroke-opacity="1" points="
198.2343,436.5561
198.2343,388.3885
175.3147,420.5487
209.7304,420.5487
" />
<polyline fill="none" stroke="#ff5050" stroke-width="1.0" stroke-opacity="1" points="
205.2011,450.3008
202.9455,445.7169
196.0332,443.3885
191.5221,443.3885
184.6098,445.7169
180.0259,452.5564
177.6976,464.0526
177.6976,475.5487
180.0259,484.6802
184.6098,489.2641
191.5221,491.5561
193.7776,491.5561
200.6899,489.2641
205.2011,484.6802
207.5294,477.8043
207.5294,475.5487
205.2011,468.6365
200.6899,464.0526
193.7776,461.7242
191.5221,461.7242
184.6098,464.0526
180.0259,468.6365
177.6976,475.5487
" />
<polyline fill="none" stroke="#ff5050" stroke-width="1.0" stroke-opacity="1" points="
239.4604,12.6131
243.9715,10.3576
250.8838,3.4453
250.8838,51.6128
" />
<polyline fill="none" stroke="#ff5050" stroke-width="1.0" stroke-opacity="1" points="
262.6198,129.4686
260.3642,136.3809
255.7802,140.8921
248.9408,143.2204
246.6124,143.2204
239.7729,140.8921
235.1162,136.3809
232.8607,129.4686
232.8607,127.2131
235.1162,120.3008
239.7729,115.7169
246.6124,113.3885
248.9408,113.3885
255.7802,115.7169
260.3642,120.3008
262.6198,129.4686
262.6198,140.8921
260.3642,152.3882
255.7802,159.2641
248.9408,161.5561
244.2841,161.5561
237.4446,159.2641
235.1162,154.6802
" />
<polyline fill="none" stroke="#ff5050" stroke-width="1.0" stroke-opacity="1" points="
260.2011,175.3008
257.9455,170.7169
251.0332,168.3885
246.5221,168.3885
239.6098,170.7169
235.0259,177.5564
232.6976,189.0526
232.6976,200.5487
235.0259,209.6802
239.6098,214.2641
246.5221,216.5561
248.7776,216.5561
255.6899,214.2641
260.2011,209.6802
262.5294,202.8043
262.5294,200.5487
260.2011,193.6365
255.6899,189.0526
248.7776,186.7242
246.5221,186.7242
239.6098,189.0526
235.0259,193.6365
232.6976,200.5487
" />
<polyline fill="none" stroke="#ff5050" stroke-width="1.0" stroke-opacity="1" points="
237.2460,229.7053
240.9423,226.9404
245.7445,224.8304
249.6008,224.8304
253.7481,225.9945
257.1679,228.7594
258.7686,232.3975
259.4962,236.7631
258.3320,240.6922
254.4030,243.6754
250.1101,245.9309
246.3993,246.6586
243.6344,246.6586
247.1269,246.6586
250.7649,247.0951
254.4030,248.4776
258.3320,251.4608
260.1511,254.2256
260.8787,257.4271
260.6604,260.8469
259.9328,263.6118
257.6772,266.8060
254.4030,268.8651
250.3284,270.0074
245.9627,270.0074
241.8154,268.8651
237.7044,266.5731
235.1869,264.2666
" />
<polyline fill="none" stroke="#ff5050" stroke-width="1.0" stroke-opacity="1" points="
259.3458,278.7704
236.4262,278.7704
234.0979,299.4344
236.4262,297.1061
243.2657,294.8505
250.1779,294.8505
257.0902,297.1061
261.6014,301.7628
263.9297,308.6023
263.9297,313.1862
261.6014,320.0621
257.0902,324.6460
250.1779,326.9380
243.2657,326.9380
236.4262,324.6460
234.0979,322.3540
231.8423,317.7701
" />
<polyline fill="none" stroke="#ff5050" stroke-width="1.0" stroke-opacity="1" points="
231.4604,333.7704
263.5478,333.7704
240.6282,381.9380
" />
<polyline fill="none" stroke="#ff5050" stroke-width="1.0" stroke-opacity="1" points="
234.0939,454.9406
234.0939,452.6122
236.4222,448.1010
238.7506,445.7727
243.2617,443.4444
252.4296,443.4444
257.0862,445.7727
259.3418,448.1010
261.5974,452.6122
261.5974,457.2689
259.3418,461.7800
254.7579,468.6923
231.8383,491.6119
263.9258,491.6119
" />
<polyline fill="none" stroke="#ff5050" stroke-width="1.0" stroke-opacity="1" points="
315.2011,10.3008
312.9455,5.7169
306.0332,3.3886
301.5221,3.3886
294.6098,5.7169
290.0259,12.5564
287.6976,24.0526
287.6976,35.5487
290.0259,44.6802
294.6098,49.2641
301.5221,51.5561
303.7776,51.5561
310.6899,49.2641
315.2011,44.6802
317.5294,37.8043
317.5294,35.5487
315.2011,28.6365
310.6899,24.0526
303.7776,21.7242
301.5221,21.7242
294.6098,24.0526
290.0259,28.6365
287.6976,35.5487
" />
<polyline fill="none" stroke="#ff5050" stroke-width="1.0" stroke-opacity="1" points="
314.3458,58.7705
291.4262,58.7705
289.0979,79.4345
291.4262,77.1061
298.2657,74.8505
305.1779,74.8505
312.0902,77.1061
316.6014,81.7628
318.9297,88.6023
318.9297,93.1862
316.6014,100.0621
312.0902,104.6460
305.1779,106.9380
298.2657,106.9380
291.4262,104.6460
289.0979,102.3540
286.8423,97.7701
" />
<polyline fill="none" stroke="#ff5050" stroke-width="1.0" stroke-opacity="1" points="
289.0939,124.9405
289.0939,122.6122
291.4222,118.1010
293.7506,115.7727
298.2617,113.4444
307.4296,113.4444
312.0862,115.7727
314.3418,118.1010
316.5974,122.6122
316.5974,127.2689
314.3418,131.7800
309.7579,138.6923
286.8383,161.6119
318.9258,161.6119
" />
<polyline fill="none" stroke="#ff5050" stroke-width="1.0" stroke-opacity="1" points="
308.2343,216.5561
308.2343,168.3885
285.3147,200.5487
319.7304,200.5487
" />
<polyline fill="none" stroke="#ff5050" stroke-width="1.0" stroke-opacity="1" points="
298.3930,223.6431
291.5535,225.9715
289.2251,230.5554
289.2251,235.1393
291.5535,239.7232
296.1374,241.9788
305.3052,244.3072
312.2175,246.6355
316.7286,251.1467
319.0570,255.8033
319.0570,262.6428
316.7286,267.2267
314.4731,269.5187
307.5608,271.8107
298.3930,271.8107
291.5535,269.5187
289.2251,267.2267
286.9695,262.6428
286.9695,255.8033
289.2251,251.1467
293.8818,246.6355
300.7213,244.3072
309.8892,241.9788
314.4731,239.7232
316.7286,235.1393
316.7286,230.5554
314.4731,225.9715
307.5608,223.6431
298.3930,223.6431
" />
<polyline fill="none" stroke="#ff5050" stroke-width="1.0" stroke-opacity="1" points="
317.6198,404.4686
315.3642,411.3809
310.7802,415.8921
303.9408,418.2204
301.6124,418.2204
294.7729,415.8921
290.1162,411.3809
287.8607,404.4686
287.8607,402.2131
290.1162,395.3008
294.7729,390.7169
301.6124,388.3885
303.9408,388.3885
310.7802,390.7169
315.3642,395.3008
317.6198,404.4686
317.6198,415.8921
315.3642,427.3882
310.7802,434.2641
303.9408,436.5561
299.2841,436.5561
292.4446,434.2641
290.1162,429.6802
" />
<polyline fill="none" stroke="#ff5050" stroke-width="1.0" stroke-opacity="1" points="
353.3930,58.6432
346.5535,60.9715
344.2251,65.5554
344.2251,70.1393
346.5535,74.7232
351.1374,76.9788
360.3052,79.3072
367.2175,81.6355
371.7286,86.1467
374.0570,90.8033
374.0570,97.6428
371.7286,102.2267
369.4731,104.5187
362.5608,106.8107
353.3930,106.8107
346.5535,104.5187
344.2251,102.2267
341.9695,97.6428
341.9695,90.8033
344.2251,86.1467
348.8818,81.6355
355.7213,79.3072
364.8892,76.9788
369.4731,74.7232
371.7286,70.1393
371.7286,65.5554
369.4731,60.9715
362.5608,58.6432
353.3930,58.6432
" />
<polyline fill="none" stroke="#ff5050" stroke-width="1.0" stroke-opacity="1" points="
372.6198,184.4686
370.3642,191.3809
365.7802,195.8921
358.9408,198.2204
356.6124,198.2204
349.7729,195.8921
345.1162,191.3809
342.8607,184.4686
342.8607,182.2131
345.1162,175.3008
349.7729,170.7169
356.6124,168.3885
358.9408,168.3885
365.7802,170.7169
370.3642,175.3008
372.6198,184.4686
372.6198,195.8921
370.3642,207.3882
365.7802,214.2641
358.9408,216.5561
354.2841,216.5561
347.4446,214.2641
345.1162,209.6802
" />
<polyline fill="none" stroke="#ff5050" stroke-width="1.0" stroke-opacity="1" points="
349.4604,232.6131
353.9715,230.3576
360.8838,223.4453
360.8838,271.6128
" />
<polyline fill="none" stroke="#ff5050" stroke-width="1.0" stroke-opacity="1" points="
344.0939,289.9406
344.0939,287.6122
346.4222,283.1010
348.7506,280.7727
353.2617,278.4444
362.4296,278.4444
367.0862,280.7727
369.3418,283.1010
371.5974,287.6122
371.5974,292.2689
369.3418,296.7800
364.7579,303.6923
341.8383,326.6119
373.9258,326.6119
" />
<polyline fill="none" stroke="#ff5050" stroke-width="1.0" stroke-opacity="1" points="
370.2011,340.3008
367.9455,335.7169
361.0332,333.3885
356.5221,333.3885
349.6098,335.7169
345.0259,342.5564
342.6976,354.0526
342.6976,365.5487
345.0259,374.6802
349.6098,379.2641
356.5221,381.5561
358.7776,381.5561
365.6899,379.2641
370.2011,374.6802
372.5294,367.8043
372.5294,365.5487
370.2011,358.6365
365.6899,354.0526
358.7776,351.7242
356.5221,351.7242
349.6098,354.0526
345.0259,358.6365
342.6976,365.5487
" />
<polyline fill="none" stroke="#ff5050" stroke-width="1.0" stroke-opacity="1" points="
341.4604,443.7704
373.5478,443.7704
350.6282,491.9380
" />
<polyline fill="none" stroke="#ff5050" stroke-width="1.0" stroke-opacity="1" points="
427.6198,19.4686
425.3642,26.3809
420.7802,30.8921
413.9408,33.2204
411.6124,33.2204
404.7729,30.8921
400.1162,26.3809
397.8607,19.4686
397.8607,17.2131
400.1162,10.3008
404.7729,5.7169
411.6124,3.3886
413.9408,3.3886
420.7802,5.7169
425.3642,10.3008
427.6198,19.4686
427.6198,30.8921
425.3642,42.3882
420.7802,49.2641
413.9408,51.5561
409.2841,51.5561
402.4446,49.2641
400.1162,44.6802
" />
<polyline fill="none" stroke="#ff5050" stroke-width="1.0" stroke-opacity="1" points="
396.4604,113.7704
428.5478,113.7704
405.6282,161.9380
" />
<polyline fill="none" stroke="#ff5050" stroke-width="1.0" stroke-opacity="1" points="
402.2460,174.7053
405.9423,171.9404
410.7444,169.8304
414.6008,169.8304
418.7481,170.9945
422.1679,173.7594
423.7686,177.3975
424.4962,181.7631
423.3320,185.6922
419.4030,188.6754
415.1101,190.9309
411.3993,191.6586
408.6344,191.6586
412.1269,191.6586
415.7650,192.0951
419.4030,193.4776
423.3320,196.4608
425.1511,199.2256
425.8787,202.4271
425.6604,205.8469
424.9328,208.6118
422.6772,211.8060
419.4030,213.8651
415.3284,215.0074
410.9627,215.0074
406.8154,213.8651
402.7044,211.5731
400.1869,209.2666
" />
<polyline fill="none" stroke="#ff5050" stroke-width="1.0" stroke-opacity="1" points="
424.3458,223.7704
401.4262,223.7704
399.0979,244.4344
401.4262,242.1061
408.2657,239.8505
415.1779,239.8505
422.0902,242.1061
426.6014,246.7628
428.9297,253.6023
428.9297,258.1862
426.6014,265.0621
422.0902,269.6460
415.1779,271.9380
408.2657,271.9380
401.4262,269.6460
399.0979,267.3540
396.8423,262.7701
" />
<polyline fill="none" stroke="#ff5050" stroke-width="1.0" stroke-opacity="1" points="
418.2343,326.5561
418.2343,278.3885
395.3147,310.5487
429.7304,310.5487
" />
<polyline fill="none" stroke="#ff5050" stroke-width="1.0" stroke-opacity="1" points="
399.0939,344.9406
399.0939,342.6122
401.4222,338.1010
403.7506,335.7727
408.2617,333.4444
417.4296,333.4444
422.0862,335.7727
424.3418,338.1010
426.5974,342.6122
426.5974,347.2689
424.3418,351.7800
419.7579,358.6923
396.8383,381.6119
428.9258,381.6119
" />
<polyline fill="none" stroke="#ff5050" stroke-width="1.0" stroke-opacity="1" points="
408.3930,443.6432
401.5535,445.9715
399.2251,450.5554
399.2251,455.1393
401.5535,459.7232
406.1374,461.9788
415.3052,464.3072
422.2175,466.6355
426.7286,471.1467
429.0570,475.8033
429.0570,482.6428
426.7286,487.2267
424.4731,489.5187
417.5608,491.8107
408.3930,491.8107
401.5535,489.5187
399.2251,487.2267
396.9695,482.6428
396.9695,475.8033
399.2251,471.1467
403.8818,466.6355
410.7213,464.3072
419.8892,461.9788
424.4731,459.7232
426.7286,455.1393
426.7286,450.5554
424.4731,445.9715
417.5608,443.6432
408.3930,443.6432
" />
<polyline fill="none" stroke="#ff5050" stroke-width="1.0" stroke-opacity="1" points="
459.4604,122.6131
463.9715,120.3576
470.8838,113.4453
470.8838,161.6128
" />
<polyline fill="none" stroke="#ff5050" stroke-width="1.0" stroke-opacity="1" points="
463.3930,168.6431
456.5535,170.9715
454.2251,175.5554
454.2251,180.1393
456.5535,184.7232
461.1374,186.9788
470.3052,189.3072
477.2175,191.6355
481.7286,196.1467
484.0570,200.8033
484.0570,207.6428
481.7286,212.2267
479.4731,214.5187
472.5608,216.8107
463.3930,216.8107
456.5535,214.5187
454.2251,212.2267
451.9695,207.6428
451.9695,200.8033
454.2251,196.1467
458.8818,191.6355
465.7213,189.3072
474.8892,186.9788
479.4731,184.7232
481.7286,180.1393
481.7286,175.5554
479.4731,170.9715
472.5608,168.6431
463.3930,168.6431
" />
<polyline fill="none" stroke="#ff5050" stroke-width="1.0" stroke-opacity="1" points="
451.4604,223.7704
483.5478,223.7704
460.6282,271.9380
" />
<polyline fill="none" stroke="#ff5050" stroke-width="1.0" stroke-opacity="1" points="
480.2011,285.3008
477.9455,280.7169
471.0332,278.3885
466.5221,278.3885
459.6098,280.7169
455.0259,287.5564
452.6976,299.0526
452.6976,310.5487
455.0259,319.6802
459.6098,324.2641
466.5221,326.5561
468.7776,326.5561
475.6899,324.2641
480.2011,319.6802
482.5294,312.8043
482.5294,310.5487
480.2011,303.6365
475.6899,299.0526
468.7776,296.7242
466.5221,296.7242
459.6098,299.0526
455.0259,303.6365
452.6976,310.5487
" />
<polyline fill="none" stroke="#ff5050" stroke-width="1.0" stroke-opacity="1" points="
482.6198,349.4686
480.3642,356.3809
475.7802,360.8921
468.9408,363.2204
466.6124,363.2204
459.7729,360.8921
455.1162,356.3809
452.8607,349.4686
452.8607,347.2131
455.1162,340.3008
459.7729,335.7169
466.6124,333.3885
468.9408,333.3885
475.7802,335.7169
480.3642,340.3008
482.6198,349.4686
482.6198,360.8921
480.3642,372.3882
475.7802,379.2641
468.9408,381.5561
464.2841,381.5561
457.4446,379.2641
455.1162,374.6802
" />
<polyline fill="none" stroke="#ff5050" stroke-width="1.0" stroke-opacity="1" points="
457.2460,394.7053
460.9423,391.9404
465.7444,389.8304
469.6008,389.8304
473.7481,390.9945
477.1679,393.7594
478.7686,397.3975
479.4962,401.7631
478.3320,405.6922
474.4030,408.6754
470.1101,410.9309
466.3993,411.6585
463.6344,411.6585
467.1269,411.6585
470.7650,412.0951
474.4030,413.4776
478.3320,416.4608
480.1511,419.2256
480.8787,422.4271
480.6604,425.8469
479.9328,428.6118
477.6772,431.8060
474.4030,433.8651
470.3284,435.0074
465.9627,435.0074
461.8154,433.8651
457.7044,431.5731
455.1869,429.2666
" />
</g>
</svg>
