<?xml version="1.0" encoding="UTF-8" standalone="no"?>
<!-- Created with Inkscape (http://www.inkscape.org/) -->

<svg
   xmlns:dc="http://purl.org/dc/elements/1.1/"
   xmlns:cc="http://creativecommons.org/ns#"
   xmlns:rdf="http://www.w3.org/1999/02/22-rdf-syntax-ns#"
   xmlns:svg="http://www.w3.org/2000/svg"
   xmlns="http://www.w3.org/2000/svg"
   xmlns:sodipodi="http://sodipodi.sourceforge.net/DTD/sodipodi-0.dtd"
   xmlns:inkscape="http://www.inkscape.org/namespaces/inkscape"
   width="280.59064"
   height="278.88498"
   id="svg3097"
   version="1.1"
   inkscape:version="0.48.4 r9939"
   sodipodi:docname="egg_hilbert.gcode">
  <defs
     id="defs3099">
    <symbol
       id="*Paper_Space0" />
    <symbol
       id="*Paper_Space" />
    <symbol
       id="*Model_Space" />
    <marker
       orient="auto"
       id="DistanceX"
       style="overflow:visible"
       refX="0"
       refY="0">
      <path
         id="path3184"
         d="M 3,-3 -3,3 M 0,-5 0,5"
         style="stroke:#000000;stroke-width:0.5"
         inkscape:connector-curvature="0" />
    </marker>
    <marker
       refY="0"
       refX="0"
       style="overflow:visible"
       id="DistanceX-4"
       orient="auto">
      <path
         inkscape:connector-curvature="0"
         style="stroke:#000000;stroke-width:0.5"
         d="M 3,-3 -3,3 M 0,-5 0,5"
         id="path3184-8" />
    </marker>
    <symbol
       id="*Model_Space-9" />
    <symbol
       id="*Paper_Space-0" />
    <symbol
       id="*Paper_Space0-4" />
    <marker
       refY="0"
       refX="0"
       style="overflow:visible"
       id="DistanceX-42"
       orient="auto">
      <path
         inkscape:connector-curvature="0"
         style="stroke:#000000;stroke-width:0.5"
         d="M 3,-3 -3,3 M 0,-5 0,5"
         id="path3184-3" />
    </marker>
    <symbol
       id="*Model_Space-1" />
    <symbol
       id="*Paper_Space-6" />
    <symbol
       id="*Paper_Space0-7" />
  </defs>
  <sodipodi:namedview
     id="base"
     pagecolor="#ffffff"
     bordercolor="#666666"
     borderopacity="1.0"
     inkscape:pageopacity="0.0"
     inkscape:pageshadow="2"
     inkscape:zoom="1.7569967"
     inkscape:cx="140.29532"
     inkscape:cy="139.44249"
     inkscape:document-units="px"
     inkscape:current-layer="layer1-5"
     showgrid="false"
     inkscape:window-width="1280"
     inkscape:window-height="737"
     inkscape:window-x="-8"
     inkscape:window-y="-8"
     inkscape:window-maximized="1"
     fit-margin-top="0"
     fit-margin-left="0"
     fit-margin-right="0"
     fit-margin-bottom="0"
     showguides="true"
     inkscape:guide-bbox="true" />
  <metadata
     id="metadata3102">
    <rdf:RDF>
      <cc:Work
         rdf:about="">
        <dc:format>image/svg+xml</dc:format>
        <dc:type
           rdf:resource="http://purl.org/dc/dcmitype/StillImage" />
        <dc:title></dc:title>
      </cc:Work>
    </rdf:RDF>
  </metadata>
  <g
     inkscape:label="Layer 1"
     inkscape:groupmode="layer"
     id="layer1"
     transform="translate(-6.4228571,-27.264877)">
    <g
       inkscape:label="1- BASE"
       id="layer1-5"
       transform="matrix(0,-1.6731116,0.5499836,0,-576.53063,296.62415)">
      <path
         id="path3269"
         style="fill:none;stroke:#000000;stroke-width:0.54674715"
         d="m -0.12421079,1080.1306 6.44747269,0 0,14.4827 -6.44747269,0 0,14.4828 0,14.4829 6.44747269,0 0,-14.4829 4.8356061,0 0,14.4829 4.8356,0 0,-14.4829 0,-14.4828 -4.8356,0 0,-14.4827 4.8356,0 4.835606,0 0,14.4827 4.835605,0 0,-14.4827 4.835601,0 4.835613,0 0,14.4827 -4.835613,0 0,14.4828 4.835613,0 0,14.4829 -4.835613,0 -4.835601,0 0,-14.4829 -4.835605,0 0,14.4829 0,14.4827 0,14.4828 4.835605,0 0,-14.4828 4.835601,0 4.835613,0 0,14.4828 -4.835613,0 0,14.4829 4.835613,0 0,19.3104 -4.835613,0 -4.835601,0 0,-19.3104 -4.835605,0 0,19.3104 -4.835606,0 -4.8356,0 0,-19.3104 4.8356,0 0,-14.4829 0,-14.4828 -4.8356,0 0,14.4828 -4.8356061,0 0,-14.4828 -6.44747269,0 0,14.4828 0,14.4829 6.44747269,0 0,19.3104 -6.44747269,0 0,14.4828 0,14.4828 6.44747269,0 0,-14.4828 4.8356061,0 4.8356,0 0,14.4828 -4.8356,0 0,14.4828 4.8356,0 0,14.4828 -4.8356,0 -4.8356061,0 0,-14.4828 -6.44747269,0 0,14.4828 0,14.4828 6.44747269,0 0,14.4828 -6.44747269,0 0,14.4828 0,19.3104 6.44747269,0 0,-19.3104 4.8356061,0 0,19.3104 4.8356,0 0,-19.3104 0,-14.4828 -4.8356,0 0,-14.4828 4.8356,0 4.835606,0 4.835605,0 0,14.4828 -4.835605,0 0,14.4828 0,19.3104 4.835605,0 0,-19.3104 4.835601,0 0,19.3104 4.835613,0 0,-19.3104 0,-14.4828 -4.835613,0 0,-14.4828 4.835613,0 0,-14.4828 0,-14.4828 -4.835613,0 0,14.4828 -4.835601,0 -4.835605,0 0,-14.4828 4.835605,0 0,-14.4828 -4.835605,0 0,-14.4828 4.835605,0 4.835601,0 0,14.4828 4.835613,0 0,-14.4828 4.835601,0 0,14.4828 6.447467,0 0,-14.4828 4.835613,0 4.835601,0 0,14.4828 -4.835601,0 0,14.4828 4.835601,0 0,14.4828 -4.835601,0 -4.835613,0 0,-14.4828 -6.447467,0 0,14.4828 0,14.4828 6.447467,0 0,14.4828 -6.447467,0 0,14.4828 0,19.3104 6.447467,0 0,-19.3104 4.835613,0 0,19.3104 4.835601,0 0,-19.3104 0,-14.4828 -4.835601,0 0,-14.4828 4.835601,0 4.835601,0 4.835601,0 0,14.4828 -4.835601,0 0,14.4828 0,19.3104 4.835601,0 0,-19.3104 4.835613,0 0,19.3104 4.835601,0 0,-19.3104 0,-14.4828 -4.835601,0 0,-14.4828 4.835601,0 0,-14.4828 0,-14.4828 -4.835601,0 0,14.4828 -4.835613,0 -4.835601,0 0,-14.4828 4.835601,0 0,-14.4828 -4.835601,0 0,-14.4828 4.835601,0 4.835613,0 0,14.4828 4.835601,0 0,-14.4828 0,-14.4828 -4.835601,0 0,-19.3104 4.835601,0 0,-14.4829 0,-14.4828 -4.835601,0 0,14.4828 -4.835613,0 0,-14.4828 -4.835601,0 0,14.4828 0,14.4829 4.835601,0 0,19.3104 -4.835601,0 -4.835601,0 0,-19.3104 -4.835601,0 0,19.3104 -4.835613,0 -6.447467,0 0,-19.3104 6.447467,0 0,-14.4829 -6.447467,0 0,-14.4828 6.447467,0 4.835613,0 0,14.4828 4.835601,0 0,-14.4828 0,-14.4827 0,-14.4829 -4.835601,0 0,14.4829 -4.835613,0 -6.447467,0 0,-14.4829 6.447467,0 0,-14.4828 -6.447467,0 0,-14.4827 6.447467,0 4.835613,0 0,14.4827 4.835601,0 0,-14.4827 4.835601,0 4.835601,0 0,14.4827 -4.835601,0 0,14.4828 0,14.4829 4.835601,0 0,-14.4829 4.835613,0 0,14.4829 4.835601,0 0,-14.4829 0,-14.4828 -4.835601,0 0,-14.4827 4.835601,0 4.835601,0 0,14.4827 6.447468,0 0,-14.4827 4.835613,0 4.835601,0 0,14.4827 -4.835601,0 0,14.4828 4.835601,0 0,14.4829 -4.835601,0 -4.835613,0 0,-14.4829 -6.447468,0 0,14.4829 0,14.4827 6.447468,0 0,14.4828 -6.447468,0 0,14.4829 0,19.3104 6.447468,0 0,-19.3104 4.835613,0 0,19.3104 4.835601,0 0,-19.3104 0,-14.4829 -4.835601,0 0,-14.4828 4.835601,0 4.835616,0 4.8356,0 0,14.4828 -4.8356,0 0,14.4829 0,19.3104 4.8356,0 0,-19.3104 4.8356,0 0,19.3104 4.8356,0 0,-19.3104 0,-14.4829 -4.8356,0 0,-14.4828 4.8356,0 0,-14.4827 0,-14.4829 -4.8356,0 0,14.4829 -4.8356,0 -4.8356,0 0,-14.4829 4.8356,0 0,-14.4828 -4.8356,0 0,-14.4827 4.8356,0 4.8356,0 0,14.4827 4.8356,0 0,-14.4827 4.83561,0 6.44747,0 0,14.4827 -6.44747,0 0,14.4828 0,14.4829 6.44747,0 0,-14.4829 4.8356,0 0,14.4829 4.83561,0 0,-14.4829 0,-14.4828 -4.83561,0 0,-14.4827 4.83561,0 4.8356,0 0,14.4827 4.8356,0 0,-14.4827 4.83561,0 4.83561,0 0,14.4827 -4.83561,0 0,14.4828 4.83561,0 0,14.4829 -4.83561,0 -4.83561,0 0,-14.4829 -4.8356,0 0,14.4829 0,14.4827 0,14.4828 4.8356,0 0,-14.4828 4.83561,0 4.83561,0 0,14.4828 -4.83561,0 0,14.4829 4.83561,0 0,19.3104 -4.83561,0 -4.83561,0 0,-19.3104 -4.8356,0 0,19.3104 -4.8356,0 -4.83561,0 0,-19.3104 4.83561,0 0,-14.4829 0,-14.4828 -4.83561,0 0,14.4828 -4.8356,0 0,-14.4828 -6.44747,0 0,14.4828 0,14.4829 6.44747,0 0,19.3104 -6.44747,0 0,14.4828 6.44747,0 0,14.4828 -6.44747,0 0,14.4828 0,14.4828 6.44747,0 0,-14.4828 4.8356,0 0,14.4828 4.83561,0 0,-14.4828 0,-14.4828 -4.83561,0 0,-14.4828 4.83561,0 4.8356,0 0,14.4828 4.8356,0 0,-14.4828 4.83561,0 4.83561,0 0,14.4828 -4.83561,0 0,14.4828 4.83561,0 0,14.4828 -4.83561,0 -4.83561,0 0,-14.4828 -4.8356,0 0,14.4828 0,14.4828 0,14.4828 4.8356,0 0,-14.4828 4.83561,0 4.83561,0 0,14.4828 -4.83561,0 0,14.4828 4.83561,0 0,19.3104 -4.83561,0 -4.83561,0 0,-19.3104 -4.8356,0 0,19.3104 -4.8356,0 -4.83561,0 0,-19.3104 4.83561,0 0,-14.4828 0,-14.4828 -4.83561,0 0,14.4828 -4.8356,0 0,-14.4828 -6.44747,0 0,14.4828 0,14.4828 6.44747,0 0,19.3104 -6.44747,0 -4.83561,0 0,-19.3104 -4.8356,0 0,19.3104 -4.8356,0 -4.8356,0 0,-19.3104 4.8356,0 0,-14.4828 -4.8356,0 0,-14.4828 4.8356,0 4.8356,0 0,14.4828 4.8356,0 0,-14.4828 0,-14.4828 -4.8356,0 0,-14.4828 4.8356,0 0,-14.4828 0,-14.4828 -4.8356,0 0,14.4828 -4.8356,0 0,-14.4828 -4.8356,0 0,14.4828 0,14.4828 4.8356,0 0,14.4828 -4.8356,0 -4.835616,0 -4.835601,0 0,-14.4828 4.835601,0 0,-14.4828 0,-14.4828 -4.835601,0 0,14.4828 -4.835613,0 0,-14.4828 -6.447468,0 0,14.4828 0,14.4828 6.447468,0 0,14.4828 -6.447468,0 0,14.4828 0,14.4828 6.447468,0 0,-14.4828 4.835613,0 4.835601,0 0,14.4828 -4.835601,0 0,14.4828 4.835601,0 0,19.3104 -4.835601,0 -4.835613,0 0,-19.3104 -6.447468,0 0,19.3104 0,14.4828 0,14.4829 6.447468,0 0,-14.4829 4.835613,0 4.835601,0 0,14.4829 -4.835601,0 0,14.4828 4.835601,0 0,14.4827 -4.835601,0 -4.835613,0 0,-14.4827 -6.447468,0 0,14.4827 0,14.4829 6.447468,0 0,14.4828 -6.447468,0 0,14.4827 0,19.3105 6.447468,0 0,-19.3105 4.835613,0 0,19.3105 4.835601,0 0,-19.3105 0,-14.4827 -4.835601,0 0,-14.4828 4.835601,0 4.835616,0 4.8356,0 0,14.4828 -4.8356,0 0,14.4827 0,19.3105 4.8356,0 0,-19.3105 4.8356,0 0,19.3105 4.8356,0 0,-19.3105 0,-14.4827 -4.8356,0 0,-14.4828 4.8356,0 0,-14.4829 0,-14.4827 -4.8356,0 0,14.4827 -4.8356,0 -4.8356,0 0,-14.4827 4.8356,0 0,-14.4828 -4.8356,0 0,-14.4829 4.8356,0 4.8356,0 0,14.4829 4.8356,0 0,-14.4829 4.83561,0 6.44747,0 0,14.4829 -6.44747,0 0,14.4828 0,14.4827 6.44747,0 0,-14.4827 4.8356,0 0,14.4827 4.83561,0 0,-14.4827 0,-14.4828 -4.83561,0 0,-14.4829 4.83561,0 4.8356,0 0,14.4829 4.8356,0 0,-14.4829 4.83561,0 4.83561,0 0,14.4829 -4.83561,0 0,14.4828 4.83561,0 0,14.4827 -4.83561,0 -4.83561,0 0,-14.4827 -4.8356,0 0,14.4827 0,14.4829 0,14.4828 4.8356,0 0,-14.4828 4.83561,0 4.83561,0 0,14.4828 -4.83561,0 0,14.4827 4.83561,0 0,19.3105 -4.83561,0 -4.83561,0 0,-19.3105 -4.8356,0 0,19.3105 -4.8356,0 -4.83561,0 0,-19.3105 4.83561,0 0,-14.4827 0,-14.4828 -4.83561,0 0,14.4828 -4.8356,0 0,-14.4828 -6.44747,0 0,14.4828 0,14.4827 6.44747,0 0,19.3105 -6.44747,0 0,14.4827 6.44747,0 0,14.4829 -6.44747,0 0,14.4828 0,14.4829 6.44747,0 0,-14.4829 4.8356,0 0,14.4829 4.83561,0 0,-14.4829 0,-14.4828 -4.83561,0 0,-14.4829 4.83561,0 4.8356,0 0,14.4829 4.8356,0 0,-14.4829 4.83561,0 4.83561,0 0,14.4829 -4.83561,0 0,14.4828 4.83561,0 0,14.4829 -4.83561,0 -4.83561,0 0,-14.4829 -4.8356,0 0,14.4829 0,14.4828 0,14.4828 4.8356,0 0,-14.4828 4.83561,0 4.83561,0 0,14.4828 -4.83561,0 0,14.4828 4.83561,0 0,19.3103 -4.83561,0 -4.83561,0 0,-19.3103 -4.8356,0 0,19.3103 -4.8356,0 -4.83561,0 0,-19.3103 4.83561,0 0,-14.4828 0,-14.4828 -4.83561,0 0,14.4828 -4.8356,0 0,-14.4828 -6.44747,0 0,14.4828 0,14.4828 6.44747,0 0,19.3103 -6.44747,0 -4.83561,0 0,-19.3103 -4.8356,0 0,19.3103 -4.8356,0 -4.8356,0 0,-19.3103 4.8356,0 0,-14.4828 -4.8356,0 0,-14.4828 4.8356,0 4.8356,0 0,14.4828 4.8356,0 0,-14.4828 0,-14.4828 -4.8356,0 0,-14.4829 4.8356,0 0,-14.4828 0,-14.4829 -4.8356,0 0,14.4829 -4.8356,0 0,-14.4829 -4.8356,0 0,14.4829 0,14.4828 4.8356,0 0,14.4829 -4.8356,0 -4.835616,0 -4.835601,0 0,-14.4829 4.835601,0 0,-14.4828 0,-14.4829 -4.835601,0 0,14.4829 -4.835613,0 0,-14.4829 -6.447468,0 0,14.4829 0,14.4828 6.447468,0 0,14.4829 -6.447468,0 0,14.4828 0,14.4828 6.447468,0 0,-14.4828 4.835613,0 4.835601,0 0,14.4828 -4.835601,0 0,14.4828 4.835601,0 0,19.3103 -4.835601,0 -4.835613,0 0,-19.3103 -6.447468,0 0,19.3103 -4.835601,0 -4.835601,0 0,-19.3103 4.835601,0 0,-14.4828 0,-14.4828 -4.835601,0 0,14.4828 -4.835613,0 0,-14.4828 -4.835601,0 0,14.4828 0,14.4828 4.835601,0 0,19.3103 -4.835601,0 -4.835601,0 0,-19.3103 -4.835601,0 0,19.3103 -4.835613,0 -6.447467,0 0,-19.3103 6.447467,0 0,-14.4828 -6.447467,0 0,-14.4828 6.447467,0 4.835613,0 0,14.4828 4.835601,0 0,-14.4828 0,-14.4828 0,-14.4829 -4.835601,0 0,14.4829 -4.835613,0 -6.447467,0 0,-14.4829 6.447467,0 0,-14.4828 -6.447467,0 0,-14.4829 6.447467,0 4.835613,0 0,14.4829 4.835601,0 0,-14.4829 4.835601,0 4.835601,0 0,14.4829 -4.835601,0 0,14.4828 0,14.4829 4.835601,0 0,-14.4829 4.835613,0 0,14.4829 4.835601,0 0,-14.4829 0,-14.4828 -4.835601,0 0,-14.4829 4.835601,0 0,-14.4827 0,-19.3105 -4.835601,0 0,19.3105 -4.835613,0 -4.835601,0 0,-19.3105 4.835601,0 0,-14.4827 -4.835601,0 0,-14.4828 4.835601,0 4.835613,0 0,14.4828 4.835601,0 0,-14.4828 0,-14.4829 -4.835601,0 0,-14.4827 4.835601,0 0,-14.4828 0,-14.4829 -4.835601,0 0,14.4829 -4.835613,0 0,-14.4829 -4.835601,0 0,14.4829 0,14.4828 4.835601,0 0,14.4827 -4.835601,0 -4.835601,0 -4.835601,0 0,-14.4827 4.835601,0 0,-14.4828 0,-14.4829 -4.835601,0 0,14.4829 -4.835613,0 0,-14.4829 -6.447467,0 0,14.4829 0,14.4828 6.447467,0 0,14.4827 -6.447467,0 0,14.4829 0,14.4828 6.447467,0 0,-14.4828 4.835613,0 4.835601,0 0,14.4828 -4.835601,0 0,14.4827 4.835601,0 0,19.3105 -4.835601,0 -4.835613,0 0,-19.3105 -6.447467,0 0,19.3105 -4.835601,0 0,-19.3105 -4.835613,0 0,19.3105 -4.835601,0 -4.835605,0 0,-19.3105 4.835605,0 0,-14.4827 -4.835605,0 0,-14.4828 4.835605,0 4.835601,0 0,14.4828 4.835613,0 0,-14.4828 0,-14.4829 -4.835613,0 0,-14.4827 4.835613,0 0,-14.4828 0,-14.4829 -4.835613,0 0,14.4829 -4.835601,0 0,-14.4829 -4.835605,0 0,14.4829 0,14.4828 4.835605,0 0,14.4827 -4.835605,0 -4.835606,0 -4.8356,0 0,-14.4827 4.8356,0 0,-14.4828 0,-14.4829 -4.8356,0 0,14.4829 -4.8356061,0 0,-14.4829 -6.44747269,0 0,14.4829 0,14.4828 6.44747269,0 0,14.4827 -6.44747269,0 0,14.4829 0,14.4828 6.44747269,0 0,-14.4828 4.8356061,0 4.8356,0 0,14.4828 -4.8356,0 0,14.4827 4.8356,0 0,19.3105 -4.8356,0 -4.8356061,0 0,-19.3105 -6.44747269,0 0,19.3105 0,14.4827 6.44747269,0 0,14.4829 -6.44747269,0 0,14.4828 0,14.4829 6.44747269,0 0,-14.4829 4.8356061,0 0,14.4829 4.8356,0 0,-14.4829 0,-14.4828 -4.8356,0 0,-14.4829 4.8356,0 4.835606,0 0,14.4829 4.835605,0 0,-14.4829 4.835601,0 4.835613,0 0,14.4829 -4.835613,0 0,14.4828 4.835613,0 0,14.4829 -4.835613,0 -4.835601,0 0,-14.4829 -4.835605,0 0,14.4829 0,14.4828 0,14.4828 4.835605,0 0,-14.4828 4.835601,0 4.835613,0 0,14.4828 -4.835613,0 0,14.4828 4.835613,0 0,19.3103 -4.835613,0 -4.835601,0 0,-19.3103 -4.835605,0 0,19.3103 -4.835606,0 -4.8356,0 0,-19.3103 4.8356,0 0,-14.4828 0,-14.4828 -4.8356,0 0,14.4828 -4.8356061,0 0,-14.4828 -6.44747269,0 0,14.4828 0,14.4828 6.44747269,0 0,19.3103 -6.44747269,0"
         inkscape:connector-curvature="0" />
    </g>
    <g
       id="layer2"
       inkscape:label="2- PRIMARY OUTLINE"
       transform="matrix(0,-1.6731116,0.5499836,0,72.421268,305.86889)" />
    <g
       id="layer3"
       inkscape:label="3- PRIMARY TONE"
       transform="matrix(0,-1.6731116,0.5499836,0,72.421268,305.86889)" />
  </g>
</svg>
