<?xml version="1.0" standalone="no"?>
<!DOCTYPE svg PUBLIC "-//W3C//DTD SVG 20010904//EN"
 "http://www.w3.org/TR/2001/REC-SVG-20010904/DTD/svg10.dtd">
<svg version="1.0" xmlns="http://www.w3.org/2000/svg"
 width="580.000000pt" height="580.000000pt" viewBox="0 0 580.000000 580.000000"
 preserveAspectRatio="xMidYMid meet">
<metadata>
Created by potrace 1.14, written by Peter Selinger 2001-2017
</metadata>
<g transform="translate(0.000000,580.000000) scale(0.100000,-0.100000)"
fill="#000000" stroke="none">
<path d="M2388 5375 c-2 -2 -28 -6 -58 -9 -143 -13 -299 -39 -340 -58 -25 -11
-57 -21 -72 -23 -15 -2 -47 -16 -70 -30 -24 -14 -52 -31 -63 -38 -11 -7 -37
-25 -59 -41 -21 -16 -65 -47 -97 -67 -32 -21 -92 -71 -132 -111 -68 -68 -88
-99 -140 -218 -9 -19 -29 -65 -46 -102 -16 -37 -35 -85 -42 -108 -7 -22 -15
-40 -18 -40 -4 0 -7 -10 -8 -22 -1 -11 -6 -24 -11 -27 -4 -3 -25 -69 -46 -146
-42 -154 -51 -185 -101 -325 -32 -92 -99 -333 -109 -395 -2 -16 -9 -55 -15
-85 -5 -30 -13 -75 -16 -100 -13 -109 -23 -169 -29 -178 -3 -6 -13 -48 -22
-94 -9 -45 -17 -87 -18 -93 -6 -28 -48 -213 -53 -235 -3 -14 -7 -31 -9 -39 -9
-46 -18 -75 -52 -161 -20 -52 -40 -97 -44 -98 -5 -2 -5 -8 -2 -14 4 -6 2 -13
-4 -17 -6 -4 -12 -22 -14 -41 -1 -19 -5 -37 -9 -40 -11 -8 -14 -94 -4 -109 5
-9 3 -18 -7 -25 -9 -7 -18 -37 -23 -81 -4 -39 -12 -76 -17 -82 -6 -7 -8 -13
-5 -13 3 0 -1 -17 -10 -38 -26 -62 -45 -145 -39 -174 4 -19 0 -33 -13 -45 -25
-24 -57 -104 -71 -175 -6 -32 -15 -60 -19 -63 -5 -2 -11 -37 -15 -77 -5 -57
-2 -86 13 -133 19 -60 19 -60 -1 -65 -27 -7 -59 -88 -57 -143 1 -23 -7 -64
-19 -92 -35 -84 -57 -194 -44 -216 10 -16 9 -19 -4 -19 -14 0 -16 -7 -11 -41
5 -35 2 -42 -14 -46 -21 -6 -25 -19 -8 -25 6 -2 0 -19 -15 -40 -13 -20 -22
-39 -19 -41 2 -3 -3 -19 -12 -36 -18 -35 -13 -51 15 -51 16 0 18 5 14 29 -5
26 9 51 22 38 7 -7 16 -69 14 -107 -1 -48 -15 -58 -33 -24 l-15 29 -11 -28
c-6 -15 -17 -27 -26 -27 -15 0 -21 -21 -9 -32 3 -4 18 1 34 10 28 16 30 16 50
-5 19 -21 19 -25 6 -58 -8 -19 -21 -38 -29 -40 -11 -5 -16 -47 -7 -65 1 -3 2
-13 1 -22 -1 -10 5 -28 13 -40 16 -22 16 -21 16 22 1 63 51 201 79 214 15 6
26 5 39 -5 9 -8 28 -21 42 -28 14 -7 39 -24 56 -39 31 -27 31 -28 24 -92 -8
-68 -41 -140 -65 -140 -17 0 -30 -95 -21 -146 7 -35 8 -35 27 -18 17 16 19 16
19 1 0 -25 17 -21 25 6 l7 22 7 -25 c6 -23 8 -21 19 21 11 43 13 45 42 41 36
-5 36 -6 9 -44 -25 -34 -19 -46 16 -30 15 7 25 8 25 2 0 -6 33 -10 75 -10 74
0 75 1 65 21 -7 13 -10 49 -6 92 3 40 5 109 5 154 0 45 5 84 11 88 5 3 10 27
10 53 1 42 5 50 37 75 20 15 38 26 39 24 3 -3 -11 -107 -23 -172 -4 -27 -15
-187 -17 -275 -1 -19 -8 -40 -16 -47 -12 -10 -3 -12 46 -13 l61 0 7 153 c10
214 21 336 34 377 7 19 12 65 12 102 0 45 12 110 36 200 47 178 43 168 59 138
8 -14 14 -19 15 -12 0 7 -5 23 -11 35 -14 25 -14 575 0 640 5 23 9 143 10 267
1 242 8 518 17 668 6 87 8 95 36 121 29 27 29 29 34 157 8 219 10 234 32 220
18 -11 22 -91 11 -226 -6 -74 -11 -144 -10 -155 0 -10 -4 -24 -9 -30 -5 -6 -8
-26 -7 -45 1 -41 -9 -141 -23 -208 -5 -26 -11 -137 -13 -247 l-5 -201 34 -37
c19 -20 36 -37 39 -37 3 0 3 18 1 41 -3 28 0 42 10 46 8 3 14 11 14 19 0 8 6
14 13 15 6 0 3 4 -8 9 -15 7 -16 9 -4 9 9 1 21 -5 27 -11 17 -23 30 -189 25
-333 -2 -77 -6 -185 -7 -240 -2 -55 -4 -108 -5 -117 -1 -13 -10 -18 -31 -18
-22 0 -28 4 -24 15 4 8 1 15 -4 15 -6 0 -14 -9 -17 -20 -3 -11 -13 -20 -21
-20 -14 0 -16 14 -17 85 0 27 -11 44 -28 45 -11 0 -20 -70 -29 -240 -5 -91
-15 -194 -24 -230 -8 -36 -15 -99 -16 -140 0 -41 -5 -92 -10 -112 -6 -20 -12
-119 -14 -220 -2 -103 -11 -231 -21 -292 -16 -103 -16 -111 1 -148 21 -48 30
-44 9 4 -12 30 -13 50 -3 122 6 47 15 81 19 74 9 -14 28 54 32 110 1 22 5 38
9 36 4 -3 10 12 14 31 4 26 11 35 23 33 21 -4 31 -68 21 -143 -5 -33 -8 -115
-7 -183 l1 -122 1283 0 c1379 0 1339 -1 1217 49 -41 17 -68 39 -107 84 -54 63
-245 252 -278 275 -10 7 -27 15 -38 17 -10 2 -44 21 -75 42 -32 21 -60 38 -64
38 -19 1 -143 70 -163 91 -12 13 -30 24 -40 24 -10 0 -21 4 -24 10 -3 5 -16
10 -29 10 -12 0 -48 22 -79 48 -46 39 -78 55 -155 81 -53 17 -104 31 -113 31
-8 0 -19 4 -25 9 -18 17 -140 50 -184 50 -24 0 -46 5 -48 10 -2 6 -11 11 -21
11 -9 0 -26 7 -37 15 -12 8 -24 12 -26 10 -3 -3 -17 6 -32 20 -16 14 -33 24
-40 22 -6 -3 -18 1 -26 9 -8 7 -35 15 -60 19 -69 10 -73 14 -49 62 l20 41 142
6 c192 9 194 8 252 -8 94 -26 180 -47 200 -49 11 -1 25 -5 30 -9 6 -3 34 -9
62 -13 29 -3 67 -11 85 -16 18 -6 46 -13 62 -15 63 -9 116 -27 221 -77 61 -29
112 -55 115 -58 9 -12 89 -49 105 -49 8 0 15 -4 15 -9 0 -5 9 -12 19 -16 11
-3 22 -19 26 -34 6 -27 39 -51 69 -51 14 0 136 235 136 262 0 9 13 30 30 46
34 35 111 48 175 31 48 -13 90 -20 127 -20 15 0 30 -4 32 -8 5 -7 105 -6 181
2 37 4 82 21 95 36 3 3 31 18 63 33 31 15 57 32 57 38 0 5 9 10 20 10 11 0 20
7 20 15 0 9 16 23 35 32 25 12 35 23 35 40 0 13 -4 23 -8 23 -14 0 -53 -46
-45 -54 4 -4 0 -4 -10 0 -11 4 -19 0 -23 -10 -6 -17 -63 -22 -121 -10 -30 6
-30 7 -29 65 1 34 7 64 15 71 11 11 12 9 7 -12 -18 -75 -18 -77 -4 -55 7 11
13 45 13 75 l0 54 43 9 c23 4 40 12 37 18 -4 5 1 9 9 9 18 0 112 44 140 65 29
22 67 107 54 122 -8 10 -3 13 24 13 29 0 35 5 46 32 23 59 93 277 92 284 -1 4
4 10 11 15 8 5 14 38 15 98 2 60 8 100 19 122 11 20 15 46 13 73 -3 22 4 113
15 201 11 88 20 176 20 195 0 81 -16 217 -29 237 -23 37 -19 297 6 374 11 37
-12 208 -33 240 -36 55 -76 199 -82 303 -6 96 -38 216 -57 216 -5 0 -8 6 -8
14 0 7 -11 30 -25 50 -14 21 -23 41 -20 46 3 5 1 11 -5 15 -5 3 -20 27 -31 53
-12 26 -45 74 -74 107 -28 33 -71 88 -94 123 -24 34 -53 68 -65 74 -11 6 -61
51 -109 99 -65 64 -109 97 -165 126 -41 21 -86 44 -98 51 -12 7 -35 14 -51 16
-15 1 -41 10 -58 18 -16 8 -43 18 -60 22 -16 4 -43 14 -60 21 -16 7 -72 23
-124 34 -88 20 -98 25 -148 72 -29 27 -70 57 -90 66 -53 22 -138 43 -174 43
-37 0 -116 44 -124 69 -6 20 -111 122 -162 159 -28 20 -170 95 -183 97 -3 0
-10 3 -15 7 -6 3 -46 9 -90 13 -44 4 -90 8 -102 10 -12 2 -23 2 -25 0z m99
-71 c-3 -3 -12 -4 -19 -1 -8 3 -5 6 6 6 11 1 17 -2 13 -5z m-252 -58 c17 -2
60 -18 96 -35 36 -17 73 -31 82 -31 9 0 19 -9 22 -21 9 -28 -21 -59 -57 -59
-15 0 -28 -4 -28 -10 0 -5 -24 -25 -52 -43 -29 -19 -59 -41 -66 -50 -7 -9 -28
-19 -45 -23 -18 -4 -47 -18 -65 -32 -31 -23 -41 -25 -149 -26 -83 -1 -118 -5
-121 -14 -5 -15 -52 -16 -52 -1 0 7 -11 9 -30 5 -37 -7 -46 8 -30 50 13 34 50
75 61 69 4 -3 14 14 22 38 38 113 102 167 197 167 32 0 57 6 66 15 14 13 40
14 149 1z m333 -32 c34 -14 71 -49 72 -66 0 -21 -44 -3 -103 42 -78 59 -92 77
-43 56 20 -9 53 -23 74 -32z m206 -139 c11 -8 18 -16 15 -18 -2 -2 -25 -18
-51 -35 -40 -27 -50 -31 -71 -21 -21 9 -28 7 -55 -20 -31 -31 -47 -36 -76 -25
-20 8 -22 89 -3 101 6 4 57 13 112 19 55 6 102 12 105 12 3 1 14 -5 24 -13z
m-281 -33 c3 -4 -6 -20 -20 -36 -21 -25 -28 -28 -44 -18 -29 18 -37 14 -11 -6
l23 -18 -30 -32 c-33 -38 -40 -34 -34 24 4 37 10 44 51 68 51 28 58 30 65 18z
m333 -6 c33 -17 248 -74 297 -79 43 -5 139 -47 135 -59 -4 -11 -39 -15 -222
-23 -118 -5 -132 -7 -162 -30 -18 -14 -36 -25 -41 -25 -18 0 -192 -55 -238
-75 -27 -13 -57 -26 -65 -29 -8 -3 -22 -10 -30 -15 -8 -4 -41 -21 -74 -37 -32
-16 -61 -34 -63 -41 -3 -7 -12 -13 -20 -13 -8 0 -35 -13 -60 -30 -24 -16 -48
-30 -54 -30 -5 0 -9 -4 -9 -10 0 -20 -28 -10 -33 12 -5 16 2 30 23 50 17 15
30 34 30 41 0 8 3 7 10 -3 8 -12 13 -10 37 12 15 14 43 39 62 56 20 18 31 36
28 45 -12 30 100 109 173 122 17 3 42 12 55 21 13 8 36 16 52 17 23 2 29 8 33
35 4 25 16 40 55 66 28 19 50 35 51 35 0 1 14 -5 30 -13z m91 -12 c-3 -3 -12
-4 -19 -1 -8 3 -5 6 6 6 11 1 17 -2 13 -5z m-407 -24 c0 -13 -5 -18 -15 -14
-12 5 -13 10 -4 20 15 19 19 18 19 -6z m-145 -62 c-7 -42 -18 -58 -42 -58 -6
0 -28 -10 -48 -21 -35 -21 -38 -21 -72 -5 -39 19 -38 25 10 41 18 5 32 15 32
22 0 6 4 15 9 20 5 5 6 3 2 -4 -11 -19 11 -16 32 5 17 17 59 40 75 41 5 1 6
-18 2 -41z m-639 -64 c-4 -9 -9 -15 -11 -12 -3 3 -3 13 1 22 4 9 9 15 11 12 3
-3 3 -13 -1 -22z m107 -2 c16 -7 16 -9 2 -30 -20 -27 -35 -28 -35 -2 0 11 6
20 13 20 8 0 7 4 -3 10 -17 11 -4 12 23 2z m63 -5 c-3 -20 -29 -53 -48 -60
-22 -8 -22 -4 -3 33 8 16 23 31 32 33 10 3 19 5 20 6 1 0 0 -5 -1 -12z m304
-22 c19 -11 21 -14 8 -15 -10 0 -22 -9 -28 -20 -10 -19 -13 -19 -40 -5 -26 14
-28 18 -18 35 15 23 43 25 78 5z m-426 -55 c9 -20 6 -26 -22 -50 -18 -14 -32
-31 -32 -36 0 -19 -63 -44 -108 -44 l-47 1 40 34 c22 19 44 35 48 35 9 0 61
59 63 72 2 14 4 15 26 13 12 -1 26 -12 32 -25z m26 -3 c0 -5 -4 -5 -10 -2 -5
3 -10 14 -10 23 0 15 2 15 10 2 5 -8 10 -19 10 -23z m335 9 c26 -19 12 -34
-65 -71 -46 -22 -63 -26 -72 -17 -9 9 -7 17 8 33 32 35 53 43 73 25 28 -26 37
-18 11 9 -26 27 -16 34 16 10 10 -8 24 -14 29 -14 6 -1 -1 8 -15 19 -28 22
-14 28 15 6z m1396 -59 c-10 -9 -11 -8 -5 6 3 10 9 15 12 12 3 -3 0 -11 -7
-18z m-1268 6 c-7 -2 -13 -10 -13 -18 0 -7 -7 -18 -15 -25 -13 -10 -15 -9 -15
8 0 20 24 42 45 41 6 0 4 -3 -2 -6z m-653 -7 c0 -2 -7 -6 -15 -10 -8 -3 -15
-1 -15 4 0 6 7 10 15 10 8 0 15 -2 15 -4z m-15 -36 c-20 -22 -35 -26 -35 -10
0 6 10 15 23 20 32 13 32 12 12 -10z m391 -19 c-8 -13 -36 -15 -36 -3 0 4 5
13 12 20 14 14 34 0 24 -17z m1801 -7 c-3 -3 -12 -4 -19 -1 -8 3 -5 6 6 6 11
1 17 -2 13 -5z m-1627 -44 c0 -20 -9 -40 -26 -57 l-26 -26 -18 29 c-22 32 -19
39 24 65 41 25 46 24 46 -11z m1510 26 c0 -3 -4 -8 -10 -11 -5 -3 -10 -1 -10
4 0 6 5 11 10 11 6 0 10 -2 10 -4z m117 -2 c-3 -3 -12 -4 -19 -1 -8 3 -5 6 6
6 11 1 17 -2 13 -5z m-2147 -8 c0 -2 -12 -11 -26 -21 -20 -13 -28 -14 -40 -4
-24 20 -16 29 26 29 22 0 40 -2 40 -4z m2051 -17 c-13 -11 -26 -17 -29 -14 -8
8 20 35 37 35 12 -1 11 -5 -8 -21z m114 -5 c-21 -15 -37 -14 -42 3 -3 7 8 13
24 15 37 5 42 -1 18 -18z m36 -28 c-18 -19 -26 -22 -36 -13 -7 7 -11 16 -8 21
3 4 9 3 12 -3 5 -8 13 -5 27 8 28 27 32 16 5 -13z m-2273 -1 c-3 -3 -9 2 -12
12 -6 14 -5 15 5 6 7 -7 10 -15 7 -18z m1955 10 c-3 -9 -8 -14 -10 -11 -3 3
-2 9 2 15 9 16 15 13 8 -4z m52 6 c3 -5 1 -12 -5 -16 -5 -3 -10 1 -10 9 0 18
6 21 15 7z m162 -13 c-3 -8 -6 -5 -6 6 -1 11 2 17 5 13 3 -3 4 -12 1 -19z
m-1977 2 c0 -5 -5 -10 -11 -10 -5 0 -7 5 -4 10 3 6 8 10 11 10 2 0 4 -4 4 -10z
m316 -25 c17 -26 11 -67 -9 -59 -7 2 -21 -9 -32 -26 -11 -16 -23 -30 -27 -30
-5 0 -8 24 -8 53 0 46 3 54 28 69 34 22 29 22 48 -7z m1368 9 c4 -9 4 -19 1
-22 -6 -6 -35 18 -35 29 0 16 28 10 34 -7z m341 -3 c3 -5 1 -12 -5 -16 -5 -3
-10 1 -10 9 0 18 6 21 15 7z m-2046 -4 c-2 -1 -13 -9 -24 -17 -19 -14 -19 -14
-6 3 7 9 18 17 24 17 6 0 8 -1 6 -3z m441 -42 c0 -8 -9 -19 -20 -25 -18 -10
-19 -9 -8 15 12 27 28 33 28 10z m1538 3 c14 -14 16 -48 3 -48 -5 0 -22 5 -38
10 -26 9 -27 9 -9 -5 11 -8 28 -15 38 -15 10 0 18 -6 18 -14 0 -30 -23 -27
-56 5 l-35 34 38 18 c34 17 35 18 8 12 -22 -4 -26 -3 -15 5 20 13 33 13 48 -2z
m193 -10 c12 -18 11 -28 -1 -28 -5 0 -10 6 -10 14 0 10 -20 18 -62 25 l-63 10
64 -4 c39 -2 67 -9 72 -17z m104 8 c12 -8 16 -19 12 -30 -12 -30 -97 -3 -97
30 0 18 60 19 85 0z m-2025 -54 c0 -39 -5 -53 -25 -70 -14 -12 -32 -22 -41
-22 -8 0 -13 -4 -9 -9 6 -11 -42 -51 -61 -51 -19 0 -18 3 11 60 14 28 32 50
40 50 8 0 15 6 15 14 0 17 48 76 61 76 5 0 9 -22 9 -48z m1859 39 c19 -12 6
-41 -18 -41 -33 0 -51 11 -51 31 0 14 7 19 28 19 15 0 33 -4 41 -9z m-83 -26
c-3 -9 -11 -13 -16 -10 -8 5 -7 11 1 21 14 18 24 11 15 -11z m309 15 c3 -5 -1
-10 -10 -10 -9 0 -13 5 -10 10 3 6 8 10 10 10 2 0 7 -4 10 -10z m-473 -14 c9
0 15 -4 12 -7 -2 -4 0 -10 5 -13 17 -11 0 -44 -22 -43 -12 1 -32 -2 -44 -7
-19 -6 -23 -4 -23 13 0 11 5 32 10 46 8 21 15 25 28 20 9 -5 25 -8 34 -9z
m-2134 -13 c-15 -4 -14 -7 5 -26 20 -20 20 -22 4 -25 -10 -2 -17 -13 -17 -25
0 -12 -4 -28 -9 -36 -8 -13 -12 -13 -28 -1 -10 8 -7 2 6 -12 22 -25 23 -32 19
-133 -2 -58 -2 -108 1 -110 10 -10 25 -131 25 -198 0 -43 -5 -52 -44 -92 -25
-25 -49 -44 -54 -42 -25 8 -48 208 -26 222 5 3 7 12 4 20 -3 8 1 27 9 42 32
58 34 70 42 213 5 101 6 105 28 103 l22 -2 -22 11 c-13 6 -23 17 -23 25 0 22
42 73 59 72 13 -1 13 -2 -1 -6z m196 -26 c-3 -9 -11 -17 -16 -17 -6 0 -7 7 -4
16 3 9 6 21 6 27 0 8 3 8 10 1 6 -6 8 -18 4 -27z m2103 7 c-3 -3 -12 -4 -19
-1 -8 3 -5 6 6 6 11 1 17 -2 13 -5z m338 -4 c4 -6 -7 -10 -27 -10 -25 0 -29 3
-18 10 19 13 37 13 45 0z m-455 -10 c0 -5 -4 -10 -10 -10 -5 0 -10 5 -10 10 0
6 5 10 10 10 6 0 10 -4 10 -10z m460 -20 c0 -10 -39 -32 -86 -50 l-26 -10 28
34 c20 23 38 35 57 35 15 1 27 -3 27 -9z m44 -6 c3 -8 2 -12 -4 -9 -6 3 -10 2
-10 -3 0 -6 -7 -13 -16 -16 -15 -6 -13 4 9 32 12 15 14 15 21 -4z m-467 -31
c-3 -3 -11 -2 -17 2 -8 5 -7 11 2 22 12 15 13 14 16 -1 2 -10 1 -20 -1 -23z
m32 30 c0 -5 -4 -17 -9 -28 -8 -18 -9 -17 -9 8 -1 15 4 27 9 27 6 0 10 -3 9
-7z m-170 -78 c-14 -38 -24 -53 -29 -45 -15 24 7 108 28 112 25 5 25 -3 1 -67z
m89 61 c-7 -8 -16 -12 -20 -9 -5 2 -8 -1 -8 -8 0 -7 -3 -9 -7 -5 -5 4 1 14 11
22 25 18 41 18 24 0z m222 -1 c-43 -16 -60 -18 -60 -6 0 9 32 17 75 19 11 0 5
-5 -15 -13z m-350 -11 c0 -8 -4 -12 -10 -9 -5 3 -10 10 -10 16 0 5 5 9 10 9 6
0 10 -7 10 -16z m245 -27 c-4 -8 -13 -13 -21 -10 -15 5 -19 35 -7 47 11 11 34
-19 28 -37z m120 13 c-10 -11 -28 -19 -41 -18 -32 3 -30 6 9 23 44 20 53 18
32 -5z m220 11 c-6 -5 -21 -11 -35 -15 -21 -5 -20 -3 5 9 35 17 42 18 30 6z
m-604 -18 c13 -16 12 -17 -3 -4 -17 13 -22 21 -14 21 2 0 10 -8 17 -17z m180
7 c25 -14 24 -36 -2 -51 -23 -12 -39 0 -39 32 0 29 12 34 41 19z m253 -25 c-9
-14 -21 -25 -27 -25 -6 0 0 11 13 25 13 14 25 25 27 25 2 0 -4 -11 -13 -25z
m216 2 c0 -8 -9 -22 -20 -32 -17 -16 -20 -16 -20 -2 0 26 11 47 26 47 8 0 14
-6 14 -13z m-410 -21 c0 -15 -18 -31 -26 -23 -7 7 7 37 17 37 5 0 9 -6 9 -14z
m30 -15 c0 -5 -7 -11 -15 -15 -15 -5 -20 5 -8 17 9 10 23 9 23 -2z m440 -22
c0 -5 -9 -9 -19 -9 -14 0 -18 5 -14 20 4 16 8 18 19 9 8 -6 14 -15 14 -20z
m-275 11 c3 -5 1 -10 -4 -10 -6 0 -11 5 -11 10 0 6 2 10 4 10 3 0 8 -4 11 -10z
m-145 -10 c0 -5 -7 -10 -16 -10 -8 0 -12 5 -9 10 3 6 10 10 16 10 5 0 9 -4 9
-10z m245 0 c3 -5 1 -10 -4 -10 -6 0 -11 5 -11 10 0 6 2 10 4 10 3 0 8 -4 11
-10z m220 0 c3 -5 -3 -10 -14 -10 -12 0 -21 5 -21 10 0 6 6 10 14 10 8 0 18
-4 21 -10z m-535 -10 c-8 -5 -22 -10 -30 -10 -13 0 -13 1 0 10 8 5 22 10 30
10 13 0 13 -1 0 -10z m241 -33 c-7 -7 -17 -7 -33 2 -22 11 -22 11 5 6 21 -4
27 -2 21 6 -5 8 -3 9 5 4 9 -5 10 -10 2 -18z m69 19 c0 -3 -4 -8 -10 -11 -5
-3 -10 -1 -10 4 0 6 5 11 10 11 6 0 10 -2 10 -4z m85 -6 c3 -5 1 -10 -4 -10
-6 0 -11 5 -11 10 0 6 2 10 4 10 3 0 8 -4 11 -10z m-2259 -46 c-3 -8 -18 -14
-33 -14 l-27 0 30 31 c23 24 30 27 32 14 2 -9 1 -23 -2 -31z m2227 31 c-3 -9
-8 -14 -10 -11 -3 3 -2 9 2 15 9 16 15 13 8 -4z m-350 -10 c-3 -9 -8 -14 -10
-11 -3 3 -2 9 2 15 9 16 15 13 8 -4z m187 -10 c0 -1 -6 -8 -14 -14 -11 -9 -18
-8 -30 4 -25 25 -19 35 14 24 17 -6 30 -12 30 -14z m237 19 c-3 -3 -12 -4 -19
-1 -8 3 -5 6 6 6 11 1 17 -2 13 -5z m-363 -25 c-2 -4 0 -10 6 -14 6 -4 8 -11
5 -16 -8 -12 -55 -12 -55 0 0 22 12 37 30 37 10 0 17 -4 14 -7z m551 -9 c4 -6
-5 -10 -20 -10 -15 0 -24 4 -20 10 3 6 12 10 20 10 8 0 17 -4 20 -10z m-619
-9 c11 9 14 8 14 -6 0 -12 -6 -16 -20 -12 -11 3 -20 0 -20 -6 0 -6 -2 -8 -5
-5 -3 3 -2 13 2 24 4 11 8 13 11 6 3 -10 7 -10 18 -1z m-159 -69 c-5 -7 -20
-12 -31 -10 -25 4 -34 42 -15 64 11 13 15 11 35 -13 16 -21 19 -31 11 -41z
m638 49 c3 -6 -10 -7 -32 -4 -50 8 -55 13 -10 13 20 0 38 -4 42 -9z m-105 -20
c0 -6 -4 -13 -10 -16 -5 -3 -10 1 -10 9 0 9 5 16 10 16 6 0 10 -4 10 -9z m85
-1 c7 -12 -2 -12 -30 0 -19 8 -19 9 2 9 12 1 25 -3 28 -9z m-32 -17 c-7 -2
-19 -2 -25 0 -7 3 -2 5 12 5 14 0 19 -2 13 -5z m-146 -49 c-30 -16 -44 -14
-32 5 3 6 18 11 33 11 l27 -1 -28 -15z m-577 -4 c0 -5 -4 -10 -10 -10 -5 0
-10 5 -10 10 0 6 5 10 10 10 6 0 10 -4 10 -10z m735 0 c-3 -5 -12 -10 -18 -10
-7 0 -6 4 3 10 19 12 23 12 15 0z m-1395 -4 c0 -11 -19 -15 -25 -6 -3 5 1 10
9 10 9 0 16 -2 16 -4z m1254 -15 c-10 -9 -73 -26 -64 -17 3 3 19 12 35 20 29
15 47 13 29 -3z m228 -6 c-2 -14 -6 -25 -8 -25 -2 0 -4 11 -4 25 0 14 4 25 9
25 4 0 6 -11 3 -25z m-32 0 c0 -11 -11 -15 -37 -15 -49 0 -28 20 30 29 4 0 7
-6 7 -14z m-1475 -5 c3 -5 -1 -10 -9 -10 -9 0 -16 5 -16 10 0 6 4 10 9 10 6 0
13 -4 16 -10z m1150 0 c3 -5 1 -10 -4 -10 -6 0 -11 5 -11 10 0 6 2 10 4 10 3
0 8 -4 11 -10z m242 -20 c-3 -10 0 -21 6 -23 6 -2 3 -6 -7 -10 -10 -4 -15 -3
-11 3 3 6 1 10 -5 10 -8 0 -8 6 0 20 14 26 24 26 17 0z m63 -10 c-20 -13 -40
-13 -40 0 0 6 12 10 28 10 21 0 24 -2 12 -10z m-620 -7 c0 -5 -7 -17 -15 -27
-14 -19 -15 -19 -15 7 0 17 5 27 15 27 8 0 15 -3 15 -7z m247 1 c-3 -3 -12 -4
-19 -1 -8 3 -5 6 6 6 11 1 17 -2 13 -5z m-137 -36 c0 -16 -3 -19 -11 -11 -6 6
-8 16 -5 22 11 17 16 13 16 -11z m784 6 c3 -9 6 -27 6 -40 0 -24 -1 -24 -30
-9 -30 16 -32 45 -3 45 8 0 11 5 8 10 -3 6 -2 10 3 10 6 0 13 -7 16 -16z
m-500 -35 c-1 -13 -2 -27 -3 -31 0 -4 -18 -15 -38 -23 -31 -13 -39 -13 -50 -2
-23 23 -6 65 28 72 16 4 27 11 24 16 -4 5 3 5 17 0 16 -6 23 -16 22 -32z
m-374 21 c-8 -5 -19 -10 -25 -10 -5 0 -3 5 5 10 8 5 20 10 25 10 6 0 3 -5 -5
-10z m-2263 -37 c-3 -10 -5 -4 -5 12 0 17 2 24 5 18 2 -7 2 -21 0 -30z m2292
2 c-12 -20 -29 -40 -39 -45 -25 -13 -50 -2 -50 21 0 21 54 53 76 45 8 -3 14
-1 14 4 0 6 4 10 10 10 5 0 0 -16 -11 -35z m78 13 c-3 -8 -6 -5 -6 6 -1 11 2
17 5 13 3 -3 4 -12 1 -19z m330 16 c-3 -3 -12 -4 -19 -1 -8 3 -5 6 6 6 11 1
17 -2 13 -5z m460 -36 c-3 -7 -5 -2 -5 12 0 14 2 19 5 13 2 -7 2 -19 0 -25z
m-207 8 c0 -3 -4 -8 -10 -11 -5 -3 -10 -1 -10 4 0 6 5 11 10 11 6 0 10 -2 10
-4z m-420 -47 c0 -6 -4 -7 -10 -4 -5 3 -10 11 -10 16 0 6 5 7 10 4 6 -3 10
-11 10 -16z m-15 -19 c3 -5 1 -10 -4 -10 -6 0 -11 5 -11 10 0 6 2 10 4 10 3 0
8 -4 11 -10z m674 -11 c4 -12 2 -12 -13 0 -15 12 -16 12 -10 -5 6 -15 4 -17
-6 -7 -14 13 -4 36 13 30 6 -2 13 -10 16 -18z m-861 4 c-10 -2 -26 -2 -35 0
-10 3 -2 5 17 5 19 0 27 -2 18 -5z m82 -34 c0 -6 -4 -7 -10 -4 -5 3 -10 11
-10 16 0 6 5 7 10 4 6 -3 10 -11 10 -16z m270 17 c0 -3 -4 -8 -10 -11 -5 -3
-10 -1 -10 4 0 6 5 11 10 11 6 0 10 -2 10 -4z m-30 -16 c0 -5 -5 -10 -11 -10
-5 0 -8 -4 -5 -8 6 -10 -30 -9 -40 0 -3 4 -3 11 1 17 8 14 55 14 55 1z m339
-16 c2 -2 -16 -4 -40 -4 -31 0 -40 3 -29 10 13 8 57 4 69 -6z m-2864 -20 c-11
-9 -29 -20 -40 -26 -17 -9 -16 -6 4 16 14 14 32 26 40 26 13 -1 12 -4 -4 -16z
m3008 -41 c55 -41 70 -59 101 -123 20 -42 36 -83 36 -93 0 -9 5 -17 12 -17 6
0 9 -3 5 -6 -3 -4 3 -24 13 -45 l20 -38 -27 -56 c-26 -53 -29 -55 -66 -55 -40
0 -78 -23 -54 -34 6 -3 2 -3 -11 0 -13 3 -28 -1 -38 -10 -8 -9 -11 -16 -5 -16
6 0 11 -5 11 -11 0 -5 -4 -7 -10 -4 -5 3 -10 -3 -10 -14 0 -12 -4 -21 -8 -21
-13 0 -32 -47 -32 -79 0 -15 -3 -31 -7 -34 -17 -17 -43 -116 -43 -163 0 -44 4
-54 25 -68 22 -14 25 -22 20 -50 -6 -28 -2 -36 25 -59 42 -36 86 -36 94 -1 5
18 10 23 19 16 21 -16 57 -21 70 -8 6 6 29 25 50 40 36 28 38 28 52 10 8 -11
14 -42 15 -76 0 -31 5 -80 11 -108 8 -38 8 -63 0 -93 -6 -23 -18 -104 -26
-180 -7 -76 -18 -144 -24 -150 -5 -7 -6 -29 -2 -53 5 -26 4 -49 -3 -60 -10
-20 -20 -70 -35 -189 -5 -38 -30 -130 -56 -202 -45 -126 -49 -133 -74 -133
-26 0 -27 2 -26 59 0 45 5 65 21 83 37 42 44 70 22 93 -19 20 -19 20 -58 -3
-39 -22 -75 -27 -119 -15 -22 6 -23 8 -17 75 11 107 20 123 102 184 74 54 84
70 62 92 -7 7 -8 12 -3 12 6 0 5 4 -1 8 -18 12 -82 142 -73 148 15 9 10 20
-29 71 -36 45 -72 130 -72 169 0 13 -3 14 -14 5 -11 -9 -15 -7 -20 11 -3 13
-6 33 -6 45 0 12 -9 37 -20 56 -12 19 -20 39 -19 43 2 5 -1 36 -6 69 -5 33 -8
68 -6 79 1 10 -1 16 -6 13 -5 -3 -10 2 -11 11 -9 77 -16 109 -28 127 -7 11
-16 39 -20 63 -5 33 -13 46 -30 52 -20 8 -22 14 -17 51 6 39 5 41 -14 31 -21
-12 -88 -1 -106 17 -6 6 -35 11 -64 11 -29 0 -53 5 -53 10 0 16 -50 12 -56 -5
-4 -10 -20 -15 -50 -15 -24 0 -44 -4 -44 -9 0 -9 -84 -31 -120 -31 -22 0 -54
60 -38 71 5 3 -1 27 -12 54 -11 27 -19 54 -16 60 2 6 37 24 77 40 90 35 84 31
66 50 -9 8 -30 15 -49 15 l-33 0 65 59 c72 65 140 110 140 90 0 -6 24 9 53 33
28 25 69 56 89 70 21 13 35 28 30 33 -4 5 -2 5 5 1 7 -4 29 4 50 18 36 24 45
25 200 25 l162 1 64 -47z m-3007 -3 c-1 -17 -5 -30 -9 -30 -4 0 -18 0 -32 0
l-26 0 31 30 c17 17 32 30 34 30 2 0 3 -14 2 -30z m-116 -25 c-7 -8 -18 -15
-24 -15 -6 0 -2 7 8 15 25 19 32 19 16 0z m2610 11 c0 -2 -7 -6 -15 -10 -8 -3
-15 -1 -15 4 0 6 7 10 15 10 8 0 15 -2 15 -4z m-2510 -34 c8 -4 16 -15 18 -24
2 -14 -4 -18 -28 -18 -16 0 -30 4 -30 9 0 5 -3 16 -6 25 -7 17 17 21 46 8z
m1377 -18 c-3 -3 -12 -4 -19 -1 -8 3 -5 6 6 6 11 1 17 -2 13 -5z m-1464 -21
c-7 -2 -19 -2 -25 0 -7 3 -2 5 12 5 14 0 19 -2 13 -5z m5 -92 c2 -45 -1 -82
-6 -85 -7 -4 -7 -19 0 -43 5 -20 8 -46 6 -58 -3 -11 1 -26 8 -33 18 -16 24
-15 24 4 0 9 7 14 18 12 9 -2 17 -11 16 -21 0 -9 -1 -33 -2 -52 -1 -24 -7 -35
-17 -35 -19 0 -17 15 -20 -240 -1 -118 -7 -273 -12 -345 -6 -71 -10 -155 -10
-185 0 -53 -10 -151 -18 -177 -3 -8 -21 -13 -44 -13 l-40 0 4 93 c3 50 9 117
15 147 22 121 30 261 36 610 4 281 9 373 20 399 16 38 18 63 4 41 -11 -17 -11
-17 -13 28 -1 23 2 32 13 32 12 0 16 -17 18 -79z m98 52 c-4 -16 -11 -63 -16
-107 -5 -43 -12 -81 -15 -85 -10 -10 -35 30 -35 56 0 13 5 55 11 94 11 64 14
69 37 69 21 0 24 -3 18 -27z m1865 -56 c-16 -16 -26 0 -10 19 9 11 15 12 17 4
2 -6 -1 -17 -7 -23z m319 -40 c0 -2 -19 -18 -42 -36 l-43 -32 39 35 c37 34 46
40 46 33z m-360 -43 c0 -20 -7 -17 -20 6 -9 16 -8 18 5 14 8 -4 15 -12 15 -20z
m330 -28 c0 -2 -8 -10 -17 -17 -16 -13 -17 -12 -4 4 13 16 21 21 21 13z m30
-31 c-14 -8 -29 -14 -35 -14 -5 0 1 6 15 14 14 8 30 14 35 14 6 0 -1 -6 -15
-14z m-2215 -35 c3 -5 1 -10 -4 -10 -6 0 -11 5 -11 10 0 6 2 10 4 10 3 0 8 -4
11 -10z m2079 -15 c-4 -8 -11 -15 -16 -15 -6 0 -5 6 2 15 7 8 14 15 16 15 2 0
1 -7 -2 -15z m1175 -43 c18 -51 8 -77 -32 -77 -21 -1 -26 5 -31 33 -6 38 18
96 36 90 7 -3 19 -23 27 -46z m-1143 -9 c-3 -4 -6 0 -6 8 0 10 -3 11 -8 2 -5
-8 -12 -7 -27 4 -20 15 -20 15 3 10 13 -3 22 0 22 6 0 7 5 4 11 -6 6 -10 8
-21 5 -24z m-110 -31 c-18 -16 -18 -16 -6 6 6 13 14 21 18 18 3 -4 -2 -14 -12
-24z m44 24 c0 -3 -4 -8 -10 -11 -5 -3 -10 -1 -10 4 0 6 5 11 10 11 6 0 10 -2
10 -4z m84 -22 c3 -8 2 -12 -4 -9 -6 3 -10 10 -10 16 0 14 7 11 14 -7z m-77
-36 c-3 -7 -5 -2 -5 12 0 14 2 19 5 13 2 -7 2 -19 0 -25z m72 -4 c6 -14 9 -30
6 -34 -3 -5 2 -21 11 -35 14 -21 14 -25 1 -25 -8 0 -17 8 -20 18 -2 9 -8 26
-13 36 -5 14 -4 17 4 12 18 -11 14 2 -9 35 -13 19 -16 27 -6 23 8 -3 19 -16
26 -30z m-10 -99 c0 -15 -5 -11 -19 15 -11 19 -19 46 -19 60 1 22 3 20 20 -15
10 -22 18 -49 18 -60z m-119 40 c0 -8 -4 -15 -10 -15 -5 0 -7 7 -4 15 4 8 8
15 10 15 2 0 4 -7 4 -15z m365 4 c-18 -5 -33 -5 -39 1 -7 7 4 10 30 9 39 -1
39 -1 9 -10z m148 4 c-7 -2 -21 -2 -30 0 -10 3 -4 5 12 5 17 0 24 -2 18 -5z
m-466 -35 c-3 -8 -6 -5 -6 6 -1 11 2 17 5 13 3 -3 4 -12 1 -19z m53 -30 c0 -5
-8 -8 -18 -8 -15 0 -18 6 -14 31 l5 32 13 -24 c7 -13 13 -27 14 -31z m545 42
c3 -5 2 -10 -4 -10 -5 0 -13 5 -16 10 -3 6 -2 10 4 10 5 0 13 -4 16 -10z m42
-12 c-3 -8 -6 -5 -6 6 -1 11 2 17 5 13 3 -3 4 -12 1 -19z m507 -17 c15 -17 15
-19 1 -25 -25 -9 -108 -7 -125 4 -19 12 -9 20 32 30 54 13 74 11 92 -9z m-969
-21 c21 -9 17 -11 -30 -15 -37 -2 -52 5 -34 16 17 11 38 10 64 -1z m-2664 -24
c5 3 9 0 9 -6 0 -7 -7 -9 -16 -6 -9 3 -18 6 -20 6 -3 0 -2 5 2 12 6 9 9 9 12
0 2 -7 8 -10 13 -6z m46 -1 c0 -8 -4 -12 -9 -9 -5 3 -6 10 -3 15 9 13 12 11
12 -6z m233 -26 c0 -20 -15 -26 -24 -10 -8 13 4 42 15 35 5 -3 9 -14 9 -25z
m2161 9 c12 -22 11 -22 -6 -8 -17 14 -18 13 -12 -2 3 -10 2 -18 -3 -18 -11 0
-13 11 -4 34 8 21 11 20 25 -6z m249 12 c0 -5 -4 -10 -10 -10 -5 0 -10 5 -10
10 0 6 5 10 10 10 6 0 10 -4 10 -10z m-182 -22 c-9 -13 -19 -22 -24 -21 -13 2
-35 -18 -29 -27 3 -5 0 -12 -6 -16 -8 -4 -9 -3 -5 4 4 7 1 12 -7 12 -8 0 -17
-7 -21 -15 -3 -8 -1 -15 5 -15 6 0 7 -5 3 -12 -5 -8 -11 -5 -17 10 -7 15 -5
25 7 37 9 9 20 14 25 11 5 -4 11 -3 13 2 3 7 59 51 67 52 2 0 -3 -10 -11 -22z
m118 14 c-11 -10 -56 -13 -56 -4 0 5 14 9 31 10 17 0 28 -2 25 -6z m-2591 -12
c3 -5 1 -10 -4 -10 -6 0 -11 5 -11 10 0 6 2 10 4 10 3 0 8 -4 11 -10z m2605
-5 c-7 -8 -20 -15 -29 -15 -11 1 -8 5 9 15 32 18 35 18 20 0z m-2655 -17 c-6
-22 -6 -22 9 -4 15 19 16 18 16 -12 0 -24 -4 -32 -18 -32 -13 0 -17 7 -16 28
1 35 3 42 10 42 3 0 3 -10 -1 -22z m2685 -3 c-7 -8 -18 -15 -24 -15 -6 0 -2 7
8 15 25 19 32 19 16 0z m984 -10 c16 -24 29 -128 16 -120 -4 3 -15 -13 -25
-34 -9 -21 -28 -44 -41 -50 -33 -15 -93 -13 -123 3 -28 15 -16 27 29 28 16 1
38 11 50 23 36 38 46 115 15 115 -25 0 -27 20 -3 40 32 27 63 25 82 -5z
m-1133 -28 c-13 -13 -15 1 -4 30 7 17 8 17 11 -1 2 -10 -1 -23 -7 -29z m662
13 c3 -11 1 -18 -4 -14 -5 3 -9 12 -9 20 0 20 7 17 13 -6z m-685 -15 c-2 -24
-32 -44 -45 -31 -6 5 35 56 44 56 1 0 2 -11 1 -25z m358 -11 c33 -19 44 -32
44 -50 0 -18 -5 -24 -23 -24 -13 0 -28 5 -35 12 -8 8 -37 11 -78 10 -38 -1
-73 3 -80 9 -11 9 -14 8 -14 0 0 -7 -5 -9 -11 -5 -6 3 -7 9 -2 13 4 3 14 18
20 34 12 25 17 27 74 27 47 0 70 -6 105 -26z m694 6 c0 -5 -7 -7 -15 -4 -8 4
-12 10 -9 15 6 11 24 2 24 -11z m-3562 -47 c2 -21 0 -34 -4 -31 -10 10 -15 68
-6 68 4 0 9 -17 10 -37z m-21 -45 c-3 -8 -6 -5 -6 6 -1 11 2 17 5 13 3 -3 4
-12 1 -19z m2882 -22 c30 -16 50 -51 45 -81 -4 -25 12 -35 54 -35 29 0 33 -3
30 -22 -3 -18 -22 -27 -128 -60 -125 -38 -193 -47 -205 -28 -4 6 -3 10 2 9 16
-4 43 13 37 23 -4 6 1 8 13 4 18 -6 21 0 27 46 6 49 4 55 -21 76 l-28 23 35
29 c39 34 92 40 139 16z m166 -36 c3 -5 1 -10 -4 -10 -6 0 -11 5 -11 10 0 6 2
10 4 10 3 0 8 -4 11 -10z m455 -26 c0 -2 -7 -4 -15 -4 -8 0 -15 4 -15 10 0 5
7 7 15 4 8 -4 15 -8 15 -10z m-472 -56 c-1 -37 -2 -39 -5 -10 -2 17 -8 32 -14
32 -5 0 -9 5 -9 10 0 6 7 10 15 10 11 0 15 -11 13 -42z m-5 -63 c13 -31 20
-165 9 -165 -5 0 -8 -10 -4 -22 5 -21 3 -21 -58 -15 -35 4 -78 7 -96 7 -53 0
-45 28 9 32 l42 3 -42 23 c-47 25 -50 29 -28 58 8 10 15 26 15 34 0 10 24 23
68 36 84 27 79 27 85 9z m-183 -55 c8 -5 11 -10 5 -10 -5 0 -17 5 -25 10 -8 5
-10 10 -5 10 6 0 17 -5 25 -10z m-2800 -21 c0 -18 -2 -20 -15 -9 -13 11 -13
15 -3 21 18 12 18 12 18 -12z m2217 -21 c-3 -8 -6 -5 -6 6 -1 11 2 17 5 13 3
-3 4 -12 1 -19z m800 0 c-3 -8 -6 -5 -6 6 -1 11 2 17 5 13 3 -3 4 -12 1 -19z
m-717 -13 c-9 -16 -40 -16 -40 1 0 10 7 14 23 12 12 -2 20 -7 17 -13z m51 -29
c5 3 9 0 9 -6 0 -15 -23 -7 -26 8 -1 7 0 8 3 2 2 -5 9 -8 14 -4z m484 -6 c3
-5 -1 -10 -9 -10 -8 0 -18 5 -21 10 -3 6 1 10 9 10 8 0 18 -4 21 -10z m-475
-29 c0 -6 -4 -13 -10 -16 -5 -3 -10 1 -10 9 0 9 5 16 10 16 6 0 10 -4 10 -9z
m57 3 c-3 -3 -12 -4 -19 -1 -8 3 -5 6 6 6 11 1 17 -2 13 -5z m-2444 -20 c12
-4 13 -12 5 -42 -14 -50 -19 -57 -30 -38 -8 14 -2 86 7 86 2 0 10 -3 18 -6z
m2234 -26 c-3 -7 -5 -2 -5 12 0 14 2 19 5 13 2 -7 2 -19 0 -25z m203 22 c0 -5
-4 -10 -10 -10 -5 0 -10 5 -10 10 0 6 5 10 10 10 6 0 10 -4 10 -10z m-150 -35
c0 -5 -5 -3 -10 5 -5 8 -10 20 -10 25 0 6 5 3 10 -5 5 -8 10 -19 10 -25z m221
14 c26 -8 39 -19 43 -35 8 -30 -10 -74 -29 -74 -14 0 -13 4 4 29 30 42 26 52
-5 14 -21 -27 -29 -31 -44 -23 -26 14 -40 12 -40 -5 0 -8 -4 -15 -9 -15 -13 0
-12 92 1 107 13 16 30 16 79 2z m318 -2 c8 -11 5 -13 -19 -9 -16 2 -27 8 -24
13 8 13 30 11 43 -4z m178 -1 c2 -2 4 -40 7 -87 2 -46 0 -70 -3 -54 l-7 30 -6
-28 c-3 -19 -1 -30 10 -36 24 -13 12 -134 -16 -164 -12 -13 -28 -49 -34 -81
-7 -32 -17 -55 -23 -52 -6 2 -36 9 -68 16 -52 10 -57 14 -51 33 3 12 13 28 22
34 21 17 17 19 -64 47 l-69 23 -13 108 c-7 60 -15 111 -17 113 -2 3 -34 -21
-70 -53 -36 -32 -69 -55 -72 -52 -7 7 22 115 46 170 14 32 20 37 41 32 42 -9
233 -25 238 -20 3 2 -1 12 -9 21 -12 14 -5 15 72 9 46 -4 85 -8 86 -9z m-636
-32 c-5 -16 -10 -21 -10 -12 -1 18 10 51 15 45 2 -1 -1 -16 -5 -33z m-25 -1
c-10 -10 -19 5 -10 18 6 11 8 11 12 0 2 -7 1 -15 -2 -18z m-43 -3 c-3 -12 -8
-19 -11 -16 -5 6 5 36 12 36 2 0 2 -9 -1 -20z m39 -52 c-7 -7 -12 -8 -12 -2 0
14 12 26 19 19 2 -3 -1 -11 -7 -17z m35 0 c-3 -8 -6 -5 -6 6 -1 11 2 17 5 13
3 -3 4 -12 1 -19z m-2387 -18 c9 -18 8 -20 -15 -20 -23 0 -24 2 -15 20 6 11
13 20 15 20 2 0 9 -9 15 -20z m2494 -15 c-8 -19 -34 -7 -34 16 0 16 3 18 20 9
11 -6 17 -17 14 -25z m-135 -17 c0 -31 -1 -31 -10 -10 -5 13 -7 28 -3 33 10
16 14 9 13 -23z m174 -29 c-6 -6 -10 1 -10 23 0 30 1 30 10 10 7 -15 7 -26 0
-33z m162 -73 l7 -78 -24 7 c-58 18 -87 35 -93 54 -3 12 -11 21 -16 21 -23 0
-4 30 48 74 57 47 57 48 64 24 3 -14 10 -59 14 -102z m-278 82 c-3 -7 -5 -2
-5 12 0 14 2 19 5 13 2 -7 2 -19 0 -25z m-2407 2 c0 -23 -10 -26 -28 -8 -18
18 -15 28 8 28 13 0 20 -7 20 -20z m3453 -23 c-4 -6 -12 -3 -20 8 -20 28 -16
41 7 20 11 -10 17 -22 13 -28z m-1019 17 c3 -8 2 -12 -4 -9 -6 3 -10 10 -10
16 0 14 7 11 14 -7z m-2444 -95 c0 -15 -3 -40 -6 -57 -6 -31 -6 -31 -36 -16
-24 12 -29 20 -23 37 4 12 9 33 11 47 3 14 7 36 10 49 l5 25 20 -30 c10 -16
19 -41 19 -55z m2520 55 c0 -8 -9 -14 -20 -14 -17 0 -19 3 -8 19 13 21 28 19
28 -5z m527 -31 c-3 -10 -5 -2 -5 17 0 19 2 27 5 18 2 -10 2 -26 0 -35z
m-2657 2 c0 -14 5 -25 12 -25 6 0 9 -2 7 -5 -7 -7 -83 18 -91 30 -15 20 -8 25
32 25 36 0 40 -2 40 -25z m2120 -5 c0 -5 -7 -7 -15 -4 -8 4 -15 8 -15 10 0 2
7 4 15 4 8 0 15 -4 15 -10z m40 -5 c0 -8 -4 -15 -10 -15 -5 0 -10 7 -10 15 0
8 5 15 10 15 6 0 10 -7 10 -15z m-2187 -24 c24 -9 25 -14 26 -100 1 -49 -2
-96 -5 -105 -7 -18 -59 -22 -70 -5 -5 9 -6 107 0 197 1 24 12 27 49 13z m3136
-31 c11 -24 11 -24 -3 -6 -9 11 -16 24 -16 30 0 12 5 7 19 -24z m-839 -20 c10
-7 11 -10 2 -10 -7 0 -18 -11 -24 -25 -6 -14 -15 -25 -20 -25 -5 0 -2 10 6 22
11 16 13 25 4 35 -13 16 9 18 32 3z m-257 -25 c-3 -9 -8 -14 -10 -11 -3 3 -2
9 2 15 9 16 15 13 8 -4z m-2441 -5 c20 -10 23 -20 27 -78 9 -169 4 -360 -10
-439 -11 -59 -19 -151 -20 -233 0 -36 -4 -78 -9 -95 -5 -16 -13 -50 -18 -75
-6 -25 -17 -70 -25 -100 -8 -30 -17 -93 -21 -140 -7 -98 -15 -131 -45 -180
-12 -21 -21 -52 -21 -76 0 -39 -18 -97 -61 -192 -10 -23 -19 -51 -19 -62 0
-23 -18 -26 -44 -7 -21 15 -31 73 -18 101 6 12 17 75 26 141 23 180 24 188 16
210 -5 12 0 34 11 57 11 21 17 38 14 38 -3 0 -2 8 3 17 17 31 24 240 10 262
-10 16 -10 23 0 33 17 17 15 41 -3 34 -10 -3 -15 1 -15 13 0 11 -15 28 -35 40
-25 15 -33 25 -28 37 5 13 3 15 -8 9 -8 -4 -12 -6 -9 -2 3 3 8 5 12 4 4 -1 14
7 22 18 15 20 15 20 57 -3 23 -12 44 -21 46 -19 2 2 4 27 4 56 1 28 5 53 9 56
4 2 7 25 8 50 0 25 5 51 10 58 10 13 27 113 23 135 -1 8 2 19 7 25 5 7 15 48
22 92 7 44 17 85 21 91 5 6 12 39 15 73 7 64 10 67 46 51z m2774 -9 c0 -11 -4
-17 -8 -15 -4 3 -8 12 -8 20 0 8 4 14 8 14 4 0 8 -9 8 -19z m-86 -50 c-12 -24
-30 -28 -30 -6 0 9 -6 12 -17 8 -11 -4 -14 -3 -9 5 4 7 17 10 33 6 18 -5 24
-3 19 5 -4 6 -4 17 1 24 13 20 16 -19 3 -42z m-65 29 c3 -6 -1 -7 -9 -4 -18 7
-21 14 -7 14 6 0 13 -4 16 -10z m102 -12 c-3 -8 -6 -5 -6 6 -1 11 2 17 5 13 3
-3 4 -12 1 -19z m28 -18 c-12 -19 -22 -10 -17 16 4 22 6 24 14 10 5 -9 6 -21
3 -26z m83 34 c28 -8 28 -18 -2 -32 -20 -9 -25 -7 -35 14 -12 26 -6 29 37 18z
m-48 -45 c0 -5 -7 -9 -15 -9 -9 0 -12 6 -9 15 6 15 24 11 24 -6z m63 -8 c-3
-13 -10 -18 -20 -14 -14 5 -13 8 3 20 23 17 23 17 17 -6z m-188 -21 c-3 -5
-12 -10 -18 -10 -7 0 -6 4 3 10 19 12 23 12 15 0z m163 -12 c17 -15 11 -53 -8
-53 -9 0 -15 9 -14 23 0 12 -2 22 -6 22 -3 0 -15 7 -26 16 -18 15 -18 15 11 9
16 -4 36 -11 43 -17z m73 -8 c5 0 9 -17 9 -37 l0 -38 -25 30 c-28 35 -33 60
-9 51 9 -3 20 -6 25 -6z m95 -23 c2 -2 -5 -12 -16 -22 -20 -18 -21 -18 -35 1
-8 10 -15 14 -15 7 0 -6 5 -15 10 -18 12 -7 4 -25 -11 -25 -5 0 -8 17 -7 39 1
38 1 38 35 30 19 -4 37 -9 39 -12z m-356 -17 c0 -5 -4 -10 -10 -10 -5 0 -10 5
-10 10 0 6 5 10 10 10 6 0 10 -4 10 -10z m212 -12 c-7 -7 -12 -8 -12 -2 0 14
12 26 19 19 2 -3 -1 -11 -7 -17z m168 9 c0 -15 -39 -41 -48 -32 -4 3 4 15 18
25 30 23 30 23 30 7z m-3245 -7 c3 -5 1 -10 -4 -10 -6 0 -11 5 -11 10 0 6 2
10 4 10 3 0 8 -4 11 -10z m3125 -25 c7 -9 10 -18 7 -21 -10 -11 -37 5 -37 21
0 19 14 19 30 0z m-194 -6 c3 -6 1 -16 -6 -22 -10 -9 -12 -8 -7 4 4 13 1 15
-14 12 -10 -3 -19 0 -19 6 0 14 37 14 46 0z m264 -20 c0 -5 -10 -9 -21 -9 -18
0 -19 2 -9 15 12 15 30 12 30 -6z m132 -31 c-12 -12 -42 -4 -42 12 0 5 7 10
15 10 8 0 15 6 15 13 0 6 5 4 11 -6 8 -13 8 -22 1 -29z m46 26 c-9 -9 -21 -13
-27 -10 -20 13 -11 26 16 26 25 0 26 -1 11 -16z m-218 -15 c34 -7 33 -8 -9 -6
-27 2 -46 8 -49 16 -3 9 0 11 9 5 7 -4 29 -11 49 -15z m487 -16 c-3 -10 -5 -4
-5 12 0 17 2 24 5 18 2 -7 2 -21 0 -30z m-194 -3 c3 -11 1 -20 -4 -20 -5 0 -9
9 -9 20 0 11 2 20 4 20 2 0 6 -9 9 -20z m-419 -25 c-5 -20 -9 -23 -15 -13 -12
18 -11 31 1 23 6 -3 10 2 10 11 0 10 2 15 5 12 4 -3 3 -18 -1 -33z m396 26 c0
-5 -7 -11 -14 -14 -10 -4 -13 -1 -9 9 6 15 23 19 23 5z m-267 -18 c-33 -17
-51 -13 -38 6 3 6 21 11 38 10 l32 0 -32 -16z m58 -8 c-1 -6 -4 -10 -8 -11 -5
0 -15 -3 -23 -7 -27 -10 -70 -18 -70 -12 0 8 83 44 93 42 5 -2 8 -7 8 -12z
m-164 -27 c-3 -7 -5 -2 -5 12 0 14 2 19 5 13 2 -7 2 -19 0 -25z m-3122 -18 c3
-5 -1 -10 -10 -10 -9 0 -13 5 -10 10 3 6 8 10 10 10 2 0 7 -4 10 -10z m3030 0
c3 -5 1 -10 -4 -10 -6 0 -11 5 -11 10 0 6 2 10 4 10 3 0 8 -4 11 -10z m180
-10 c3 -6 -1 -7 -9 -4 -18 7 -21 14 -7 14 6 0 13 -4 16 -10z m-3152 -35 c-5
-13 -23 -22 -23 -11 0 15 14 35 21 31 4 -3 6 -12 2 -20z m22 -54 c3 -5 1 -12
-5 -16 -5 -3 -10 1 -10 9 0 18 6 21 15 7z m3605 -65 c0 -11 -19 -15 -25 -6 -3
5 1 10 9 10 9 0 16 -2 16 -4z m-62 -33 c-2 -10 -7 -17 -11 -15 -4 1 -16 2 -27
2 -17 0 -19 2 -8 15 19 21 50 19 46 -2z m172 -81 c0 -10 -11 -29 -25 -42 -13
-12 -23 -26 -20 -29 2 -4 -28 -8 -66 -10 -81 -3 -98 13 -59 54 18 19 32 24 61
22 20 -2 45 3 55 10 26 19 54 16 54 -5z m21 -9 c-12 -20 -14 -14 -5 12 4 9 9
14 11 11 3 -2 0 -13 -6 -23z m-507 -8 c6 -18 -10 -29 -31 -21 -11 5 -13 10 -4
20 6 7 8 16 4 20 -4 4 0 4 9 1 9 -4 19 -13 22 -20z m-2879 5 c3 -5 -1 -10 -10
-10 -9 0 -13 5 -10 10 3 6 8 10 10 10 2 0 7 -4 10 -10z m-495 -19 c22 -41 -19
-69 -43 -29 -8 12 -7 21 2 32 18 21 28 20 41 -3z m1954 -19 c20 -38 23 -87 7
-106 -16 -19 -72 -21 -89 -4 -25 25 -6 91 37 126 22 18 29 15 45 -16z m-1444
-78 c14 -36 3 -171 -32 -374 -16 -96 -31 -191 -34 -210 -9 -52 -45 -119 -65
-117 -13 1 -16 9 -14 32 2 16 7 64 10 105 3 41 10 93 15 115 5 22 10 57 10 78
0 21 9 57 21 80 25 52 49 170 49 246 0 32 3 61 7 64 12 13 24 7 33 -19z m-430
-28 c0 -8 3 -21 6 -30 4 -11 1 -16 -11 -16 -10 0 -13 -4 -9 -12 6 -10 4 -10
-8 0 -16 13 -17 40 -3 62 9 15 25 12 25 -4z m-130 -86 c0 -5 -4 -10 -10 -10
-5 0 -10 5 -10 10 0 6 5 10 10 10 6 0 10 -4 10 -10z m65 -42 c5 -18 3 -28 -4
-28 -6 0 -11 11 -11 24 0 14 -4 28 -10 31 -5 3 -10 11 -10 18 0 20 28 -16 35
-45z m-65 -3 c0 -14 -4 -25 -10 -25 -5 0 -10 11 -10 25 0 14 5 25 10 25 6 0
10 -11 10 -25z m824 1 c-3 -8 -13 -12 -25 -9 -27 7 -24 23 6 23 17 0 23 -4 19
-14z m2833 -8 c-3 -8 -6 -5 -6 6 -1 11 2 17 5 13 3 -3 4 -12 1 -19z m-2921
-54 c-4 -39 -3 -61 6 -73 12 -14 11 -14 -4 -2 -14 10 -18 28 -18 72 0 37 4 59
11 59 8 0 10 -17 5 -56z m77 -33 c-2 -81 -7 -92 -27 -70 -22 21 -10 151 13
147 13 -3 16 -16 14 -77z m3077 -1 c-24 -15 -37 -11 -16 5 11 8 22 12 25 9 3
-3 -1 -9 -9 -14z m-3920 -19 c0 -11 -4 -23 -10 -26 -6 -4 -10 5 -10 19 0 14 5
26 10 26 6 0 10 -9 10 -19z m1520 -11 c0 -5 -10 -10 -22 -9 -22 0 -22 1 -3 9
11 5 21 9 23 9 1 1 2 -3 2 -9z m-147 -17 c-7 -2 -19 -2 -25 0 -7 3 -2 5 12 5
14 0 19 -2 13 -5z m2387 -3 c23 -7 22 -8 -10 -9 -19 0 -42 4 -50 9 -12 8 -10
10 10 9 14 -1 36 -5 50 -9z m-3715 -10 c9 -14 -13 -50 -30 -50 -15 0 -21 40
-8 53 10 10 31 8 38 -3z m702 -12 c-3 -8 -6 -5 -6 6 -1 11 2 17 5 13 3 -3 4
-12 1 -19z m693 12 c0 -5 -19 -10 -42 -9 -33 0 -38 2 -23 9 28 12 65 12 65 0z
m67 4 c-3 -3 -12 -4 -19 -1 -8 3 -5 6 6 6 11 1 17 -2 13 -5z m-674 -97 c12
-77 -10 -223 -31 -202 -13 12 -14 206 -2 220 19 23 27 18 33 -18z m410 26 c-7
-2 -19 -2 -25 0 -7 3 -2 5 12 5 14 0 19 -2 13 -5z m192 -7 c7 3 16 1 19 -5 8
-12 -59 -35 -79 -27 -8 3 -15 13 -15 22 0 9 6 14 13 11 8 -3 20 -1 28 4 8 5
15 5 17 -1 2 -5 9 -7 17 -4z m-160 -6 c4 -6 -7 -10 -27 -9 -31 1 -32 1 -8 9
14 4 26 8 27 9 1 1 5 -3 8 -9z m30 0 c3 -5 1 -10 -4 -10 -6 0 -11 5 -11 10 0
6 2 10 4 10 3 0 8 -4 11 -10z m-1342 -20 c3 -13 0 -20 -9 -20 -8 0 -14 9 -14
20 0 11 4 20 9 20 5 0 11 -9 14 -20z m804 -57 c-4 -38 -7 -101 -7 -140 0 -71
-1 -73 -25 -73 l-24 0 3 103 c3 103 23 177 47 177 9 0 10 -18 6 -67z m-837
-63 c0 -5 -7 -10 -15 -10 -8 0 -15 5 -15 10 0 6 7 10 15 10 8 0 15 -4 15 -10z
m20 -28 c0 -10 -6 -27 -14 -38 -14 -18 -15 -18 -21 -1 -5 11 -1 25 10 37 22
25 25 25 25 2z m2954 -13 c-8 -14 -24 -10 -24 6 0 9 6 12 15 9 8 -4 12 -10 9
-15z m-2893 -57 c-8 -15 -11 -14 -19 8 -7 17 -6 29 1 38 9 11 12 9 19 -8 4
-12 4 -29 -1 -38z m2943 33 c-4 -8 -8 -15 -10 -15 -2 0 -4 7 -4 15 0 8 4 15
10 15 5 0 7 -7 4 -15z m-27 -32 c-3 -10 -5 -4 -5 12 0 17 2 24 5 18 2 -7 2
-21 0 -30z m-17 -13 c0 -22 -4 -40 -9 -40 -12 0 -25 56 -16 70 13 22 25 8 25
-30z m-2999 7 c-13 -13 -26 -3 -16 12 3 6 11 8 17 5 6 -4 6 -10 -1 -17z m139
-24 c0 -6 -8 -9 -20 -6 -16 4 -18 9 -9 25 9 17 13 18 20 7 5 -8 9 -19 9 -26z
m765 27 c-3 -5 -11 -10 -16 -10 -6 0 -7 5 -4 10 3 6 11 10 16 10 6 0 7 -4 4
-10z m2063 -45 c0 -16 -2 -15 -8 5 -11 34 -11 60 0 35 5 -11 8 -29 8 -40z
m-2953 25 c-3 -5 -12 -10 -18 -10 -7 0 -6 4 3 10 19 12 23 12 15 0z m31 -38
c-10 -10 -29 15 -21 28 6 9 10 8 17 -4 6 -10 7 -20 4 -24z m154 18 c0 -5 -2
-10 -4 -10 -3 0 -8 5 -11 10 -3 6 -1 10 4 10 6 0 11 -4 11 -10z m-34 -27 c-10
-10 -19 5 -10 18 6 11 8 11 12 0 2 -7 1 -15 -2 -18z m673 -40 c-12 -66 -16
-74 -34 -67 -10 4 -15 19 -15 44 0 53 8 70 35 70 21 0 22 -2 14 -47z m69 26
c1 -8 -8 -27 -21 -43 l-24 -30 4 35 c3 19 6 40 9 47 5 17 28 10 32 -9z m-351
-5 c-3 -3 -12 -4 -19 -1 -8 3 -5 6 6 6 11 1 17 -2 13 -5z m-487 -39 c0 -8 -7
-15 -15 -15 -9 0 -12 6 -9 15 4 8 10 15 15 15 5 0 9 -7 9 -15z m21 -52 c12
-14 12 -16 0 -8 -11 6 -13 4 -8 -9 4 -10 -1 -28 -10 -43 -16 -23 -17 -24 -24
-7 -12 31 -10 52 7 68 19 20 19 20 35 -1z m705 -12 c-3 -5 3 -11 14 -14 28 -7
29 -82 1 -97 -11 -5 -21 -10 -23 -10 -2 0 -2 28 -1 62 3 75 2 68 9 68 3 0 3
-4 0 -9z m-265 -42 c8 -37 2 -48 -43 -80 -26 -19 -27 -19 -21 -2 3 10 10 23
14 29 5 6 9 26 10 45 2 19 4 38 7 42 9 17 27 -1 33 -34z m357 24 c-4 -22 -22
-20 -26 1 -2 10 3 16 13 16 10 0 15 -7 13 -17z m-688 -28 c0 -12 -19 -12 -23
0 -4 9 -1 12 9 8 7 -3 14 -7 14 -8z m166 -12 c-10 -10 -19 5 -10 18 6 11 8 11
12 0 2 -7 1 -15 -2 -18z m-306 -33 c0 -5 -2 -10 -4 -10 -3 0 -8 5 -11 10 -3 6
-1 10 4 10 6 0 11 -4 11 -10z m50 -20 c0 -11 -4 -20 -9 -20 -13 0 -32 26 -24
33 13 14 33 6 33 -13z m110 -35 c0 -10 11 -12 43 -8 23 3 39 3 35 -1 -3 -4 -2
-22 3 -39 15 -49 18 -109 6 -134 -7 -16 -6 -27 3 -38 7 -8 10 -18 6 -22 -3 -3
-6 0 -6 7 0 7 -3 10 -7 6 -8 -8 -9 -13 -12 -42 -2 -27 -46 -13 -49 16 -3 24
-14 55 -34 94 -5 10 -7 34 -3 55 5 32 2 38 -25 56 -33 22 -38 35 -15 35 8 0
15 6 15 14 0 15 20 26 33 19 4 -2 7 -10 7 -18z m50 9 c0 -2 -7 -4 -15 -4 -8 0
-15 4 -15 10 0 5 7 7 15 4 8 -4 15 -8 15 -10z m560 9 c-1 -20 -16 -31 -30 -22
-13 8 -13 10 0 19 18 12 30 13 30 3z m1974 -144 c-6 -11 -24 -2 -24 11 0 5 7
7 15 4 8 -4 12 -10 9 -15z m74 0 c-10 -7 -9 -9 4 -9 9 0 20 -5 24 -11 5 -8 -1
-10 -20 -7 -19 4 -26 2 -23 -7 6 -14 -9 -42 -18 -33 -3 3 0 22 9 41 8 19 11
38 8 42 -4 3 2 3 12 -1 14 -5 15 -9 4 -15z m-113 -18 c7 -12 -12 -24 -25 -16
-11 7 -4 25 10 25 5 0 11 -4 15 -9z m-130 -61 c3 -5 2 -10 -4 -10 -5 0 -13 5
-16 10 -3 6 -2 10 4 10 5 0 13 -4 16 -10z m-2402 -60 c3 -11 17 -24 31 -30 21
-8 26 -16 26 -45 0 -31 -3 -35 -26 -35 -15 0 -36 10 -49 24 -16 17 -30 23 -44
19 -27 -7 -27 11 -1 37 11 11 20 24 20 29 0 8 15 18 31 20 4 1 9 -8 12 -19z
m2611 -61 c-7 -12 -24 -11 -24 2 0 5 5 7 10 4 6 -3 10 -2 10 4 0 5 -5 13 -10
16 -6 4 -7 11 -4 17 5 7 11 3 16 -11 4 -13 6 -27 2 -32z m106 37 c0 -11 -19
-15 -25 -6 -3 5 1 10 9 10 9 0 16 -2 16 -4z m-52 -51 c-3 -3 -9 2 -12 12 -6
14 -5 15 5 6 7 -7 10 -15 7 -18z m68 0 c17 -13 17 -14 2 -15 -10 0 -18 6 -18
13 0 8 -4 7 -10 -3 -8 -13 -10 -12 -10 3 0 21 10 22 36 2z m-2389 -87 c-2 -13
-4 -3 -4 22 0 25 2 35 4 23 2 -13 2 -33 0 -45z m2433 33 c0 -5 -9 -7 -20 -4
-11 3 -20 7 -20 9 0 2 9 4 20 4 11 0 20 -4 20 -9z m25 -1 c3 -5 1 -10 -4 -10
-6 0 -11 5 -11 10 0 6 2 10 4 10 3 0 8 -4 11 -10z m-2725 -18 c0 -11 -11 -24
-25 -30 -29 -14 -31 -10 -9 23 19 30 34 32 34 7z m-140 -2 c0 -5 -4 -10 -10
-10 -5 0 -10 5 -10 10 0 6 5 10 10 10 6 0 10 -4 10 -10z m2687 4 c-3 -3 -12
-4 -19 -1 -8 3 -5 6 6 6 11 1 17 -2 13 -5z m70 0 c-3 -3 -12 -4 -19 -1 -8 3
-5 6 6 6 11 1 17 -2 13 -5z m-212 -14 c-3 -5 -12 -10 -18 -10 -7 0 -6 4 3 10
19 12 23 12 15 0z m32 -16 c-3 -3 -12 -4 -19 -1 -8 3 -5 6 6 6 11 1 17 -2 13
-5z"/>
<path d="M420 10 c0 -5 7 -10 15 -10 8 0 15 5 15 10 0 6 -7 10 -15 10 -8 0
-15 -4 -15 -10z"/>
</g>
</svg>
